<?xml version="1.0" encoding="utf-8"?>
<!-- Generator: Adobe Illustrator 19.0.0, SVG Export Plug-In . SVG Version: 6.00 Build 0)  -->
<svg version="1.1" id="Layer_1" xmlns="http://www.w3.org/2000/svg" xmlns:xlink="http://www.w3.org/1999/xlink" x="0px" y="0px"
	 viewBox="-193 -106 512 512" style="enable-background:new -193 -106 512 512;" xml:space="preserve">
<style type="text/css">
	.st0{fill:#FAD24D;}
	.st1{opacity:0;}
	.st2{fill:#FFFFFF;}
	.st3{fill:#FF8585;}
	.st4{fill:#FFE7E3;}
	.st5{fill:#BD0C0C;}
</style>
<circle class="st0" cx="63" cy="150" r="256"/>
<g transform="translate(-1323.898 -334.794)">
	<g class="st1">
		<rect x="1195.9" y="258.7" class="st2" width="405.5" height="474.6"/>
	</g>
	<path class="st3" d="M1445.3,457.9c-38.6-15.5-80.7,8.6-94,53.8c-9.4,31.9-2,67.3,18.8,90.6c-63.6-68.8-96.9-145.2-105.6-198.2
		c-3-17.5,0.9-35.6,10.6-49.3c1.6-2.2,3.3-4.2,5.3-6c17.7-17,43.7-14,58.3,6.7c0,0,0,0,0,0c0.2,0.3,0.4,0.5,0.6,0.8
		C1370.6,403.7,1394.7,435.2,1445.3,457.9z"/>
	<path class="st4" d="M1475.5,539.7c0.1,22-9.6,42.4-25.6,53.9c-0.3-0.4-0.6-0.7-0.8-1c-12.3-13.2-29.2-16.4-37.7-7.3
		c-3.6,4-5.4,9.8-4.7,15.6c-28.8-9.5-45.6-44.5-37.5-78.3c8.1-33.8,38.1-53.4,66.9-43.9C1459.4,486.3,1475.5,511.3,1475.5,539.7
		L1475.5,539.7z M1455.7,554.1c7.8-9.2,9.8-21.8,4.3-28s-16.2-4-24,5.2c-7.8,9.2-9.8,21.8-4.3,28
		C1437.2,565.5,1448,563.3,1455.7,554.1L1455.7,554.1z M1404.3,556.7c9-4.5,13.9-15.9,11.8-27c-1.6-12.5-9.3-20.8-17.3-18.4
		c-9,4.5-14,15.8-11.8,27C1388.6,550.8,1396.3,559,1404.3,556.7L1404.3,556.7z"/>
	<path class="st4" d="M1534.7,596.8c8.5,9.1,5.5,27.1-6.9,40.1c-12.3,13-29.2,16.4-37.7,7.3c-8.5-9-5.5-27.1,6.9-40.1
		C1509.3,591.1,1526.2,587.7,1534.7,596.8z"/>
	<path class="st4" d="M1460.1,613.4c1.8,6.9,0.2,14.3-4.2,19.3c-8.3,8.9-24.6,5.9-36.9-6.5c-0.3-0.3-0.5-0.6-0.8-0.9
		c-6.3-6.2-10.5-14.9-11.6-24.5c-0.6-5.8,1.1-11.6,4.7-15.6c8.5-9.1,25.3-5.8,37.7,7.3c0.3,0.3,0.6,0.7,0.8,1
		C1454.8,598.9,1458.4,605.8,1460.1,613.4z"/>
	<path class="st4" d="M1460,526c5.5,6.3,3.5,18.9-4.3,28c-7.8,9.2-18.5,11.5-24,5.2s-3.5-18.9,4.3-28
		C1443.9,522,1454.6,519.7,1460,526z"/>
	<path class="st4" d="M1416.1,529.6c2.2,11.2-2.8,22.5-11.8,27c-8,2.4-15.7-5.8-17.3-18.4c-2.2-11.2,2.8-22.6,11.8-27
		C1406.8,508.9,1414.5,517.1,1416.1,529.6z"/>
	<path class="st5" d="M1418.8,632.6c-19.2-0.6-37.5-9.4-51.6-24.7l7.5-9.4c12.1,13.2,27.9,20.8,44.4,21.3L1418.8,632.6z"/>
	<path class="st5" d="M1474.3,608.8l-7.3-9.6c28.1-29.6,30.4-80.2,5.1-113.1c-25.3-32.9-68.5-35.6-96.6-6
		c-28.1,29.6-30.4,80.2-5.1,113.1c1.1,1.5,2.3,3,3.6,4.3l-7.6,9.3c-1.4-1.6-2.8-3.3-4.2-5c-29.3-38.2-26.7-96.9,5.9-131.3
		c32.6-34.3,82.8-31.2,112.1,6.9C1509.5,515.7,1506.9,574.5,1474.3,608.8L1474.3,608.8z"/>
	<path class="st5" d="M1405.1,607c-31.7-10.5-50.2-49.1-41.2-86.2c9-37.1,41.9-58.7,73.7-48.3c31.7,10.5,50.2,49.1,41.2,86.2
		c-2.7,11-7.6,21.1-14.4,29.4l-7.9-8.9c18.6-22.7,18-58.8-1.4-80.6c-19.4-21.8-50.2-21.1-68.9,1.7c-18.6,22.7-18,58.8,1.4,80.6
		c5.8,6.5,12.8,11.2,20.5,13.7L1405.1,607z"/>
	<path class="st5" d="M1370.4,609.5c-1.1,0-2.1-0.4-2.9-1.2c-0.2-0.1-1-1.1-1.2-1.2c-56.5-61-96.6-136.5-107.3-201.7
		c-3.4-19.4,0.9-39.5,11.8-54.7c1.8-2.5,3.8-4.9,6-6.9l0.7-0.7c20.4-18.7,49.8-14.6,65.8,9.3c0,0,0,0,0,0
		c30.3,45.6,53.8,77.1,103.7,99.5c2.8,1.3,4.2,5,3.1,8.3c-1.1,3.3-4.2,4.9-7.1,3.7c-52.6-23.6-77.1-56.4-108.5-103.6
		c-12.2-18.2-34.8-21.4-50.4-7.1l-0.7,0.6c-1.6,1.5-3.1,3.2-4.4,5c-8.7,12.2-12.2,28.4-9.5,44c7.9,48.4,39.4,125,103.9,194.8
		c2.3,2.4,2.6,6.5,0.8,9.4C1373.6,608.5,1372.1,609.4,1370.4,609.5z"/>
	<path class="st5" d="M1326.9,515.9c-1.8,0-3.5-1-4.5-2.7c-12.4-20.8-23-43-31.6-66.2c-1.2-3.3,0.1-7,2.9-8.4c2.8-1.4,6,0.1,7.2,3.4
		c8.3,22.5,18.5,43.9,30.5,64c1.7,2.9,1.1,6.9-1.4,9C1329.1,515.6,1328,516,1326.9,515.9L1326.9,515.9z"/>
	<path class="st5" d="M1287.6,423.8c-2.4,0-4.6-1.9-5.3-4.6c-1.7-6.9-3-13-3.9-18.5c-0.6-3.5,1.4-6.9,4.4-7.5c3-0.7,5.9,1.6,6.4,5.1
		l0,0c0.8,5.1,2,10.8,3.7,17.4c0.8,3.4-0.8,6.9-3.7,7.9C1288.6,423.7,1288.1,423.8,1287.6,423.8z"/>
	<path class="st5" d="M1502.9,655.8c-6,0.2-11.9-2.2-16.4-6.8c-4.3-4.7-6.8-11.4-6.6-18.3c0.6-12.2,5.5-23.5,13.5-31.3
		c14.6-15.5,34.4-18.7,45.1-7.3l0,0c4.3,4.7,6.8,11.4,6.6,18.3c-0.6,12.2-5.5,23.5-13.5,31.3
		C1523.8,650.3,1513.6,655.3,1502.9,655.8z M1522.1,598.1c-8,0.5-15.6,4.4-21.4,10.9c-5.7,5.4-9.2,13.2-9.9,21.8
		c-0.1,3.3,1,6.5,3,8.8c6.4,6.8,20.3,3.4,30.3-7.3c5.7-5.4,9.3-13.3,9.9-21.8c0.1-3.3-1-6.5-3-8.8l0,0
		C1528.5,599.1,1525.3,597.9,1522.1,598.1z"/>
	<path class="st5" d="M1502.9,638.5c-3,0.1-5.6-2.7-5.7-6.2c-0.1-3.5,2.3-6.5,5.3-6.6l0,0c4.4-0.4,8.5-2.5,11.6-6.1
		c3-2.4,4.9-6.2,5.2-10.4c0.3-3.5,2.9-6.1,5.8-5.9c3,0.3,5.3,3.3,5.1,6.9c-0.4,7.7-3.8,14.7-9.1,19.2c-4.8,5.4-11.2,8.7-17.9,9.2
		L1502.9,638.5z"/>
	<path class="st5" d="M1443.1,644.3c-10.3-0.4-20.1-5-27.7-13.1l2.7-5.7l-3.5,4.9c-7.4-7.2-12.2-17.4-13.5-28.6l0,0
		c-0.9-7.8,1.5-15.7,6.4-21.1c10.8-11.5,30.6-8.2,45.2,7.3c0.5,0.5,1,1.1,1.4,1.7c5.6,6,9.5,13.7,11.3,22.3
		c2.3,9.1,0.1,18.9-5.7,25.5C1455.1,642.1,1449.2,644.5,1443.1,644.3z M1412,600c0.9,8,4.4,15.3,9.7,20.5l0.9,0.9
		c9.9,10.1,23.5,13.1,29.6,6.6c2.8-3.3,3.9-8.2,2.7-12.7c-1.4-6.5-4.4-12.4-8.6-16.9l-0.7-0.9c-10.3-10.9-24.1-14.3-30.5-7.5
		C1412.7,592.6,1411.6,596.3,1412,600z"/>
	<path class="st5" d="M1443.1,627h-0.4c-7-0.6-13.5-4.1-18.5-9.8c-5-4.5-8.1-11.3-8.4-18.6c-0.2-3.5,2.1-6.6,5.1-6.9
		c3-0.2,5.7,2.4,5.9,6c0.2,3.9,1.9,7.5,4.6,9.7c3.2,3.9,7.6,6.3,12.2,6.7c3,0.1,5.4,3.1,5.3,6.6
		C1448.8,624.3,1446.2,627.1,1443.1,627L1443.1,627L1443.1,627z"/>
	<path class="st5" d="M1439.8,569.2c-8.9,0.4-16.3-7.7-16.7-18c0-0.5,0-0.9,0-1.4c0.3-8.8,3.5-17.2,9-23.2
		c10.1-11.9,24.1-14.1,31.8-5.2c3.1,3.7,4.9,8.8,4.7,14C1467.5,553.5,1455.3,567.8,1439.8,569.2L1439.8,569.2z M1452,528.8
		c-9.4,1.3-16.7,10-17.8,20.9c-0.1,1.8,0.4,3.5,1.5,4.9l0,0c2.8,3.3,10.2,2,16.3-5.2c3.4-3.6,5.4-8.6,5.8-14
		c0.1-1.8-0.4-3.6-1.5-4.9C1455,529.3,1453.5,528.8,1452,528.8L1452,528.8z"/>
	<path class="st5" d="M1401.5,563.5c-3.4,0-6.8-1.2-9.6-3.5c-12.1-11-14.2-31.3-4.9-45.4c2.6-3.9,5.9-7,9.6-9.2
		c4.9-1.7,10.2-0.8,14.5,2.6c12.1,11,14.2,31.4,4.8,45.5c-2.6,3.8-5.8,7-9.5,9.1c-0.3,0.1-0.5,0.2-0.8,0.3
		C1404.3,563.3,1402.9,563.5,1401.5,563.5z M1404.3,556.7L1404.3,556.7z M1401.6,517.3c-0.5,0-1,0.1-1.4,0.2
		c-6.2,3.5-9.4,11.6-7.8,19.4c0.4,4.9,2.4,9.3,5.7,12.4c1.3,1.1,3,1.6,4.6,1.2c6.3-3.4,9.7-11.5,8.2-19.4c-0.3-4.9-2.4-9.4-5.7-12.4
		C1404,517.8,1402.8,517.3,1401.6,517.3L1401.6,517.3z"/>
	<path class="st5" d="M1401.5,546.2c-2.1,0-4-1.4-5-3.7c-2.2-5.3-2.2-11.4,0-16.7c1.3-3.2,4.5-4.7,7.3-3.2c2.8,1.5,4,5.3,2.7,8.5
		c0,0.1-0.1,0.1-0.1,0.2c-0.7,1.8-0.7,3.9,0,5.7c1.3,3.2,0.1,7-2.6,8.6C1403.2,546,1402.3,546.2,1401.5,546.2L1401.5,546.2z"/>
	<path class="st5" d="M1442.8,553.3c-3,0-5.5-2.8-5.5-6.4c0-3.1,1.9-5.7,4.4-6.3c1-0.2,1.8-1.1,2-2.3c0.8-3.4,3.8-5.4,6.8-4.5
		c2.8,0.9,4.5,4.1,3.9,7.4c-1.2,6.1-5.4,10.7-10.6,11.9C1443.5,553.2,1443.2,553.3,1442.8,553.3z"/>
</g>
</svg>
