<?xml version="1.0" encoding="utf-8"?>
<!-- Generator: Adobe Illustrator 19.0.0, SVG Export Plug-In . SVG Version: 6.00 Build 0)  -->
<svg version="1.1" id="Layer_1" xmlns="http://www.w3.org/2000/svg" xmlns:xlink="http://www.w3.org/1999/xlink" x="0px" y="0px"
	 viewBox="-193 -106 512 512" style="enable-background:new -193 -106 512 512;" xml:space="preserve">
<style type="text/css">
	.st0{fill:#FF5B62;}
	.st1{fill:#FED298;}
	.st2{fill:#E8B57F;}
	.st3{fill:#21D0C3;}
	.st4{fill:#FEFEFE;}
	.st5{fill:#03596D;}
	.st6{opacity:0.44;}
	.st7{fill:#21D0C3;stroke:#000000;stroke-width:4;stroke-miterlimit:10;}
	.st8{fill:#282828;}
</style>
<circle class="st0" cx="63" cy="150" r="256"/>
<path class="st1" d="M176.1,324l-19.9-85.5c0,0,68.2-65.7,60.6-149.8c-7.7-84.1-92.5-137-178.6-114.1c-86,23-100.3,91.9-100.7,103.2
	s10.2,40.2,2.5,60s-35.1,50.7-32.5,59.9c2.6,9.2,26.1,10.8,26.1,10.8s0.3,8.9-2.9,10.8c-3.1,1.9-1.4,9.3,3.8,13.5
	c5.2,4.1,13.7,6.9,13.7,6.9s-9.9,2.2-8.6,9.2c1.3,7,4.8,10.5,12.1,10.8s9.3-3.2,10.5,0.6c1.3,3.8,2.1,4.1,2.1,4.1s-7.3,19-0.9,33
	s16.3,14,27.7,11.2c11.6-2.6,33.9-9,33.9-9l6.1,31.1c6.4,45.3-24.4,68.5-25.1,69c18.1,4.1,37,6.2,56.3,6.2
	c57,0,109.7-18.6,152.2-50.2C210.5,353.9,177.6,325.5,176.1,324L176.1,324z"/>
<g>
	<path class="st2" d="M-33.8,301.6c6.4,10.1,15.3,9.8,25.6,7.2c11.5-2.9,33.8-9.2,33.8-9.2l6.1,31.1c2.2,15.5,0,28.3-3.8,38.6l0,0
		c21.3-30.4,5.6-53.7,8.4-65.2c2.8-11.5,47.4-22.5,56.8-29.6c9.4-7.2,16.1-27,16.1-27s-9.4,14.3-19.3,23.1S2.4,302.1-12.4,307.1
		C-26.5,311.9-33.1,302.6-33.8,301.6z"/>
	<path class="st2" d="M17.7-18.3c53.6-19.6,117.1-9,155.6,30.3c45.9,46.9,56.6,132.3-23.6,222.7l27,89.3l-19.9-85.5
		c0,0,68.2-65.7,60.6-149.8c-7.7-84.1-92.5-137-178.5-114.1C31.3-23.3,24.2-20.9,17.7-18.3L17.7-18.3z"/>
	<path class="st2" d="M70.2-2.7c3.9-2,8.2-3.1,12.7-3.1c5.4,0,10.6,1.5,15,4.3c2.6-0.6,5.3-0.9,7.9-0.9c7.8,0,15.2,2.4,21.5,6.8
		c0.4,0,0.8,0,1.2,0c11.4,0,21.2,6.7,25.7,16.4c10.9,2.7,19.3,11.8,21.1,23c8.9,6.2,14.4,16.5,14.4,27.7c0,4.8-1,9.5-3,13.9
		c0.4,2.3,0.6,4.7,0.6,7.1c0,17.9-11.9,33.3-28.5,37.9c-2.6,10.4-11,19.1-22.5,19.1c-1,0-1.9,0-2.7-0.1c0.2,1,0.3,2.1,0.3,3.5
		c0,11.5-9.3,21.1-21,21.1c-7.9,0-15.1-4.5-18.7-11.5l-16.9-27.8l-0.1-0.2c-0.3-0.5-0.8-1.4-1.3-2.3c-5.7,3.4-12.2,4.7-18.8,4.7
		c-15.8,0-29.5-9.2-36.2-22.6c-0.1,0-0.2,0-0.3,0c-15.2,0-28-10.3-32-24.3c-7.6-6.4-12.1-15.8-12.1-25.9C-23.5,50.2-15,38-2.8,33
		C-1.3,18.6,10.8,7,25.7,7c0.3,0,0.6,0,0.9,0C34-0.9,44.3-5.6,55.5-5.6C60.6-5.6,65.6-4.6,70.2-2.7L70.2-2.7z"/>
</g>
<path class="st3" d="M121.9,153c0,5-4,9-8.9,9c-3.5,0-6.6-2.1-8-5.2l0,0l-17-28.1c-3.1-5.6-7.6-13.6-17.6-7.1
	c-3.7,2.4-8.4,3.3-13.1,3.3c-14.1,0-25.9-10.6-28-24.4c-2.6,1.2-5.5,1.8-8.5,1.8c-10.9,0-19.9-8.4-21-19.3
	c-6.5-3.7-10.9-10.7-10.9-18.9c0-11.9,9.5-21.6,21.2-21.6H11c-1-2.1-1.5-4.5-1.5-7c0-9.2,7.3-16.6,16.3-16.6c2.1,0,4.2,0.4,6.1,1.2
	C36.6,12,45.4,6.5,55.5,6.5c5.8,0,11.2,1.9,15.7,5c2.9-3.2,7.1-5.2,11.8-5.2c4.9,0,9.4,2.3,12.3,5.8c3.2-1.5,6.8-2.3,10.6-2.3
	c7,0,13.3,2.9,17.9,7.5c1.5-0.5,3.1-0.7,4.8-0.7c8.8,0,15.9,7,16.3,15.8c0.9-0.1,1.8-0.2,2.7-0.2c8.9,0,16.1,7.3,16.1,16.4
	c0,0.9-0.1,1.8-0.2,2.6c8.3,2.9,14.2,11,14.2,20.4c0,4.6-1.4,8.8-3.7,12.3c0.9,2.7,1.4,5.7,1.4,8.8c0,15.1-12,27.3-26.8,27.3h-1
	c0,0.6,0.1,1.2,0.1,1.8c1,8.5-4.7,15.9-11.2,15.9c-6.1,0-7.2-4.2-11.9-1.8c-2.9,1.5-4.9,4.5-4.9,8
	C119.6,147.5,121.9,148.9,121.9,153L121.9,153z"/>
<g>
	<path class="st4" d="M123.4,153c0,2.9-1.2,5.5-3,7.4c-1.9,1.9-4.5,3.1-7.3,3.1c-2,0-3.9-0.6-5.5-1.6c-1.6-1.1-3-2.6-3.8-4.4l-17-28
		c-1.5-2.6-3.3-5.9-5.8-7.6c-2.3-1.6-5.3-1.8-9.7,1c-2,1.3-4.3,2.2-6.7,2.8c-2.3,0.5-4.8,0.8-7.3,0.8c-7.4,0-14.2-2.7-19.4-7.3
		c-4.8-4.2-8.3-10-9.8-16.5c-0.9,0.3-1.8,0.6-2.7,0.7c-1.5,0.3-3.1,0.5-4.6,0.5c-5.8,0-11.1-2.2-15.1-5.9c-3.9-3.6-6.6-8.5-7.3-14
		c-3.2-2-5.9-4.8-7.9-8.1c-2-3.4-3.1-7.4-3.1-11.7c0-6.4,2.5-12.1,6.6-16.3c3.8-3.9,9-6.4,14.7-6.7c-0.2-0.5-0.3-1.1-0.4-1.6
		C8,38.3,7.9,37,7.9,35.7c0-5,2-9.5,5.2-12.8s7.7-5.3,12.6-5.3c1.2,0,2.3,0.1,3.4,0.3c0.7,0.1,1.4,0.3,2.1,0.5
		c2.5-3.9,5.9-7.2,10-9.6C45.4,6.4,50.3,5,55.5,5c3,0,5.9,0.5,8.7,1.4c1.7,0.3,5.2,2.2,6.8,3.2c1.4-1.4,3.1-2.5,4.9-3.3
		c2.1-1,4.5-1.5,7-1.5c2.6,0,5.2,0.6,7.4,1.7c2,0.9,3.8,2.3,5.3,3.9c1.4-0.6,2.9-1.1,4.5-1.4c1.9-0.4,3.8-0.6,5.8-0.6
		c3.6,0,7.1,0.7,10.3,2.1c3,1.3,5.7,3.1,8.1,5.3c0.6-0.1,1.1-0.3,1.7-0.4c0.9-0.1,1.8-0.2,2.7-0.2c4.8,0,9.1,1.9,12.3,5
		c2.8,2.8,4.8,6.5,5.3,10.6c0.4,0,0.9-0.1,1.3-0.1c4.9,0,9.3,2,12.4,5.3c3.2,3.2,5.1,7.7,5.1,12.6c0,0.5,0,1-0.1,1.4v0.2
		c4,1.7,7.4,4.5,9.9,8c2.6,3.8,4.2,8.4,4.2,13.3c0,2.4-0.4,4.7-1,6.9c-0.6,2-1.5,3.9-2.6,5.6c0.4,1.2,0.7,2.5,0.9,3.9
		c0.2,1.5,0.4,3.1,0.4,4.7c0,7.9-3.2,15.1-8.3,20.3c-5,5.1-11.8,8.3-19.4,8.4v0.2c0.1,0.7,0.1,1.4,0.1,2c0,3.9-1.3,7.5-3.4,10.3
		c-2.1,2.8-5,4.7-8.3,5.1l-1.2,0.1c-3,0-4.9-0.9-6.5-1.7c-1.5-0.7-2.8-1.3-4.7-0.3c-1.2,0.6-2.3,1.6-3,2.8c-0.7,1.1-1.1,2.5-1.1,4
		s0.5,2.6,1,3.7C122.7,149,123.4,150.6,123.4,153L123.4,153z M118.2,158.4c1.3-1.4,2.2-3.3,2.2-5.3c0-1.8-0.5-3.1-1.1-4.3
		c-0.6-1.4-1.2-2.8-1.2-4.9c0-2,0.6-3.9,1.5-5.5c1-1.7,2.5-3,4.2-3.9c3.3-1.6,5.1-0.8,7.3,0.3c1.3,0.6,2.9,1.4,5.3,1.4
		c2.9,0,5.4-1.7,7.1-4c1.7-2.2,2.7-5.2,2.7-8.5c0-0.6,0-1.2-0.1-1.7c0-0.1,0-0.2,0-0.2c0-0.3,0-0.5,0-0.8c0-0.1-0.1-1,0-1l0,0
		c0-0.8,0.7-1.5,1.5-1.5h0.9c7.1-0.3,12.9-2.4,18-7.5c4.6-4.7,7.4-11.1,7.4-18.2c0-1.5-0.1-2.9-0.3-4.2c-0.2-1.4-0.6-2.8-1-4.1
		c0,0,0.1-1.2,0.2-1.3c1.1-1.6,2-3.5,2.6-5.4s0.9-3.9,0.9-6c0-4.3-1.3-8.4-3.6-11.6c-2.3-3.4-5.7-6-9.6-7.3l0,0
		c-0.7-0.2-1.1-0.9-1-1.6c0.1-0.4,0.1-0.8,0.1-1.2s0-0.8,0-1.2c0-4.1-1.6-7.9-4.3-10.6c-2.6-2.7-6.3-4.4-10.3-4.4
		c-0.4,0-0.8,0-1.2,0.1l0,0c-0.4,0-0.8,0.1-1.2,0.2l0,0c-0.1,0-0.1,0-0.2,0c-0.8,0-1.5-0.6-1.6-1.4c-0.2-4-1.9-7.6-4.6-10.2
		c-2.7-2.6-6.3-4.2-10.2-4.2c-0.8,0-1.5,0.1-2.2,0.2s-1.5,0.3-2.1,0.5l0,0c-0.5,0.2-1.1,0-1.5-0.4c-2.2-2.2-4.8-4-7.8-5.2
		c-2.8-1.2-5.9-1.8-9.1-1.8c-1.8,0-3.5,0.2-5.1,0.6c-1.7,0.4-3.3,0.9-4.9,1.7l0,0c-0.6,0.3-1.3,0.1-1.8-0.4c-1.4-1.7-3.1-3-5-3.9
		c-1.9-0.9-3.9-1.4-6.1-1.4c-2.1,0-4,0.4-5.8,1.2s-3.5,2-4.9,3.5l0,0c-0.5,0.5-1.3,0.6-2,0.2c-2.1-1.5-4.5-2.7-7.1-3.5l0,0
		c-2.4-1.3-5-1.7-7.7-1.7c-4.7,0-9.1,1.3-12.9,3.5c-3.9,2.3-7.2,5.6-9.5,9.6l0,0c-0.4,0.6-1.2,0.9-1.9,0.6c-0.9-0.3-1.8-0.6-2.7-0.8
		c-0.9-0.2-1.8-0.3-2.8-0.3c-4.1,0-7.8,1.7-10.5,4.4s-4.3,6.5-4.3,10.7c0,1.1,0.1,2.2,0.3,3.3s0.6,2.1,1,3.1l0.1,0.6
		c0,0.8-0.7,1.5-1.5,1.5h-0.7H10c-5.4,0-10.3,2.2-13.9,5.9c-3.6,3.6-5.8,8.7-5.8,14.2c0,3.7,1,7.2,2.7,10.2c1.8,3.1,4.3,5.6,7.4,7.4
		c0.4,0.2,0.7,0.7,0.8,1.2c0.5,5.1,2.9,9.6,6.4,12.8c3.5,3.2,8.1,5.1,13.1,5.1c1.4,0,2.7-0.1,4-0.4s2.5-0.7,3.7-1.2
		c0.1-0.1,0.3-0.1,0.5-0.2c0.8-0.1,1.6,0.4,1.7,1.3c1,6.6,4.3,12.4,9.1,16.6c4.7,4.1,10.8,6.5,17.4,6.5c2.3,0,4.5-0.2,6.6-0.7
		s4-1.2,5.7-2.3c5.6-3.6,9.8-3.1,13-0.9c3,2.1,5,5.6,6.7,8.6l0,0l17,28c0.1,0.1,0.1,0.2,0.1,0.2c0.6,1.3,1.6,2.4,2.7,3.1
		c1.1,0.7,2.5,1.2,3.9,1.2C115.1,160.6,116.9,159.7,118.2,158.4L118.2,158.4z"/>
	<path class="st4" d="M172,83.2c0.6-0.6,1.6-0.5,2.1,0.1c0.6,0.6,0.5,1.6-0.1,2.1c-1.7,1.5-3.7,2.8-5.8,3.6
		c-2.1,0.8-4.4,1.3-6.7,1.3c-5.2,0-10-2.2-13.4-5.7c-2.6-2.7-4.5-6.1-5.2-9.9c-0.2,0.2-0.3,0.3-0.5,0.5c-3.1,3.2-7.5,5.2-12.3,5.2
		l0,0c-1.8,0-3.5-0.3-5.1-0.8c-1.7-0.5-3.2-1.3-4.7-2.3c-0.7-0.5-0.8-1.4-0.4-2.1c0.5-0.7,1.4-0.8,2.1-0.4c1.2,0.8,2.5,1.5,3.8,1.9
		s2.8,0.6,4.2,0.6l0,0c4,0,7.6-1.6,10.2-4.3c2.6-2.7,4.2-6.3,4.2-10.4c0-0.8,0.7-1.5,1.5-1.5s1.5,0.7,1.5,1.5c0,2.9-0.7,5.7-2,8.2
		V71c0,4.5,1.8,8.6,4.7,11.5s6.9,4.8,11.3,4.8c2,0,3.9-0.4,5.6-1C168.9,85.5,170.5,84.4,172,83.2L172,83.2z M2.7,87.7
		c0.5,0.7,0.3,1.6-0.4,2.1s-1.6,0.3-2.1-0.4C-2,86.1-2.7,82.3-2,78.7c0.7-3.6,2.7-6.9,5.9-9.2C4.6,69,5.5,69.2,6,69.9
		s0.3,1.6-0.4,2.1c-2.5,1.8-4.1,4.4-4.7,7.3C0.4,82.1,0.9,85.2,2.7,87.7L2.7,87.7z M143.8,132.3c0.6-0.6,1.6-0.5,2.1,0.1
		c0.6,0.6,0.5,1.6-0.1,2.1c-1.4,1.3-3,2.3-4.8,3c-1.7,0.7-3.6,1-5.6,1c-4.3,0-8.3-1.8-11.1-4.7c-2.8-2.9-4.6-6.9-4.6-11.3
		c0-0.8,0.7-1.5,1.5-1.5s1.5,0.7,1.5,1.5c0,3.6,1.4,6.8,3.7,9.2c2.3,2.3,5.5,3.8,9,3.8c1.6,0,3.1-0.3,4.5-0.8
		C141.3,134.1,142.7,133.3,143.8,132.3L143.8,132.3z M132.9,97.4c0.5-0.6,1.5-0.7,2.1-0.2c0.3,0.2,0.4,0.5,0.5,0.9l0.1-0.5
		c0.1-0.8,0.9-1.4,1.7-1.3s1.4,0.9,1.3,1.7c-0.6,4.5,0.7,8.7,3.2,12s6.2,5.6,10.6,6.2c2,0.3,3.9,0.1,5.7-0.3
		c1.9-0.5,3.7-1.3,5.3-2.4c0.7-0.5,1.6-0.3,2.1,0.4c0.5,0.7,0.3,1.6-0.4,2.1c-1.9,1.3-4,2.3-6.3,2.8c-2.2,0.5-4.5,0.7-6.8,0.4
		c-5.2-0.7-9.6-3.5-12.6-7.4c-2.7-3.6-4.2-8.1-3.9-12.9c-0.1,0.1-0.1,0.3-0.2,0.4c-1.6,1.9-3.5,3.6-5.7,4.8c-2.1,1.2-4.5,2-7.1,2.4
		c-3.5,0.5-6.9,0.1-10.1-1.1s-6.1-3.2-8.4-5.8c-0.5-0.6-0.5-1.6,0.2-2.1c0.6-0.5,1.6-0.5,2.1,0.2c1.9,2.2,4.4,4,7.2,5
		c2.7,1,5.6,1.4,8.6,0.9c2.2-0.3,4.2-1,6-2.1C129.8,100.4,131.5,99,132.9,97.4L132.9,97.4z M85.7,62.5c-0.4-0.7-0.2-1.6,0.5-2.1
		c0.7-0.4,1.6-0.2,2.1,0.5l0.2,0.4c0.2-0.3,0.5-0.5,0.8-0.6c2.9-0.9,5.2-3,6.5-5.6s1.7-5.7,0.7-8.7c-0.4-1.3-1.1-2.6-1.9-3.6
		c-0.9-1.1-1.9-2-3-2.7c-0.7-0.4-0.9-1.3-0.5-2s1.3-0.9,2-0.5c1.5,0.9,2.8,2,3.8,3.4c0.5,0.6,0.9,1.3,1.3,2c0.5-1.1,1.1-2.1,1.9-3.1
		c2.3-2.9,5.6-4.8,9.5-5.3c1.7-0.2,3.5-0.1,5.1,0.4c1.7,0.4,3.2,1.2,4.6,2.2c0.7,0.5,0.8,1.4,0.3,2.1c-0.5,0.7-1.4,0.8-2.1,0.3
		c-1.1-0.8-2.3-1.4-3.6-1.7c-1.3-0.3-2.6-0.4-4-0.3c-3,0.3-5.7,1.9-7.4,4.2c-1.8,2.3-2.7,5.2-2.4,8.3c0,0.2,0,0.5-0.1,0.7
		c-0.1,2-0.7,3.9-1.5,5.7c-1.7,3.3-4.5,5.9-8.2,7.1c-0.2,0.1-0.4,0.1-0.6,0.1c0.5,1.2,0.9,2.4,1.1,3.6c0.4,2.2,0.5,4.4,0.2,6.8v0.1
		l0,0l0,0c-0.8,5.1-3.6,9.3-7.4,12.1c-3.8,2.8-8.6,4.2-13.6,3.4l0,0h-0.1c-0.8-0.1-1.4-0.9-1.3-1.7s0.9-1.4,1.7-1.3h0.1l0,0l0,0
		c4.2,0.7,8.2-0.5,11.4-2.8C85,81.5,87.3,78,88,73.7l0,0v-0.1c0.3-2,0.2-3.9-0.1-5.7C87.4,65.9,86.7,64.1,85.7,62.5L85.7,62.5z
		 M59.4,56.1c0-0.8,0.7-1.5,1.5-1.5s1.5,0.7,1.5,1.5c0,2.3-0.4,4.6-1.3,6.8c-0.8,2.1-2,4.2-3.6,5.9l0,0L57.2,69v0.1
		c-3.5,3.7-8.1,5.7-12.8,6c-2.2,0.1-4.5-0.2-6.6-0.9c0.7,1.4,1.2,2.9,1.6,4.4c0.6,2.3,0.7,4.8,0.4,7.3V86v0.1
		c-0.7,5.4-3.5,10.1-7.5,13.2c-4,3.2-9.2,4.8-14.6,4.1l0,0l0,0c-0.8-0.1-1.4-0.8-1.3-1.7c0.1-0.8,0.8-1.4,1.7-1.3l0,0h0.1
		c4.6,0.6,9-0.8,12.4-3.5s5.8-6.7,6.4-11.3v-0.1v-0.1c0.3-2.1,0.1-4.2-0.3-6.2c-0.5-2.1-1.3-4-2.5-5.7c-0.3-0.4-0.3-0.8-0.2-1.2
		c-0.9-0.6-2-1.3-2.8-2.1L31,70c-0.6-0.6-0.7-1.5-0.1-2.1s1.5-0.7,2.1-0.1l0.2,0.2l0,0c3.2,2.9,7.3,4.2,11.2,4c4-0.2,7.8-1.9,10.8-5
		l0,0l0.2-0.2l0,0c1.4-1.5,2.4-3.2,3.1-5C59,59.9,59.4,58,59.4,56.1L59.4,56.1z"/>
</g>
<path class="st5" d="M141.4,99.1c0-2.3-1-4.5-2.8-6.1l-4.1-3.6c2-3.2,3.5-6.5,4.6-10h5.8c5.7-0.2,10.2-4.5,10-9.6v-6.1
	c0.2-5.1-4.3-9.4-10-9.6h-4.2c0.4,1.1,0.6,2.2,0.6,3.3c0,1.2-0.1,2.4-0.2,3.7h3.8c1.2,0,2.3,1.2,2.3,2.7v6.1c0,1.5-1,2.7-2.3,2.7
	h-6.5c-2.6,6.5-7,12.4-12.6,17.2c-0.1,1,0.3,2,1.1,2.7l6.2,5.6c0.3,0.3,0.5,0.8,0.5,1.2c0,0.8-0.4,1.6-1.1,2.1l-4.9,4.4
	c-0.9,1-2.5,1.2-3.7,0.5l-6.2-5.5c-1.3-1.1-3.3-1.3-4.8-0.5c-4.4,2.5-9.3,4.3-14.4,5.3c-1.8,0.3-3.1,1.8-3.1,3.4v7.9
	c0,1.1-1.4,2-3,2h-6.9c-1.6,0-3.1-0.9-3.1-2V109c0-1.6-1.3-3.1-3.1-3.4c-5.1-1-10-2.8-14.4-5.3c-1.5-0.9-3.5-0.7-4.8,0.5l-6.2,5.6
	c-1.2,0.7-2.8,0.5-3.7-0.5l-4.9-4.4c-1.1-0.8-1.4-2.3-0.6-3.3l6.2-5.6c1.3-1.1,1.5-2.9,0.5-4.3c-2.8-3.9-4.9-8.3-6-12.9
	c-0.4-1.6-2-2.7-3.8-2.7h-8.8c-1.2,0-2.3-1.2-2.3-2.7v-6.1c0-1.5,1-2.7,2.3-2.7h8.8c1.8,0,3.4-1.1,3.8-2.7c1.1-4.6,3.1-8.9,6-12.9
	c1-1.4,0.8-3.2-0.5-4.3l-6.2-5.5c-0.8-1.1-0.6-2.5,0.5-3.3l4.9-4.3c0.9-1,2.5-1.2,3.7-0.5l6.2,5.6c1.3,1.1,3.3,1.3,4.8,0.5
	c4.4-2.5,9.3-4.3,14.4-5.3c1.8-0.3,3.1-1.8,3.1-3.4v-7.7c0-1.1,1.4-2,3.1-2h6.9c1.6,0,3.1,0.9,3.1,2v7.8c0,1.6,1.3,3.1,3.1,3.4
	c5.1,1,10,2.8,14.4,5.3c1.5,0.9,3.6,0.7,4.8-0.5l6.2-5.6c1.2-0.7,2.8-0.5,3.7,0.5l4.9,4.3c0.6,0.6,1,1.3,1.1,2.1
	c0,0.5-0.2,0.9-0.5,1.2L127,41c-1.3,1.2-1.5,2.9-0.5,4.3c0.4,0.6,0.8,1.2,1.1,1.7c3.6-0.6,7.2,0.3,9.9,2.4c-0.8-1.9-1.8-3.7-2.9-5.5
	l4.1-3.6c1.8-1.6,2.8-3.8,2.8-6.1c0-2.6-1.2-5.2-3.3-7l-4.9-4.3c-3.9-3.7-10.5-4-14.7-0.5l-4.1,3.7c-3.5-1.8-7.3-3.2-11.2-4.1v-5.1
	c-0.2-5.1-5.1-9.1-10.8-8.9h-6.9c-5.7-0.2-10.6,3.8-10.8,8.9V22c-3.9,1-7.7,2.4-11.2,4.1l-4.1-3.7c-4.2-3.5-10.8-3.3-14.7,0.5
	l-4.9,4.4c-4.2,3.5-4.4,9.4-0.5,13.1l4.1,3.6c-2,3.2-3.5,6.5-4.6,10H33c-5.7,0.2-10.2,4.5-10,9.6v6.1c-0.2,5.1,4.3,9.4,10,9.6h5.8
	c1.1,3.5,2.7,6.8,4.6,10L39.3,93c-3.9,3.8-3.6,9.6,0.6,13.1l4.9,4.4c3.9,3.7,10.5,3.9,14.7,0.5l4.1-3.6c3.6,1.6,7.4,3,11.2,4.1v5.1
	c0.2,5.1,5.1,9.1,10.8,8.9h6.9c5.7,0.2,10.6-3.8,10.8-8.9v-5.1c3.9-1,7.7-2.4,11.2-4.1l4.1,3.6c4.2,3.5,10.8,3.3,14.7-0.5l4.9-4.4
	C140.2,104.3,141.4,101.8,141.4,99.1z"/>
<path class="st5" d="M86.4,59.1c1.6-0.1,2.8-1.7,2.8-3.6c-0.1-1.8-1.3-3.3-2.8-3.3c-5.6,0.1-10.1,5.6-10.1,12.4
	c-0.1,8,5.2,14.5,11.9,14.6c7.9-0.1,14.2-7.9,14.1-17.4l0,0l0,0c0.1-11.4-7.5-20.7-16.9-20.8l0,0C74,41.1,64.9,52.3,65,66.1
	c-0.2,16.7,10.9,30.4,24.8,30.6c16.9-0.3,30.5-17,30.3-37.4c0-1.9-1.3-3.5-2.9-3.5s-2.9,1.6-2.9,3.5c0.2,16.5-10.8,30.1-24.5,30.4
	c-10.7-0.2-19.2-10.8-19-23.6c-0.1-9.9,6.4-18,14.6-18.2c6.2,0.1,11.2,6.3,11.1,13.9c0.1,5.6-3.6,10.3-8.3,10.4
	c-3.4-0.1-6.1-3.5-6.1-7.6C82.1,61.6,84,59.2,86.4,59.1z"/>
<g class="st6">
	<path class="st7" d="M50.6,61.1c16.1-28,51-44.2,77.9-36.1c26.9,8,35.6,37.3,19.4,65.3c-16.1,28-51,44.2-77.9,36.1
		C43.1,118.4,34.4,89.1,50.6,61.1L50.6,61.1L50.6,61.1L50.6,61.1z"/>
	<path class="st7" d="M149.5,86.5l10.9,3.3l-4.2,7.3l-10.9-3.3c0.7-1.2,1.4-2.4,2.1-3.6C148.2,88.9,148.9,87.7,149.5,86.5
		L149.5,86.5L149.5,86.5z"/>
</g>
<path class="st8" d="M260.2,133.2l9.6-16.7c1.3-2.3,0.6-4.8-1.7-5.5l-98.3-29.4c-2.3-0.7-5.3,0.7-6.6,3l-9.6,16.7
	c-1.3,2.3-0.6,4.8,1.7,5.5l98.3,29.4C255.8,136.9,258.8,135.5,260.2,133.2z"/>
</svg>
