<?xml version="1.0" encoding="utf-8"?>
<!-- Generator: Adobe Illustrator 19.0.0, SVG Export Plug-In . SVG Version: 6.00 Build 0)  -->
<svg version="1.1" id="Layer_1" xmlns="http://www.w3.org/2000/svg" xmlns:xlink="http://www.w3.org/1999/xlink" x="0px" y="0px"
	 viewBox="-193 -106 512 512" style="enable-background:new -193 -106 512 512;" xml:space="preserve">
<style type="text/css">
	.st0{fill:#FAD24D;}
	.st1{fill:#2B2309;}
</style>
<circle class="st0" cx="63" cy="150" r="256"/>
<g>
	<path class="st1" d="M-71.3,273.8c0,1.9,1.8,3.5,4.1,3.5h241.7c2.3,0,4.1-1.6,4.1-3.5s-1.8-3.5-4.1-3.5H-67.2
		C-69.5,270.3-71.3,271.9-71.3,273.8z"/>
	<path class="st1" d="M174.5,283.1H-67.2c-2.3,0-4.1,1.6-4.1,3.5s1.8,3.5,4.1,3.5h241.7c2.3,0,4.1-1.6,4.1-3.5
		S176.7,283.1,174.5,283.1z"/>
	<path class="st1" d="M214.4-19.6H-70.3c-20.4,0-37.1,14-37.1,31.3v267.9c0,29.6,24.1,40,44.8,40h276.9c2.3,0,4.1-1.6,4.1-3.5V-16.2
		C218.5-18.1,216.7-19.6,214.4-19.6z M-62.5,312.7c-6.1,0-36.6-1.6-36.6-33.1V11.7c0-13.4,12.9-24.4,28.9-24.4h3.7V204
		c0,1.9,1.8,3.5,4.1,3.5s4.1-1.6,4.1-3.5V-12.7h268.7v253.9H-58.4v-10.7c0-1.9-1.8-3.5-4.1-3.5s-4.1,1.6-4.1,3.5v10.7H-68
		c-6.3,0-13.4,2.2-20,6.2c-1.8,1.1-2.3,3.3-1,4.8c0.8,1,2.1,1.5,3.4,1.5c0.8,0,1.6-0.2,2.4-0.6c5.3-3.2,10.7-4.9,15.3-4.9h278.3v7.2
		h-17.1h-17.6H-61.1c-15.8,0-28.7,10.9-28.7,24.2c0,13.4,12.9,24.2,28.7,24.2h254.3c2.3,0,4.1-1.6,4.1-3.5v-38h13v50.4L-62.5,312.7
		L-62.5,312.7z M175.6,262.3h13.5v34.6H-61.1c-11.3,0-20.5-7.8-20.5-17.3c0-9.5,9.2-17.3,20.5-17.3H175.6z"/>
	<path class="st1" d="M27.5,66.7h5.7c0.3,0,1.2,0.8,1.3,2.2l0.2,1.7c1.6,18,3.2,35.1,26.3,37v26.2h-5.9c-2.3,0-4.1,1.6-4.1,3.5
		s1.8,3.5,4.1,3.5h20.1c2.3,0,4.1-1.6,4.1-3.5s-1.8-3.5-4.1-3.5h-6v-26.1c24-1.5,25.6-18.6,27.2-36.7l0.2-2c0.1-1.4,1-2.2,1.3-2.2
		h5.7c2.3,0,4.1-1.6,4.1-3.5c0-1.9-1.8-3.5-4.1-3.5h-5.7c-5,0-9.1,3.7-9.5,8.6l-0.2,2c-1.7,19.2-3.4,29.1-19,30.3v-34h6
		c2.3,0,4.1-1.6,4.1-3.5s-1.8-3.5-4.1-3.5h-9.5c-0.2,0-0.4,0-0.6,0c-0.2,0-0.4,0-0.6,0h-9.4c-2.3,0-4.1,1.6-4.1,3.5s1.8,3.5,4.1,3.5
		H61v33.9c-14.7-1.6-16.3-11.6-18.1-30.6l-0.2-1.7c-0.4-4.9-4.5-8.6-9.5-8.6h-5.7c-2.3,0-4.1,1.6-4.1,3.5
		C23.4,65.2,25.2,66.7,27.5,66.7z"/>
	<path class="st1" d="M1.4,205.4c0,1.9,1.8,3.5,4.1,3.5h79.4c1.2,0,2.3-0.4,3.1-1.2c0.8-0.8,1.1-1.8,0.9-2.8l-6.7-37.1h50.9
		c9.1,0,16.4-6.2,16.4-13.9v-27.7H168c1.4,0,2.8-0.6,3.5-1.7c0.7-1.1,0.8-2.4,0.1-3.4l-20.8-32.3c-3.6-37.7-41.2-66.9-86.1-66.9
		c-0.3,0-0.7,0-1,0c-47,0.4-85.3,33.1-85.4,72.7c-0.1,18.6,8.1,36.2,23,49.8L1.4,205.4L1.4,205.4z M63.8,28.8c0.3,0,0.6,0,0.9,0
		c40.9,0,75.1,26.8,78,61.3c0.1,0.6,0.3,1.1,0.6,1.6l17.7,27.6h-15.7c-2.3,0-4.1,1.6-4.1,3.5v31.2c0,3.8-3.7,6.9-8.2,6.9H64.7
		c-11.1,0-21.8-1.9-31.9-5.7c-2.1-0.8-4.5,0-5.4,1.7c-0.9,1.7,0,3.8,2.1,4.6c11.1,4.2,23,6.3,35.2,6.3h9.1l6.2,34.2H9.6V143
		c0-0.1,0-0.3,0-0.4c0-0.1,0-0.2,0-0.2c0-0.2-0.1-0.3-0.1-0.4c0-0.1,0-0.1-0.1-0.2c-0.1-0.2-0.2-0.3-0.3-0.4c0-0.1-0.1-0.1-0.1-0.2
		c-0.1-0.2-0.3-0.3-0.4-0.5c0,0,0,0-0.1-0.1c0,0,0,0,0,0c0,0,0,0,0,0c-14.1-12.4-21.9-28.7-21.8-45.9
		C-13.3,58.8,21.3,29.2,63.8,28.8z"/>
</g>
</svg>
