<?xml version="1.0" encoding="utf-8"?>
<!-- Generator: Adobe Illustrator 19.0.0, SVG Export Plug-In . SVG Version: 6.00 Build 0)  -->
<svg version="1.1" id="Layer_1" xmlns="http://www.w3.org/2000/svg" xmlns:xlink="http://www.w3.org/1999/xlink" x="0px" y="0px"
	 viewBox="-139 51 512 512" style="enable-background:new -139 51 512 512;" xml:space="preserve">
<style type="text/css">
	.st0{fill:#FAD24D;}
	.st1{fill:#EDB937;}
	.st2{fill:#FFB8AE;}
	.st3{fill:#201D35;}
	.st4{fill:#2D2A49;}
	.st5{fill:#F9A49B;}
	.st6{fill:#EA918B;}
	.st7{fill:#CC553E;}
	.st8{fill:#FFFFFF;}
	.st9{fill:#FF6489;}
	.st10{fill:#00AAD8;}
	.st11{fill:#969595;}
	.st12{fill:#AAAAAA;}
	.st13{fill:#6D6969;}
</style>
<ellipse class="st0" cx="117" cy="308.5" rx="256" ry="256"/>
<ellipse class="st1" cx="117" cy="494.9" rx="120.5" ry="9.8"/>
<path class="st2" d="M207.1,259.2c-2,3.8-4.4,7.4-7.6,10.2c-2.5,2.1-5.5,3.8-8.6,4.5c-1.7,10.3-4.7,20.4-8.7,30
	c-3,7.3-6.6,14.4-11.4,20.7c-2.9,3.8-6.2,7.3-9.7,10.4c-1.1,6.6-2.9,20.2-1.7,29.4c1,8.2,4.5,18.8,9.6,26.9c-0.3,0.7-2,5.1-6.3,10.2
	c-6.9,8.4-20.5,18.9-44.8,18.9S80,409.9,73,401.5c-4.3-5.2-6.1-9.6-6.3-10.2c0,0,0,0,0,0c4.7-7.5,8-17.1,9.3-25
	c0.1-0.6,0.2-1.3,0.3-1.9c1.2-9.2-0.7-22.8-1.7-29.4c-3.6-3.2-6.9-6.6-9.7-10.4c-4.8-6.3-8.3-13.4-11.4-20.7c-4-9.6-7.1-19.7-8.7-30
	c-3.2-0.7-6.2-2.4-8.6-4.5c-3.2-2.8-5.7-6.4-7.6-10.2c-3.9-7.5-5.9-16-4.9-24.4c0.2-1.6,0.6-3.3,1.2-4.9c0.9-2.1,2.3-4,4.3-5
	c0.9-0.4,1.9-0.7,3-0.7c0.5,0,1,0,1.5,0.1c1.3,0.2,2.5,0.6,3.7,1.1c0.7-9.1,6.3-17.4,13.5-23c7.6-5.8,16.8-9,26-11.2
	c9.3-2.2,18.7-3.6,27.9-6.2c14.9-4.3,28.8-12.1,40.3-22.5c4.5-4.1,8.7-8.7,11.4-14.2c0.5-1.1,1-2.2,1.3-3.4
	c8,4.8,14.8,11.6,20.2,19.3c6,8.4,10.3,17.9,14,27.6c4.1,10.8,7.2,22.5,5.9,33.9c2-1.1,4.4-1.7,6.6-1.3c0.7,0.1,1.3,0.3,1.9,0.6
	c3.6,1.7,5.1,6,5.6,9.9C213.1,243.2,211,251.7,207.1,259.2"/>
<path class="st3" d="M204.5,224.3c-2.2-0.4-4.6,0.2-6.6,1.3c1.4-11.4-1.8-23.1-5.9-33.9c-3.6-9.7-8-19.1-14-27.6
	c-5.4-7.7-12.2-14.5-20.2-19.3c-0.4,1.2-0.8,2.3-1.3,3.4c-2.6,5.5-6.8,10.1-11.4,14.2c-11.5,10.4-25.4,18.1-40.3,22.5
	c-9.1,2.7-18.6,4-27.9,6.2c-9.3,2.2-18.5,5.4-26,11.2c-7.3,5.6-12.9,13.9-13.5,23c-1.2-0.6-2.4-1-3.7-1.1c-0.5-0.1-1-0.1-1.5-0.1
	c-1,0-2,0.3-3,0.7c-2.1,1-3.5,2.9-4.3,5c-6.8-23-3.4-48.2,4.2-71c3.3-9.8,7.4-19.5,13.4-27.9c14.5-20.5,39-32.2,63.9-36.1
	c9.4-1.5,19.1-2,28.4-0.1c8.8,1.8,17.3,5.9,23.4,12.5c4.2-3.4,10.7-3.1,15.5-0.4c5,2.8,8.5,7.6,11.4,12.5
	c15.1,25.2,19,55.5,20.1,84.8C205.3,210.8,205.4,217.6,204.5,224.3"/>
<path class="st4" d="M153.7,116.9c0.3,10.5-4.9,20.7-12.5,27.9c-7.6,7.2-17.4,11.8-27.5,14.8c-10.1,3-20.5,4.6-30.8,6.5
	c-6,1.1-11.9,2.4-17.6,4.7c-10.6,4.4-19.7,12.4-25.3,22.4c-5.3,9.3-7.5,20.3-6.3,31c-0.5-0.1-1-0.1-1.5-0.1c-5.8-14-5-30.6,1.5-44.3
	c7-14.7,20.3-26.2,35.6-31.8c22.6-8.3,48.8-4.7,70-16c6.3-3.4,12.2-8.4,14.2-15.2H153.7z"/>
<path class="st5" d="M90.1,278.2c3.2,11.2-2.6,22.6-13,25.6c-10.4,2.9-21.3-3.7-24.5-14.9c-3.2-11.2,2.6-22.6,13-25.6
	C76,260.3,86.9,267,90.1,278.2"/>
<path class="st5" d="M171.4,263.3c10.4,2.9,16.2,14.4,13,25.6c-3.2,11.2-14.1,17.8-24.5,14.9c-10.4-2.9-16.2-14.4-13-25.6
	C150.1,267,161.1,260.3,171.4,263.3"/>
<path class="st5" d="M122.3,268.2c2.2,5.9,11.2,24.5-4.4,25.9c-15.7-1.4-6.7-20-4.5-25.9c1.2-3.2,3.1-4.5,4.5-5
	C119.2,263.7,121.1,265,122.3,268.2"/>
<path class="st6" d="M117.8,356c13.5-1.3,26.2-7.7,37.1-15.9c2.1-1.6,4.2-3.3,6.2-5.1c-22,46.1-85,31.3-85,31.3
	c0.1-0.6,0.2-1.3,0.3-1.9c1.2-9.2-0.7-22.8-1.7-29.4c2,1.8,4,3.5,6.2,5.1C91.6,348.2,104.4,354.6,117.8,356"/>
<path class="st7" d="M133.5,287.8c-1.4-0.1-2.9,0.3-3.8,1.1c-0.5,0.4-0.9,1-1.4,1.5c-0.5,0.6-1.1,1.1-1.7,1.6
	c-1.2,1-2.7,1.7-4.2,2.1c-1.5,0.4-3.1,0.6-4.6,0.6l-2-0.1c-0.9-0.1-1.7-0.2-2.6-0.5c-1.5-0.4-3-1.1-4.2-2.1c-0.6-0.5-1.2-1-1.7-1.6
	c-0.5-0.6-0.9-1.1-1.4-1.5c-0.9-0.8-2.3-1.2-3.8-1.1c1.3-0.6,3-0.7,4.5,0c0.7,0.4,1.3,0.9,1.9,1.3c0.6,0.4,1.1,0.8,1.7,1.1
	c2.3,1.3,4.9,1.7,7.6,1.7h0.5c2.5-0.1,5-0.5,7.1-1.7c0.6-0.3,1.1-0.7,1.7-1.1c0.6-0.4,1.1-0.9,1.9-1.3
	C130.5,287.1,132.2,287.2,133.5,287.8"/>
<path class="st6" d="M144.6,308.6c0,0.1-0.1,0.2-0.1,0.3v0c-4.7,3.9-10.2,6.7-16.1,8.4c-8.8,2.6-18.4,2.4-27.2-0.6
	c-0.3-0.1-0.7-0.2-1-0.4c-0.8-0.3-1.6-0.6-2.4-1.1c3.1-0.1,5.9-2.1,8.8-3.3c1.9-0.8,4-1.2,6-1c2,0.3,4,1.2,5.2,2.9
	c0.2-1.3,1.3-2.1,2.4-2.8c2.3-1.2,4.9-1.9,7.5-1.9c2.9,0,5.8,0.8,8.8,0.9C139.4,310.3,142.1,309.7,144.6,308.6"/>
<path class="st6" d="M144.5,308.9c-1.5,4.2-3.5,8.2-6.3,11.5c-3,3.6-7,6.5-11.6,7.6c-2.5,0.7-5.2,0.8-7.8,0.6
	c-3.9-0.3-7.9-1.2-11.3-3.1c-3.4-2-6.2-5.1-7.4-8.9l0.1-0.2c0.3,0.1,0.7,0.2,1,0.4c8.7,2.9,18.3,3.1,27.2,0.5
	C134.3,315.7,139.8,312.8,144.5,308.9"/>
<path class="st7" d="M94.3,314.4c4.9,1.7,9.8,2.9,14.8,3.5c1.2,0.2,2.5,0.2,3.8,0.3c1.3,0,2.5,0.1,3.8,0.1c2.5,0,5-0.1,7.5-0.5
	c2.5-0.3,4.9-0.8,7.4-1.5c2.4-0.6,4.8-1.5,6.9-2.6c2.2-1.1,4.1-2.7,5.7-4.6c1.7-1.9,3.2-4,4.7-6c-1,2.4-2.2,4.7-3.7,6.9
	c-0.7,1.1-1.6,2.1-2.5,3.1c-0.9,1-2,1.8-3.2,2.5c-2.3,1.5-4.8,2.4-7.3,3.2c-2.5,0.8-5.1,1.3-7.7,1.7c-5.2,0.7-10.5,0.6-15.7-0.5
	C103.7,318.9,98.7,317.1,94.3,314.4"/>
<path class="st3" d="M57.3,242.3c0,1.8,0.6,3.6,1.7,4.9c2.2-2.7,6.3-4.8,11.2-5.9c5.2-1.1,11.1-1,16.2,0.1c4.7,1.1,8.7,3.1,11.2,5.6
	c-1.6-2.6-4.3-4.3-7.1-5.6c-6.2-2.9-13.1-4-19.9-3.5C66,238.3,61.1,239.4,57.3,242.3"/>
<path class="st6" d="M92.2,238c0.8,1.3,1.6,2.8,1.9,4.5c-3.8-5-8.6-8.7-14.1-11c-3.1-1.3-6.5-2.1-10.1-1.6
	c-3.6,0.5-7.4,2.4-10.4,5.8l-0.1-0.1c2.1-3.4,5-6.2,8.1-7.9c2.3-1,9.8-1.3,13.5,0.8C85.3,231,89.4,233.7,92.2,238"/>
<path class="st3" d="M74.4,238.7c-1-0.1-2-0.6-2.9-1.1c-1-0.6-1.9-1.2-2.8-2c-1.8-1.5-3.4-3.2-4.7-5.1c1,2.1,2.4,4.1,4,5.9
	c0.8,0.9,1.7,1.7,2.6,2.5c0.9,0.8,2,1.5,3.4,1.9L74.4,238.7z"/>
<path class="st3" d="M71.2,238.7c-4.5-0.6-8.9-3.1-11.9-6.9c2.5,4.1,6.6,7.4,11.5,8.8L71.2,238.7z"/>
<path class="st3" d="M66.6,239c-0.6,0.3-1.6,0.2-2.6-0.1c-1-0.2-2-0.5-3-0.9c-2-0.7-3.9-1.7-5.4-3.2c1.3,1.7,3.1,3.1,5,4.2
	c1,0.5,2,1,3,1.4c0.5,0.2,1,0.4,1.7,0.5c0.6,0.1,1.3,0.2,2.1,0L66.6,239z"/>
<path class="st3" d="M63.3,241c-1.9,0-3.7-0.1-5.5-0.5c-0.9-0.2-1.8-0.5-2.6-0.9c-0.8-0.4-1.7-0.8-2.2-1.6c0.4,0.9,1.2,1.5,2,2.1
	c0.8,0.6,1.7,1,2.6,1.4c1.8,0.8,3.7,1.2,5.6,1.6L63.3,241z"/>
<path class="st3" d="M76.3,238.3c-0.8-0.5-1.5-1.1-2.2-1.7c-0.7-0.6-1.3-1.4-1.6-2.3c0.1,1,0.4,2,0.8,2.9c0.4,0.9,1,1.8,1.6,2.6
	L76.3,238.3z"/>
<path class="st3" d="M88.3,242c2.6,0.6,5.1-0.1,6.9-1.5c-2.1,0.9-4.7,1.3-6.5,0.3L88.3,242z"/>
<path class="st3" d="M104,221.3c0.2,1.8,0.1,3.5,0,5.3c0,0.3-0.1,0.7-0.3,0.9c-0.3,0.3-0.8,0.2-1.3,0.1c-7.8-2-15.7-3.6-23.7-4.9
	c-4.5-0.7-9-1.2-13.5-1.3c-2.3,0-4.6,0.1-6.7,0.8c-2.7,0.9-4.9,2.7-7,4.6c2.7-4.2,6.5-7.8,11.2-9.3c3.1-1,6.4-1.1,9.7-1.1
	c4.4,0,8.7,0.3,13.1,0.8c3.4,0.4,6.8,0.9,9.9,2.2c-0.1-0.6,0-1.2,0.3-1.7c1,0.6,1.8,1.4,2.4,2.4c-0.1-0.4-0.2-0.9,0-1.3
	c0.1-0.4,0.5-0.8,0.9-0.7c0.3,0,0.6,0.3,0.8,0.6c0.6,0.7,1.1,1.6,1.4,2.5c0.6-0.6,1.2-1.2,1.9-1.8C103.8,219.6,104,220.5,104,221.3"
	/>
<path class="st3" d="M175,215.3c8.3,1.7,17.9,13.9,18.2,14.3c-0.3-0.2-11.2-7.1-18.2-8.1c-7.1-1-39.1,7.5-39.1,7.5
	c-1.2-4-0.6-10.9-0.6-10.9S166.5,213.6,175,215.3"/>
<path class="st6" d="M147.2,232c-3.7,2.5-6.5,6.1-8.2,10.3c2.5-4.1,6.3-7.3,10.7-9.2c5.1-2.1,11.1-2.3,16.2-0.3
	c4.7,1.8,8.7,5.5,10.9,10c-1.1-2.8-2.3-5.4-4.1-7.8c-2-2.7-4.6-4.9-7.7-6c-1.5-0.5-3.1-0.8-4.6-0.8C155.9,228,151.1,229.4,147.2,232
	"/>
<path class="st3" d="M180.1,230.7c-0.4,0.9-1.3,1.5-2.1,1.9c-0.9,0.4-1.8,0.7-2.8,0.9c-1.9,0.5-3.8,0.6-5.7,0.3l-0.2,2
	c2.2,0,4.3-0.5,6.1-1.3c0.9-0.4,1.9-0.9,2.7-1.5C179.1,232.5,179.9,231.7,180.1,230.7"/>
<path class="st3" d="M183.4,235.9c-2,1.1-4.3,1.2-6.4,0.8c-2.1-0.4-4.1-1.2-6.1-2.2l-0.7,1.9c2.2,0.6,4.4,1.2,6.8,1.3
	C179.2,237.8,181.6,237.3,183.4,235.9"/>
<path class="st3" d="M183.2,239.9c-1.7,0.5-3.4,0.3-4.9-0.2c-1.6-0.5-3-1.4-4.3-2.4l-1,1.7c1.6,0.7,3.3,1.4,5.1,1.6
	C179.8,240.9,181.6,240.7,183.2,239.9"/>
<path class="st3" d="M148.6,233.2c-1.9,0.7-4.4,0.5-6.4-0.7c1.6,1.7,4.1,2.8,6.7,2.7L148.6,233.2z"/>
<path class="st3" d="M168.6,235.1c3.5-1.2,6.1-4.1,7-7.3c-1.6,3-4.5,4.9-7.5,5.3L168.6,235.1z"/>
<path class="st3" d="M150,240.6c0,5.1,4.1,9.2,9.2,9.2c5.1,0,9.2-4.1,9.2-9.2c0-5.1-4.1-9.2-9.2-9.2
	C154.1,231.4,150,235.5,150,240.6"/>
<path class="st3" d="M173.6,246.8c0.8-0.3,1.5-0.6,2.2-1.1c0.4-0.2,0.7-0.4,1.1-0.7c0.4-0.3,0.7-0.5,1-1l0.1-0.2l-0.1-0.3
	c-0.7-2-1.8-3.8-3-5.6c-1.3-1.7-2.8-3.2-4.6-4.5c-1.8-1.2-3.7-2.3-5.9-2.9l-0.8-0.2c-0.3-0.1-0.5-0.1-0.8-0.2l-1.6-0.3
	c-0.5-0.1-1.1-0.1-1.6-0.1c-0.5,0-1.1-0.1-1.6-0.1c-4.4,0-8.8,1.4-12.2,3.9c-1.7,1.3-3.3,2.7-4.6,4.4c-1.3,1.7-2.4,3.4-3.2,5.4
	l-0.1,0.3l0.2,0.2c0.5,0.4,1,0.7,1.5,1.1c0.5,0.3,1,0.6,1.6,0.8c-0.5-0.4-0.9-0.8-1.3-1.2c-0.4-0.4-0.8-0.9-1.1-1.3l0.1,0.5
	c2.3-3.2,5.3-6,8.5-7.9c3.3-2,7-2.9,10.7-2.9c0.5,0,0.9,0,1.4,0.1c0.5,0,0.9,0,1.4,0.1l1.4,0.2c0.2,0,0.5,0.1,0.7,0.1l0.7,0.2
	c1.8,0.4,3.5,1.2,5.2,2.2c1.6,0.9,3.1,2.1,4.5,3.5c0.3,0.3,0.7,0.7,1,1.1c0.3,0.4,0.6,0.7,0.9,1.1c0.6,0.8,1.2,1.6,1.7,2.4l0-0.5
	c-0.1,0.3-0.3,0.6-0.6,0.9c-0.3,0.3-0.5,0.6-0.8,0.8C174.9,245.8,174.2,246.3,173.6,246.8"/>
<path class="st8" d="M153.6,237.3c0,1.7,1.4,3.1,3.1,3.1c1.7,0,3.1-1.4,3.1-3.1c0-1.7-1.4-3.1-3.1-3.1
	C155,234.3,153.6,235.6,153.6,237.3"/>
<path class="st9" d="M293.2,485H-60.6c0,0,18.4-76.5,48.4-80.8c30-4.3,66.7,0.6,78.8-13.2c0,0,0,0,0,0.1c0,0,0,0,0,0
	c0.2,0.7,2,5.1,6.3,10.2c6.9,8.4,20.5,18.9,44.8,18.9c24.3,0,37.9-10.5,44.8-18.9c4.3-5.2,6-9.6,6.3-10.2c0-0.1,0-0.1,0-0.1
	c12.2,13.7,48.8,8.9,78.9,13.2C277.8,408.6,293.2,485,293.2,485"/>
<path class="st9" d="M45.7,236.6c0,0-0.1,0-0.1,0c-0.2-0.1-0.2-0.2-0.2-0.4c0,0,0.1-0.5,0.4-1.3c0.1-0.2,0.3-0.3,0.4-0.2
	c0.1,0,0.1,0.1,0.2,0.1c0.1,0,0.2,0,0.2,0.1c0.2,0.1,0.2,0.3,0.1,0.5c-0.5,0.7-0.7,1.1-0.7,1.1C46,236.6,45.9,236.6,45.7,236.6"/>
<path class="st9" d="M47.1,232.8c0,0-0.1,0-0.1,0c-0.2-0.1-0.3-0.3-0.2-0.4c0.3-0.9,0.7-1.7,1.1-2.5c0.1-0.2,0.3-0.2,0.4-0.2
	c0.2,0.1,0.2,0.3,0.2,0.4c-0.4,0.8-0.7,1.7-1.1,2.5C47.4,232.7,47.3,232.8,47.1,232.8 M49.3,227.8c-0.1,0-0.1,0-0.2,0
	c-0.2-0.1-0.2-0.3-0.2-0.5c0.4-0.8,0.9-1.7,1.3-2.4c0.1-0.2,0.3-0.2,0.5-0.1c0.2,0.1,0.2,0.3,0.1,0.5c-0.4,0.8-0.9,1.6-1.3,2.4
	C49.6,227.7,49.5,227.8,49.3,227.8 M52.1,223c-0.1,0-0.1,0-0.2-0.1c-0.2-0.1-0.2-0.3-0.1-0.5c0.5-0.8,1.1-1.6,1.6-2.2
	c0.1-0.1,0.3-0.2,0.5-0.1c0.1,0.1,0.2,0.3,0.1,0.5c-0.5,0.7-1.1,1.4-1.6,2.2C52.3,223,52.2,223,52.1,223 M55.5,218.8
	c-0.1,0-0.2,0-0.2-0.1c-0.1-0.1-0.1-0.3,0-0.5c0.7-0.7,1.4-1.3,2.1-1.8c0.2-0.1,0.4-0.1,0.5,0.1c0.1,0.2,0.1,0.4-0.1,0.5
	c-0.7,0.5-1.4,1.1-2,1.7C55.6,218.7,55.6,218.8,55.5,218.8 M100.6,217.9C100.6,217.9,100.6,217.9,100.6,217.9
	c-0.9-0.2-1.8-0.4-2.7-0.5c-0.2,0-0.3-0.2-0.3-0.4c0-0.2,0.2-0.3,0.4-0.3c1,0.2,1.9,0.4,2.7,0.5c0.2,0,0.3,0.2,0.3,0.4
	C100.9,217.8,100.8,217.9,100.6,217.9 M95.3,216.9C95.2,216.9,95.2,216.9,95.3,216.9c-0.9-0.2-1.8-0.3-2.8-0.4
	c-0.2,0-0.3-0.2-0.3-0.4c0-0.2,0.2-0.3,0.4-0.3c0.9,0.1,1.8,0.3,2.7,0.4c0.2,0,0.3,0.2,0.3,0.4C95.6,216.8,95.4,216.9,95.3,216.9
	 M89.9,216C89.8,216,89.8,216,89.9,216c-0.9-0.1-1.8-0.3-2.8-0.4c-0.2,0-0.3-0.2-0.3-0.4c0-0.2,0.2-0.3,0.4-0.3
	c0.9,0.1,1.8,0.2,2.7,0.4c0.2,0,0.3,0.2,0.3,0.4C90.2,215.9,90,216,89.9,216 M59.9,215.7c-0.1,0-0.3-0.1-0.3-0.2
	c-0.1-0.2,0-0.4,0.2-0.4c0.8-0.3,1.7-0.5,2.7-0.7c0.2,0,0.4,0.1,0.4,0.3c0,0.2-0.1,0.4-0.3,0.4c-1,0.2-1.9,0.4-2.6,0.7
	C60,215.7,60,215.7,59.9,215.7 M84.4,215.3C84.4,215.3,84.4,215.3,84.4,215.3c-0.9-0.1-1.8-0.2-2.8-0.3c-0.2,0-0.3-0.2-0.3-0.4
	c0-0.2,0.2-0.3,0.4-0.3c0.9,0.1,1.8,0.2,2.7,0.3c0.2,0,0.3,0.2,0.3,0.4C84.7,215.2,84.6,215.3,84.4,215.3 M79,214.8
	C79,214.8,79,214.8,79,214.8c-0.9-0.1-1.9-0.1-2.8-0.2c-0.2,0-0.3-0.2-0.3-0.4c0-0.2,0.2-0.3,0.4-0.3c0.9,0.1,1.8,0.1,2.7,0.2
	c0.2,0,0.3,0.2,0.3,0.4C79.3,214.7,79.1,214.8,79,214.8 M65.3,214.6c-0.2,0-0.3-0.1-0.3-0.3c0-0.2,0.1-0.3,0.3-0.4
	c0.9-0.1,1.8-0.1,2.8-0.2c0,0,0,0,0,0c0.2,0,0.3,0.1,0.3,0.3c0,0.2-0.1,0.3-0.3,0.3C67.1,214.5,66.2,214.5,65.3,214.6
	C65.3,214.6,65.3,214.6,65.3,214.6 M73.5,214.5C73.5,214.5,73.5,214.5,73.5,214.5c-0.9,0-1.9-0.1-2.7-0.1c-0.2,0-0.3-0.2-0.3-0.3
	c0-0.2,0.2-0.3,0.3-0.3h0c0.9,0,1.8,0,2.7,0.1c0.2,0,0.3,0.2,0.3,0.3C73.8,214.3,73.7,214.5,73.5,214.5"/>
<path class="st9" d="M104.8,220.2c-0.2,0-0.3-0.1-0.3-0.3c-0.1-0.5-0.2-0.9-0.2-1.1c-0.3-0.1-0.7-0.2-1.1-0.3
	c-0.2,0-0.3-0.2-0.2-0.4c0-0.2,0.2-0.3,0.4-0.2c0.5,0.1,1,0.3,1.3,0.4c0.1,0,0.2,0.1,0.2,0.2c0,0,0.1,0.5,0.3,1.3
	C105.2,220,105.1,220.2,104.8,220.2C104.9,220.2,104.9,220.2,104.8,220.2"/>
<path class="st9" d="M105.4,225.3c-0.2,0-0.3-0.1-0.3-0.3c0-0.8-0.1-1.6-0.2-2.5c0-0.2,0.1-0.3,0.3-0.4c0.2,0,0.3,0.1,0.4,0.3
	c0.1,0.9,0.1,1.8,0.2,2.6C105.7,225.2,105.5,225.3,105.4,225.3L105.4,225.3z"/>
<path class="st9" d="M105,229.2C104.9,229.2,104.9,229.2,105,229.2c-0.1,0-0.5-0.1-1.4-0.3c-0.2,0-0.3-0.2-0.3-0.4
	c0-0.2,0.2-0.3,0.4-0.3c0.4,0.1,0.8,0.2,1,0.2c0.1-0.3,0.1-0.6,0.2-1c0-0.2,0.2-0.3,0.4-0.3c0.2,0,0.3,0.2,0.3,0.4
	c-0.1,0.5-0.2,0.9-0.3,1.4C105.2,229.1,105.1,229.2,105,229.2"/>
<path class="st9" d="M48.1,233.4c-0.1,0-0.2,0-0.2-0.1c-0.1-0.1-0.2-0.3,0-0.5c0.6-0.7,1.2-1.4,1.8-2c0.1-0.1,0.3-0.1,0.5,0
	c0.1,0.1,0.1,0.3,0,0.5c-0.6,0.6-1.2,1.3-1.8,2C48.3,233.4,48.2,233.4,48.1,233.4 M51.8,229.5c-0.1,0-0.2,0-0.2-0.1
	c-0.1-0.1-0.1-0.3,0-0.5c0.7-0.6,1.4-1.2,2.1-1.7c0.1-0.1,0.4-0.1,0.5,0.1c0.1,0.1,0.1,0.4-0.1,0.5c-0.7,0.5-1.4,1.1-2,1.7
	C52,229.5,51.9,229.5,51.8,229.5 M101,228.4C101,228.4,101,228.4,101,228.4c-0.9-0.2-1.7-0.3-2.7-0.5c-0.2,0-0.3-0.2-0.3-0.4
	c0-0.2,0.2-0.3,0.4-0.3c1,0.2,1.9,0.3,2.6,0.5c0.2,0,0.3,0.2,0.3,0.4C101.3,228.3,101.2,228.4,101,228.4 M95.7,227.5
	C95.7,227.5,95.7,227.5,95.7,227.5c-0.9-0.2-1.8-0.3-2.7-0.5c-0.2,0-0.3-0.2-0.3-0.4c0-0.2,0.2-0.3,0.4-0.3c0.9,0.2,1.8,0.3,2.7,0.5
	c0.2,0,0.3,0.2,0.3,0.4C96,227.4,95.9,227.5,95.7,227.5 M90.4,226.6C90.4,226.6,90.4,226.6,90.4,226.6c-0.9-0.1-1.8-0.3-2.7-0.4
	c-0.2,0-0.3-0.2-0.3-0.4c0-0.2,0.2-0.3,0.4-0.3c0.9,0.1,1.8,0.3,2.7,0.4c0.2,0,0.3,0.2,0.3,0.4C90.7,226.5,90.6,226.6,90.4,226.6
	 M56.1,226.3c-0.1,0-0.2-0.1-0.3-0.2c-0.1-0.2,0-0.4,0.1-0.5c0.8-0.5,1.6-0.9,2.4-1.2c0.2-0.1,0.4,0,0.4,0.2c0.1,0.2,0,0.4-0.2,0.4
	c-0.8,0.3-1.6,0.7-2.4,1.2C56.2,226.2,56.1,226.3,56.1,226.3 M85.1,225.7C85.1,225.7,85.1,225.7,85.1,225.7
	c-0.9-0.1-1.8-0.3-2.7-0.4c-0.2,0-0.3-0.2-0.3-0.4c0-0.2,0.2-0.3,0.4-0.3c0.9,0.1,1.8,0.3,2.7,0.4c0.2,0,0.3,0.2,0.3,0.4
	C85.4,225.6,85.3,225.7,85.1,225.7 M79.8,225C79.8,225,79.7,225,79.8,225c-0.9-0.1-1.8-0.2-2.7-0.3c-0.2,0-0.3-0.2-0.3-0.4
	c0-0.2,0.2-0.3,0.4-0.3c0.9,0.1,1.8,0.2,2.7,0.3c0.2,0,0.3,0.2,0.3,0.4C80.1,224.9,79.9,225,79.8,225 M74.4,224.4
	C74.4,224.4,74.4,224.4,74.4,224.4c-0.9-0.1-1.8-0.2-2.7-0.3c-0.2,0-0.3-0.2-0.3-0.4c0-0.2,0.2-0.3,0.4-0.3c0.9,0.1,1.8,0.2,2.7,0.3
	c0.2,0,0.3,0.2,0.3,0.4C74.7,224.2,74.6,224.4,74.4,224.4 M61,224.2c-0.2,0-0.3-0.1-0.3-0.3c0-0.2,0.1-0.4,0.3-0.4
	c0.3-0.1,0.6-0.1,0.9-0.2c0.5-0.1,1.2-0.2,1.9-0.2c0.2,0,0.3,0.1,0.4,0.3c0,0.2-0.1,0.3-0.3,0.4c-0.7,0-1.3,0.1-1.8,0.2
	C61.7,224.1,61.4,224.1,61,224.2C61.1,224.2,61.1,224.2,61,224.2 M69.1,223.9C69.1,223.9,69.1,223.9,69.1,223.9
	c-1-0.1-1.9-0.1-2.7-0.1c-0.2,0-0.3-0.2-0.3-0.3c0-0.2,0.2-0.3,0.3-0.3c0.8,0,1.7,0,2.7,0.1c0.2,0,0.3,0.2,0.3,0.4
	C69.4,223.8,69.2,223.9,69.1,223.9"/>
<path class="st10" d="M46.8,241.3L41,230.4l0.1-0.2c0.4-0.6,10.1-14.9,16.7-16.9c6.4-1.9,47.7-3.2,49.4-3.2h9.6v22.2l-9.4,0
	c-0.4-0.1-38.7-5.1-46.6-4.6c-7.7,0.5-13.5,12.8-13.6,12.9L46.8,241.3z M41.9,230.5l4.8,9c1.4-2.8,6.7-12.2,13.9-12.6
	c8-0.5,44.8,4.4,46.8,4.6h8.5V211h-8.7c-0.4,0-42.9,1.3-49.2,3.2C52.2,215.9,43.2,228.7,41.9,230.5"/>
<rect x="96.6" y="220.8" transform="matrix(9.325755e-003 1 -1 9.325755e-003 327.501 111.8614)" class="st10" width="21.3" height="0.8"/>
<rect x="107.3" y="217.5" class="st10" width="9.4" height="0.8"/>
<rect x="107.4" y="228.8" class="st10" width="9.3" height="0.8"/>
<rect x="115.9" y="231.9" class="st10" width="0.8" height="10.3"/>
<rect x="115.9" y="206" class="st10" width="0.8" height="4.5"/>
<path class="st10" d="M163.1,266.6c-0.4,0-0.9,0-1.3,0c-0.2,0-0.3-0.2-0.3-0.3c0-0.2,0.1-0.3,0.3-0.3c0.9,0,1.8,0,2.6,0
	c0.2,0,0.3,0.1,0.3,0.3c0,0.2-0.1,0.3-0.3,0.3C164,266.6,163.6,266.6,163.1,266.6 M159.2,266.4C159.1,266.4,159.1,266.4,159.2,266.4
	c-0.9-0.1-1.8-0.2-2.7-0.4c-0.2,0-0.3-0.2-0.3-0.4c0-0.2,0.2-0.3,0.4-0.3c0.9,0.2,1.7,0.3,2.6,0.4c0.2,0,0.3,0.2,0.3,0.4
	C159.5,266.3,159.3,266.4,159.2,266.4 M167.2,266.4c-0.2,0-0.3-0.1-0.3-0.3c0-0.2,0.1-0.4,0.3-0.4c0.9-0.1,1.7-0.2,2.6-0.4
	c0.2,0,0.4,0.1,0.4,0.3c0,0.2-0.1,0.4-0.3,0.4C169,266.2,168.1,266.3,167.2,266.4C167.2,266.4,167.2,266.4,167.2,266.4 M153.9,265.4
	C153.9,265.4,153.9,265.4,153.9,265.4c-0.9-0.2-1.8-0.5-2.7-0.8c-0.2-0.1-0.3-0.3-0.2-0.4c0.1-0.2,0.3-0.3,0.4-0.2
	c0.8,0.3,1.7,0.6,2.5,0.8c0.2,0,0.3,0.2,0.2,0.4C154.2,265.3,154.1,265.4,153.9,265.4 M172.4,265.4c-0.1,0-0.3-0.1-0.3-0.2
	c0-0.2,0.1-0.4,0.2-0.4c0.8-0.2,1.7-0.5,2.5-0.8c0.2-0.1,0.4,0,0.4,0.2c0.1,0.2,0,0.4-0.2,0.4C174.2,264.9,173.4,265.1,172.4,265.4
	C172.5,265.4,172.4,265.4,172.4,265.4 M148.9,263.6c0,0-0.1,0-0.1,0c-0.8-0.4-1.6-0.8-2.4-1.2c-0.2-0.1-0.2-0.3-0.1-0.5
	c0.1-0.2,0.3-0.2,0.5-0.1c0.8,0.4,1.6,0.8,2.4,1.2c0.2,0.1,0.2,0.3,0.2,0.4C149.1,263.5,149,263.6,148.9,263.6 M177.4,263.6
	c-0.1,0-0.2-0.1-0.3-0.2c-0.1-0.2,0-0.4,0.2-0.4c0.8-0.4,1.6-0.8,2.4-1.2c0.2-0.1,0.4,0,0.5,0.1c0.1,0.2,0,0.4-0.1,0.5
	c-0.8,0.4-1.6,0.8-2.4,1.2C177.5,263.6,177.5,263.6,177.4,263.6 M144.2,261.1c-0.1,0-0.1,0-0.2-0.1c-0.8-0.5-1.5-1-2.2-1.6
	c-0.1-0.1-0.2-0.3-0.1-0.5c0.1-0.1,0.3-0.2,0.5-0.1c0.7,0.5,1.4,1,2.2,1.5c0.2,0.1,0.2,0.3,0.1,0.5
	C144.4,261,144.3,261.1,144.2,261.1 M182.1,261c-0.1,0-0.2-0.1-0.3-0.2c-0.1-0.2-0.1-0.4,0.1-0.5c0.7-0.5,1.5-1,2.2-1.5
	c0.1-0.1,0.4-0.1,0.5,0.1c0.1,0.1,0.1,0.4-0.1,0.5c-0.7,0.5-1.5,1.1-2.2,1.6C182.2,261,182.2,261,182.1,261 M140,257.8
	c-0.1,0-0.2,0-0.2-0.1c-0.7-0.6-1.3-1.2-1.9-1.9c-0.1-0.1-0.1-0.3,0-0.5c0.1-0.1,0.3-0.1,0.5,0c0.6,0.6,1.3,1.3,1.9,1.8
	c0.1,0.1,0.2,0.3,0,0.5C140.1,257.8,140,257.8,140,257.8 M186.3,257.8c-0.1,0-0.2,0-0.3-0.1c-0.1-0.1-0.1-0.3,0-0.5
	c0.7-0.6,1.3-1.2,1.9-1.8c0.1-0.1,0.3-0.1,0.5,0c0.1,0.1,0.1,0.3,0,0.5c-0.6,0.6-1.3,1.3-1.9,1.9
	C186.5,257.8,186.4,257.8,186.3,257.8 M136.2,254c-0.1,0-0.2,0-0.3-0.1c-0.6-0.7-1.1-1.4-1.6-2.1c-0.1-0.2-0.1-0.4,0.1-0.5
	c0.2-0.1,0.4-0.1,0.5,0.1c0.5,0.7,1,1.4,1.6,2.1c0.1,0.1,0.1,0.4,0,0.5C136.4,254,136.3,254,136.2,254 M190,253.9
	c-0.1,0-0.2,0-0.2-0.1c-0.1-0.1-0.2-0.3,0-0.5c0.6-0.7,1.1-1.4,1.6-2.1c0.1-0.2,0.3-0.2,0.5-0.1c0.2,0.1,0.2,0.3,0.1,0.5
	c-0.5,0.7-1.1,1.5-1.6,2.1C190.2,253.9,190.1,253.9,190,253.9 M133.2,249.6c-0.1,0-0.2-0.1-0.3-0.2c-0.5-0.8-0.9-1.6-1.3-2.4
	c-0.1-0.2,0-0.4,0.2-0.4c0.2-0.1,0.4,0,0.4,0.2c0.4,0.8,0.8,1.6,1.3,2.3c0.1,0.2,0,0.4-0.1,0.5C133.3,249.6,133.2,249.6,133.2,249.6
	 M193.1,249.6c-0.1,0-0.1,0-0.2,0c-0.2-0.1-0.2-0.3-0.1-0.5c0.4-0.8,0.9-1.5,1.3-2.3c0.1-0.2,0.3-0.2,0.4-0.2
	c0.2,0.1,0.2,0.3,0.2,0.4c-0.4,0.8-0.8,1.6-1.3,2.4C193.3,249.5,193.2,249.6,193.1,249.6 M130.8,244.8c-0.1,0-0.3-0.1-0.3-0.2
	c-0.3-0.8-0.6-1.7-0.9-2.5c-0.1-0.2,0-0.4,0.2-0.4c0.2-0.1,0.4,0,0.4,0.2c0.3,0.8,0.6,1.7,0.9,2.5c0.1,0.2,0,0.4-0.2,0.4
	C130.9,244.8,130.8,244.8,130.8,244.8 M195.5,244.8c0,0-0.1,0-0.1,0c-0.2-0.1-0.3-0.3-0.2-0.4c0.3-0.8,0.6-1.7,0.9-2.5
	c0.1-0.2,0.2-0.3,0.4-0.2c0.2,0.1,0.3,0.2,0.2,0.4c-0.3,0.9-0.6,1.7-0.9,2.5C195.7,244.7,195.6,244.8,195.5,244.8 M129.2,239.8
	c-0.2,0-0.3-0.1-0.3-0.3c-0.2-0.9-0.4-1.8-0.5-2.6c0-0.2,0.1-0.4,0.3-0.4c0.2,0,0.4,0.1,0.4,0.3c0.1,0.9,0.3,1.7,0.5,2.6
	C129.5,239.5,129.4,239.7,129.2,239.8C129.2,239.8,129.2,239.8,129.2,239.8 M197.1,239.7C197.1,239.7,197,239.7,197.1,239.7
	c-0.3-0.1-0.4-0.2-0.3-0.4c0.2-0.9,0.4-1.7,0.5-2.6c0-0.2,0.2-0.3,0.4-0.3c0.2,0,0.3,0.2,0.3,0.4c-0.1,0.9-0.3,1.8-0.5,2.6
	C197.4,239.6,197.2,239.7,197.1,239.7 M128.3,234.5c-0.2,0-0.3-0.1-0.3-0.3c-0.1-0.9-0.1-1.8-0.1-2.7c0-0.2,0.1-0.3,0.3-0.3h0
	c0.2,0,0.3,0.1,0.3,0.3c0,0.9,0,1.8,0.1,2.6C128.7,234.3,128.6,234.5,128.3,234.5C128.4,234.5,128.4,234.5,128.3,234.5 M197.9,234.4
	C197.9,234.4,197.9,234.4,197.9,234.4c-0.2,0-0.3-0.2-0.3-0.4c0.1-0.9,0.1-1.8,0.1-2.6v-0.1c0-0.2,0.2-0.3,0.3-0.3
	c0.2,0,0.3,0.1,0.3,0.3v0.1c0,0.9,0,1.8-0.1,2.7C198.2,234.3,198.1,234.4,197.9,234.4 M128.3,229.2
	C128.3,229.2,128.3,229.2,128.3,229.2c-0.2,0-0.3-0.2-0.3-0.4c0.1-0.9,0.2-1.8,0.3-2.7c0-0.2,0.2-0.3,0.4-0.3c0.2,0,0.3,0.2,0.3,0.4
	c-0.1,0.9-0.2,1.8-0.3,2.6C128.7,229,128.5,229.2,128.3,229.2 M197.9,228.9c-0.2,0-0.3-0.1-0.3-0.3c-0.1-0.9-0.2-1.8-0.3-2.6
	c0-0.2,0.1-0.4,0.3-0.4c0.2,0,0.4,0.1,0.4,0.3c0.1,0.9,0.2,1.8,0.3,2.7C198.2,228.8,198.1,228.9,197.9,228.9
	C197.9,228.9,197.9,228.9,197.9,228.9 M129.1,223.9C129.1,223.9,129.1,223.9,129.1,223.9c-0.3,0-0.4-0.2-0.3-0.4
	c0.2-0.9,0.4-1.7,0.7-2.6c0.1-0.2,0.2-0.3,0.4-0.2c0.2,0.1,0.3,0.2,0.2,0.4c-0.3,0.8-0.5,1.7-0.7,2.6
	C129.4,223.8,129.3,223.9,129.1,223.9 M197.1,223.7c-0.2,0-0.3-0.1-0.3-0.3c-0.2-0.9-0.4-1.7-0.7-2.5c-0.1-0.2,0-0.4,0.2-0.4
	c0.2-0.1,0.4,0,0.4,0.2c0.3,0.8,0.5,1.7,0.7,2.6C197.4,223.4,197.3,223.6,197.1,223.7C197.1,223.7,197.1,223.7,197.1,223.7
	 M130.7,218.8c0,0-0.1,0-0.1,0c-0.2-0.1-0.3-0.3-0.2-0.4c0.3-0.8,0.7-1.7,1.1-2.5c0.1-0.2,0.3-0.2,0.4-0.2c0.2,0.1,0.2,0.3,0.2,0.4
	c-0.4,0.8-0.8,1.6-1.1,2.4C131,218.7,130.9,218.8,130.7,218.8 M195.4,218.6c-0.1,0-0.3-0.1-0.3-0.2c-0.3-0.8-0.7-1.6-1.1-2.4
	c-0.1-0.2,0-0.4,0.2-0.4c0.2-0.1,0.4,0,0.4,0.1c0.4,0.8,0.8,1.6,1.1,2.5c0.1,0.2,0,0.4-0.2,0.4C195.5,218.6,195.5,218.6,195.4,218.6
	 M133.1,214c-0.1,0-0.1,0-0.2,0c-0.2-0.1-0.2-0.3-0.1-0.5c0.5-0.8,0.9-1.5,1.5-2.3c0.1-0.2,0.3-0.2,0.5-0.1c0.2,0.1,0.2,0.3,0.1,0.5
	c-0.5,0.7-1,1.5-1.4,2.2C133.3,213.9,133.2,214,133.1,214 M193,213.8c-0.1,0-0.2-0.1-0.3-0.2c-0.5-0.8-0.9-1.5-1.4-2.2
	c-0.1-0.2-0.1-0.4,0.1-0.5c0.1-0.1,0.4-0.1,0.5,0.1c0.5,0.7,1,1.5,1.5,2.3c0.1,0.2,0,0.4-0.1,0.5C193.2,213.8,193.1,213.8,193,213.8
	 M136.2,209.6c-0.1,0-0.2,0-0.2-0.1c-0.1-0.1-0.2-0.3,0-0.5c0.6-0.7,1.2-1.4,1.8-2c0.1-0.1,0.3-0.1,0.5,0c0.1,0.1,0.1,0.3,0,0.5
	c-0.6,0.6-1.2,1.3-1.8,2C136.4,209.6,136.3,209.6,136.2,209.6 M190,209.5c-0.1,0-0.2,0-0.3-0.1c-0.6-0.7-1.2-1.3-1.8-2
	c-0.1-0.1-0.1-0.3,0-0.5c0.1-0.1,0.3-0.1,0.5,0c0.6,0.6,1.2,1.3,1.8,2c0.1,0.1,0.1,0.4,0,0.5C190.1,209.4,190,209.5,190,209.5
	 M139.9,205.8c-0.1,0-0.2,0-0.3-0.1c-0.1-0.1-0.1-0.4,0-0.5c0.7-0.6,1.4-1.2,2.1-1.7c0.1-0.1,0.4-0.1,0.5,0.1
	c0.1,0.1,0.1,0.4-0.1,0.5c-0.7,0.5-1.4,1.1-2,1.7C140,205.7,139.9,205.8,139.9,205.8 M186.2,205.6c-0.1,0-0.2,0-0.2-0.1
	c-0.7-0.6-1.3-1.1-2-1.7c-0.1-0.1-0.2-0.3-0.1-0.5c0.1-0.1,0.3-0.2,0.5-0.1c0.7,0.5,1.4,1.1,2.1,1.7c0.1,0.1,0.2,0.3,0,0.5
	C186.4,205.6,186.3,205.6,186.2,205.6 M144.1,202.5c-0.1,0-0.2-0.1-0.3-0.2c-0.1-0.2-0.1-0.4,0.1-0.5c0.8-0.5,1.5-1,2.3-1.4
	c0.2-0.1,0.4,0,0.5,0.1c0.1,0.2,0,0.4-0.1,0.5c-0.8,0.4-1.5,0.9-2.3,1.4C144.2,202.5,144.1,202.5,144.1,202.5 M182,202.4
	c-0.1,0-0.1,0-0.2-0.1c-0.7-0.5-1.5-0.9-2.3-1.3c-0.2-0.1-0.2-0.3-0.1-0.5c0.1-0.2,0.3-0.2,0.5-0.1c0.8,0.4,1.6,0.9,2.3,1.4
	c0.2,0.1,0.2,0.3,0.1,0.5C182.2,202.4,182.1,202.4,182,202.4 M148.8,200c-0.1,0-0.3-0.1-0.3-0.2c-0.1-0.2,0-0.4,0.2-0.4
	c0.8-0.4,1.7-0.7,2.5-1c0.2-0.1,0.4,0,0.4,0.2c0.1,0.2,0,0.4-0.2,0.4c-0.8,0.3-1.6,0.6-2.4,1C148.9,199.9,148.8,200,148.8,200
	 M177.3,199.9c0,0-0.1,0-0.1,0c-0.8-0.4-1.6-0.7-2.5-1c-0.2-0.1-0.3-0.3-0.2-0.4c0.1-0.2,0.3-0.3,0.4-0.2c0.8,0.3,1.7,0.6,2.5,1
	c0.2,0.1,0.2,0.3,0.2,0.4C177.5,199.8,177.4,199.9,177.3,199.9 M153.8,198.1c-0.1,0-0.3-0.1-0.3-0.2c0-0.2,0.1-0.4,0.2-0.4
	c0.9-0.2,1.7-0.4,2.6-0.6c0.2,0,0.4,0.1,0.4,0.3c0,0.2-0.1,0.4-0.3,0.4C155.6,197.7,154.7,197.9,153.8,198.1
	C153.8,198.1,153.8,198.1,153.8,198.1 M172.3,198.1C172.2,198.1,172.2,198.1,172.3,198.1c-0.9-0.2-1.8-0.4-2.7-0.6
	c-0.2,0-0.3-0.2-0.3-0.4c0-0.2,0.2-0.3,0.4-0.3c0.9,0.2,1.8,0.4,2.6,0.6c0.2,0,0.3,0.2,0.2,0.4C172.5,198,172.4,198.1,172.3,198.1
	 M159,197.1c-0.2,0-0.3-0.1-0.3-0.3c0-0.2,0.1-0.4,0.3-0.4c0.9-0.1,1.8-0.2,2.7-0.2c0.2,0,0.3,0.1,0.3,0.3c0,0.2-0.1,0.3-0.3,0.3
	C160.8,196.9,159.9,197,159,197.1C159,197.1,159,197.1,159,197.1 M167,197.1C167,197.1,167,197.1,167,197.1
	c-0.9-0.1-1.8-0.2-2.7-0.2c-0.2,0-0.3-0.2-0.3-0.3c0-0.2,0.2-0.3,0.3-0.3c0.9,0,1.8,0.1,2.7,0.2c0.2,0,0.3,0.2,0.3,0.4
	C167.3,197,167.2,197.1,167,197.1"/>
<polygon class="st8" points="193.1,240.8 189.4,248 185.7,240.8 189.4,233.1 "/>
<polygon class="st8" points="195.1,222.6 192.5,227.5 190,222.6 192.5,217.4 "/>
<polygon class="st8" points="203.8,231.9 201.2,236.8 198.7,231.9 201.2,226.6 "/>
<polygon class="st8" points="132.2,220 128.5,227.2 124.7,220 128.5,212.3 "/>
<polygon class="st8" points="134.2,201.8 131.6,206.7 129.1,201.8 131.6,196.6 "/>
<polygon class="st8" points="142.9,211.1 140.3,216 137.8,211.1 140.3,205.8 "/>
<polygon class="st11" points="183.8,214.9 239.8,214.9 239.8,210.6 230.9,210.6 230.9,203.3 202.7,203.3 184.6,210.9 "/>
<rect x="215.3" y="214.9" class="st12" width="14.3" height="85"/>
<path class="st11" d="M218.4,251.1h-30.7v4.2l25.9,6v9.3c0,0-3.9-0.6-3.9,3.9c0,4.5,3.8,4.3,3.8,4.3h4.8V251.1z"/>
<rect x="229.6" y="233.9" class="st11" width="2.5" height="45.9"/>
<rect x="216.1" y="300" class="st11" width="12.8" height="52.6"/>
<path class="st13" d="M223,220.6h-5.8c-0.5,0-1,0.4-1,0.8c0,0.5,0.4,0.8,1,0.8h5.8c0.5,0,1-0.4,1-0.8
	C223.9,221,223.5,220.6,223,220.6"/>
<path class="st13" d="M226.4,224.1h-9.3c-1.3,0-1.3,1.7,0,1.7h9.3C227.7,225.8,227.7,224.1,226.4,224.1"/>
<path class="st13" d="M223,227.9h-5.8c-0.5,0-1,0.4-1,0.8c0,0.5,0.4,0.8,1,0.8h5.8c0.5,0,1-0.4,1-0.8
	C223.9,228.3,223.5,227.9,223,227.9"/>
<path class="st13" d="M226.4,231.5h-9.3c-1.3,0-1.3,1.7,0,1.7h9.3C227.7,233.2,227.7,231.5,226.4,231.5"/>
<path class="st13" d="M223,235.3h-5.8c-0.5,0-1,0.4-1,0.8c0,0.5,0.4,0.8,1,0.8h5.8c0.5,0,1-0.4,1-0.8
	C223.9,235.7,223.5,235.3,223,235.3"/>
<path class="st13" d="M226.4,238.9h-9.3c-1.3,0-1.3,1.7,0,1.7h9.3C227.7,240.6,227.7,238.9,226.4,238.9"/>
<path class="st13" d="M223,242.7h-5.8c-0.5,0-1,0.4-1,0.8c0,0.5,0.4,0.8,1,0.8h5.8c0.5,0,1-0.4,1-0.8
	C223.9,243.1,223.5,242.7,223,242.7"/>
<path class="st13" d="M226.4,246.3h-9.3c-1.3,0-1.3,1.7,0,1.7h9.3C227.7,248,227.7,246.3,226.4,246.3"/>
<path class="st13" d="M223,281h-5.8c-0.5,0-1,0.4-1,0.8c0,0.5,0.4,0.8,1,0.8h5.8c0.5,0,1-0.4,1-0.8C223.9,281.4,223.5,281,223,281"
	/>
<path class="st13" d="M226.4,284.6h-9.3c-1.3,0-1.3,1.7,0,1.7h9.3C227.7,286.3,227.7,284.6,226.4,284.6"/>
<path class="st13" d="M223,288.4h-5.8c-0.5,0-1,0.4-1,0.8c0,0.5,0.4,0.8,1,0.8h5.8c0.5,0,1-0.4,1-0.8
	C223.9,288.8,223.5,288.4,223,288.4"/>
<path class="st13" d="M226.4,292h-9.3c-1.3,0-1.3,1.7,0,1.7h9.3C227.7,293.7,227.7,292,226.4,292"/>
<path class="st13" d="M223,295.8h-5.8c-0.5,0-1,0.4-1,0.8c0,0.5,0.4,0.8,1,0.8h5.8c0.5,0,1-0.4,1-0.8
	C223.9,296.2,223.5,295.8,223,295.8"/>
<rect x="183.8" y="213.8" class="st13" width="56" height="1.1"/>
<rect x="187.7" y="251.1" class="st13" width="30.7" height="1.4"/>
</svg>
