<?xml version="1.0" encoding="utf-8"?>
<!-- Generator: Adobe Illustrator 19.0.0, SVG Export Plug-In . SVG Version: 6.00 Build 0)  -->
<svg version="1.1" id="Layer_1" xmlns="http://www.w3.org/2000/svg" xmlns:xlink="http://www.w3.org/1999/xlink" x="0px" y="0px"
	 viewBox="-193 -106 512 512" style="enable-background:new -193 -106 512 512;" xml:space="preserve">
<style type="text/css">
	.st0{fill:#FF5B62;}
	.st1{fill:#FED298;}
	.st2{fill:#666666;}
</style>
<circle class="st0" cx="63" cy="150" r="256"/>
<path class="st1" d="M-14.2,133.1c0,0-4.2-9.3-15.6-4.7c-11.3,4.6,0.5,50.4,4.8,56.8s11.3,2.3,13.8,2.1c3.6,27.3,3.9,46.2,14.9,57.7
	c10.4,10.9,34.1,33.2,46.6,40.9c8.5,1.8,14.8,2.8,20.7,3.2c5.9-0.3,12.3-1.4,20.7-3.2c12.5-7.8,36.2-30,46.6-40.9
	c10.9-11.5,11.3-30.4,14.9-57.7c2.5,0.3,9.5,4.3,13.8-2.1c4.3-6.4,16.2-52.2,4.8-56.8c-11.3-4.6-15.6,4.7-15.6,4.7s11.2-36-8.7-71.4
	c-13.7-24.3-44.8-36.9-76.6-37.8C39.3,24.8,8.2,37.3-5.4,61.6C-25.4,97.1-14.2,133.1-14.2,133.1L-14.2,133.1L-14.2,133.1z"/>
<path class="st2" d="M146.7,143.8l7.9-0.3l2.5-9l7.4-7.4c4.9-37,6.4-94.6-30.4-93c0,0-3.3-42-69.6-33.8s-96.2,51-92.7,86.7
	c3.6,35.7,2.1,40,2.1,40l7.4,7.4l1.1,10.3l6.5-0.4c0,0,2-13.7,4.1-19.8c2-6,1.4-18.3,1.4-18.3s78.3,5,99.4-21.9
	c13.1-16.6,43.1-45.4,44.6-5.5c0.4,11.8-3.9,29.5,4.5,42.4C151.5,134.2,146.7,143.8,146.7,143.8L146.7,143.8L146.7,143.8z"/>
</svg>
