<?xml version="1.0" encoding="utf-8"?>
<!-- Generator: Adobe Illustrator 19.0.0, SVG Export Plug-In . SVG Version: 6.00 Build 0)  -->
<svg version="1.1" id="Layer_1" xmlns="http://www.w3.org/2000/svg" xmlns:xlink="http://www.w3.org/1999/xlink" x="0px" y="0px"
	 viewBox="-193 -106 512 512" style="enable-background:new -193 -106 512 512;" xml:space="preserve">
<style type="text/css">
	.st0{fill:#21D0C3;}
	.st1{fill:#041E21;}
	.st2{fill:#CFE4E7;}
	.st3{fill:#1D9AAE;}
	.st4{fill:#FFF8EF;}
	.st5{fill:#42210B;}
	.st6{fill:#D9CDC1;}
	.st7{fill:#2FB4C2;}
</style>
<circle class="st0" cx="63" cy="150" r="256"/>
<ellipse class="st1" cx="57.9" cy="276.6" rx="11.7" ry="13"/>
<path class="st1" d="M245.7-26.4v340.8c0,3.3-2.9,6.6-5.9,6.6H-113c-2.9,0-5.9-3.3-5.9-6.6V-26.4c0-3.9,2.9-6.6,5.9-6.6h352.8
	C242.8-33,245.7-30.4,245.7-26.4z M233.9,307.8v-72.1V-19.9h-341v327.7H63.4H233.9z"/>
<path class="st2" d="M-105.4-18.5v325H63.8h169.1V235V-18.5H-105.4z M63.8,300c-12.8,0-23.3-11.7-23.3-26c0-14.3,10.5-26,23.3-26
	s23.3,11.7,23.3,26C87.1,288.3,76.6,300,63.8,300z M145.4,280.5h-17.5v-13h17.5V280.5z M180.4,280.5h-17.5v-13h17.5V280.5z
	 M215.4,241.5H63.8H-87.9c-2.9,0-5.8-3.3-5.8-6.5V1c0-3.3,2.9-6.5,5.8-6.5h303.2c2.9,0,5.8,3.3,5.8,6.5v84.5v65V235
	C221.2,238.2,218.3,241.5,215.4,241.5z"/>
<path class="st1" d="M215.4,155v84.5c0,3.3-2.9,6.5-5.8,6.5H57.9H-93.7c-3.5,0-5.8-3.3-5.8-6.5V5.5c0-3.9,2.3-6.5,5.8-6.5h303.2
	c2.9,0,5.8,2.6,5.8,6.5V90V155z M203.7,233v-71.5h-58.3c0,28.6-21,52-46.7,52c-8.7,0-16.3-2.6-23.3-7.1c-7,4.6-15.2,7.1-23.3,7.1
	c-25.7,0-46.7-23.4-46.7-52h-40.8c-2.3,0-4.1-1.3-5.2-3.3c-1.2-1.9-1.2-4.6,0-6.5l11.1-21.4l4.7-7.8l-15.7-29.3
	c-1.2-1.9-1.2-4.6,0-6.5c1.2-1.9,2.9-3.3,5.2-3.3H5.4c0-28.6,21-52,46.7-52c8.2,0,16.3,2.6,23.3,7.2c7-4.5,14.6-7.2,23.3-7.2
	c25.7,0,46.7,23.4,46.7,52h58.3V12H-87.9v71.5h29.2c2.3,0,4.1,1.3,5.2,3.3l17.5,32.5c1.2,1.9,1.2,4.6,0,6.5l-17.5,32.5
	c-1.2,1.9-2.9,3.3-5.2,3.3h-29.2V233H203.7z M203.7,148.5v-52H139c-1.7,0-3.5-0.7-4.7-1.9c-1.2-1.3-1.7-3.3-1.2-5.2
	c0-1.9,0.6-3.9,0.6-5.8c0-21.4-15.7-39-35-39s-35,17.6-35,39c0,13.7,6.4,26,16.9,33.2c1.7,1.3,2.9,3.3,2.9,5.8
	c0,2.6-1.2,4.6-2.9,5.8c-10.5,7.2-16.9,19.5-16.9,33.1c0,21.4,15.7,39,35,39s35-17.6,35-39c0-1.9,0-3.3-0.6-5.9c0-1.9,0-3.9,1.2-5.2
	s2.9-1.9,4.7-1.9H203.7z M52.1,83.5c0-13.7,5.2-26.7,13.4-35.8c-4.7-2-8.7-3.3-13.4-3.3c-19.2,0-35,17.6-35,39c0,1.9,0,3.3,0.6,5.8
	c0,1.9,0,3.9-1.2,5.2c-1.2,1.3-2.9,1.9-4.7,1.9h-36.7l12.2,22.8c1.2,1.9,1.2,4.6,0,6.5l-12.2,22.8h36.7c1.7,0,3.5,0.7,4.7,1.9
	c1.2,1.3,1.7,3.3,1.2,5.2c0,1.9-0.6,3.9-0.6,5.9c0,21.4,15.7,39,35,39c4.7,0,8.7-1.3,13.4-3.3c-8.2-9.1-13.4-21.4-13.4-35.8
	c0-14.9,5.8-29.3,15.7-39C57.9,112.8,52.1,98.5,52.1,83.5z M-47,122.5l-3.5-3.9l-11.7-22.1h-25.7v6.5v45.5h25.7L-47,122.5z"/>
<path class="st3" d="M203.7,161.5V233H-87.9v-71.5h29.2c2.3,0,4.1-1.3,5.2-3.3l17.5-32.5l7,4.6L-40,151.8c-1.2,1.9-1.2,4.6,0,6.5
	c1.2,1.9,2.9,3.3,5.2,3.3H6c0,28.6,21,52,46.7,52c8.2,0,16.3-2.6,23.3-7.1c7,4.6,14.6,7.1,23.3,7.1c25.7,0,46.7-23.4,46.7-52H203.7z
	"/>
<path class="st4" d="M203.7,96.5v52H139c-1.7,0-3.5,0.7-4.7,1.9s-1.7,3.3-1.2,5.2c0,1.9,0.6,3.9,0.6,5.9c0,21.4-15.7,39-35,39
	s-35-17.6-35-39c0-13.7,6.4-26,16.9-33.2c1.7-1.3,2.9-3.2,2.9-5.8s-1.2-4.6-2.9-5.8c-10.5-7.2-16.9-19.5-16.9-33.2
	c0-21.4,15.7-39,35-39s35,17.6,35,39c0,1.9,0,3.3-0.6,5.8c0,1.9,0,3.9,1.2,5.2c1.2,1.3,2.9,1.9,4.7,1.9L203.7,96.5L203.7,96.5z
	 M197.9,122.5v-13h-11.7v13H197.9z M174.5,122.5v-13h-35v13H174.5z"/>
<path class="st3" d="M203.7,12v71.5h-58.3c0-28.6-21-52-46.7-52c-8.7,0-16.3,2.6-23.3,7.2c-7-4.5-15.2-7.2-23.3-7.2
	c-25.7,0-46.7,23.4-46.7,52h-40.8c-2.3,0-4.1,1.3-5.2,3.3c-1.2,1.9-1.2,4.6,0,6.5l15.7,29.3l-4.7,7.8l-7-4.6c1.2-1.9,1.2-4.6,0-6.5
	L-54,86.8c-0.6-1.9-2.3-3.3-4.7-3.3h-29.2V12H203.7z"/>
<g>
	<rect x="186.2" y="107.6" class="st1" width="11.7" height="13"/>
	<rect x="157.1" y="270.1" class="st1" width="17.5" height="13"/>
	<rect x="139.6" y="107.6" class="st1" width="35" height="13"/>
	<rect x="122.1" y="270.1" class="st1" width="17.5" height="13"/>
	<path class="st1" d="M57.9,250.6c12.8,0,23.3,11.7,23.3,26c0,14.3-10.5,26-23.3,26s-23.3-11.7-23.3-26
		C34.6,262.3,45.1,250.6,57.9,250.6z M69.6,276.6c0-7.1-5.2-13-11.7-13c-6.4,0-11.7,5.9-11.7,13s5.2,13,11.7,13
		C64.3,289.6,69.6,283.7,69.6,276.6z"/>
</g>
<path class="st4" d="M65.5,47.8c-8.2,9.1-13.4,22.1-13.4,35.8c0,14.9,5.8,29.3,15.7,39c-9.9,9.8-15.7,24.1-15.7,39
	c0,14.3,5.2,26.6,13.4,35.8c-4.7,1.9-8.7,3.3-13.4,3.3c-19.2,0-35-17.6-35-39c0-1.9,0-3.3,0.6-5.9c0-1.9,0-3.9-1.2-5.2
	s-2.9-1.9-4.7-1.9h-36.7l12.2-22.8c1.2-1.9,1.2-4.6,0-6.5l-12.2-22.8h36.7c1.7,0,3.5-0.7,4.7-1.9c1.2-1.3,1.7-3.3,1.2-5.2
	c0-1.9-0.6-3.9-0.6-5.8c0-21.4,15.7-39,35-39C56.8,44.5,60.8,45.8,65.5,47.8z"/>
<polygon class="st5" points="-50.5,118.6 -47,122.5 -62.2,148.5 -48.2,122.5 "/>
<path class="st4" d="M-50.5,118.6l2.3,3.9l-14,26h-25.7V103h15.7c6.4,0,12.2,3.3,16.3,8.4L-50.5,118.6z"/>
<g>
	<path class="st6" d="M-62.2,96.5l11.7,22.1l-5.2-7.2c-4.1-5.2-9.9-8.4-16.3-8.4h-15.7v-6.5H-62.2z"/>
	<path class="st6" d="M139.6,96.5L139.6,96.5c-2.3,0-4.1-0.7-4.7-1.9c-1.2-1.3-1.7-3.3-1.2-5.2c0-3.3,0-5.8,0-7.8
		c-1.2-17.6-12.8-33.2-28.6-36.4C83,40.6,63.8,59.5,63.8,83.5c0,13.7,6.4,26,16.9,33.2c0,0,0.6,0,0.6,0.7V116
		c0,0-15.2-23.4-6.4-43.6c9.3-22.1,37.9-21.5,47.8-0.7c2.3,4.6,4.1,9.8,4.7,16.3c0.6,5.8-5.2,14.9,6.4,14.9l0,0h70v-6.5L139.6,96.5
		L139.6,96.5z"/>
	<path class="st6" d="M17.1,80.3c0,2.6,0,5.2,0,9.1c0,1.9,0,3.9-1.2,5.2c-1.2,1.3-2.9,1.9-4.7,1.9h-36.7l3.5,6.5h35.6
		c5.2,0,9.3-4.6,9.3-10.4l0,0c0-7.2,2.3-13.7,5.8-19.5c6.4-9.8,18.1-22.8,33.8-22.8c0.6-1.3,1.7-2,2.3-3.3
		c-12.2-5.2-27.4-4.5-40.8,13.7C20.6,66.6,17.7,73.1,17.1,80.3z"/>
</g>
<g>
	<path class="st7" d="M-87.9,51l5.2-9.8C-75,27-61.6,18.5-47,18.5h211.7c13.4,0,25.7,7.8,32.7,20.8l6.4,11.7V12H-87.9V51z"/>
	<path class="st7" d="M-87.9,194l5.2,9.8c7.6,14.3,21,22.8,35.6,22.8h211.7c13.4,0,25.7-7.8,32.7-20.8l6.4-11.7v39H-87.9V194z"/>
</g>
</svg>
