<?xml version="1.0" encoding="utf-8"?>
<!-- Generator: Adobe Illustrator 19.0.0, SVG Export Plug-In . SVG Version: 6.00 Build 0)  -->
<svg version="1.1" id="Layer_1" xmlns="http://www.w3.org/2000/svg" xmlns:xlink="http://www.w3.org/1999/xlink" x="0px" y="0px"
	 viewBox="-193 -106 512 512" style="enable-background:new -193 -106 512 512;" xml:space="preserve">
<style type="text/css">
	.st0{fill:#FF5B62;}
	.st1{fill:#FFFFFF;}
	.st2{fill:#194F82;}
	.st3{fill:#56ACE0;}
	.st4{fill:#EFE800;}
	.st5{fill:#FFC10D;}
</style>
<circle class="st0" cx="63" cy="150" r="256"/>
<path class="st1" d="M63.2,139.4c-11.1,0-20,9-20,20s9,20,20,20s20-9,20-20S74.3,139.4,63.2,139.4z"/>
<g>
	<path class="st2" d="M63.2,117.5c-23,0-41.8,18.7-41.8,41.8s18.7,41.8,41.8,41.8s41.8-18.7,41.8-41.8S86.2,117.5,63.2,117.5z
		 M63.2,179.3c-11.1,0-20-9-20-20s9-20,20-20s20,9,20,20S74.3,179.3,63.2,179.3z"/>
	<path class="st2" d="M12.3,105.7c3,5,9.2,7.6,15.8,3.6c10.3-7.2,22.4-11.1,35.1-11.1s24.8,3.9,35.1,11.1c5.5,4.2,12.8,1.5,15.8-3.6
		l55.9-98.8c2.8-5.1,1.2-11.6-3.8-14.6c-30.9-19.1-66.5-29.2-103-29.2S-9-26.8-39.9-7.7c-5,3.1-6.7,9.6-3.8,14.6L12.3,105.7z
		 M63.2-15.1c28.9,0,57.2,7.1,82.4,20.7l-45.1,79.8c-11.5-5.8-24.2-8.9-37.4-8.9c-13.2,0-25.9,3-37.4,8.9L-19.3,5.5
		C5.9-8,34.3-15.1,63.2-15.1z"/>
</g>
<path class="st3" d="M-19.2,5.5l45.1,79.8c11.5-5.8,24.2-8.9,37.4-8.9c13.2,0,25.9,3,37.4,8.9l45.1-79.8
	C120.5-8,92.2-15.1,63.3-15.1C34.3-15.1,5.9-8-19.2,5.5z"/>
<path class="st2" d="M248.6,143l-113.5-1c-6.1,0-11.6,5.3-11,11.9c2.3,25.6-11.8,50-35.1,60.8c-5.6,2.5-8,9.5-4.8,15.5l57.7,97.8
	c2.8,4.6,8.7,7,14.5,4.1c64.8-34.8,105.2-104.9,103-178.4C259.3,147.8,254.4,143.1,248.6,143z M155.1,307.6l-46.5-78.9
	c21.9-14.4,35.9-38.5,37.4-64.8l91.5,0.8C235.8,222.7,204.4,277.1,155.1,307.6z"/>
<path class="st4" d="M108.7,228.6l46.5,78.9c49.2-30.6,80.6-84.8,82.4-142.8l-91.5-0.8C144.5,190.2,130.6,214.3,108.7,228.6z"/>
<path class="st2" d="M37.5,214.7c-23.3-10.8-37.4-35.2-35.1-60.8c0.3-6.4-4.9-12.3-11-11.9l-113.5,1.1c-5.9,0.1-10.7,4.7-10.8,10.6
	c-2.1,73.5,38.3,143.5,103,178.4c5.4,2.8,11.8,0.8,14.5-4.1l57.7-97.8C45.3,224.5,43.4,217.6,37.5,214.7z M-28.7,307.6
	c-19.5-12-36-27.9-49.2-46.2c5.5-0.5,9.8-5.2,9.8-10.8c0-6-4.8-10.9-10.9-10.9h-12.3c-3.7-7-7-14.3-9.6-21.8h37.5
	c6,0,10.9-4.8,10.9-10.9c0-6-4.8-10.9-10.9-10.9h-43.8c-2.3-10.3-3.6-20.7-3.9-31.4l91.5-0.8c1.5,26.2,15.5,50.4,37.4,64.8
	L-28.7,307.6z"/>
<path class="st5" d="M-77.9,261.5c13.1,18.2,29.7,34.1,49.2,46.2l46.5-78.9c-21.9-14.4-35.9-38.5-37.4-64.8l-91.5,0.8
	c0.3,10.6,1.7,21.1,3.9,31.4h43.7c6,0,10.9,4.8,10.9,10.9c0,6-4.8,10.9-10.9,10.9h-37.4c2.7,7.5,5.9,14.7,9.6,21.8H-79
	c6,0,10.9,4.8,10.9,10.9C-68.1,256.3-72.4,261-77.9,261.5z"/>
</svg>
