<?xml version="1.0" encoding="utf-8"?>
<!-- Generator: Adobe Illustrator 19.0.0, SVG Export Plug-In . SVG Version: 6.00 Build 0)  -->
<svg version="1.1" id="Layer_1" xmlns="http://www.w3.org/2000/svg" xmlns:xlink="http://www.w3.org/1999/xlink" x="0px" y="0px"
	 viewBox="-193 -106 512 512" style="enable-background:new -193 -106 512 512;" xml:space="preserve">
<style type="text/css">
	.st0{fill:#FAD24D;}
	.st1{fill:#E57373;}
</style>
<circle class="st0" cx="64" cy="149" r="256"/>
<path class="st1" d="M151.3,17.2h40.1C183.5-52.2,129-106,63-106L40.5-80.7L63-55.4C106.7-55.4,143.2-24.2,151.3,17.2z"/>
<path class="st1" d="M63-55.4V-106C-3-106-57.5-52.2-65.4,17.2h40.1C-17.2-24.2,19.3-55.4,63-55.4z"/>
<path class="st1" d="M63-106c49.7,0,90,40.3,90,90c0,177.1-143.6,320.7-320.7,320.7l22.5,50.6l-22.5,50.6
	c205.1,0,371.3-166.3,371.3-371.3C203.7-43,140.7-106,63-106z"/>
<path class="st1" d="M293.7,304.7C116.6,304.7-27,161.1-27-16c0-49.7,40.3-90,90-90C-14.7-106-77.7-43-77.7,34.7
	C-77.7,239.7,88.6,406,293.7,406l-22.5-50.6L293.7,304.7z"/>
</svg>
