<?xml version="1.0" encoding="utf-8"?>
<!-- Generator: Adobe Illustrator 19.0.0, SVG Export Plug-In . SVG Version: 6.00 Build 0)  -->
<svg version="1.1" id="Layer_1" xmlns="http://www.w3.org/2000/svg" xmlns:xlink="http://www.w3.org/1999/xlink" x="0px" y="0px"
	 viewBox="-193 -106 512 512" style="enable-background:new -193 -106 512 512;" xml:space="preserve">
<style type="text/css">
	.st0{fill:#FF5B62;}
	.st1{fill:#97A6B7;}
	.st2{fill:#D8DEE8;}
	.st3{opacity:0.74;fill:#FFFFFF;}
	.st4{fill:#FFFFFF;}
	.st5{opacity:0.3;fill:#97A6B7;}
	.st6{fill:url(#SVGID_1_);}
	.st7{opacity:0.5;fill:#FFFFFF;}
	.st8{fill:url(#SVGID_2_);}
	.st9{fill:url(#SVGID_3_);}
	.st10{fill:url(#SVGID_4_);}
	.st11{fill:url(#SVGID_5_);}
	.st12{fill:url(#SVGID_6_);}
	.st13{fill:url(#SVGID_7_);}
	.st14{fill:url(#SVGID_8_);}
	.st15{fill:url(#SVGID_9_);}
	.st16{fill:url(#SVGID_10_);}
	.st17{opacity:0.3;fill:url(#SVGID_11_);}
	.st18{fill:url(#SVGID_12_);}
	.st19{fill:url(#SVGID_13_);}
	.st20{fill:url(#SVGID_14_);}
	.st21{fill:url(#SVGID_15_);}
	.st22{fill:url(#SVGID_16_);}
	.st23{fill:url(#SVGID_17_);}
	.st24{fill:url(#SVGID_18_);}
	.st25{fill:url(#SVGID_19_);}
	.st26{fill:url(#SVGID_20_);}
	.st27{fill:url(#SVGID_21_);}
	.st28{fill:url(#SVGID_22_);}
	.st29{fill:url(#SVGID_23_);}
	.st30{opacity:0.3;fill:url(#SVGID_24_);}
	.st31{fill:url(#SVGID_25_);}
	.st32{fill:url(#SVGID_26_);}
	.st33{opacity:0.3;fill:url(#SVGID_27_);}
	.st34{fill:url(#SVGID_28_);}
	.st35{fill:url(#SVGID_29_);}
	.st36{fill:url(#SVGID_30_);}
</style>
<circle class="st0" cx="63" cy="150" r="256"/>
<g>
	<g>
		<path class="st1" d="M133.6-13.5l-233,1.6c-5.2,0.1-9.1,6-8.5,10.7l40.2,287.4c0.9,6.5,7.9,7.6,13,6.9l226.9-30.4
			c4.2-0.6,7.2-4.5,6.6-8.7L142.5-5.9C141.9-10.2,137.9-13.6,133.6-13.5z"/>
		<path class="st2" d="M137.2-16.1l-233.3,3.6c-5.2,0.1-9,4-8.3,8.7L-63.9,286c0.7,4.7,5.4,8,10.5,7.3l229.5-31
			c4.3-0.6,7.2-4.5,6.6-8.8l-36.6-262C145.5-12.8,141.5-16.2,137.2-16.1z"/>
		<path class="st3" d="M-53.9,289.4c-2.8,0.4-5.3-1.4-5.7-4L-100.1-3.8c-0.4-2.6,1.7-4.7,4.5-4.7l233.3-4c2.3,0,4.5,1.8,4.8,4.1
			L179.2,254c0.3,2.3-1.3,4.5-3.6,4.8L-53.9,289.4z"/>
		<polygon class="st4" points="159.3,252.3 -37.2,277.8 -74.6,10.2 124.8,5.4 		"/>
		<path class="st5" d="M44.6,11.6l-78.8,5.8l-0.7-17.5c-0.2-2.3,1.2-4.2,3.4-4.7l13-2.8c1.5-0.3,2.7-1.4,3.2-2.9l1-3.2L21-13.9
			L44.6,11.6z"/>
		
			<linearGradient id="SVGID_1_" gradientUnits="userSpaceOnUse" x1="367.3979" y1="-25.4883" x2="493.1759" y2="-25.4883" gradientTransform="matrix(1 0 0.1393 0.9963 -402.5571 10.444)">
			<stop  offset="0" style="stop-color:#444B8C"/>
			<stop  offset="0.9964" style="stop-color:#26264F"/>
		</linearGradient>
		<path class="st6" d="M85.7-2.4c-0.7-2-2.5-3.3-4.6-3.2L68.3-5.4c-5.8,0.1-10.7-4.2-11.3-10l-1.4-13.5c-0.3-2.5-2.4-4.4-4.9-4.4
			l-4.2,0c-3.2,0-5.7-2.6-5.7-5.8c0-5.6-4.6-10.1-10.2-10.1c-5.7,0-10.4,4.6-10.5,10.2c0,0.8-0.2,1.7-0.5,2.4
			c-1,2.1-3.2,3.4-5.4,3.4l-4.3,0c-2.6,0-4.8,2-5.1,4.5L3-14.6C2.3-8.7-2.9-4.1-9.1-4L-23-3.7c-2.3,0-4.3,1.5-5.1,3.6l-6,16.7
			c-0.5,1.4,0.5,2.7,2,2.7l121.1-3.4c1.3,0,2.3-1.4,1.9-2.7L85.7-2.4z M30.4-37.4c-1.7,0-3-1.3-3-3c0-1.7,1.4-3,3.1-3
			c1.7,0,3,1.3,3,3C33.5-38.7,32.1-37.4,30.4-37.4z"/>
		<path class="st1" d="M86.5-2.1c-0.7-2-2.5-3.3-4.6-3.2L69-5.1c-5.8,0.1-10.7-4.2-11.3-10l-1.4-13.5c-0.3-2.5-2.4-4.4-4.9-4.4
			l-4.2,0c-3.2,0-5.7-2.6-5.7-5.8c0-5.6-4.6-10.1-10.2-10.1c-5.7,0-10.4,4.6-10.5,10.2c0,0.8-0.2,1.7-0.5,2.4
			c-1,2.1-3.2,3.4-5.4,3.4l-4.3,0c-2.6,0-4.8,2-5.1,4.5L3.7-14.3C3-8.4-2.2-3.8-8.4-3.6l-13.9,0.3c-2.3,0-4.3,1.5-5.1,3.6l-6,16.7
			c-0.5,1.4,0.5,2.7,2,2.7l121.2-3.4c1.3,0,2.3-1.4,1.9-2.7L86.5-2.1z M31.2-37.1c-1.7,0-3-1.3-3-3c0-1.7,1.4-3,3.1-3
			c1.7,0,3,1.3,3,3C34.2-38.4,32.9-37.1,31.2-37.1z"/>
		<g>
			<path class="st7" d="M66.7,6.7C55,0.8,47.3,6,39.6-1c-8.3-7.4-4.9-18-13-22.4c-5.2-2.8-9,0.2-14.7-0.3c-2.1-0.2-4.3-0.8-6.8-2.2
				L3.7-14.3C3-8.4-2.2-3.8-8.4-3.6l-13.9,0.3c-2.3,0-4.3,1.5-5.1,3.6l-6,16.7c-0.5,1.4,0.5,2.7,2,2.7l110-3
				C75.3,12.4,71.3,9,66.7,6.7z"/>
		</g>
		<g>
			<linearGradient id="SVGID_2_" gradientUnits="userSpaceOnUse" x1="103.3586" y1="56.9153" x2="36.8861" y2="225.9867">
				<stop  offset="0" style="stop-color:#AA80F9"/>
				<stop  offset="0.9964" style="stop-color:#6165D7"/>
			</linearGradient>
			<path class="st8" d="M82.5,214.1l-54.7,5.2l-2,29.4c-0.3,5-4.2,9-9.3,9.5L-11,261c-7.1,0.7-13.2-5.3-12.3-12.2L2.8,38.3
				c0.6-4.7,4.4-8.3,9.3-8.6l36.5-2.3c4.8-0.3,9.5,2.7,11.3,7.2l79.6,197.9c2.6,6.3-1.5,13.2-8.2,13.9l-27.6,2.8
				c-4.9,0.5-9.7-2.5-11.3-7.2L82.5,214.1z M66,166.6L37.8,87.2l-6.1,82.4L66,166.6z"/>
		</g>
	</g>
	<g>
		<linearGradient id="SVGID_3_" gradientUnits="userSpaceOnUse" x1="40.1223" y1="260.8556" x2="43.7582" y2="289.2693">
			<stop  offset="0" style="stop-color:#FFC444"/>
			<stop  offset="9.845980e-002" style="stop-color:#FEBC46"/>
			<stop  offset="0.9964" style="stop-color:#F36F56"/>
		</linearGradient>
		<path class="st9" d="M40.4,229.5c0,0,17.7,18.7,14.2,30.6c-3.5,11.9-31.3-8.2-31.3-8.2L40.4,229.5z"/>
		
			<linearGradient id="SVGID_4_" gradientUnits="userSpaceOnUse" x1="-2347.5774" y1="-447.7706" x2="-2369.7974" y2="-386.2959" gradientTransform="matrix(0.8034 0.5955 -0.5955 0.8034 1668.8297 1927.7982)">
			<stop  offset="0" style="stop-color:#444B8C"/>
			<stop  offset="0.9964" style="stop-color:#26264F"/>
		</linearGradient>
		<path class="st10" d="M33.4,218.2c1.4-0.2,5.8-2.2,7-5.9c0.8-2.5-0.6-3.9,0.5-6.5c1.2-2.9,3.6-2.5,5.7-5.3c2.5-3.3,3-8.7,1-12.2
			c-1.6-2.8-3.5-2.1-6.5-6c-2.6-3.4-1.8-4.8-3.7-6.5c-3.6-3.4-8.3,0.3-14.8-1.1c-9-2.1-8.8-11.2-15.9-11.8
			c-6.5-0.5-14.5,6.6-15.7,13.4c-0.5,2.7,0.3,4.2-1,6.6c-2,3.7-5.6,2.7-8.5,6.4c-2.2,2.8-3.3,7.4-1.6,10.2c2.1,3.2,6.6,1.4,8.6,4.6
			c2.2,3.4-1.8,7.2,0.3,10.8c2,3.4,7.8,3.8,11.1,3.6c4-0.2,7.9-1.4,11.9-2C19.3,215.3,26.1,219.3,33.4,218.2z"/>
		<linearGradient id="SVGID_5_" gradientUnits="userSpaceOnUse" x1="4.8269" y1="279.4592" x2="3.8892" y2="297.9774">
			<stop  offset="0" style="stop-color:#893976"/>
			<stop  offset="1" style="stop-color:#311944"/>
		</linearGradient>
		<polygon class="st11" points="3.8,293.7 47.6,282.7 49.8,293.4 9.7,311.8 -22,304 -41.1,285.2 		"/>
		
			<linearGradient id="SVGID_6_" gradientUnits="userSpaceOnUse" x1="-425.2706" y1="267.0897" x2="-420.3332" y2="305.674" gradientTransform="matrix(-1 0 0 1 -414.7368 0)">
			<stop  offset="0" style="stop-color:#FFC444"/>
			<stop  offset="0.9964" style="stop-color:#F36F56"/>
		</linearGradient>
		<path class="st12" d="M45.7,238c1.5-3.6-8.6-13.3-21.2-16.9c-9.2-2.6-16.9-1.2-20.9-0.4c-13.1,2.3-21.2,8.9-24.3,11.6
			c2.5,1.4,9.4,5.5,12.9,13.4c3.3,7.6,0.9,14.6-0.3,18.7c-1.1,3.5-2.7,8.9-7.6,12.8c-2.6,2.1-5.4,3.1-11,5.2
			c-6.7,2.5-10.8,3.1-10.8,4.5c0,1.7,6.8,3.1,6.6,4.2c0,0.1-0.1,0.1-0.1,0.1c-0.1,0.7,7.5,2.6,17.1,4c11.2,1.7,16.8,2.5,22.2,1.6
			c8.4-1.4,7-4,15.4-5.5c9.8-1.7,14.2,1.4,23-2c1.5-0.6,7.4-2.9,7.3-5.3c-0.2-2.9-10-1.9-18.6-9.5c-3.8-3.3-5.6-6.8-6.2-8.1
			c-0.8-1.7-4.2-10.4-0.8-20c0.2-0.6,0.4-0.8,0.6-1.2C33,238.2,44.3,241.4,45.7,238z"/>
		
			<linearGradient id="SVGID_7_" gradientUnits="userSpaceOnUse" x1="-399.4068" y1="264.5441" x2="-394.4821" y2="303.0297" gradientTransform="matrix(-1 0 0 1 -414.7368 0)">
			<stop  offset="0" style="stop-color:#FFC444"/>
			<stop  offset="9.845980e-002" style="stop-color:#FEBC46"/>
			<stop  offset="0.9964" style="stop-color:#F36F56"/>
		</linearGradient>
		<path class="st13" d="M2.7,253.3c2.1,4.1-5.3,15.9-15.6,16.9c-5.6,0.5-11.1-2.2-14.4-6.3c-5.1-6.3-3.5-14.2-3-17
			c3.3-16.3,22.4-23,24.1-23.6c4.7,7.2,4.6,11.8,3.6,14.6c-0.8,2.3-2.9,4.9-7.2,9.9c-3.8,4.5-5.6,6.1-5.1,7.4
			c0.7,1.6,4.3,1.7,6.6,1.3c4.2-0.9,6.6-4.3,7.2-5.2C0.2,251.4,2,251.9,2.7,253.3z"/>
		<linearGradient id="SVGID_8_" gradientUnits="userSpaceOnUse" x1="9.7655" y1="200.958" x2="10.2612" y2="224.5061">
			<stop  offset="0" style="stop-color:#311944"/>
			<stop  offset="1" style="stop-color:#A03976"/>
		</linearGradient>
		<path class="st14" d="M8.9,210.6c0,0-0.8,6.7-3.3,8.2c-2.5,1.5-6.4,3.5-6.9,4.1c-0.4,0.5,15.3,2.2,23-1.7l0,0
			c-2.6-0.5-3.3-0.7-3.3-0.7c-0.7-0.2-2-0.6-3.3-1.3c-0.9-0.5-2.3-1.5-3.6-3.4l0-3.7L8.9,210.6z"/>
		
			<linearGradient id="SVGID_9_" gradientUnits="userSpaceOnUse" x1="-276.6922" y1="-633.6943" x2="-303.1482" y2="-600.9037" gradientTransform="matrix(-0.9733 0.2295 0.2295 0.9733 -135.1408 867.5438)">
			<stop  offset="0" style="stop-color:#311944"/>
			<stop  offset="1" style="stop-color:#A03976"/>
		</linearGradient>
		<path class="st15" d="M10.2,214.2c0,0,2.3,6.7,9.3,6.3c6.2-0.3,7.3-15.8,3.4-18.8c-1.3-1-4.1-1.6-6.3-1c-1.5,0.4-6.2,3.6-5.7,9
			c-1.3-0.8-2.6-0.9-3.2-0.2c-0.7,0.8,0.2,2.3,0.3,2.7C8.7,213.3,9.7,213.9,10.2,214.2z"/>
		<g>
			<linearGradient id="SVGID_10_" gradientUnits="userSpaceOnUse" x1="11.2836" y1="296.0716" x2="66.0886" y2="296.0716">
				<stop  offset="0" style="stop-color:#893976"/>
				<stop  offset="1" style="stop-color:#311944"/>
			</linearGradient>
			<path class="st16" d="M11.3,308.4c8.7-4.7,15.1-9.4,19.5-13c8.6-7.1,12.5-12.4,21.2-14.5c1.6-0.4,10.4-2.5,13.2,1.4
				c3.2,4.3-3,13.4-3.7,14.5c-11.1,16.4-39.3,15.7-48.2,15.1C12.6,310.8,11.9,309.6,11.3,308.4z"/>
			<linearGradient id="SVGID_11_" gradientUnits="userSpaceOnUse" x1="11.2837" y1="296.1991" x2="66.0885" y2="296.1991">
				<stop  offset="0" style="stop-color:#893976"/>
				<stop  offset="1" style="stop-color:#311944"/>
			</linearGradient>
			<path class="st17" d="M65.2,282.3c-0.8-1.1-2.2-1.8-3.7-2.1c0.5,1.8,0.6,3.4-0.1,4.8c-1.7,3.9-6.9,2.7-10.5,7.3
				c-3.5,4.5-1.1,8.9-4.2,10.8c-3.6,2.1-8-2.9-11.9-0.5c-2.6,1.6-1.8,4.7-4.8,6.4c-2.1,1.2-4.2,0.6-6.6,0.3
				c-2.7-0.3-6.5-0.4-11.2,0.6c0.4,0.6,0.7,1.3,1.1,1.9c8.9,0.5,37.1,1.3,48.2-15.1C62.2,295.7,68.4,286.6,65.2,282.3z"/>
			<linearGradient id="SVGID_12_" gradientUnits="userSpaceOnUse" x1="26.8032" y1="317.3967" x2="16.2549" y2="304.27">
				<stop  offset="0" style="stop-color:#AA80F9"/>
				<stop  offset="0.9964" style="stop-color:#6165D7"/>
			</linearGradient>
			<path class="st18" d="M17.9,310.8c0,0,1.6-1.1,3.9-0.4c2.3,0.8,6,1.4,6,2.5c0,1.1-3.7,1.8-6.2,1.4
				C19.1,313.9,17.2,311.8,17.9,310.8z"/>
			<linearGradient id="SVGID_13_" gradientUnits="userSpaceOnUse" x1="20.3271" y1="314.2795" x2="5.7935" y2="295.9953">
				<stop  offset="0" style="stop-color:#FFC444"/>
				<stop  offset="0.9964" style="stop-color:#F36F56"/>
			</linearGradient>
			<path class="st19" d="M15.5,308.9l4.3,1.4c0,0,0.7,1.2-0.2,1.9c-0.9,0.7-4.2-0.8-4.2-0.8L15.5,308.9z"/>
			<linearGradient id="SVGID_14_" gradientUnits="userSpaceOnUse" x1="-10.9616" y1="295.4583" x2="-23.0373" y2="320.5759">
				<stop  offset="0" style="stop-color:#893976"/>
				<stop  offset="1" style="stop-color:#311944"/>
			</linearGradient>
			<path class="st20" d="M-43.6,289.3c-1.3,7.3,14.5,15.2,18.1,17c7.4,3.7,21.2,8.9,41.8,6.9c0.3-1.6,0.5-3.3,0.8-4.9
				c-2.7-0.9-6.7-2.4-11.4-4.7c-8-3.9-11-6.7-22.1-13.4c-12.2-7.4-15.8-8.4-19.5-7.4C-38.9,283.5-43,285.9-43.6,289.3z"/>
		</g>
		<g>
			<path class="st1" d="M20.7,239.9l-17.1-8.3l15.7-4.2c0.4-0.1,0.7-0.1,1.1-0.1l15.7,2.2L20.7,239.9z"/>
			<path class="st4" d="M22,256.5l14.2-5.6c0.5-0.2,0.9-0.8,0.9-1.5v-19c0-0.6-0.4-1-0.9-0.9L22,232.7c-0.6,0.1-1.1,0.8-1.1,1.5
				v21.5C20.8,256.4,21.3,256.7,22,256.5z"/>
			<path class="st2" d="M3.9,252.9l17.2,3.7c0.6,0.1,1.1-0.3,1.1-1v-21.6c0-0.7-0.5-1.3-1.1-1.3l-17.2-1.1c-0.5,0-0.9,0.4-0.9,1
				v19.1C3,252.2,3.4,252.8,3.9,252.9z"/>
		</g>
		
			<linearGradient id="SVGID_15_" gradientUnits="userSpaceOnUse" x1="-455.3474" y1="255.2566" x2="-449.7499" y2="226.6949" gradientTransform="matrix(-1 0 0 1 -414.7368 0)">
			<stop  offset="0" style="stop-color:#311944"/>
			<stop  offset="1" style="stop-color:#A03976"/>
		</linearGradient>
		<path class="st21" d="M37.1,245.8c0,0,2.8-2.6,3.1-5.6c0.3-3-1.8-5.5-3.9-6.1c-2.1-0.6-3.2,0.3-1.8,3.3
			C35.9,240.4,38.1,242.3,37.1,245.8z"/>
		
			<linearGradient id="SVGID_16_" gradientUnits="userSpaceOnUse" x1="5336.9863" y1="2493.5525" x2="5342.5835" y2="2464.991" gradientTransform="matrix(0.7481 -0.6636 0.6636 0.7481 -5635.1768 1940.1271)">
			<stop  offset="0" style="stop-color:#311944"/>
			<stop  offset="1" style="stop-color:#A03976"/>
		</linearGradient>
		<path class="st22" d="M8.5,254.5c0,0-3.8-0.1-6.1-2.1c-2.2-2.1-2.3-5.3-1.1-7.1c1.1-1.8,2.6-1.9,3.5,1.3
			C5.8,249.7,5.4,252.6,8.5,254.5z"/>
	</g>
	<g>
		<g>
			
				<linearGradient id="SVGID_17_" gradientUnits="userSpaceOnUse" x1="-4908.3188" y1="307.4513" x2="-4893.7305" y2="307.4513" gradientTransform="matrix(1 0 0 1 5123.3613 0)">
				<stop  offset="0" style="stop-color:#311944"/>
				<stop  offset="1" style="stop-color:#6B3976"/>
			</linearGradient>
			<path class="st23" d="M218,307.4l7.3-4.4h3.3c0,0,1.1,4.2,1,4.4c-1.5,2.4-8.3,4.2-12.6,4.4c-0.7,0-1.7,0-2-0.5
				C214.7,310.5,216.6,308.7,218,307.4z"/>
			
				<linearGradient id="SVGID_18_" gradientUnits="userSpaceOnUse" x1="-4898.2671" y1="306.6226" x2="-4886.1929" y2="270.4" gradientTransform="matrix(1 0 0 1 5123.3613 0)">
				<stop  offset="0" style="stop-color:#FFC444"/>
				<stop  offset="0.9964" style="stop-color:#F36F56"/>
			</linearGradient>
			<path class="st24" d="M225.5,298.3c0,2.6-0.1,4.4-0.7,5.2c-0.5,0.6,3.9,1.8,3.9-0.4c0-1.4,0.2-3.9,0.5-4.6
				C227.9,298.4,226.7,298.3,225.5,298.3z"/>
		</g>
		<g>
			
				<linearGradient id="SVGID_19_" gradientUnits="userSpaceOnUse" x1="-4957.1216" y1="301.6951" x2="-4942.5332" y2="301.6951" gradientTransform="matrix(1 0 0 1 5123.3613 0)">
				<stop  offset="0" style="stop-color:#311944"/>
				<stop  offset="1" style="stop-color:#6B3976"/>
			</linearGradient>
			<path class="st25" d="M169.2,301.7l7.3-4.4h3.3c0,0,1.1,4.2,1,4.4c-1.5,2.4-8.3,4.2-12.6,4.4c-0.7,0-1.7,0-2-0.5
				C165.9,304.7,167.8,302.9,169.2,301.7z"/>
			
				<linearGradient id="SVGID_20_" gradientUnits="userSpaceOnUse" x1="-4946.2925" y1="301.4236" x2="-4932.9961" y2="261.5346" gradientTransform="matrix(1 0 0 1 5123.3613 0)">
				<stop  offset="0" style="stop-color:#FFC444"/>
				<stop  offset="0.9964" style="stop-color:#F36F56"/>
			</linearGradient>
			<path class="st26" d="M178.7,292.6c-1.1,2-2.2,4.3-2.8,5.1c-0.5,0.6,3.1,1.7,3.9-0.4c0.6-1.7,2.3-3.9,2.6-4.6
				C181.2,292.7,180,292.6,178.7,292.6z"/>
		</g>
		
			<linearGradient id="SVGID_21_" gradientUnits="userSpaceOnUse" x1="1559.4587" y1="150.6302" x2="1591.7438" y2="272.2617" gradientTransform="matrix(-1 0 0 1 1769.6465 0)">
			<stop  offset="0" style="stop-color:#311944"/>
			<stop  offset="1" style="stop-color:#6B3976"/>
		</linearGradient>
		<path class="st27" d="M180.2,172.9c2.8,18.8,4.7,42.1,3,68.8c-1.2,19.7-4.1,37.2-7.5,52.1c2.3,0.6,4.5,1.2,6.8,1.8
			c2.8-0.6,6.8-2.1,9.5-5.5c3.6-4.5,2-8.7,4.5-16.3c2.4-7.2,5.3-7.6,8.3-13.8c3.8-8.1,1.5-13,1.8-23.8c0.5-18.2,7.5-19.7,9.8-42.3
			c1.2-11.9,1.8-18.7-2.5-23C207.8,164.8,194.6,165.9,180.2,172.9z"/>
		
			<linearGradient id="SVGID_22_" gradientUnits="userSpaceOnUse" x1="1519.6899" y1="234.9566" x2="1566.0107" y2="234.9566" gradientTransform="matrix(-1 0 0 1 1769.6465 0)">
			<stop  offset="0" style="stop-color:#311944"/>
			<stop  offset="1" style="stop-color:#6B3976"/>
		</linearGradient>
		<path class="st28" d="M195.8,174.1c7.7,18,15.7,40.9,21,68.3c4.2,21.9,5.8,41.6,6,58.3c2.5,0,5,0,7.5,0c2.2-3.2,5-8.1,6.8-14.5
			c1.7-6.4,0.6-8.1,1.8-18.3c1.5-13.9,3.5-14.5,3.3-22.8c-0.3-9.5-3.2-9.5-4.3-19c-1.6-14.1,4.2-18.5,4-31.5
			c-0.1-5.9-1.5-14.7-8-25.5C221.1,170.8,208.4,172.5,195.8,174.1z"/>
		
			<linearGradient id="SVGID_23_" gradientUnits="userSpaceOnUse" x1="1684.6201" y1="163.0066" x2="1670.8553" y2="210.0573" gradientTransform="matrix(-1 0 0 1 1769.6465 0)">
			<stop  offset="0" style="stop-color:#FFC444"/>
			<stop  offset="0.9964" style="stop-color:#F36F56"/>
		</linearGradient>
		<path class="st29" d="M97.2,171.9l-2.9,2.6c0,0-6.5-0.3-8.8,0.3c-2.3,0.6-6.3,2.6-6.3,2.6s1,1.5,2.4,0.9c1.4-0.6,3.6-1.3,4-1.1
			c0.4,0.2,1.4,2.9,4.8,3.3c3.4,0.4,5-3.5,5-3.5l3.2-2.7L97.2,171.9z"/>
		<path class="st4" d="M130.9,103.3c-1.2,0.1-3.5,0.9-8.8,10.7c-6.8,12.7-8.6,22.1-11.3,29.8c-2.4,7.2-7,17.2-16.5,28.2
			c1.6,1.6,3.1,3.3,4.7,4.9c13.4-0.3,20.1-4.6,23.7-8.4c5.2-5.6,3.6-9.9,9.9-18.4c7.4-9.9,13-8.6,15.6-15.2
			C153,122.5,139.4,102.2,130.9,103.3z"/>
		<linearGradient id="SVGID_24_" gradientUnits="userSpaceOnUse" x1="94.2798" y1="140.0223" x2="149.1527" y2="140.0223">
			<stop  offset="0" style="stop-color:#AA80F9"/>
			<stop  offset="0.9964" style="stop-color:#6165D7"/>
		</linearGradient>
		<path class="st30" d="M130.9,103.3c-1.2,0.1-3.5,0.9-8.8,10.7c-6.8,12.7-8.6,22.1-11.3,29.8c-2.4,7.2-7,17.2-16.5,28.2
			c1.6,1.6,3.1,3.3,4.7,4.9c13.4-0.3,20.1-4.6,23.7-8.4c5.2-5.6,3.6-9.9,9.9-18.4c7.4-9.9,13-8.6,15.6-15.2
			C153,122.5,139.4,102.2,130.9,103.3z"/>
		<path class="st4" d="M198.1,85.8c-7.7-2.5-13.7-1.8-24.4-0.6c-15.6,1.8-25.7,7-34.3,11.4c-8.5,4.4-10.8,6.9-12,9.8
			c-2.8,6.7,0.6,13.9,2.8,18.4c5.6,11.4,10.8,11,22.7,24.8c10.5,12.1,15.7,18.1,19.1,27c1.5,3.9,3,9,7.9,12
			c4.7,2.9,10.1,2.3,13.1,1.9c12.8-1.7,14-10,22.3-9.4c6.7,0.5,8.1,5.9,19.5,7.7c5.1,0.8,6.6,0,7.3-0.6c2.8-2.2,2.5-7.5-0.2-18.2
			c-4.1-16.5-7.7-21.8-11.1-34.9c-3.5-13.6-0.8-12.4-3.8-20.1C226.2,112.5,218.1,92.2,198.1,85.8z"/>
		
			<linearGradient id="SVGID_25_" gradientUnits="userSpaceOnUse" x1="1600.2281" y1="130.7867" x2="1622.8966" y2="204.9187" gradientTransform="matrix(-1 0 0 1 1769.6465 0)">
			<stop  offset="0" style="stop-color:#FFC444"/>
			<stop  offset="0.9964" style="stop-color:#F36F56"/>
		</linearGradient>
		<path class="st31" d="M196.5,154.2l-27.1-29.7c-0.7-0.9-1.7-1.3-2.8-1.1l-31,5.1c-1.3,0.2-1.9,1.8-1.1,2.8l25.2,32.4
			c0.7,0.9,1.8,1.3,2.9,1.1l32.1-5.9C196.9,158.4,197.8,155.9,196.5,154.2z"/>
		
			<linearGradient id="SVGID_26_" gradientUnits="userSpaceOnUse" x1="1583.4178" y1="133.3995" x2="1569.653" y2="180.4504" gradientTransform="matrix(-1 0 0 1 1769.6465 0)">
			<stop  offset="0" style="stop-color:#FFC444"/>
			<stop  offset="0.9964" style="stop-color:#F36F56"/>
		</linearGradient>
		<path class="st32" d="M197.6,144.6l-5.8-2.5c0,0-2.2-3.2-4-3.7c-1.8-0.5-8.2,0.2-8.2,0.2s0.6,2.5,1.9,2.9c1.3,0.4,5.2,0.7,5.8,2
			c0.6,1.3,2.9,2.2,3.8,1.8c0.8-0.4,6.2,1.4,6.2,1.4L197.6,144.6z"/>
		
			<linearGradient id="SVGID_27_" gradientUnits="userSpaceOnUse" x1="1556.0079" y1="157.7964" x2="1635.5944" y2="83.4658" gradientTransform="matrix(-1 0 0 1 1769.6465 0)">
			<stop  offset="0" style="stop-color:#AA80F9"/>
			<stop  offset="0.9964" style="stop-color:#6165D7"/>
		</linearGradient>
		<path class="st33" d="M195.6,183.8c2.7-3.3,1.2-7.2,4.9-10.5c5.9-5.4,16.7-1.4,17.3-3.4c0.7-2.4-15.5-5.8-17.3-15
			c-0.8-4.2,2.2-4.9,1.9-10.5c-0.3-5.3-3.6-9.6-10.1-18c-5.2-6.7-6.6-7.2-6.8-9.8c-0.6-7.7,9.1-13,13.1-15.8
			c4.9-3.4,10.1-5.1,14.9-5.9c9,8.2,13,18.4,13.7,20.2c2.9,7.7,0.2,6.5,3.8,20.1c3.4,13.1,7,18.4,11.1,34.9c2.6,10.7,3,16,0.2,18.2
			c-0.7,0.6-2.2,1.4-7.3,0.6c-11.4-1.8-12.9-7.2-19.5-7.7c-8.4-0.6-9.5,7.7-22.3,9.4c-3.1,0.4-8.4,1-13.1-1.9
			c-1.1-0.7-2-1.4-2.7-2.2C188.5,188.5,193.4,186.5,195.6,183.8z"/>
		<g>
			
				<linearGradient id="SVGID_28_" gradientUnits="userSpaceOnUse" x1="1401.3562" y1="-2864.8936" x2="1403.1929" y2="-2913.8174" gradientTransform="matrix(-0.6867 0.7269 0.7269 0.6867 3213.6577 1054.1495)">
				<stop  offset="0" style="stop-color:#FFC444"/>
				<stop  offset="0.9964" style="stop-color:#F36F56"/>
			</linearGradient>
			<path class="st34" d="M143.2,77.7c1.7,4.1,8.1,14.5,22,9.4c3.7-1.4,4.3-0.9,4.6-0.6c1,1.4-6.4,10.7-16.9,13.5
				c-6.4,1.7-13.3,0.9-13.7-0.9c-0.4-1.8,4.2-1.6,4.7-5.4c0.4-2.6-4.9-5.7-7.6-7.5C136.8,82.8,142.8,81.1,143.2,77.7z"/>
			<g>
				
					<linearGradient id="SVGID_29_" gradientUnits="userSpaceOnUse" x1="-3063.6958" y1="-2045.6912" x2="-3075.4219" y2="-2075.4731" gradientTransform="matrix(0.8439 -0.5366 0.5366 0.8439 3841.3469 177.0621)">
					<stop  offset="0" style="stop-color:#444B8C"/>
					<stop  offset="0.9964" style="stop-color:#26264F"/>
				</linearGradient>
				<path class="st35" d="M131.7,85.8c-2.4-0.8-4.3-3.5-4-6.1c0.3-2.3,2.2-3.7,3.4-4.6c3.3-2.5,8.8-3.9,12.3-1.9
					c2.1,1.2,2.5,6,2.7,6.9c0.1,1-0.3,1.6-0.6,2.5c-0.3,1.3-0.8,3.3-1.5,6.6c-0.6-0.5-1.3-1.1-2.3-1.7c-0.4-0.2-1.8-1.1-3.4-1.5
					C135,85.1,133.9,86.5,131.7,85.8z"/>
				
					<linearGradient id="SVGID_30_" gradientUnits="userSpaceOnUse" x1="1017.0721" y1="-1946.4719" x2="1016.5475" y2="-1904.2063" gradientTransform="matrix(-0.8751 0.4839 0.4839 0.8751 1970.0417 1293.1624)">
					<stop  offset="0" style="stop-color:#FFC444"/>
					<stop  offset="0.9964" style="stop-color:#F36F56"/>
				</linearGradient>
				<path class="st36" d="M145.9,85.7c0,0,0,4.9-4.9,7.4c-4.4,2.3-10.6-5.8-9.2-9.2c0.5-1.1,2.1-2.4,3.8-3c1-0.3,1.5-0.2,3.1-0.7
					c1.5-0.5,1.8-0.8,2.4-0.8c0.7,0.1,1.7,0.8,2.6,3.7c0.3-1.2,1.1-2.1,2-2.2c0.1,0,0.5,0,0.9,0.2C147.8,81.8,147.6,83.6,145.9,85.7
					z"/>
			</g>
		</g>
		<path class="st4" d="M173.3,88.4c5.1-8.6,29-5.4,45,3.9c5.2,3.1,21.2,12.4,22.3,28.5c0.1,1.8,0.4,8.9-3.8,15.6
			c-7,11.2-23.7,16.2-41.3,11.8c0.2-1.9,0.4-3.8,0.6-5.6c1.5,0.1,7.5,0.1,12.8-4.3c1.1-0.9,7.4-6.1,6.4-10.9
			c-1.7-8-21.6-3.6-34.5-17.1C175,104.4,170,94.1,173.3,88.4z"/>
	</g>
</g>
</svg>
