<?xml version="1.0" encoding="utf-8"?>
<!-- Generator: Adobe Illustrator 19.0.0, SVG Export Plug-In . SVG Version: 6.00 Build 0)  -->
<svg version="1.1" id="Layer_1" xmlns="http://www.w3.org/2000/svg" xmlns:xlink="http://www.w3.org/1999/xlink" x="0px" y="0px"
	 viewBox="-193 -106 512 512" style="enable-background:new -193 -106 512 512;" xml:space="preserve">
<style type="text/css">
	.st0{fill:#DCD768;}
	.st1{fill:#0F7986;}
</style>
<circle class="st0" cx="63" cy="150" r="256"/>
<g>
	<g>
		<g>
			<path class="st1" d="M149.2,72.4c-3,0-5.7,0.9-8.2,2.3v-6.3c0-9-7.3-16.3-16.3-16.3c-3.4,0-6.5,1-9.1,2.8
				c-2.2-6.4-8.2-11-15.3-11c-7.1,0-13.1,4.6-15.3,11C82.3,53,79.1,52,75.7,52c-7.6,0-13.9,5.2-15.7,12.2H33.3
				c-2-7.5-5.6-14.4-10.6-20v-0.4h-0.3c-9-10-21.9-16.3-36.4-16.3h-53c-11.3,0-20.4,9.2-20.4,20.4V105c0,11.3,9.2,20.4,20.4,20.4h53
				c14.5,0,27.4-6.3,36.4-16.3h0.3v-0.4c5-5.7,8.7-12.5,10.6-20h26.1v75.8l-4.1-4.1v-20.8c0-10.1-8.2-18.4-18.4-18.4
				s-18.4,8.2-18.4,18.4v39.8l21.3,39.1c2.8,5.1,7.1,9.3,12.3,11.9l7.2,3.6v46.4h8.2V229l-11.7-5.9c-3.7-1.9-6.8-4.8-8.8-8.5
				l-20.3-37.2v-37.7c0-5.6,4.6-10.2,10.2-10.2s10.2,4.6,10.2,10.2v24.1l10.6,10.6h9.9V88.7h8.2V64.2h-7c1.4-2.4,4-4.1,7-4.1
				c4.5,0,8.2,3.7,8.2,8.2v69.4H92V68.3v-8.2c0-4.5,3.7-8.2,8.2-8.2c4.5,0,8.2,3.7,8.2,8.2v8.2v4.1v65.3h8.2V72.4v-4.1
				c0-4.5,3.7-8.2,8.2-8.2c4.5,0,8.2,3.7,8.2,8.2v20.4v4.1v44.9h8.2V92.8v-4.1c0-4.5,3.7-8.2,8.2-8.2c4.5,0,8.2,3.7,8.2,8.2v122.4
				c0,7.8-4.3,14.8-11.3,18.2l-5,2.5v48.6h8.2v-43.6l0.5-0.3c9.7-4.9,15.8-14.7,15.8-25.5V88.7C165.5,79.7,158.2,72.4,149.2,72.4z
				 M-14,117.3h-53c-6.7,0-12.2-5.5-12.2-12.2V47.9c0-6.7,5.5-12.2,12.2-12.2h53c9.1,0,17.6,3.1,24.4,8.2h-4
				c-6.7,0-12.2,5.5-12.2,12.2v40.8c0,6.7,5.5,12.2,12.2,12.2h4C3.5,114.2-4.9,117.3-14,117.3z M18.5,101H6.4
				c-2.3,0-4.1-1.8-4.1-4.1V56.1c0-2.3,1.8-4.1,4.1-4.1h12.2c5.1,6.8,8.2,15.3,8.2,24.5S23.7,94.1,18.5,101z M67.6,80.5H34.7
				c0.1-1.4,0.2-2.7,0.2-4.1s-0.1-2.7-0.2-4.1h32.9V80.5z"/>
			<path class="st1" d="M82.7,163.4l-5.8,5.8l10.1,10.1c8.5,8.5,13.1,19.8,13.1,31.7v16.4h8.2V211c0-14.2-5.5-27.5-15.5-37.5
				L82.7,163.4z"/>
			<path class="st1" d="M-71.2,109.1H-14V43.8h-57.1V109.1z M-63,52h40.8v49H-63V52z"/>
			<rect x="-54.9" y="84.6" class="st1" width="8.2" height="8.2"/>
			<rect x="-38.5" y="84.6" class="st1" width="8.2" height="8.2"/>
		</g>
	</g>
</g>
</svg>
