<svg xmlns="http://www.w3.org/2000/svg" viewBox="0 0 320 111.5" preserveAspectRatio="xMidYMid meet" class="css-1nkzpyt" id="fgfgcgac"><defs id="SvgjsDefs1001"><linearGradient id="SvgjsLinearGradient1011"><stop id="SvgjsStop1012" stop-color="#2d388a" offset="0"/><stop id="SvgjsStop1013" stop-color="#00aeef" offset="1"/></linearGradient></defs><g id="SvgjsG1007" featurekey="symbolFeature-0" transform="matrix(1,0,0,1,0,0)" fill="#ffcd38"><path xmlns="http://www.w3.org/2000/svg" d="M74.534,61.18c3.332,3.95,5.72,8.723,6.806,13.976c3.824,0.317,6.83,3.52,6.83,7.424c0,4.119-3.34,7.459-7.458,7.459  c-4.12,0-7.457-3.34-7.457-7.459c0-3.477,2.382-6.389,5.603-7.213C77.645,69.703,74.82,64.58,70.9,60.552  c-0.287-0.034-0.574-0.074-0.865-0.102C69.9,66.466,60.984,71.324,50,71.324c-10.985,0-19.901-4.855-20.034-10.873  c-0.638,0.059-1.27,0.141-1.897,0.235c-4.33,4.931-6.755,11.655-6.994,19.612c6.317,0.554,11.331,8.365,11.331,17.949l-2.336,1.985  c0.197,0.308,0.314,0.667,0.314,1.06c0,1.076-0.872,1.947-1.947,1.947c-1.074,0-1.945-0.871-1.945-1.947  c0-1.074,0.872-1.946,1.945-1.946c0.375,0,0.723,0.11,1.023,0.298l2.007-1.396c0-9.166-4.972-16.598-11.104-16.598  c-6.132,0-11.103,7.434-11.103,16.6l1.838,1.274c0.244-0.11,0.516-0.178,0.804-0.178c1.075,0,1.947,0.87,1.947,1.944  c0,1.076-0.872,1.946-1.947,1.946c-1.076,0-1.948-0.87-1.948-1.946c0-0.479,0.182-0.914,0.471-1.254l-2.104-1.789  c0-9.049,4.467-16.514,10.282-17.791c0.259-7.276,2.188-13.926,6.367-19.151C10.627,64.894,0,77.86,0,93.315  C0,111.544,14.777,111.5,33.005,111.5h33.99c18.229,0,33.005,0.045,33.005-18.185C100,77.682,89.129,64.591,74.534,61.18z   M70.721,100.375h-4.99v4.99h-4.254v-4.99h-4.99v-4.252h4.99V91.13h4.254v4.99h4.99V100.375z"/><path xmlns="http://www.w3.org/2000/svg" d="M74.051,22.539C72.2,9.778,61.727,0,49.085,0c-12.646,0-23.12,9.783-24.966,22.55c-0.19,1.315-0.289,2.663-0.289,4.034  c0,0.558,0.021,1.109,0.052,1.658c0.048,0.802,0.124,1.595,0.237,2.376c0.018,0.239,0.038,0.476,0.059,0.712  c1.593,18.021,12.136,31.942,24.907,31.942c12.937,0,23.588-14.285,24.966-32.645c0.19-1.318,0.29-2.669,0.29-4.044  S74.241,23.858,74.051,22.539z M71.251,27.565c-0.015,1.081-0.097,2.146-0.248,3.187c-0.832,11.081-5.512,20.472-12.046,25.259  c-2.97,2.176-6.323,3.401-9.872,3.401c-0.698,0-1.389-0.047-2.071-0.141c-0.682-0.092-1.354-0.23-2.017-0.412  c-5.96-1.632-11.075-6.766-14.305-13.885c-1.795-3.955-3.008-8.522-3.46-13.442c0.983,0.247,2.189,0.724,3.502,1.641  c0,0-0.257-1.535-0.432-3.682c-0.24-2.951-0.32-7.056,0.639-9.955c0.513-1.552,1.32-2.76,2.566-3.252c0,0,17.453,8.489,29.188,0  c0,0,5.334,8.439,5.357,13.45c0.003,0.715-0.102,1.361-0.346,1.902L71.251,27.565C71.251,27.564,71.251,27.564,71.251,27.565  L71.251,27.565z"/><path xmlns="http://www.w3.org/2000/svg" d="M30.692,44.974c3.23,7.119,8.345,12.253,14.305,13.885C39.038,57.227,33.923,52.092,30.692,44.974z"/><path xmlns="http://www.w3.org/2000/svg" d="M67.707,31.636c0.244-0.541,0.349-1.187,0.346-1.902C68.056,30.45,67.95,31.096,67.707,31.636L67.707,31.636z"/><path xmlns="http://www.w3.org/2000/svg" d="M47.014,59.271c-0.682-0.092-1.354-0.23-2.017-0.412C45.66,59.041,46.333,59.179,47.014,59.271z"/><path xmlns="http://www.w3.org/2000/svg" d="M30.941,19.536c-0.959,2.899-0.879,7.004-0.639,9.955C30.063,26.541,29.982,22.435,30.941,19.536z"/><path xmlns="http://www.w3.org/2000/svg" d="M58.957,56.011c6.534-4.787,11.214-14.178,12.046-25.259c0.151-1.041,0.233-2.106,0.248-3.187l0,0  c-0.015,1.081-0.097,2.146-0.248,3.186C70.171,41.833,65.491,51.224,58.957,56.011z"/><path xmlns="http://www.w3.org/2000/svg" fill="#ffcd38" d="M30.735,33.174c0,0-0.257-1.536-0.433-3.683C30.477,31.638,30.734,33.173,30.735,33.174  c-1.314-0.918-2.52-1.395-3.503-1.642c0.453,4.919,1.666,9.487,3.46,13.442c-1.794-3.955-3.007-8.522-3.459-13.441  C28.215,31.779,29.422,32.257,30.735,33.174z"/><rect xmlns="http://www.w3.org/2000/svg" x="69.478" y="26.901" fill="#ffcd38" width="0.002" height="5.4"/><path xmlns="http://www.w3.org/2000/svg" fill="#ffcd38" d="M33.507,16.285c0,0,17.453,8.489,29.188,0c0,0,5.334,8.438,5.357,13.449  c-0.023-5.011-5.357-13.45-5.357-13.45C50.96,24.773,33.507,16.284,33.507,16.285c-1.246,0.491-2.053,1.699-2.566,3.251  C31.454,17.985,32.261,16.777,33.507,16.285z"/></g><g id="SvgjsG1008" featurekey="nameFeature-0" transform="matrix(1.1373976579007883,0,0,1.1373976579007883,117.72520468419842,21.35122810519054)" fill="url(#SvgjsLinearGradient1011)"><path d="M34 29.2 l0 10.8 l-6 0 l0 -10.8 c0 -2.28 -1.08 -3.84 -3.48 -3.84 c-2.36 0 -3.52 1.6 -3.52 3.84 l0 10.8 l-6 0 l0 -10.8 c0 -2.28 -1.16 -3.84 -3.56 -3.84 c-2.36 0 -3.44 1.6 -3.44 3.84 l0 10.8 l-6 0 l0 -10.8 c0 -5.8 3.96 -9.4 9.52 -9.4 c2.84 0 5.04 1.32 6.48 3.76 c1.44 -2.44 3.64 -3.76 6.48 -3.76 c5.76 0 9.52 3.8 9.52 9.4 z M51.559999999999995 30 l0 -10 l6 0 l0 18.96 c0 6.36 -4.56 10.24 -10.6 10.24 c-2.12 0 -4.24 -0.2 -6.28 -0.88 l0 -6.16 c1.72 0.92 4.04 1.24 5.96 1.24 c2.16 0 3.88 -0.64 4.68 -2.72 c0.16 -0.56 0.24 -1.16 0.24 -1.76 l0 -0.92 c-1.36 1.52 -3.12 2.2 -5.12 2.2 c-5.68 0 -9.28 -4.88 -9.28 -10.2 l0 -10 l6 0 l0 10 c0 2.72 1.08 4.64 4 4.64 c2.84 0 4.4 -1.88 4.4 -4.64 z M75.6 30 c0 -3 -1.48 -4.64 -4.52 -4.64 c-0.84 0 -1.56 0.12 -2.16 0.36 c-1.12 0.52 -1.88 1.28 -2.24 2.48 c-0.2 0.56 -0.28 1.16 -0.28 1.8 s0.08 1.24 0.28 1.8 c0.32 1.16 1.16 2 2.24 2.44 c0.6 0.28 1.32 0.4 2.16 0.4 c3.04 0 4.52 -1.64 4.52 -4.64 z M75.6 22 l0 -10 l6 0 l0 18 c0 6.36 -4.52 10.2 -10.56 10.2 c-6.16 0 -10.64 -4 -10.64 -10.12 c0 -5.64 4.16 -10.28 9.84 -10.28 c2.12 0 3.96 0.6 5.36 2.2 z M95.03999999999999 34.64 c2.92 0 4.6 -1.72 4.6 -4.64 s-1.68 -4.64 -4.6 -4.64 s-4.6 1.72 -4.6 4.64 s1.68 4.64 4.6 4.64 z M95.03999999999999 40.2 c-6.16 0 -10.6 -4.08 -10.6 -10.2 c0 -6.32 4.6 -10.2 10.6 -10.2 c6.2 0 10.6 4.08 10.6 10.2 c0 6.28 -4.64 10.2 -10.6 10.2 z M124.19999999999999 33.4 l0 6 c-2.04 0.68 -4.16 0.88 -6.28 0.88 c-6.2 0 -10.6 -4.12 -10.6 -10.24 c0 -6.36 4.56 -10.24 10.6 -10.24 c2.12 0 4.24 0.2 6.28 0.88 l0 6 c-1.76 -0.92 -3.96 -1.16 -5.92 -1.16 c-1.32 0 -2.92 0.28 -3.84 1.32 c-0.84 0.84 -1.12 2.04 -1.12 3.16 c0 0.64 0.08 1.24 0.28 1.76 c0.16 0.56 0.44 1.04 0.84 1.44 c0.88 1.08 2.52 1.36 3.84 1.36 c1.76 0 4.36 -0.32 5.92 -1.16 z M138.83999999999997 20.68 l0 5.56 l-5.6 0 l0 3.76 c0 3.08 2.04 4.64 5 4.64 c0.36 0 0.68 -0.04 0.96 -0.08 s0.52 -0.08 0.8 -0.12 l0 5.56 c-0.36 0.04 -0.64 0.12 -0.84 0.16 c-0.24 0.04 -0.64 0.04 -1.16 0.04 c-6.04 0 -10.76 -4.12 -10.76 -10.2 l0 -14.8 l6 0 l0 5.48 l5.6 0 z M151.71999999999997 34.64 c2.92 0 4.6 -1.72 4.6 -4.64 s-1.68 -4.64 -4.6 -4.64 s-4.6 1.72 -4.6 4.64 s1.68 4.64 4.6 4.64 z M151.71999999999997 40.2 c-6.16 0 -10.6 -4.08 -10.6 -10.2 c0 -6.32 4.6 -10.2 10.6 -10.2 c6.2 0 10.6 4.08 10.6 10.2 c0 6.28 -4.64 10.2 -10.6 10.2 z M171.15999999999997 30 l0 10 l-6 0 l0 -9.96 c0 -6.64 4.88 -10.24 11.04 -10.24 c0.2 0 0.48 0 0.76 0.04 s0.6 0.12 0.88 0.16 l0 5.8 c-0.2 -0.04 -0.44 -0.08 -0.72 -0.12 s-0.52 -0.08 -0.72 -0.08 c-1 0 -1.8 0.12 -2.48 0.32 c-1.12 0.4 -2.12 1.16 -2.48 2.36 c-0.2 0.52 -0.28 1.12 -0.28 1.72 z"/></g></svg>