<?xml version="1.0" encoding="utf-8"?>
<!-- Generator: Adobe Illustrator 19.0.0, SVG Export Plug-In . SVG Version: 6.00 Build 0)  -->
<svg version="1.1" id="Layer_1" xmlns="http://www.w3.org/2000/svg" xmlns:xlink="http://www.w3.org/1999/xlink" x="0px" y="0px"
	 viewBox="-193 -106 512 512" style="enable-background:new -193 -106 512 512;" xml:space="preserve">
<style type="text/css">
	.st0{fill:#FF5B62;}
	.st1{fill:#194F82;}
	.st2{fill:#56ACE0;}
	.st3{fill:#FFC10D;}
</style>
<circle class="st0" cx="63.6" cy="150" r="256"/>
<path class="st1" d="M31.1,134.4l13.5,0.5c6,0.5,11.9-3.3,10.9-10.7l-0.8-27.6c-0.1-3.6-2-6.9-5.2-8.7l-81.3-46.2
	c4.8-17.7-2.8-37.2-19.5-46.7c-19.9-11.3-45.2-4.4-56.4,15.5c-5.1,9-6.5,19.2-4.5,29c-9.4,3.1-17.5,9.8-22.6,18.6
	c-11.3,19.9-4.4,45.1,15.5,56.4c16.7,9.5,37.3,6,50.1-7.1l88.4,50.3c8,4.6,16.5-0.9,15.2-11.7L31.1,134.4z M17.8,113
	c-8.4,0-13.6,7.2-10.2,14.1l-74.6-42.4c-5-2.9-11.4-1.1-14.1,3.9c-5.6,9.8-18.1,13.3-28,7.7c-9.8-5.6-13.3-18.1-7.7-28
	c3.8-6.7,10.9-10.6,18.5-10.3c8,0.1,13.1-7.9,9.1-16c-4.1-6.4-4.4-14.6-0.6-21.2c5.6-9.8,18.1-13.3,28-7.7c9.8,5.6,13.3,18.1,7.7,28
	c-2.9,5-1.1,11.4,3.9,14.1L34,103.1l0.3,10.6L17.8,113z"/>
<path class="st2" d="M17.8,113l16.4,0.7l-0.3-10.6l-84.1-47.9c-5-2.9-6.7-9.2-3.9-14.1c5.6-9.8,2.2-22.4-7.7-28s-22.4-2.2-28,7.7
	c-3.8,6.7-3.5,14.8,0.6,21.2c4,8-1.1,16-9.1,16c-7.7-0.2-14.8,3.7-18.5,10.3c-5.6,9.8-2.2,22.4,7.7,28c9.8,5.6,22.4,2.2,28-7.7
	c2.9-5,9.2-6.7,14.2-3.9l74.6,42.5C4.1,120.2,9.4,113.1,17.8,113z"/>
<path class="st1" d="M219.2,274.9c-9.4-16-28.2-24.4-46.8-19.2l-67.6-117c-5.6-6.7-11.7-7.2-18.1,0.2l-7.9,14.4l-13.8-8.8
	c-7.4-3.8-12.1-0.7-15.6,6l-6.9,25.2c-0.7,2.7-0.4,5.6,1,8L107,293.6c-13.6,13.7-16.4,35.2-6.8,50.2c19.9,33.3,66,23.3,75.1-7.5
	c2.7,0.5,5.4,0.8,8.3,0.8c7.2,0,14.3-1.9,20.7-5.6C223.8,320,230.6,294.7,219.2,274.9z M193.7,313.4c-6.5,3.8-14.9,3.5-21.2-0.4
	c-7.2-4.5-15.5,0.1-15.9,9.2c-1.2,25.2-28.8,27.3-38.3,11.1c-5.2-11-2.9-21.4,7.5-28c5.3-3.8,6.4-8.6,3.8-14.3l-65.9-114l2-7.3
	l11.3,7.2c6,3,11,1.8,14.8-3.8l4.4-7.9L158.9,274c2.5,4.1,9.1,7.1,14.4,3.8c9.6-6,22.7-1.7,27.9,7.5
	C206.8,295.1,203.5,307.7,193.7,313.4z"/>
<path class="st3" d="M172.4,313c6.4,4,14.7,4.2,21.2,0.4c9.8-5.7,13.2-18.2,7.5-28c-5.2-9.2-18.3-13.5-27.9-7.5
	c-5.2,3.1-11.9,0.3-14.4-3.8L96.1,165.2l-4.4,8c-3.8,5.6-8.7,6.8-14.8,3.8l-11.3-7.2l-2,7.3l65.9,114.1c2.7,5.6,1.5,10.3-3.8,14.3
	c-10.4,6.7-12.7,17-7.5,28c9.4,16.3,37,14.2,38.3-11.1C156.9,313.1,165.3,308.5,172.4,313z"/>
<g>
	<path class="st1" d="M111.1,96.5L132.5,75c4.1-4.1,4.1-10.6,0-14.8c-4.1-4.1-10.6-4.1-14.8,0L96.3,81.8c-4.1,4.1-4.1,10.6,0,14.8
		C100.7,101,107.6,99.9,111.1,96.5z"/>
	<path class="st1" d="M110.5,123.6c1.4,5.9,6.7,9.9,12,8.4l29.9-5.2c5.7-1,9.4-6.4,8.4-12c-1-5.7-6.4-9.4-12-8.4l-29.9,5.2
		C113.2,112.5,109.5,118,110.5,123.6z"/>
	<path class="st1" d="M69.3,82.4c6.2,1.4,11.9-4,12-8.4l5.2-29.9c1-5.7-2.8-11.1-8.4-12c-5.7-1-11.1,2.8-12,8.4l-5.2,29.9
		C59.8,76,63.6,81.4,69.3,82.4z"/>
</g>
</svg>
