<?xml version="1.0" encoding="utf-8"?>
<!-- Generator: Adobe Illustrator 19.0.0, SVG Export Plug-In . SVG Version: 6.00 Build 0)  -->
<svg version="1.1" id="Layer_1" xmlns="http://www.w3.org/2000/svg" xmlns:xlink="http://www.w3.org/1999/xlink" x="0px" y="0px"
	 viewBox="0 0 900 300" style="enable-background:new 0 0 900 300;" xml:space="preserve">
<style type="text/css">
	.st0{opacity:0.98;fill:url(#XMLID_27_);enable-background:new    ;}
	.st1{fill:#F4F9F9;stroke:#F5F7F5;stroke-miterlimit:10;}
	.st2{fill:#F2DA00;}
	.st3{fill:#F2F7F7;stroke:#F2F4F2;stroke-miterlimit:10;}
	.st4{fill:#68A05C;}
	.st5{fill:#FFFFFF;}
	.st6{opacity:0.25;fill:#E4E0F0;enable-background:new    ;}
	.st7{fill:#EDE8F3;}
	.st8{fill:url(#XMLID_30_);}
	
		.st9{opacity:0.45;fill:none;stroke:#201642;stroke-width:0.8595;stroke-linecap:round;stroke-linejoin:round;stroke-miterlimit:10;enable-background:new    ;}
	.st10{fill:url(#XMLID_31_);}
	.st11{fill:url(#XMLID_70_);}
	.st12{fill:#E4E0F0;}
	.st13{fill:#BFBCDE;}
	.st14{fill:#9E9ACC;}
	.st15{fill:url(#XMLID_71_);}
	.st16{clip-path:url(#SVGID_2_);}
	.st17{fill:#201642;}
	.st18{fill:url(#XMLID_72_);}
	.st19{fill:url(#XMLID_73_);}
	.st20{fill:url(#XMLID_74_);}
	.st21{fill:url(#XMLID_75_);}
	.st22{fill:url(#XMLID_111_);}
	.st23{fill:url(#XMLID_112_);}
	.st24{fill:none;stroke:#E55E92;stroke-width:0.7253;stroke-linecap:round;stroke-linejoin:round;stroke-miterlimit:10;}
	.st25{fill:none;stroke:#201642;stroke-width:0.7253;stroke-linecap:round;stroke-linejoin:round;stroke-miterlimit:10;}
	.st26{fill:url(#XMLID_113_);}
	.st27{fill:url(#XMLID_116_);}
	.st28{clip-path:url(#SVGID_4_);fill:url(#XMLID_124_);}
	.st29{clip-path:url(#SVGID_6_);fill:url(#XMLID_130_);}
	.st30{fill:url(#XMLID_131_);}
	.st31{fill:#1D184F;}
	
		.st32{opacity:0.56;fill:none;stroke:#FFFFFF;stroke-width:1.0912;stroke-linecap:round;stroke-linejoin:round;stroke-miterlimit:10;stroke-dasharray:5.4562;enable-background:new    ;}
	.st33{fill:#292668;}
	.st34{fill:url(#XMLID_134_);}
	.st35{opacity:0.56;}
	.st36{fill:none;stroke:#FFFFFF;stroke-width:1.0912;stroke-linecap:round;stroke-linejoin:round;}
	.st37{fill:none;stroke:#FFFFFF;stroke-width:1.0912;stroke-linecap:round;stroke-linejoin:round;stroke-dasharray:5.3623,5.3623;}
	.st38{fill:url(#XMLID_135_);}
	.st39{fill:none;stroke:#E55E92;stroke-width:1.0912;stroke-linecap:round;stroke-linejoin:round;stroke-miterlimit:10;}
	.st40{fill:none;stroke:#201642;stroke-width:1.0912;stroke-linecap:round;stroke-linejoin:round;stroke-miterlimit:10;}
	.st41{fill:url(#XMLID_136_);}
	.st42{fill:url(#XMLID_140_);}
	.st43{opacity:0.15;fill:#FFFFFF;enable-background:new    ;}
	.st44{fill:url(#XMLID_141_);}
	.st45{fill:url(#XMLID_142_);}
	.st46{fill:url(#XMLID_143_);}
	.st47{fill:#F7F7F7;}
	.st48{font-family:'WorkSans-Regular';}
	.st49{font-size:14px;}
	.st50{font-size:20px;}
	.st51{fill:#F9F7F7;}
	.st52{font-size:13px;}
	.st53{font-size:30px;}
	.st54{fill:#D14B6B;}
	.st55{fill:#51A345;}
	.st56{fill:none;}
	.st57{fill:#F5F9F4;}
	.st58{fill:#F7F9F7;}
</style>
<linearGradient id="XMLID_27_" gradientUnits="userSpaceOnUse" x1="0" y1="150" x2="552" y2="150" gradientTransform="matrix(1 0 0 -1 0 300)">
	<stop  offset="0.1527" style="stop-color:#4D6EB5"/>
	<stop  offset="0.7587" style="stop-color:#86A3D5;stop-opacity:0.71"/>
	<stop  offset="1" style="stop-color:#86A3D5;stop-opacity:0"/>
</linearGradient>
<rect id="XMLID_14_" y="0" class="st0" width="552" height="300"/>
<g id="XMLID_149_">
	<path id="XMLID_128_" class="st1" d="M86.5,165.4c-2.2,0.1-4.3-0.7-6-2.2c-1.6-1.5-2.6-3.5-2.7-5.7l-0.1-2.1c0-0.2,0.1-0.4,0.3-0.4
		s0.4,0.1,0.4,0.3l0.1,2.1c0.1,2,1,3.8,2.4,5.2c1.5,1.4,3.4,2.1,5.5,2c2-0.1,3.9-0.9,5.3-2.4c1.4-1.5,2.1-3.4,2-5.3l-0.3-8.6
		c0-0.2,0.1-0.4,0.3-0.4c0.2,0,0.4,0.1,0.4,0.3l0.3,8.6c0.1,2.2-0.7,4.2-2.2,5.8C90.8,164.4,88.7,165.4,86.5,165.4z"/>
</g>
<path id="XMLID_126_" class="st2" d="M90.3,145c0,1.7,1.4,3.1,3.1,3.1h0.3c1.7,0,3.1-1.4,3.1-3.1c0-0.1-0.1-0.3-0.2-0.4
	c-0.1-0.1-0.3-0.1-0.4-0.1c-0.6,0.1-1.2,0.2-1.8,0.2h-1.9c-0.6,0-1.2,0-1.8-0.2c-0.1,0-0.3,0-0.4,0.1
	C90.3,144.7,90.3,144.8,90.3,145z"/>
<g id="XMLID_146_">
	<path id="XMLID_125_" class="st3" d="M86.4,141.3c-1.6-1.7-2.6-3.9-2.6-6.2V126c0-1.3,1.1-2.4,2.4-2.4h0.8c0.2,0,0.4,0.2,0.4,0.4
		c0,0.2-0.2,0.4-0.4,0.4h-0.8c-0.8,0-1.5,0.7-1.5,1.5v9c0,4.3,3.5,7.9,7.9,7.9h1.9c4.3,0,7.9-3.5,7.9-7.9v-9.1
		c0-0.8-0.7-1.5-1.5-1.5H100c-0.2,0-0.4-0.2-0.4-0.4c0-0.2,0.2-0.4,0.4-0.4h0.8c1.3,0,2.4,1.1,2.4,2.4v9.1c0,2.3-0.9,4.6-2.6,6.2
		c-1.7,1.6-3.9,2.6-6.2,2.6h-1.9C90.3,143.8,88.1,142.9,86.4,141.3z"/>
</g>
<path id="XMLID_123_" class="st4" d="M83.1,132.1v3.2c0,2.5,1,4.9,2.8,6.7c1.8,1.8,4.2,2.8,6.7,2.8h2c2.5,0,5-1,6.7-2.8
	s2.8-4.2,2.8-6.7v-3.2c0-0.2-0.2-0.5-0.5-0.5c-1.7,0-3,1.3-3,3v0.4c0,3.4-2.8,6.2-6.2,6.2h-1.5c-3.4,0-6.2-2.8-6.2-6.2v-0.4
	c0-1.7-1.3-3-3-3C83.4,131.6,83.1,131.8,83.1,132.1z"/>
<path id="XMLID_122_" class="st2" d="M97.2,123.5c0,0.9,0.8,1.6,1.6,1.6c0.9,0,1.6-0.7,1.6-1.6c0-0.9-0.8-1.6-1.6-1.6
	C98,121.9,97.2,122.6,97.2,123.5z"/>
<path id="XMLID_115_" class="st2" d="M85.5,124.1c0,0.9,0.7,1.6,1.6,1.6c0.9,0,1.6-0.7,1.6-1.6c0-0.9-0.8-1.6-1.6-1.6
	C86.3,122.4,85.5,123.1,85.5,124.1z"/>
<path id="XMLID_110_" class="st2" d="M75.7,152.7c0,1.5,1.2,2.7,2.7,2.7s2.7-1.2,2.7-2.7s-1.2-2.7-2.7-2.7
	C77,150,75.7,151.2,75.7,152.7z"/>
<g id="XMLID_137_">
	<path id="XMLID_138_" class="st5" d="M77,152.7c0-0.8,0.6-1.4,1.4-1.4s1.4,0.6,1.4,1.4s-0.6,1.4-1.4,1.4
		C77.7,154.1,77,153.5,77,152.7z M77.6,152.7c0,0.5,0.3,0.8,0.8,0.8c0.5,0,0.8-0.4,0.8-0.8c0-0.5-0.4-0.8-0.8-0.8
		S77.7,152.3,77.6,152.7z"/>
</g>
<g id="XMLID_253_">
	<g id="XMLID_255_">
		<path id="XMLID_109_" class="st6" d="M657,190.4h-57c-6,0-10.9-4.9-10.9-10.9V48.3c0-6,4.9-10.9,10.9-10.9h57
			c6,0,10.9,4.9,10.9,10.9v131.1C667.9,185.5,663,190.4,657,190.4z"/>
		<path id="XMLID_4_" class="st5" d="M594.4,181.4V46.5c0-2.2,1.8-3.9,3.9-3.9h60.5c2.2,0,3.9,1.8,3.9,3.9v134.9
			c0,2.2-1.8,3.9-3.9,3.9h-60.5C596.1,185.3,594.4,183.5,594.4,181.4z"/>
		<path id="XMLID_5_" class="st6" d="M744.9,190.4h-57c-6,0-10.9-4.9-10.9-10.9V48.3c0-6,4.9-10.9,10.9-10.9h57
			c6,0,10.9,4.9,10.9,10.9v131.1C755.8,185.5,750.9,190.4,744.9,190.4z"/>
		<path id="XMLID_6_" class="st5" d="M682.2,181.4V46.5c0-2.2,1.8-3.9,3.9-3.9h60.5c2.2,0,3.9,1.8,3.9,3.9v134.9
			c0,2.2-1.8,3.9-3.9,3.9h-60.5C684,185.3,682.2,183.5,682.2,181.4z"/>
		<path id="XMLID_108_" class="st6" d="M832.7,190.4h-57c-6,0-10.9-4.9-10.9-10.9V48.3c0-6,4.9-10.9,10.9-10.9h57
			c6,0,10.9,4.9,10.9,10.9v131.1C843.7,185.5,838.8,190.4,832.7,190.4z"/>
		<path id="XMLID_7_" class="st5" d="M770.1,181.4V46.5c0-2.2,1.8-3.9,3.9-3.9h60.5c2.2,0,3.9,1.8,3.9,3.9v134.9
			c0,2.2-1.8,3.9-3.9,3.9H774C771.9,185.3,770.1,183.5,770.1,181.4z"/>
	</g>
	<ellipse id="XMLID_107_" class="st7" cx="723.7" cy="274" rx="137.6" ry="3"/>
</g>
<g id="XMLID_242_">
	<g id="XMLID_250_">
		
			<linearGradient id="XMLID_30_" gradientUnits="userSpaceOnUse" x1="819.3741" y1="141.0717" x2="813.0912" y2="75.3431" gradientTransform="matrix(1 0 0 -1 0 300)">
			<stop  offset="0" style="stop-color:#91D2C4"/>
			<stop  offset="1" style="stop-color:#2483C6"/>
		</linearGradient>
		<path id="XMLID_106_" class="st8" d="M810.2,231.6c-7.6-14.3,0.3-18.7,0.3-18.7s-3.6-7-1.8-11.3s4.7-4.1,4.7-4.1
			s-4.1-8.6,2.1-10.1c6.2-1.5,6.9,7.8,3.9,10.7c6.6,3.9-1.6,15.8-1.6,15.8s6.5,6.8-1.7,18.3"/>
		<line id="XMLID_105_" class="st9" x1="816.3" y1="197.2" x2="812.1" y2="239.4"/>
	</g>
	<g id="XMLID_247_">
		
			<linearGradient id="XMLID_31_" gradientUnits="userSpaceOnUse" x1="788.3981" y1="41.7844" x2="804.5826" y2="-40.487" gradientTransform="matrix(0.9579 -0.2872 -0.2872 -0.9579 47.2301 456.4758)">
			<stop  offset="0" style="stop-color:#91D2C4"/>
			<stop  offset="1" style="stop-color:#2483C6"/>
		</linearGradient>
		<path id="XMLID_104_" class="st10" d="M808.9,233.3c-13.6-9.1-8.9-16.5-8.9-16.5s-6.5-4.5-7.1-9.1c-0.5-4.6,2.2-5.8,2.2-5.8
			s-7.8-5.7-3-9.9s9.9,3.7,8.7,7.6c7.7,0.3,6.3,14.6,6.3,14.6s9.1,3,7.4,16.9"/>
		<line id="XMLID_103_" class="st9" x1="797.5" y1="200.2" x2="814.4" y2="239.3"/>
	</g>
	<g id="XMLID_244_">
		
			<linearGradient id="XMLID_70_" gradientUnits="userSpaceOnUse" x1="834.7433" y1="108.6516" x2="808.2641" y2="53.1425" gradientTransform="matrix(1 0 0 -1 0 300)">
			<stop  offset="0" style="stop-color:#91D2C4"/>
			<stop  offset="1" style="stop-color:#2483C6"/>
		</linearGradient>
		<path id="XMLID_102_" class="st11" d="M810.3,230.1c0.3-16.1,9.3-16.3,9.3-16.3s0.2-7.8,3.9-10.8s6.1-1.4,6.1-1.4s0.6-9.5,6.8-7.9
			s2.3,10-1.8,11.2c4,6.5-9.1,13.2-9.1,13.2s2.5,9-10.4,15.3"/>
		<line id="XMLID_101_" class="st9" x1="832.3" y1="202.6" x2="808.2" y2="237.9"/>
	</g>
	<path id="XMLID_100_" class="st12" d="M821.7,274h-16.5c-2,0-3.6-1.5-3.9-3.4l-4.7-41c-0.3-2.2,1.5-4.2,3.9-4.2h25.9
		c2.3,0,4.1,2,3.9,4.2l-4.7,41C825.3,272.6,823.7,274,821.7,274z"/>
</g>
<g id="XMLID_210_">
	<g id="XMLID_238_">
		<rect id="XMLID_99_" x="755.4" y="130.7" class="st13" width="12.4" height="20.4"/>
		<polygon id="XMLID_98_" class="st14" points="767.8,130.7 767.8,140.3 755.4,136.8 755.4,130.7 		"/>
		<path id="XMLID_97_" class="st14" d="M772.4,150.6h-29.2c-1.2,0-2.2,1-2.2,2.1l0,0c0,1.2,1,2.1,2.2,2.1h29.2c1.2,0,2.2-1,2.2-2.1
			l0,0C774.6,151.6,773.6,150.6,772.4,150.6z"/>
	</g>
	<path id="XMLID_96_" class="st13" d="M801.8,134h-81.9c-0.9,0-1.5-0.7-1.4-1.6l7-51.8c0.1-0.9,0.9-1.6,1.8-1.6h81.9
		c0.9,0,1.5,0.7,1.4,1.6l-7,51.8C803.6,133.3,802.7,134,801.8,134z"/>
	<path id="XMLID_95_" class="st12" d="M797,134h-82c-0.9,0-1.5-0.7-1.4-1.6l7-51.8c0.1-0.9,0.9-1.6,1.8-1.6h81.9
		c0.9,0,1.5,0.7,1.4,1.6l-7,51.8C798.7,133.3,797.9,134,797,134z"/>
	
		<linearGradient id="XMLID_71_" gradientUnits="userSpaceOnUse" x1="750.5639" y1="88.3898" x2="760.815" y2="206.2783" gradientTransform="matrix(1 0 0 -1 0 300)">
		<stop  offset="0" style="stop-color:#4D6EB5"/>
		<stop  offset="1" style="stop-color:#86A3D5"/>
	</linearGradient>
	<path id="XMLID_94_" class="st15" d="M803.1,82.7l-6.5,47.7c-0.1,0.7-0.7,1.2-1.4,1.2h-77.8c-0.7,0-1.2-0.6-1.1-1.2l6.5-47.7
		c0.1-0.7,0.7-1.2,1.4-1.2H802C802.7,81.5,803.2,82,803.1,82.7z"/>
	<g id="XMLID_211_">
		<g>
			<g>
				<g>
					<defs>
						<path id="SVGID_1_" d="M803.1,82.7l-6.5,47.7c-0.1,0.7-0.7,1.2-1.4,1.2h-77.8c-0.7,0-1.2-0.6-1.1-1.2l6.5-47.7
							c0.1-0.7,0.7-1.2,1.4-1.2H802C802.7,81.5,803.2,82,803.1,82.7z"/>
					</defs>
					<clipPath id="SVGID_2_">
						<use xlink:href="#SVGID_1_"  style="overflow:visible;"/>
					</clipPath>
					<g id="XMLID_215_" class="st16">
						<path id="XMLID_93_" class="st17" d="M748.6,89.4c-5.8,0.4-3.3,10.3-3.3,10.3s-5.8,12.7,2,16.1s19.7,1.2,21.5-3.3
							c1.7-4.5-2.1-14.3-2.1-14.3S764.9,79.6,748.6,89.4z"/>
						<g id="XMLID_229_">
							
								<linearGradient id="XMLID_72_" gradientUnits="userSpaceOnUse" x1="757.2499" y1="204.9185" x2="757.25" y2="153.8271" gradientTransform="matrix(1 0 0 -1 0 300)">
								<stop  offset="0" style="stop-color:#FFFFFF"/>
								<stop  offset="1" style="stop-color:#BFBCDE"/>
							</linearGradient>
							<path id="XMLID_92_" class="st18" d="M740.1,114.6c-4,2.4-7,20.1-7,20.1h48.3c0,0-4-18.7-8.7-21.7
								C768,110.1,740.1,114.6,740.1,114.6z"/>
							
								<linearGradient id="XMLID_73_" gradientUnits="userSpaceOnUse" x1="744.9999" y1="204.9184" x2="745" y2="153.8271" gradientTransform="matrix(1 0 0 -1 0 300)">
								<stop  offset="0" style="stop-color:#FFFFFF"/>
								<stop  offset="1" style="stop-color:#BFBCDE"/>
							</linearGradient>
							<path id="XMLID_91_" class="st19" d="M740.1,114.6c0,0,4.8-2.1,9.8-3.6v26.7h-9.8V114.6z"/>
							
								<linearGradient id="XMLID_74_" gradientUnits="userSpaceOnUse" x1="768.25" y1="204.9184" x2="768.25" y2="153.8271" gradientTransform="matrix(1 0 0 -1 0 300)">
								<stop  offset="0" style="stop-color:#FFFFFF"/>
								<stop  offset="1" style="stop-color:#BFBCDE"/>
							</linearGradient>
							<path id="XMLID_90_" class="st20" d="M772.7,113.1v24.7h-8.9v-27.4C768.4,111.4,772.7,113.1,772.7,113.1z"/>
							
								<linearGradient id="XMLID_75_" gradientUnits="userSpaceOnUse" x1="756.85" y1="201.3654" x2="756.85" y2="154.9538" gradientTransform="matrix(1 0 0 -1 0 300)">
								<stop  offset="0" style="stop-color:#91D2C4"/>
								<stop  offset="1" style="stop-color:#2483C6"/>
							</linearGradient>
							<path id="XMLID_89_" class="st21" d="M763.8,110.3v27.4h-13.9V111c2.9-0.9,5.9-1.6,8-1.5
								C759.7,109.5,761.7,109.9,763.8,110.3z"/>
						</g>
						<g id="XMLID_219_">
							
								<linearGradient id="XMLID_111_" gradientUnits="userSpaceOnUse" x1="755.6179" y1="198.9905" x2="756.3721" y2="183.3398" gradientTransform="matrix(1 0 0 -1 0 300)">
								<stop  offset="0" style="stop-color:#E778AF"/>
								<stop  offset="0.2321" style="stop-color:#ED86B7"/>
								<stop  offset="1" style="stop-color:#F7B6CE"/>
							</linearGradient>
							<path id="XMLID_88_" class="st22" d="M751.4,108.5v3.7c0,0-0.2,1.9,3.7,2.1s5.4-2.6,5.4-2.6v-8.2"/>
							
								<linearGradient id="XMLID_112_" gradientUnits="userSpaceOnUse" x1="760.1266" y1="220.9759" x2="755.8863" y2="197.607" gradientTransform="matrix(1 0 0 -1 0 300)">
								<stop  offset="0" style="stop-color:#E778AF"/>
								<stop  offset="0.2321" style="stop-color:#ED86B7"/>
								<stop  offset="1" style="stop-color:#F7B6CE"/>
							</linearGradient>
							<path id="XMLID_87_" class="st23" d="M747.3,94.6c0,0,0.1,8.7,0.3,9.9s0.6,4.7,5.1,5c4.5,0.2,9.4-6.1,9.4-6.1
								s0.7,1.3,2.8,0.3c2-1,0.9-4.8-1.1-4.3c-1.5,0.3-2.3,1.7-2.6,2.3c0,0.1-0.2,0.1-0.2,0v-2.3c0-0.8-0.6-1.4-1.4-1.6
								c-3-0.5-10.2-2-11.7-4.9C747.4,93.6,747.3,94.6,747.3,94.6z"/>
							<path id="XMLID_86_" class="st24" d="M764.4,100.5c-1.1-0.2-1.8,1.7-0.8,2"/>
							<path id="XMLID_85_" class="st24" d="M751.9,101l-0.8,1.8c-0.1,0.3,0,0.7,0.2,0.9l0.5,0.4"/>
							<ellipse id="XMLID_84_" class="st17" cx="755.2" cy="101" rx="0.4" ry="0.4"/>
							<ellipse id="XMLID_83_" class="st17" cx="749.5" cy="101" rx="0.4" ry="0.4"/>
							<path id="XMLID_82_" class="st25" d="M754.3,98.8c0,0,1.2-0.3,2.4,0.2"/>
							<path id="XMLID_81_" class="st25" d="M750.6,98.8c0,0-1.2-0.3-2.4,0.2"/>
							<path id="XMLID_80_" class="st5" d="M755.1,105.6c0.1,0.8-0.5,1.5-1.4,1.6c-0.8,0.1-1.6-0.5-1.7-1.3"/>
						</g>
						<g id="XMLID_216_">
							
								<linearGradient id="XMLID_113_" gradientUnits="userSpaceOnUse" x1="756.1016" y1="218.8883" x2="752.3291" y2="183.2374" gradientTransform="matrix(1 0 0 -1 0 300)">
								<stop  offset="0" style="stop-color:#91D2C4"/>
								<stop  offset="1" style="stop-color:#2483C6"/>
							</linearGradient>
							<path id="XMLID_79_" class="st26" d="M751.4,110.3c-1,1.4-0.6,4.4,0,5.6s3.2-1.7,3.2-1.7S751.8,112.7,751.4,110.3z"/>
							
								<linearGradient id="XMLID_116_" gradientUnits="userSpaceOnUse" x1="761.2827" y1="218.41" x2="757.5042" y2="182.7026" gradientTransform="matrix(1 0 0 -1 0 300)">
								<stop  offset="0" style="stop-color:#91D2C4"/>
								<stop  offset="1" style="stop-color:#2483C6"/>
							</linearGradient>
							<path id="XMLID_78_" class="st27" d="M760.5,110.3c-0.4,3.1-5.9,4-5.9,4s1.4,2.4,3.1,2C759.5,115.9,762.7,113,760.5,110.3z"
								/>
						</g>
					</g>
				</g>
			</g>
		</g>
		<g>
			<g>
				<g>
					<defs>
						<path id="SVGID_3_" d="M803.1,82.7l-6.5,47.7c-0.1,0.7-0.7,1.2-1.4,1.2h-77.8c-0.7,0-1.2-0.6-1.1-1.2l6.5-47.7
							c0.1-0.7,0.7-1.2,1.4-1.2H802C802.7,81.5,803.2,82,803.1,82.7z"/>
					</defs>
					<clipPath id="SVGID_4_">
						<use xlink:href="#SVGID_3_"  style="overflow:visible;"/>
					</clipPath>
					
						<linearGradient id="XMLID_124_" gradientUnits="userSpaceOnUse" x1="775.9222" y1="189.6185" x2="774.6929" y2="176.0022" gradientTransform="matrix(1 0 0 -1 0 300)">
						<stop  offset="0" style="stop-color:#FFFFFF"/>
						<stop  offset="1" style="stop-color:#BFBCDE"/>
					</linearGradient>
					<polyline id="XMLID_77_" class="st28" points="772.7,131.7 772.7,122 775.9,134.7 					"/>
				</g>
			</g>
		</g>
		<g>
			<g>
				<g>
					<defs>
						<path id="SVGID_5_" d="M803.1,82.7l-6.5,47.7c-0.1,0.7-0.7,1.2-1.4,1.2h-77.8c-0.7,0-1.2-0.6-1.1-1.2l6.5-47.7
							c0.1-0.7,0.7-1.2,1.4-1.2H802C802.7,81.5,803.2,82,803.1,82.7z"/>
					</defs>
					<clipPath id="SVGID_6_">
						<use xlink:href="#SVGID_5_"  style="overflow:visible;"/>
					</clipPath>
					
						<linearGradient id="XMLID_130_" gradientUnits="userSpaceOnUse" x1="744.2819" y1="190.2079" x2="742.9415" y2="175.3601" gradientTransform="matrix(1 0 0 -1 0 300)">
						<stop  offset="0" style="stop-color:#FFFFFF"/>
						<stop  offset="1" style="stop-color:#BFBCDE"/>
					</linearGradient>
					<path id="XMLID_76_" class="st29" d="M741.6,132.2c-0.1-2-1-6.6-0.1-9.7c0,0-2.3,5-2.5,10.1c-0.1,5.1,6.2,3,6.2,3"/>
				</g>
			</g>
		</g>
	</g>
</g>
<g id="XMLID_189_">
	<path id="XMLID_69_" class="st17" d="M778.8,129.5h11c0.8,0,1.4-0.6,1.4-1.4V127c0-0.8-0.6-1.4-1.4-1.4h-11c-0.8,0-1.4,0.6-1.4,1.4
		v1.2C777.4,128.9,778,129.5,778.8,129.5z"/>
	<path id="XMLID_68_" class="st5" d="M788,127.8h-7.4c-0.1,0-0.3-0.1-0.3-0.2l0,0c0-0.1,0.1-0.2,0.3-0.2h7.4c0.1,0,0.3,0.1,0.3,0.2
		l0,0C788.2,127.7,788.1,127.8,788,127.8z"/>
</g>
<g id="XMLID_178_">
	<g id="XMLID_185_">
		<rect id="XMLID_67_" x="781.3" y="161.5" class="st12" width="4.9" height="106.6"/>
		<path id="XMLID_66_" class="st13" d="M806,267.1h-44.3c-2,0-3.6,1.6-3.6,3.5l0,0c0,1.9,1.6,3.5,3.6,3.5H806c2,0,3.6-1.6,3.6-3.5
			l0,0C809.5,268.6,807.9,267.1,806,267.1z"/>
	</g>
	<g id="XMLID_182_">
		<rect id="XMLID_65_" x="693.6" y="161.5" class="st13" width="4.9" height="106.6"/>
		<path id="XMLID_64_" class="st13" d="M718.3,267.1H674c-2,0-3.6,1.6-3.6,3.5l0,0c0,1.9,1.6,3.5,3.6,3.5h44.3c2,0,3.6-1.6,3.6-3.5
			l0,0C721.8,268.6,720.2,267.1,718.3,267.1z"/>
	</g>
	<g id="XMLID_179_">
		<path id="XMLID_63_" class="st12" d="M761.3,154.9h-93.4c-2.2,0-4.1,1.8-4.1,4l0,0c0,2.2,1.8,4,4.1,4h93.4c2.2,0,4.1-1.8,4.1-4
			l0,0C765.3,156.6,763.5,154.9,761.3,154.9z"/>
		<path id="XMLID_62_" class="st13" d="M816,154.9h-55.5c-2.2,0-4.1,1.8-4.1,4l0,0c0,2.2,1.8,4,4.1,4H816c2.2,0,4.1-1.8,4.1-4l0,0
			C820.1,156.6,818.2,154.9,816,154.9z"/>
	</g>
</g>
<g id="XMLID_132_">
	<g id="XMLID_160_">
		<g id="XMLID_174_">
			<path id="XMLID_61_" class="st17" d="M665.5,269.5v1.2c0,1.9-1.5,3.4-3.4,3.4h-40.7c-2.3,0-4-2.2-3.3-4.3l2.8-9.2h30.9l1.8-4.9
				l9.3,9.9l1.7,1.6C665.1,267.8,665.5,268.6,665.5,269.5z"/>
			
				<linearGradient id="XMLID_131_" gradientUnits="userSpaceOnUse" x1="637.9557" y1="98.7804" x2="637.0075" y2="31.8397" gradientTransform="matrix(1 0 0 -1 0 300)">
				<stop  offset="0" style="stop-color:#E778AF"/>
				<stop  offset="0.2321" style="stop-color:#ED86B7"/>
				<stop  offset="1" style="stop-color:#F7B6CE"/>
			</linearGradient>
			<polygon id="XMLID_60_" class="st30" points="653.5,255.6 651.7,260.6 620.8,260.6 622.3,255.6 			"/>
		</g>
		<polygon id="XMLID_59_" class="st31" points="622.1,255.6 653.3,255.6 666.3,205.7 633.9,205.7 		"/>
		<line id="XMLID_58_" class="st32" x1="656.1" y1="206.9" x2="644.2" y2="252.2"/>
		<path id="XMLID_57_" class="st33" d="M718.1,209.6l-13.9,46.1h-31.3l7.7-29.3l3-11.3l-63.2-2c-11.9-0.4-21.5-9.5-22.2-21
			l-0.9-13.6h60.9l43.4,6.1C713.8,186.2,721.6,198.1,718.1,209.6z"/>
		<g id="XMLID_168_">
			<path id="XMLID_56_" class="st17" d="M723.7,269.5v1.2c0,1.9-1.5,3.4-3.4,3.4H672c-2.3,0-4-2.2-3.3-4.3l2.8-9.2h30.9l1.8-4.9
				l17.9,11C723.1,267.3,723.7,268.4,723.7,269.5z"/>
			
				<linearGradient id="XMLID_134_" gradientUnits="userSpaceOnUse" x1="688.6557" y1="98.7798" x2="687.7075" y2="31.8391" gradientTransform="matrix(1 0 0 -1 0 300)">
				<stop  offset="0" style="stop-color:#E778AF"/>
				<stop  offset="0.2321" style="stop-color:#ED86B7"/>
				<stop  offset="1" style="stop-color:#F7B6CE"/>
			</linearGradient>
			<polygon id="XMLID_55_" class="st34" points="704.2,255.6 702.4,260.6 671.5,260.6 672.9,255.6 			"/>
		</g>
		<path id="XMLID_54_" class="st31" d="M692.8,217.4l-12.2,8.9l3-11.3h8.4C693.3,215,693.9,216.6,692.8,217.4z"/>
		<g id="XMLID_53_" class="st35">
			<g id="XMLID_114_">
				<line id="XMLID_121_" class="st36" x1="633.8" y1="179.3" x2="634.5" y2="181.9"/>
				<path id="XMLID_120_" class="st37" d="M636,187c2.5,5.3,7.7,9,13.8,9.5l47.8,3.8c3.4,0.3,5.8,3.5,5,6.8l-9.7,39"/>
				<line id="XMLID_119_" class="st36" x1="692.3" y1="248.7" x2="691.7" y2="251.3"/>
			</g>
		</g>
	</g>
	<g id="XMLID_153_">
		
			<linearGradient id="XMLID_135_" gradientUnits="userSpaceOnUse" x1="631.6603" y1="232.5134" x2="644.9817" y2="212.1509" gradientTransform="matrix(1 0 0 -1 0 300)">
			<stop  offset="0" style="stop-color:#E778AF"/>
			<stop  offset="0.2321" style="stop-color:#ED86B7"/>
			<stop  offset="1" style="stop-color:#F7B6CE"/>
		</linearGradient>
		<path id="XMLID_52_" class="st38" d="M655.4,69.3c1.2,2.5,0.5,5.9,0.9,7.9s2.9,4.4,2.8,5.3c-0.1,1-3.3,1.8-3.3,1.8l-0.4,5
			c-0.2,2.7-2.8,4.6-5.5,4.1l-3.5-0.7l-0.8,7.2l-16.4-1.7l4.8-24.5l16.5-4.9"/>
		<path id="XMLID_51_" class="st17" d="M648.7,72.5l-2,4.3c-0.3,0.5-1.1,0.5-1.2-0.1c-0.3-1.5-1.1-3.1-3.4-3.1c-4.2,0-4,5.6-1.4,6.9
			c1.3,0.6,2.2,0.7,2.7,0.7c0.3,0,0.5,0.2,0.3,0.5l-3.4,5.8c-1.3,2.2-3.7,3.6-6.4,3.6h-5.7c-1.8,0-3.4-1.2-3.9-3L621,75.4
			c-0.7-2.8,0.9-5.7,3.7-6.5l0,0l-0.6-4.1c-0.6-4.2,2.6-8,6.9-8.3c8.3-0.7,20.8-1.9,26.1-3.5c1.6-0.5,3.2,0.2,4,1.6
			C664.5,60.3,665.4,70.9,648.7,72.5z"/>
		<path id="XMLID_50_" class="st39" d="M640.9,76.1c1.6-1.6,4.1,1.6,1.6,3.2"/>
		<path id="XMLID_49_" class="st5" d="M653.7,86c-0.2,1.2-1.3,1.9-2.3,1.7c-1.1-0.2-1.7-1.3-1.5-2.5"/>
		<ellipse id="XMLID_48_" class="st17" cx="653.5" cy="78" rx="0.8" ry="0.8"/>
		<path id="XMLID_47_" class="st40" d="M651,75.8c0,0,1.9-1.1,3.5-0.7"/>
	</g>
	<g id="XMLID_133_">
		
			<linearGradient id="XMLID_136_" gradientUnits="userSpaceOnUse" x1="631.2158" y1="118.0628" x2="640.0854" y2="202.8562" gradientTransform="matrix(1 0 0 -1 0 300)">
			<stop  offset="0" style="stop-color:#4D6EB5"/>
			<stop  offset="1" style="stop-color:#86A3D5"/>
		</linearGradient>
		<path id="XMLID_46_" class="st41" d="M654.9,145.9l6.5,9.4l-1,7.5l-0.2,1.7l-1.9,13.9h-60.9c0,0,0-0.2,0-0.5l0,0
			c0-1.5,0.1-6,0.5-12.2c0.3-4.1,0.7-8.9,1.3-14.1c0.6-5.2,1.4-10.8,2.6-16.3c0.8-4,1.8-8,2.9-11.8c1.5-5,3.3-9.6,5.4-13.6
			c0.6-1.2,1.4-2.3,2.2-3.4c2.6-3.3,6-6,9.9-7.6c2.7-1.2,5.6-1.9,8.6-2.1c0.7,0,1.4-0.1,2.1-0.1c4.1,0.1,8.2,0.5,12,1
			c0.3,0,0.5,0.1,0.8,0.1l0,0c2.7,0.5,5.2,1.3,7.5,2.5c4.9,2.5,8.9,6.4,11.5,11.2c0.4,0.7,0.7,1.4,1,2.1l6.2,14.7l0.1,0.3l-21,11.5
			L654.9,145.9z"/>
		
			<linearGradient id="XMLID_140_" gradientUnits="userSpaceOnUse" x1="656.6945" y1="157.9825" x2="759.7655" y2="199.4836" gradientTransform="matrix(1 0 0 -1 0 300)">
			<stop  offset="0" style="stop-color:#4D6EB5"/>
			<stop  offset="1" style="stop-color:#86A3D5"/>
		</linearGradient>
		<path id="XMLID_45_" class="st42" d="M661.4,155.3l-1.3,9.3c-20.3-6.1-17.9-40.7-17.9-40.7l8.7,16.4L661.4,155.3z"/>
		<g id="XMLID_139_">
			<path id="XMLID_44_" class="st43" d="M671.8,128.4c-0.6,0.1-1.3,0.2-2,0.2c-5.3,0-9.5-4.2-9.5-9.3c0-3.2,1.7-6.1,4.3-7.8
				c0.4,0.7,0.7,1.4,1,2.1L671.8,128.4z"/>
			<path id="XMLID_43_" class="st43" d="M614.3,172.1c0,2.4-1,4.7-2.5,6.3h-14c-0.2-0.2-0.3-0.3-0.4-0.5l0,0c0-1.5,0.1-6,0.5-12.2
				c1.7-1.8,4.2-2.9,6.9-2.9C610,162.8,614.3,166.9,614.3,172.1z"/>
			<path id="XMLID_42_" class="st43" d="M645.2,177c0,0.5,0,0.9-0.1,1.4h-18.9c-0.1-0.4-0.1-0.9-0.1-1.4c0-5.1,4.3-9.3,9.5-9.3
				C640.9,167.8,645.2,171.9,645.2,177z"/>
			<path id="XMLID_41_" class="st43" d="M661.4,155.3l-1,7.5h-0.1c-5.3,0-9.5-4.2-9.5-9.3c0-3.2,1.6-6,4.1-7.7L661.4,155.3z"/>
			<path id="XMLID_40_" class="st43" d="M617.8,115c0,5.1-4.3,9.3-9.5,9.3c-1.3,0-2.5-0.2-3.6-0.7c1.5-5,3.3-9.6,5.4-13.6
				c0.6-1.2,1.4-2.3,2.2-3.4C615.5,108,617.8,111.2,617.8,115z"/>
			<path id="XMLID_39_" class="st43" d="M614.3,144.1c0,5.1-4.3,9.3-9.5,9.3c-2.1,0-4.1-0.7-5.7-1.8c0.6-5.2,1.4-10.8,2.6-16.3
				c1-0.3,2-0.5,3.1-0.5C610,134.9,614.3,139,614.3,144.1z"/>
			<ellipse id="XMLID_38_" class="st43" cx="631.1" cy="150.4" rx="4.6" ry="4.5"/>
			<ellipse id="XMLID_37_" class="st43" cx="629.2" cy="120.6" rx="4.6" ry="4.5"/>
			<path id="XMLID_36_" class="st43" d="M630.7,96.8c0,2.4-2.1,4.4-4.6,4.4c-1.7,0-3.2-0.9-4-2.3C624.8,97.7,627.7,97,630.7,96.8z"
				/>
			<ellipse id="XMLID_35_" class="st43" cx="648.2" cy="128.6" rx="4.6" ry="4.5"/>
			<path id="XMLID_34_" class="st43" d="M653.2,101.2c0,2.5-2.1,4.5-4.6,4.5s-4.6-2-4.6-4.5c0-1.3,0.6-2.5,1.6-3.4l0,0
				c2.7,0.5,5.2,1.3,7.5,2.5C653.2,100.6,653.2,100.9,653.2,101.2z"/>
		</g>
		
			<linearGradient id="XMLID_141_" gradientUnits="userSpaceOnUse" x1="542.5544" y1="226.2227" x2="694.7642" y2="160.1583" gradientTransform="matrix(1 0 0 -1 0 300)">
			<stop  offset="0" style="stop-color:#E778AF"/>
			<stop  offset="0.2321" style="stop-color:#ED86B7"/>
			<stop  offset="1" style="stop-color:#F7B6CE"/>
		</linearGradient>
		<path id="XMLID_33_" class="st44" d="M738.6,137.6c2,2.1-1.1,10.7-10,14.3s-20.2,0.1-20.2,0.1l-37.3,6.1c-6.1,1-12.2-2.1-15-7.5
			l-5.2-10.4l21-11.5l2,3.9l2.1,4.1l30.6-1c0,0,4.9-7.5,9.3-10.3c4.4-2.8,5.7-1.2,6,0.5s-6.4,7.8-3,8.5s11.6-6.1,14.3-7.6
			c2.7-1.5,6.1,1.7,3.9,5.1C740.1,130.9,740.6,133.8,738.6,137.6z"/>
		
			<linearGradient id="XMLID_142_" gradientUnits="userSpaceOnUse" x1="664.515" y1="171.3254" x2="700.3251" y2="138.3294" gradientTransform="matrix(1 0 0 -1 0 300)">
			<stop  offset="0" style="stop-color:#E778AF"/>
			<stop  offset="0.2321" style="stop-color:#ED86B7"/>
			<stop  offset="1" style="stop-color:#F7B6CE"/>
		</linearGradient>
		<polygon id="XMLID_32_" class="st45" points="676,136.7 668.1,136.7 673.9,132.6 		"/>
		<path id="XMLID_29_" class="st39" d="M737.1,131.7c-1.2,3.5-10.3,8.2-15,8.8"/>
		<path id="XMLID_28_" class="st39" d="M739.3,136.1c-0.6,4.6-8.1,10.3-16.5,10.7"/>
		<path id="XMLID_25_" class="st17" d="M704.8,154.4L704.8,154.4c-1,0.1-1.9-0.7-1.9-1.7l-1-16.8c-0.1-1,0.7-1.8,1.7-1.9l0,0
			c1-0.1,1.9,0.7,1.9,1.7l1,16.8C706.6,153.5,705.8,154.3,704.8,154.4z"/>
	</g>
</g>
<g id="XMLID_127_">
	<g id="XMLID_129_">
		<path id="XMLID_24_" class="st13" d="M622.8,274h-5.7c-0.8,0-1.4-0.9-1-1.6l29.7-51.8h8.2l-30.3,52.9
			C623.5,273.8,623.2,274,622.8,274z"/>
		<path id="XMLID_23_" class="st13" d="M657.1,274h5.7c0.8,0,1.4-0.9,1-1.6l-29.7-51.8h-8.2l30.3,52.9
			C656.3,273.8,656.7,274,657.1,274z"/>
	</g>
	<path id="XMLID_21_" class="st12" d="M664.1,221.4H613c-2.2,0-4-1.8-4-4v-0.8c0-2.2,1.8-4,4-4h51.1c2.2,0,4,1.8,4,4v0.8
		C668.1,219.6,666.3,221.4,664.1,221.4z"/>
</g>
<g id="XMLID_3_">
	<g id="XMLID_117_">
		<path id="XMLID_12_" class="st12" d="M725.5,26.6v31.2c0,1.4-1.2,2.6-2.6,2.6h-35.1c-0.7,0-1.4,0.3-1.9,0.8l-6.3,6.1
			c-0.7,0.7-1.9,0.2-1.9-0.8V63c0-1.4-1.2-2.6-2.6-2.6h-5.7c-1.5,0-2.6-1.1-2.6-2.6V26.6c0-1.4,1.2-2.6,2.6-2.6h53.5
			C724.3,24,725.5,25.2,725.5,26.6z"/>
		<g id="XMLID_118_">
			<ellipse id="XMLID_11_" class="st5" cx="688.7" cy="42.9" rx="1.6" ry="1.5"/>
			<ellipse id="XMLID_10_" class="st5" cx="696.1" cy="42.9" rx="1.6" ry="1.5"/>
			<ellipse id="XMLID_13_" class="st5" cx="703.5" cy="42.9" rx="1.6" ry="1.5"/>
		</g>
	</g>
	<g id="XMLID_8_">
		
			<linearGradient id="XMLID_143_" gradientUnits="userSpaceOnUse" x1="772.7592" y1="257.4792" x2="826.9662" y2="99.0566" gradientTransform="matrix(1 0 0 -1 0 300)">
			<stop  offset="0" style="stop-color:#91D2C4"/>
			<stop  offset="1" style="stop-color:#2483C6"/>
		</linearGradient>
		<path id="XMLID_9_" class="st46" d="M803.6,61.5v21.9c0,1-0.8,1.8-1.8,1.8h-24.7c-0.5,0-1,0.2-1.3,0.5l-4.4,4.3
			c-0.5,0.5-1.4,0.1-1.4-0.5V87c0-1-0.8-1.8-1.8-1.8h-4c-1,0-1.8-0.8-1.8-1.8V61.5c0-1,0.8-1.8,1.8-1.8h37.6
			C802.8,59.7,803.6,60.5,803.6,61.5z"/>
		<g id="XMLID_16_">
			<ellipse id="XMLID_17_" class="st5" cx="777.8" cy="73" rx="1.1" ry="1.1"/>
			<ellipse id="XMLID_18_" class="st5" cx="783" cy="73" rx="1.1" ry="1.1"/>
			<ellipse id="XMLID_19_" class="st5" cx="788.2" cy="73" rx="1.1" ry="1.1"/>
		</g>
	</g>
</g>
<text transform="matrix(1 2.120617e-003 -2.120617e-003 1 33.0091 212.0214)" class="st47 st48 st49">• Instant</text>
<text id="XMLID_15_" transform="matrix(1.0563 -2.129973e-003 2.016305e-003 1 34.6957 181.8995)" class="st5 st48 st50">Services on a tap from your device</text>
<text transform="matrix(1.002 8.037112e-004 -8.020941e-004 1 32.1345 196.7654)" class="st51 st48 st52"> </text>
<g>
	<text transform="matrix(1.0577 -3.100706e-004 2.931555e-004 1 32.0813 107.936)" class="st5 st48 st53">Now Consult Doctors from</text>
</g>
<ellipse class="st54" cx="791.6" cy="100.1" rx="2.4" ry="3.3"/>
<g id="XMLID_1_">
	<polygon id="XMLID_20_" class="st5" points="790.9,100.8 790.7,100.6 792.3,99 792.5,99.2 	"/>
	<polygon id="XMLID_2_" class="st5" points="790.7,99.2 790.9,99 792.5,100.6 792.3,100.8 	"/>
</g>
<g>
	<ellipse class="st55" cx="791.2" cy="110.1" rx="2.5" ry="3.3"/>
	<path id="XMLID_22_" class="st5" d="M791.3,109.5c0.4,0.3,0.3,0.9,0,1.2c-0.4,0.3-0.9,0.3-1.3,0l-0.4,0.4c0.6,0.5,1.5,0.6,2,0
		c0.6-0.5,0.6-1.4,0-2L791.3,109.5z"/>
</g>
<text transform="matrix(1 2.120617e-003 -2.120617e-003 1 109.1977 212.796)" class="st47 st48 st49">• Discreet</text>
<text transform="matrix(1 2.120617e-003 -2.120617e-003 1 193.6911 212.4194)" class="st47 st48 st49">• Specialised</text>
<line class="st56" x1="90.5" y1="202.6" x2="114.1" y2="202.6"/>
<text transform="matrix(1 0 0 1 34.6955 142.0578)" class="st57 st48 st53">AN</text>
<text transform="matrix(1 0 0 1 107.4163 142.5579)" class="st58 st48 st53">WHERE</text>
</svg>
