<?xml version="1.0" encoding="utf-8"?>
<!-- Generator: Adobe Illustrator 19.0.0, SVG Export Plug-In . SVG Version: 6.00 Build 0)  -->
<svg version="1.1" id="Layer_1" xmlns="http://www.w3.org/2000/svg" xmlns:xlink="http://www.w3.org/1999/xlink" x="0px" y="0px"
	 viewBox="-193 -106 512 512" style="enable-background:new -193 -106 512 512;" xml:space="preserve">
<style type="text/css">
	.st0{fill:#FF5B62;}
	.st1{fill:#56ACE0;}
	.st2{fill:#FFC10D;}
	.st3{fill:#194F82;}
</style>
<circle class="st0" cx="63" cy="150" r="256"/>
<path class="st1" d="M-24.4,9.6h149.2c4.6,0,8.4,3.7,8.4,8.4s-3.7,8.4-8.4,8.4H-23.5c0.9,9.5,2.5,18.8,4.7,27.6h134.7
	c4.6,0,8.4,3.7,8.4,8.4c0,4.6-3.7,8.4-8.4,8.4H-13.7c3.6,10.1,8,19.3,13.1,27.6h86.8c4.6,0,8.4,3.7,8.4,8.4c0,4.6-3.7,8.4-8.4,8.4
	H11.7C26.1,131.5,43.8,141,63,141c48.2,0,87.4-60.5,87.4-134.8l0,0H-24.4l0,0C-24.4,7.4-24.4,8.5-24.4,9.6z"/>
<path class="st2" d="M1.2,289.4c-4.6,0-8.4-3.7-8.4-8.4c0-4.6,3.7-8.4,8.4-8.4h148.3c-0.9-9.5-2.5-18.8-4.7-27.6H10.1
	c-4.6,0-8.4-3.7-8.4-8.4s3.7-8.4,8.4-8.4h129.6c-3.6-10.1-8-19.3-13.1-27.6H39.8c-4.6,0-8.4-3.7-8.4-8.4c0-4.7,3.7-8.4,8.4-8.4h74.5
	C99.9,167.5,82.2,158,63,158c-48.2,0-87.4,60.5-87.4,134.8h174.9c0-1.1-0.1-2.2-0.1-3.3L1.2,289.4L1.2,289.4z"/>
<path class="st3" d="M97.2,149.5c40.7-20.7,70.1-77,70.1-143.2c0-4.6-3.7-8.4-8.4-8.4c-4.6,0-8.4,3.7-8.4,8.4l0,0
	c0,74.3-39.2,134.8-87.4,134.8c-19.2,0-36.9-9.5-51.3-25.7h74.5c4.6,0,8.4-3.7,8.4-8.4c0-4.6-3.7-8.4-8.4-8.4H-0.6
	c-5.1-8.3-9.5-17.5-13.1-27.6h129.6c4.6,0,8.4-3.7,8.4-8.4c0-4.6-3.7-8.4-8.4-8.4H-18.8c-2.1-8.8-3.7-18-4.7-27.6h148.3
	c4.6,0,8.4-3.7,8.4-8.4s-3.7-8.4-8.4-8.4H-24.4c0-1.1-0.1-2.2-0.1-3.3l0,0c0-4.6-3.7-8.4-8.4-8.4s-8.4,3.7-8.4,8.4
	c0,66.2,29.3,122.5,70.1,143.2c-40.6,20.7-70,77.1-70,143.3c0,4.6,3.7,8.4,8.4,8.4s8.4-3.7,8.4-8.4l0,0
	c0-74.3,39.2-134.8,87.4-134.8c19.2,0,36.9,9.5,51.3,25.7H39.9c-4.6,0-8.4,3.7-8.4,8.4s3.7,8.4,8.4,8.4h86.8
	c5.1,8.3,9.5,17.5,13.1,27.6H10.1c-4.6,0-8.4,3.7-8.4,8.4c0,4.6,3.7,8.4,8.4,8.4h134.7c2.1,8.8,3.7,18,4.7,27.6H1.2
	c-4.6,0-8.4,3.7-8.4,8.4c0,4.7,3.7,8.4,8.4,8.4h149.2c0,1.1,0.1,2.1,0.1,3.3l0,0c0,4.6,3.7,8.4,8.4,8.4c4.6,0,8.4-3.7,8.4-8.4
	C167.3,226.5,138,170.2,97.2,149.5z"/>
</svg>
