<?xml version="1.0" encoding="utf-8"?>
<!-- Generator: Adobe Illustrator 19.0.0, SVG Export Plug-In . SVG Version: 6.00 Build 0)  -->
<svg version="1.1" id="Layer_1" xmlns="http://www.w3.org/2000/svg" xmlns:xlink="http://www.w3.org/1999/xlink" x="0px" y="0px"
	 viewBox="-193 -106 512 512" style="enable-background:new -193 -106 512 512;" xml:space="preserve">
<style type="text/css">
	.st0{fill:#21D0C3;}
	.st1{fill:#15BDB2;}
	.st2{fill:#EEF3F7;}
	.st3{fill:#FFFFFF;}
	.st4{fill:#D9DADA;}
	.st5{fill:#FAD24D;}
	.st6{fill:#FF5B62;}
</style>
<path class="st0" d="M63-106c141.4,0,256,114.6,256,256c0,141.4-114.6,256-256,256s-256-114.6-256-256C-193,8.6-78.4-106,63-106z"/>
<ellipse class="st1" cx="8.6" cy="285.6" rx="99.8" ry="8.1"/>
<path class="st2" d="M8.6,18.3c-22.1,0.2-76.8-20.7-92.1,1.1c-16.7,23.9-13.9,75.9-2.4,93.8c11.6,17.9,20.3,30.2,20.3,36.8
	c0,6.6-1.6,115-0.8,123.3c0.8,8.3,3.6,14.2,7.2,14.2c3.6,0,15.3-19.5,20.9-33.8c5.6-14.2,35.2-81,47.9-81
	c25.2,0,64.7,114.8,66.8,114.8c3.6,0,6.4-6,7.2-14.2c0.8-8.3-0.8-116.6-0.8-123.3c0-6.6,8.8-18.9,20.3-36.8
	c11.6-17.9,14.3-69.9-2.4-93.8C85.3-2.5,38.3,20.8,8.6,18.3z"/>
<g>
	<path class="st3" d="M-6.9,16.6c-22.2-2.1-52.9-0.6-64.6,6.3c-11.8,6.9-21.9,63.6-5.2,89.2s21.5,33.1,17.9,55.7s-6,107.4-0.4,119.8
		c-3.6,0-6.4-6-7.2-14.2c-0.8-8.3,0.8-116.6,0.8-123.3s-8.8-18.9-20.3-36.8c-11.6-17.9-14.3-69.9,2.4-93.8
		C-71.1,1.7-32.8,12.1-6.9,16.6L-6.9,16.6z"/>
	<path class="st3" d="M76.4,287.4c-14-32.9-36.9-122.2-67.2-114.8C28.8,172.7,67.1,289.1,76.4,287.4z"/>
</g>
<g>
	<path class="st4" d="M83.3,200.5c-0.3-25.1-0.6-47.6-0.6-50.5c0-6.6,8.8-18.9,20.3-36.8c6.4-9.9,10.1-30.1,9.3-50.3
		c-1.3,33-33.8,73.7-36.3,79.3C73.6,147.8,83.1,179.9,83.3,200.5L83.3,200.5L83.3,200.5z"/>
	<path class="st4" d="M10,25.1c-14.6,0.5-30.4-7.8-38.8-3c0,0,20.4,4.4,32.3,8.5c21.1,7.2,42.1-13.1,55.8-10.2
		C47.5,14.3,24.2,24.6,10,25.1L10,25.1z"/>
</g>
<path class="st5" d="M-26.2,92.3c-18.1-13.8-37,10.3-27.6,41.2c9.4,30.9-9.5,121.2-6.7,146.3c0,0,1,4.8,4.4,0.9
	c3.5-3.9,37.5-120,64.6-121.4c27.2,1.4,61.2,117.6,64.6,121.4c3.5,3.9,4.4-0.9,4.4-0.9c2.8-25-16.1-115.4-6.7-146.3
	s-9.5-55-27.6-41.2C20.8,109.4-3.7,109.4-26.2,92.3L-26.2,92.3z"/>
<path class="st6" d="M8.7,117c-10.8,0.1-36.3-11.4-46.7-2.7c-11.9,8.8,11.5,27.5-9.1,89c-1,9-9.3,46-4.9,46.6
	c4.9-1,9.8-26.1,15.3-39c5.6-13.1,14.6-41.3,22.5-53.3c4.1-6.2,13-9.7,23-9.5c10-0.2,18.9,3.3,23,9.5c7.9,12,16.8,40.1,22.5,53.3
	c5.5,12.8,10.4,38,15.3,39c4.4-0.5-3.9-37.5-4.9-46.6c-20.7-61.5,2.8-80.2-9.1-89C45,105.6,19.5,117.1,8.7,117z"/>
<path class="st5" d="M183.7,133.6c8.2,2.7,14.1,9.4,14.1,17.2V210h-43.7v-59.2c0-7.8,5.9-14.6,14.1-17.2l2.7-70.1
	c0.1-1.5,1-2.8,2.6-3.4c38.9-16.4,26.8-45.8,0.3-52c-1.3-0.3-0.5-1.9,0.9-1.8c30.1,1.5,54.5,39,7.5,61.7c-0.8,0.4-1.2,1-1.2,1.8
	L183.7,133.6L183.7,133.6z"/>
<path class="st6" d="M197.8,274.3V210h-43.7v80.5C169.5,286.5,184.1,281,197.8,274.3L197.8,274.3z"/>
</svg>
