<?xml version="1.0" encoding="utf-8"?>
<!-- Generator: Adobe Illustrator 19.0.0, SVG Export Plug-In . SVG Version: 6.00 Build 0)  -->
<svg version="1.1" id="Layer_1" xmlns="http://www.w3.org/2000/svg" xmlns:xlink="http://www.w3.org/1999/xlink" x="0px" y="0px"
	 viewBox="-193 -106 512 512" style="enable-background:new -193 -106 512 512;" xml:space="preserve">
<style type="text/css">
	.st0{fill:#FF5B62;}
	.st1{fill:#FFFFFF;}
	.st2{fill:#56ACE0;}
	.st3{fill:#FFC10D;}
	.st4{fill:#194F82;}
</style>
<circle class="st0" cx="63" cy="150" r="256"/>
<g>
	<path class="st1" d="M163.4,119.3l-22-21.9c-3.6,5.5-8.3,10.1-13.8,13.8l19.7,19.7C151.8,125.9,157.2,122,163.4,119.3z"/>
	<path class="st1" d="M163.4,205.6c-6.1-2.7-11.5-6.6-16-11.4L64,277.5h27.4L163.4,205.6z"/>
</g>
<path class="st2" d="M61.5,95.5c-4.1-7-6.5-15.1-6.5-23.7c0-26,21-47,47-47c4.7,0,9.2,0.7,13.4,2l7.9-9.9
	c8.2-11.2,7.6-26.4-4.2-35.7c-9.8-8.1-26.8-7.2-35.7,4.1L4.7,85.1C1,89.8,1.8,96.7,6.4,100.4l22.8,18.1l15.3-1.7L61.5,95.5z"/>
<path class="st1" d="M-3.3,120.5l-12,15.2l15.2,12l0,0l0,0l12-15.1L-3.3,120.5z"/>
<circle class="st3" cx="102" cy="71.7" r="25.4"/>
<path class="st2" d="M113.2,299.4H-13.2c-16.1,0-29.7,10.6-34.4,25.1h195.2C142.9,309.9,129.3,299.4,113.2,299.4z"/>
<circle class="st3" cx="181.9" cy="162.4" r="25.4"/>
<path class="st4" d="M191.3,116.5l-42.4-42.4c0-0.8,0.1-1.6,0.1-2.3c0-13.2-5.5-25.1-14.2-33.6l5.7-7.8c18.2-24.2,10.2-51.1-7-65.7
	c-20-16.3-49.1-14.9-67.2,7l-78.7,99.9c-7.4,9.2-8.8,21.3-4.9,31.7l-14.9,18.9c-8,9.8-5.2,23.9,3.6,30.6l15.2,12
	c9.4,7.4,23.7,5.2,30.6-3.6L32,142.3c10.9,1.4,22-2.8,29.7-12.2l15.5-18.6c7.2,4.5,15.7,7.2,24.9,7.2c0.8,0,1.6-0.1,2.3-0.1
	l32.1,32.1c-0.9,3.7-1.6,7.6-1.6,11.6s0.5,8,1.6,11.6l-66.7,66.8L-84.7,188c-5.7-1.9-11.9,1.1-13.8,6.8c-1.9,5.7,1.1,11.9,6.8,13.8
	L52.6,258l-19.5,19.5h-46.4c-31.9,0-57.9,26-57.9,57.9c0,6,4.8,10.9,10.9,10.9h220.4h0.1c6,0,10.9-4.8,10.9-10.9
	c0-0.6-0.1-1.2-0.1-1.7c-0.8-28.3-22.1-51.5-49.5-55.5l69.7-69.7c21.5-4.3,37.6-23.3,37.6-46C228.9,139.7,212.8,120.8,191.3,116.5z
	 M-0.1,147.7L-0.1,147.7l-15.3-12l12-15.1l15.2,12L-0.1,147.7C0,147.7-0.1,147.7-0.1,147.7z M55.1,71.7c0,8.7,2.4,16.7,6.5,23.7
	l-17,21.2l-15.3,1.7L6.4,100.3C1.7,96.6,0.9,89.7,4.7,85l78.9-99.8c9-11.4,26.1-12.2,35.7-4.1c11.8,9.4,12.3,24.5,4.2,35.7l-7.9,9.9
	c-4.3-1.3-8.8-2-13.4-2C76.2,24.9,55.1,45.9,55.1,71.7z M102,97.1c-14.1,0-25.4-11.4-25.4-25.4S88,46.3,102,46.3
	c14.1,0,25.4,11.4,25.4,25.4S116,97.1,102,97.1z M127.7,111.1c5.5-3.6,10.1-8.3,13.8-13.8l22,22c-6.1,2.6-11.6,6.6-16,11.4
	L127.7,111.1z M147.5,324.5H-47.6c4.7-14.5,18.3-25.1,34.4-25.1h126.5C129.3,299.4,142.9,309.9,147.5,324.5z M91.4,277.5H64
	l83.4-83.4c4.5,4.8,9.9,8.8,16,11.4L91.4,277.5z M181.9,187.9c-14.1,0-25.4-11.4-25.4-25.4s11.4-25.4,25.4-25.4
	c14.1,0,25.4,11.4,25.4,25.4C207.3,176.5,195.9,187.9,181.9,187.9z"/>
</svg>
