<?xml version="1.0" encoding="utf-8"?>
<!-- Generator: Adobe Illustrator 19.0.0, SVG Export Plug-In . SVG Version: 6.00 Build 0)  -->
<svg version="1.1" id="Layer_1" xmlns="http://www.w3.org/2000/svg" xmlns:xlink="http://www.w3.org/1999/xlink" x="0px" y="0px"
	 viewBox="-193 -106 512 512" style="enable-background:new -193 -106 512 512;" xml:space="preserve">
<style type="text/css">
	.st0{fill:#21D0C3;}
	.st1{fill:#FF5B62;}
	.st2{fill:#ED4C54;}
	.st3{fill:#076673;}
	.st4{fill:#FF878E;}
	.st5{fill:#0F7986;}
	.st6{fill:#FFD84E;}
</style>
<circle class="st0" cx="63" cy="150" r="256"/>
<path class="st1" d="M61.9,27.5c3.9,0.5,5.7-0.7,9.4,4.3c3.6,5,17.5,12.5,19.7,18l1.9-1.2c-2.4-6.2-16.5-13.7-19.8-18.2
	c0,0,0.6-1.5,3.3-0.9c2.7,0.5,17.8,3,17.8,3l1.3-1.8c0,0-16.7-3.5-18.8-3.7c-2.2-0.2-3.6-0.3-3.4-0.8c0.2-0.4,13.4-7.1,20.7-7.5
	c0,0,0.5-1.6-0.7-2.1c-1.1-0.5-19.3,5.7-21.4,6.9c-2.1,1.3-7.9-2.4-7.9-2.4C60.9,19.9,58.1,27.1,61.9,27.5L61.9,27.5L61.9,27.5z"/>
<path class="st2" d="M54.7,5.2c0,0,4.5-3.2,9.9-1C70,41.3,62,85.7,60.3,132.1l-8.2-0.3C54.7,86.1,61,43.7,54.7,5.2z"/>
<path class="st1" d="M56.5,26.3c-3.9,1.2-5.4,2.7-11.1-0.3s-22.3-2.9-26.8-6.9l-1.3,1.8c5,4.6,21.8,4.4,27,7.1c0,0,0.1,1.6-2.8,2.2
	C38.7,30.9,19,35.9,19,35.9l-0.5,2.2c0,0,21.6-4.8,23.8-5.5c2.2-0.7,3.6-1.2,3.6-0.7s-17.7,13-24.5,16.4c0,0,0.3,1.6,1.6,1.6
	c1.3,0,24-14.2,25.5-16.2s8.9-0.7,8.9-0.7C60.9,32.8,60.4,25.2,56.5,26.3L56.5,26.3L56.5,26.3z"/>
<g>
	<path class="st3" d="M56.5,38c4.2-0.5,6.2,0.8,10.1-4.6s6.6-11.2,9-17.1l2,1.3c-2.5,6.7-5.6,12.5-9.1,17.3c0,0,0.6,1.6,3.6,1
		s19.2-3.3,19.2-3.3l1.4,2c0,0-18,3.8-20.3,4c-2.4,0.3-3.9,0.3-3.7,0.8c0.2,0.5,14.4,7.7,22.3,8c0,0,0.5,1.7-0.7,2.3
		s-20.8-6.1-23.1-7.5c-2.3-1.4-8.5,2.6-8.5,2.6C55.3,46.2,52.3,38.5,56.5,38L56.5,38L56.5,38z"/>
	<path class="st3" d="M51.3,41.9c-3.9,1.2-5.4,2.7-11.1-0.3s-10.4-6.9-14.9-10.9L24,32.5c5,4.6,10,8.4,15.1,11.1
		c0,0,0.1,1.6-2.8,2.2c-2.8,0.7-10.6,1.7-10.6,1.7l-0.5,2.2c0,0,9.7-0.9,11.9-1.5c2.2-0.7,3.6-1.2,3.6-0.7S34.8,56.6,28,59.9
		c0,0,0.3,1.6,1.6,1.6c1.3,0,12.2-10.2,13.6-12.3c1.5-2,8.9-0.7,8.9-0.7C55.7,48.4,55.2,40.7,51.3,41.9L51.3,41.9L51.3,41.9z"/>
</g>
<path class="st1" d="M89.6,28.7c0,0-24.2-9.1-16.7-34.2c7.4-25.1,42.6-17.3,50.8-8.3c10.4,2.6,33.4,30.4,24.2,61.6
	c1.9,17.6-16.1,34.1-16.1,34.1s-15.6,25-41.1,15.4s-14.7-40-4.4-42.5c4.3-1.1,2.8-1.4,4.1-4.1C88,46.3,86.4,34.5,89.6,28.7z"/>
<g>
	<path class="st2" d="M89.1,29.7c0.1,0,17.5-6.6,19.7-17.7c0,0-7.8,11.5-20.6,16c0.9,0.4,1.4,0.6,1.4,0.6
		C89.4,29,89.3,29.3,89.1,29.7z M89.9,52.4c0.1-0.2,0.5-1.5,0.6-1.8c0-0.1,17.5,6.6,19.7,17.7C110.1,68.2,102.4,56.9,89.9,52.4z"/>
	<path class="st2" d="M122.7,40.8c0,0-12.5-5.1-19.2-2.3s-11,2.6-11,2.6s4.4,1.1,9.7-0.6C107.6,38.8,115.4,39.9,122.7,40.8z"/>
	<path class="st2" d="M73.3-6.9c0.4,11.5,4.4,26.2,20.5,32.4c0,0-2.2,5.5,0.7,16c0,0-4.4,4.3-1.4,10.9c0,0-22.2,13.6-10.5,40.2
		C68,80.3,77.4,56.9,86.3,54.7c4.3-1.1,2.8-1.4,4.1-4.1c-2.4-4.3-4-16.1-0.8-21.9c0,0-24.2-9.1-16.7-34.2C73-6,73.2-6.5,73.3-6.9
		L73.3-6.9L73.3-6.9z"/>
	<path class="st2" d="M149.6,26c0,0.8,0.2,15.4-3.7,21.1c0,0,0.7,18.8-15.2,33c0,0-11.2,18.4-30.7,18.1c-4.5-0.1-8.4-0.9-11.8-2.2
		c0.8,0.4,1.7,0.8,2.6,1.1c25.5,9.6,41.1-15.4,41.1-15.4S150,65.2,148,47.6C150.1,40.2,150.5,32.9,149.6,26z"/>
</g>
<path class="st4" d="M76.4-12.8c1.6-1.9,24.4-16.4,46.1,0.7C139.7-5.5,147,15.6,150,32.2c-0.4-24.4-17.7-44-26.3-46.1
	C116.4-21.8,87.9-28.9,76.4-12.8L76.4-12.8L76.4-12.8z"/>
<path class="st1" d="M26.1,28.7c0,0,24.2-9.1,16.7-34.2C35.4-30.6,0.2-22.9-8-13.9c-10.4,2.6-33.4,30.4-24.2,61.6
	c-1.9,17.6,16.1,34.1,16.1,34.1s15.6,25,41.1,15.4s14.7-40,4.4-42.5c-4.3-1.1-2.8-1.4-4.1-4.1C27.7,46.3,29.3,34.5,26.1,28.7z"/>
<g>
	<path class="st2" d="M26.6,29.7c-0.1,0-17.5-6.6-19.7-17.7c0,0,7.8,11.5,20.6,16c-0.9,0.4-1.4,0.6-1.4,0.6
		C26.3,29,26.4,29.3,26.6,29.7z M25.8,52.4c-0.1-0.2-0.5-1.5-0.6-1.8c0-0.1-17.5,6.6-19.7,17.7C5.6,68.2,13.3,56.9,25.8,52.4z"/>
	<path class="st2" d="M-7,40.8c0,0,12.5-5.1,19.2-2.3s11,2.6,11,2.6s-4.4,1.1-9.7-0.6C8.1,38.8,0.3,39.9-7,40.8z"/>
	<path class="st2" d="M42.4-6.9C42,4.5,38,19.2,21.9,25.5c0,0,2.2,5.5-0.7,16c0,0,4.4,4.3,1.4,10.9c0,0,22.2,13.6,10.5,40.2
		c14.7-12.3,5.3-35.7-3.7-37.9c-4.3-1.1-2.8-1.4-4.1-4.1c2.4-4.3,4-16.1,0.8-21.9c0,0,24.2-9.1,16.7-34.2C42.7-6,42.5-6.5,42.4-6.9
		L42.4-6.9L42.4-6.9L42.4-6.9z"/>
	<path class="st2" d="M-33.9,26c0,0.8-0.2,15.4,3.7,21.1c0,0-0.7,18.8,15.2,33c0,0,11.2,18.4,30.7,18.1c4.5-0.1,8.4-0.9,11.8-2.2
		c-0.8,0.4-1.7,0.8-2.6,1.1c-25.5,9.6-41.1-15.4-41.1-15.4s-18.1-16.5-16.1-34.1C-34.4,40.2-34.8,32.9-33.9,26L-33.9,26L-33.9,26z"
		/>
</g>
<path class="st4" d="M39.3-12.8c-1.6-1.9-24.4-16.4-46.1,0.7C-24-5.5-31.3,15.6-34.3,32.2c0.4-24.4,17.7-44,26.3-46.1
	C-0.7-21.8,27.8-28.9,39.3-12.8L39.3-12.8L39.3-12.8z"/>
<path class="st5" d="M58.8,12c0,0-4.5-3.2-9.9-1c-5.4,37.1,13.2,74.7,14.9,121.1l8.2-0.3C69.4,86.1,52.4,50.5,58.8,12z"/>
<path class="st1" d="M179,175.3c-22.7-6-72.7-5.5-91.3,18C62.3,229.5,70.5,313.1,86.5,330s36-50.4,51.9-48.3s38.6-30.2,38.6-30.2
	s23.7-7.5,30.8-20c7.1-12.4,21.9-32,31.2-39.4C248.2,184.8,209.1,161.4,179,175.3L179,175.3L179,175.3z"/>
<path class="st6" d="M-23.6,154.4c0,0,0.3-0.2,0.8-0.4c2.2-1,8.4-3,12.4,2.7c5,7.1,20.7,53.2,15.6,72.4c-5,19.2-18.7,30.9-18.7,30.9
	s-5.1,29.9-27.9,55.4s-31.2,23.3-36.9,21.9s-14.5-13.4-19.5-25.3s-5.1-12.8-5.1-12.8s-21.7-6.2-20.1-21.3c0,0-1-4.6,4.8-9.3
	c0,0-1.3-19.3,5.9-29.2c7.2-9.9,20.2-17.3,20.2-17.3s-0.4-12.5,9.4-23.4s17.6-1.4,35-16.4C-30.4,167.2-29.9,157.4-23.6,154.4
	L-23.6,154.4z"/>
</svg>
