<?xml version="1.0" encoding="utf-8"?>
<!-- Generator: Adobe Illustrator 19.0.0, SVG Export Plug-In . SVG Version: 6.00 Build 0)  -->
<svg version="1.1" id="Layer_1" xmlns="http://www.w3.org/2000/svg" xmlns:xlink="http://www.w3.org/1999/xlink" x="0px" y="0px"
	 viewBox="-193 -106 512 512" style="enable-background:new -193 -106 512 512;" xml:space="preserve">
<style type="text/css">
	.st0{fill:#037A69;}
	.st1{fill:#DFDFDF;}
	.st2{fill:#F7F7F7;}
	.st3{fill:#F1F1F0;}
	.st4{fill:#F6B883;}
	.st5{fill:#444749;}
	.st6{fill:#BFC8EC;}
	.st7{fill:#EB4141;}
	.st8{fill:#F34444;}
	.st9{opacity:5.000000e-002;fill:#FFFFFF;}
	.st10{fill:#C8D3F8;}
	.st11{fill:#F6C49E;}
	.st12{fill:#0097CB;}
	.st13{fill:#00B2F0;}
	.st14{fill:#A0ADAD;}
	.st15{fill:#7B8485;}
	.st16{fill:#323435;}
</style>
<circle class="st0" cx="63" cy="150" r="256"/>
<g>
	<path class="st1" d="M119.5,302.8c-0.3,0-5.7,6.7-4,8.5c1.7,1.8,4,3.3,5.7,1.9c1.7-1.4,6.2-9.6,6.2-9.6L119.5,302.8z"/>
	<path class="st1" d="M140.4,309.3c-0.3,0.1-2.9,4.8-0.8,6c2.1,1.2,4.8,2,6,0.2c1.2-1.9,3.9-6.1,3.9-6.1L140.4,309.3z"/>
	<path class="st2" d="M117.1,210.3c0,0-3.2,14.2-2.7,31.7c0.4,14.3,1.5,43.5,1.5,65.1c0,0,2.9,3.1,12.5,0.6c0,0,0-15.9,0-24.8
		c0-8.9,1.4-38.2,2.8-55.2c0,0,3.1,31.8,5.1,40.5c1.1,4.8,1.8,34,1.8,41.5c0,0,8.1,4,13.7,1.6c0,0-0.7-24.7-1.5-33.1
		c-1.3-13.7-1.2-27.2-1.5-37.6c-0.3-10.4,3.9-18.6-3-30.3C145.8,210.3,125.2,213.5,117.1,210.3z"/>
	<path class="st3" d="M122.7,143.4c0,0-6.1,0.5-10.3,4c-4.2,3.6-6.5,27-6.5,27l-16.6,9.3H104l12.8-6l0.3-23.1
		C117.2,154.7,119.4,145.6,122.7,143.4z"/>
	<path class="st3" d="M126.5,142.7c0,0-16.9,9.6-9.9,44.3c0.4,1.9-5,32.2-6.7,35.1c0,0,25-3.1,40.8-6.9c0,0-6.9-25.4-7.2-27.4
		c-0.6-3.8,0.8-11.8,4.7-20.1c5.1-11.2,8.5-18.2-1.6-25.3c0,0-6.1,6.2-16.3,6.9C127,149.6,122.7,149,126.5,142.7z"/>
	<path class="st4" d="M142.7,124c-0.5,0.6-1,2.5-1.4,4.7c-0.8,4.1-1.4,9.4-1.1,11.1c1,3.2,6.3,2.8,6.3,2.8s-10.7,10-17.3,9.4
		c-6.6-0.6-7.7-8-7.7-8s9.1-1.7,9-2.7l-0.1-0.6l-0.6-3.1c-8.5,4.2-13.2-14.2-10.5-22.3c0.3-1,0.8-1.9,1.4-2.5
		c1.6-1.7,0.8-3.2-0.4-4.4c1.5-1.5,3.6-3.5,6.3-4.7c4.7,1.2,9.7,4.7,11,8.3c1.8,4.8,3.7,5.4,3.7,5.4c1.5-3.4,3.4-1.6,3.4-1.6
		C146.7,117.7,144.4,121.6,142.7,124z"/>
	<path class="st5" d="M139.3,105.7c-5.3-3.4-9.5-3.3-12.6-1.9c-2.7,1.1-4.8,3.2-6.3,4.7c-0.2,0.2-0.4,0.4-0.6,0.6
		c-2.2,2-3.6,2.4-4.3,2.5c-0.2,0-0.3,0-0.5,0c0,0,0,0,0,0c0,0,0,0,0,0c0,0-1.6,6,4.7,7.2c2.1,0.4,4.6,0.3,9.9-3.4
		c1.4,0.3,2.7,1.3,3.2,2.9c1.7,5.7,2.9,4.1,2.9,4.1c0.5-0.8,3.4,0.5,3.4,0.5c0,1.4-0.4,3.6,1.3,5.1c0.4,0.4,0.8,0.6,1.1,0.8
		c0.9,0.6,1.4,0.4,1.4,0.4C146,114.9,149.7,112.2,139.3,105.7z"/>
	<path class="st3" d="M117.1,165.2l-3.2-11.5c0,0,3-8.5,4.9-9.3c1.9-0.7,11.7-3.2,11.7-3.2l0.5,15.5L117.1,165.2z"/>
	<path class="st3" d="M144.5,145l2.9,33.9l-14.3,4.9l0.9,7.8l24.6-5.7c0,0,1.2-35.5-2.1-38.8c-3.3-3.3-9.4-3.4-9.4-3.4L144.5,145z"
		/>
	<path class="st3" d="M129.7,153.2l11.5-12c0,0,11.6,1.7,14.5,5.1C158.7,149.8,129.7,153.2,129.7,153.2z"/>
	<path class="st4" d="M140.9,122.4c0-1.6-1.3-2.8-2.9-2.8c-1.6,0-2.8,1.3-2.8,2.9c0,1.6,1.6,4.1,3.2,4
		C140,126.5,140.9,123.9,140.9,122.4z"/>
	<polygon class="st1" points="130.8,152.1 130.5,141.3 125.2,142.6 126.9,164.8 	"/>
	<polygon class="st1" points="141.2,141.3 146.9,142.4 127,164.5 129.9,153 	"/>
	<path class="st3" d="M137.8,146.1l-9,12.8l1.1-12.6C131.1,147,134.1,148.1,137.8,146.1z"/>
	<path class="st4" d="M141.2,141.3l-3,4.3l-0.4,0.6c-3.7,2-6.7,0.9-7.9,0.2l0-0.4l0.4-5.2L141.2,141.3z"/>
</g>
<g>
	<path class="st4" d="M-104.3,12.5c0,0,0.4-2.1,0.3-4.3c0-0.9-0.2-1.8-0.4-2.6c-1-2.6-2-7.4,1.2-8.6c3.2-1.2,23.1-1.4,24.2-0.4
		c1.1,1.1,0.7,3.2-2.3,2.8c-3-0.4-11.7,1.5-14,6.1c-2.3,4.6-1.4,6.9-1.4,6.9L-104.3,12.5z"/>
	<path class="st5" d="M-107.2,7.9c-0.2-0.7,0.8-1.4,0.6-2.7c-0.1-1.4-1.9-6.8-0.5-8.1c1.4-1.2,10.3-1.6,11.4-1.6c1,0,1.1,1,3.2,0.4
		c2-0.6,14.7-0.6,15,1.2c0.4,1.8,0.8,3.4-0.1,3.9c-0.9,0.5-7.4,1.2-8.5,2c-1,0.7-6.9,3.9-7.3,5c-0.5,1.1-1.6,2-3-0.2
		c-1.4-2.2-7.4-0.4-8,0.4C-105,8.9-106.7,9.5-107.2,7.9z"/>
	<path class="st6" d="M-104.1,113c0,0-7.5-4.9-4.5-18.3c2.3-10.4,5.4-6.1,5.1-28.5c-0.1-5.4,0.8-12.5,0-18.4
		c-3.2-21.9-0.5-36.3-0.5-36.3l12.7-0.2l3.5,47.1c0,0,3.3,14,3.8,27.5c0.3,7.5,0.5,26.8,0.5,26.8L-104.1,113z"/>
</g>
<g>
	<path class="st7" d="M216.1,43c0,14.3-11.6,25.8-25.8,25.8c-14.3,0-25.8-11.6-25.8-25.8c0-3.3,0.6-6.5,1.8-9.5
		c-0.3,1.5-0.5,3-0.5,4.6c0,12,9.8,21.8,21.8,21.8c12,0,21.8-9.8,21.8-21.8c0-9.6-6.2-17.8-14.9-20.7
		C206.7,19.5,216.1,30.2,216.1,43z"/>
	<path class="st8" d="M209.3,38.2c0,12-9.8,21.8-21.8,21.8c-12,0-21.8-9.8-21.8-21.8c0-1.6,0.2-3.1,0.5-4.6
		c3.8-9.6,13.1-16.4,24-16.4c1.4,0,2.8,0.1,4.2,0.3C203.1,20.4,209.3,28.6,209.3,38.2z"/>
	<circle class="st9" cx="181.3" cy="35.8" r="7.8"/>
</g>
<g>
	<path class="st7" d="M-74.7,0.7c0,14.3-11.6,25.8-25.8,25.8c-14.3,0-25.8-11.6-25.8-25.8c0-3.3,0.6-6.5,1.8-9.5
		c-0.3,1.5-0.5,3-0.5,4.6c0,12,9.8,21.8,21.8,21.8s21.8-9.8,21.8-21.8c0-9.6-6.2-17.8-14.9-20.7C-84.1-22.8-74.7-12.1-74.7,0.7z"/>
	<path class="st8" d="M-81.5-4.1c0,12-9.8,21.8-21.8,21.8s-21.8-9.8-21.8-21.8c0-1.6,0.2-3.1,0.5-4.6c3.8-9.6,13.1-16.4,24-16.4
		c1.4,0,2.8,0.1,4.2,0.3C-87.7-21.9-81.5-13.7-81.5-4.1z"/>
	<circle class="st9" cx="-109.5" cy="-6.5" r="7.8"/>
</g>
<g>
	<path class="st7" d="M-72,288.3c0,14.3-11.6,25.8-25.8,25.8c-14.3,0-25.8-11.6-25.8-25.8c0-3.3,0.6-6.5,1.8-9.5
		c-0.3,1.5-0.5,3-0.5,4.6c0,12,9.8,21.8,21.8,21.8s21.8-9.8,21.8-21.8c0-9.6-6.2-17.8-14.9-20.7C-81.3,264.8-72,275.5-72,288.3z"/>
	<path class="st8" d="M-78.7,283.5c0,12-9.8,21.8-21.8,21.8s-21.8-9.8-21.8-21.8c0-1.6,0.2-3.1,0.5-4.6c3.8-9.6,13.1-16.4,24-16.4
		c1.4,0,2.8,0.1,4.2,0.3C-84.9,265.7-78.7,273.9-78.7,283.5z"/>
	<circle class="st9" cx="-106.7" cy="281.1" r="7.8"/>
</g>
<g>
	<path class="st4" d="M220.6,7.6c0,0,2.2,0.4,4.5,0.3c0.9-0.1,1.9-0.2,2.7-0.5c2.7-1.1,7.7-2.3,9,1c1.4,3.3,2,24.1,0.9,25.2
		c-1.1,1.2-3.3,0.8-3-2.4c0.3-3.2-1.8-12.2-6.6-14.5c-4.8-2.3-7.2-1.3-7.2-1.3L220.6,7.6z"/>
	<path class="st5" d="M225.4,4.5c0.8-0.2,1.4,0.8,2.9,0.6c1.4-0.2,7.1-2.2,8.4-0.7c1.3,1.5,1.9,10.8,1.9,11.9c0,1.1-1,1.2-0.4,3.3
		c0.7,2.1,1,15.3-0.9,15.7c-1.9,0.4-3.5,1-4.1,0c-0.5-1-1.4-7.7-2.2-8.8c-0.8-1.1-4.2-7.1-5.3-7.6c-1.1-0.5-2.1-1.6,0.2-3.1
		c2.3-1.5,0.3-7.7-0.6-8.3C224.4,6.8,223.7,5,225.4,4.5z"/>
	<path class="st4" d="M55.9,11.3C49,12.1,52.1,43,52.1,43l-20.8,6c-0.7-0.7-2.8-2.7-4.8-3.5c-2.7-1-2.9-1.7-3.7-1.7
		c-0.4,0-0.8,1.5,1.7,2.9c0,0,0.9,0.8-0.4,0.4c-1.3-0.4-2-0.6-3.2,0.4c-0.8,0.7-2.2,5.4,0.1,6.3c2,0.8,6.1,1,8.9,0.3l30.4-0.8
		c0,0,3.5-12,3.2-32C63,11.5,59.9,10.8,55.9,11.3z"/>
	<path class="st10" d="M115.6,10c0,0,5-7.9,19.1-5.1c10.9,2.2,6.5,5.5,29.9,4.7c5.6-0.2,13.1,0.6,19.2-0.4
		c22.8-3.8,38.1-2.1,38.1-2.1l0.2,14L173,25.8c0,0-14.6,3.7-28.6,4.6c-7.9,0.5-28,1.1-28,1.1L115.6,10z"/>
	<path class="st11" d="M115.6,10c0,0-16.7,2.5-27.3,0.9C77.7,9.2,60.8,5.6,49,13.4l1.5,10.3c0,0,4.9,9.9,25.8,9.2
		c20.9-0.7,40.1-1.3,40.1-1.3L115.6,10z"/>
	<g>
		<path class="st11" d="M59.1,14.4c0,0-4-1.1-5.7-5.8c-1.7-4.7,0.4-8.3-9.2-17.4C34.5-17.8,27.6-9.3,24.9-7
			c-2.6,2.3-2.5,7.6,1.6,16.8c4.5,10.1,10.7,10.4,13.3,10.4c1.8,0,4.9-1.2,6.3-1.1c1.4,0.1,4.8,5.4,4.8,5.4L59.1,14.4z"/>
		<path class="st5" d="M54.9,9.1c0,0-0.8,0.6-3.3-0.7c-2.5-1.2-2.9-4.1-3.3-5.7c0,0-3.8-0.6-4.2,0.5c0,0-1,2.3-4.8-3.9
			c-2-3.2-6.4-3-8.9-0.6c-2.5,2.4-10.6,2.8-14.5-1.6c0,0,2.2,0.1,5-4.6c2.9-4.7,7.4-14.9,22.3-10.4C57.7-13.2,54.2-8.9,54.9,9.1z"/>
	</g>
	<path class="st11" d="M62.1,17.3c-7.6,0.9-4.2,34.9-4.2,34.9L35,58.8c-0.8-0.8-3-2.9-5.3-3.8c-2.9-1.1-3.2-1.8-4.1-1.8
		c-0.5,0-0.9,1.6,1.8,3.2c0,0,0.9,0.9-0.5,0.4c-1.4-0.4-2.5-1-3.9,0.1c-0.9,0.7-2.1,6.3,0.4,7.3c2.1,0.9,6.7,1.1,9.7,0.4l33.4-0.9
		c0,0,3.9-13.1,3.5-35.2C70,17.6,66.5,16.8,62.1,17.3z"/>
	<path class="st5" d="M39.4-16.9c0,0,1.1-1.4-1.4-5.5c0,0,3.9,0.3,4.6,4.8c0,0,2.7-2.1,2.9-2.1c0.2-0.1-1.4,2.2,2,3.6
		c1.3,0.5,6.7,2.8,6.3,11.4C53.1,6.6,39.4-16.5,39.4-16.9z"/>
	<path class="st11" d="M50.5,1.3c-0.1-1.8-1.6-3.2-3.4-3.1C45.4-1.8,44-0.3,44,1.5c0.1,1.8,1.9,4.6,3.7,4.6
		C49.6,6,50.6,3.1,50.5,1.3z"/>
	<path class="st5" d="M25.2-5.5c0,0-0.1,1.3-3,2.6c-0.8,0.3-1.4,2.4-4.8,3.4c0,0,1.3,1.7,3.3,2c2.7,0.5,6.6-0.7,9.7-3.7
		c5.3-5.2-4.9-2.3-4.9-2.3"/>
	<polygon class="st12" points="51.3,24.9 51.5,37.1 56.8,38 56.8,28.3 	"/>
	<path class="st13" d="M51.5,25.3c0,0,4.6-5.6,2.8-14.6c0,0-0.1-1.1,1.4-1.4s7.7-2.3,18-1.2s35.2,1.4,43.7-2l1.4,29.7
		c0,0-43.6,3-57.7-2.9C53.6,29.8,51.5,25.3,51.5,25.3z"/>
	<polygon class="st13" points="56.1,25.3 56.7,41.1 73.1,42.6 73.1,31.5 	"/>
</g>
<g>
	<rect x="0.7" y="233.6" class="st14" width="245.1" height="17.3"/>
	<rect x="218" y="250.9" class="st15" width="10" height="63.8"/>
	<rect x="21.1" y="250.9" class="st15" width="10" height="63.8"/>
	<rect x="21.1" y="250.9" class="st5" width="207.5" height="3.8"/>
</g>
<g>
	<g>
		<path class="st4" d="M-38.9,303.4c-2.8,0.4-10.8-1.1-13-5.3c-0.4-0.7-0.7-1.4-0.9-2c0,0,0,0,0,0c-0.6-1.6-0.7-2.7-0.7-3.5
			c0-0.6,0.1-0.9,0.1-0.9l-6.8,0.1l-0.1,0c0,0,0.4,1.9,0.4,3.9c0,0.1,0,0.3,0,0.4c0,0.7-0.1,1.4-0.3,2c-0.8,2.4-1.7,6.9,1.3,7.9
			c1.2,0.4,4.7,0.6,8.7,0.7c0.2,0,0.4,0,0.7,0c5.9,0,12.4-0.3,13-0.9C-35.7,304.9-36.2,303-38.9,303.4z"/>
		<path class="st16" d="M-62.9,296.2c-0.2,0.7,0.7,1.2,0.6,2.5c-0.1,1.3-1.6,6.3-0.3,7.4c1.4,1.1,9.6,1.3,10.5,1.2
			c1,0,1-0.9,2.9-0.5c1.9,0.5,13.6,0.2,13.8-1.4c0.3-1.7,0.7-3.2-0.2-3.6c-0.9-0.4-6.9-1-7.9-1.6c-1-0.6-6.4-3.4-6.9-4.4
			c-0.5-1-1.5-1.8-2.7,0.3c-1.2,2.1-6.8,0.6-7.4-0.2C-60.9,295.2-62.5,294.7-62.9,296.2z"/>
		<path class="st6" d="M-46.3,251.9c-1.6,1.8-3.7,2.8-5.9,2.9c-3.2,0.1-6.2-1.9-8.2-5.1c0.2,3.2,0.4,6.6,0,9.6
			c-2.1,17.2-0.3,29.3,0.2,32.6l6.8-0.1c0,0-0.1,0.3-0.1,0.9l5.2,0L-46.3,251.9z"/>
		<path class="st6" d="M-102.2,242.2c0,0-4.3,9-2.9,13.6c1.3,4.2,5.9,11,18.3,7.9c7.5-1.9,8.5-2.7,17.6-3.6
			c2.6-0.3,5.9-0.4,10.4-0.5c2.2,0,4.7-0.2,7.3-0.4c3.2-2,5-4.1,5.1-7.3c0.3-5.6-5.7-6.9-5.7-6.9s-7.1-1.5-15.8-2.3
			c-3.1-0.3-6.4-0.5-9.6-0.6C-84.4,241.9-102.2,242.2-102.2,242.2z"/>
	</g>
	<g>
		<path class="st11" d="M-105.3,189.5c0,0,2.7-2.6,1.9-7.1c-0.8-4.5-4.1-6.4-0.6-17.9c3.5-11.5,12.8-7.9,16-7.2
			c3.1,0.7,5.4,4.9,6.3,14c1,10-3.7,13-5.8,14.2c-1.4,0.8-4.4,1.2-5.5,1.9c-1.1,0.7-1.3,6.4-1.3,6.4L-105.3,189.5z"/>
		<path class="st5" d="M-104.4,183.4c0,0,0.9,0.1,2.3-2c1.4-2.1,0.4-4.5,0-6c0,0,2.7-2.2,3.5-1.5c0,0,1.8,1.4,2.1-5.2
			c0.1-3.4,3.7-5.2,6.8-4.4c3,0.8,9.6-2.6,10.7-7.8c0,0-1.7,1-6-1.3c-4.3-2.4-12.6-8.4-22.2,1.9C-116.7,167-112,168.9-104.4,183.4z"
			/>
	</g>
	<path class="st5" d="M-103.9,155.9c0,0-1.5-0.6-1.3-4.9c0,0-2.9,2-1.5,5.8c0,0-3.1-0.4-3.3-0.3c-0.2,0,2.1,1.1,0.1,3.7
		c-0.8,1-4,5.2,0.2,11.8C-104.2,180.6-103.7,156.2-103.9,155.9z"/>
	<path class="st11" d="M-104.5,175.2c-0.8-1.4-0.2-3.2,1.2-4c1.4-0.8,3.2-0.2,4,1.2c0.8,1.4,0.6,4.5-0.9,5.3
		C-101.6,178.5-103.7,176.7-104.5,175.2z"/>
	<path class="st5" d="M-87.6,158.5c0,0,0.6,1,3.5,0.7c0.8-0.1,2.1,1.3,5.3,0.5c0,0-0.3,1.9-1.7,3c-1.9,1.6-5.5,2.4-9.3,1.5
		c-6.5-1.7,2.9-4,2.9-4"/>
	<path class="st11" d="M-104.5,248.6c0,0,1.5-15.2-0.5-24.8c-2-9.5-6-24.7,0.5-35.8l9.4,0.8c0,0,9.2,4,9.5,23
		c0.3,18.9,0.7,36.5,0.7,36.5L-104.5,248.6z"/>
	<path class="st13" d="M-90.3,193.5c0,0-5.9-4.2-14.2-5.4c0,0-4.1,5.4-4.3,6.8c-0.2,1.4-0.8,6.7,0.6,16c1.5,9.3,2.9,31.8,0.2,39.7
		l22.9-0.5c0,0,5.5-35.3-0.5-47.9C-88.6,195.5-90.3,193.5-90.3,193.5z"/>
	<g>
		<path class="st4" d="M-44,308.7c-2.8,0.4-10.8-1.1-13-5.3c-0.4-0.7-0.7-1.4-0.9-2c0,0,0,0,0,0c-0.6-1.6-0.7-2.7-0.7-3.5
			c0-0.6,0.1-0.9,0.1-0.9l-6.8,0.1l-0.1,0c0,0,0.4,1.9,0.4,3.9c0,0.1,0,0.3,0,0.4c0,0.7-0.1,1.4-0.3,2c-0.8,2.4-1.7,6.9,1.3,7.9
			c1.2,0.4,4.7,0.6,8.7,0.7c0.2,0,0.4,0,0.7,0c5.9,0,12.4-0.3,13-0.9C-40.8,310.2-41.3,308.3-44,308.7z"/>
		<path class="st5" d="M-68,301.5c-0.2,0.7,0.7,1.2,0.6,2.5c-0.1,1.3-1.6,6.3-0.3,7.4c1.4,1.1,9.6,1.3,10.5,1.2c1,0,1-0.9,2.9-0.5
			c1.9,0.5,13.6,0.2,13.8-1.4c0.3-1.7,0.7-3.2-0.2-3.6c-0.9-0.4-6.9-1-7.9-1.6c-1-0.6-6.4-3.4-6.9-4.4c-0.5-1-1.5-1.8-2.7,0.3
			c-1.2,2.1-6.8,0.6-7.4-0.2C-66,300.5-67.6,300-68,301.5z"/>
		<path class="st10" d="M-107.3,247.4c0,0-4.3,9-2.9,13.6c1.3,4.2,5.9,11,18.3,7.9c7.5-1.9,8.5-2.7,17.6-3.6
			c2.6-0.3,5.9-0.4,10.4-0.5c2.2,0,4.7-0.2,7.3-0.4c3.2-2,5-4.1,5.1-7.3c0.3-5.6-5.7-6.9-5.7-6.9s-7.1-1.5-15.8-2.3
			c-3.1-0.3-6.4-0.5-9.6-0.6C-89.5,247.2-107.3,247.4-107.3,247.4z"/>
		<path class="st10" d="M-51.4,257.1c-1.6,1.8-3.7,2.8-5.9,2.9c-3.2,0.1-6.2-1.9-8.2-5.1c0.2,3.2,0.4,6.6,0,9.6
			c-2.1,17.2-0.6,30.5,0,33.7c0,0,5.6-0.1,6.9-0.3l5.2,0L-51.4,257.1z"/>
	</g>
	<path class="st11" d="M-90.7,238.9c-0.1,0.4-1.3,0.7-2.9,0.1c-1.6-0.5-2.5-0.2-2.5-0.2s2,0.3,2.9,0.9c0.9,0.6,1.2,1.3,0.3,1.4
		c-0.9,0-2.8-0.8-3.8-0.4c0,0,2.3,0.6,2.1,1.1c-0.2,0.5-2.5,0-3.3,0.6c-0.2,0.1-0.6,0.3-1.1,0.6c0,0,0,0,0,0c-0.5,0.2-1,0.4-1.7,0.6
		c0,0,0,0,0,0c-2.9,0.6-7.4-0.1-7.4-0.1s-0.9-0.8-2.2-1.9l0.2-2.5c2.5,0.3,3.6,0,4.7-0.7c0,0,0.1,0,0.1,0c1.9-1.2,6.1-3.8,8.6-3.8
		c2.5,0.1,5.2,1.4,5.3,1.9c0.1,0.4-0.6,0.9-1.9,0.6c-1.3-0.3-1.7-0.4-2.3-0.2c0,0,2.4,0.6,3.2,0.9
		C-91.5,238.2-90.5,238.5-90.7,238.9z"/>
	<path class="st11" d="M-98.9,243C-98.9,243-98.9,243-98.9,243c-0.4,0.3-1.1,0.5-1.8,0.6c0,0,0,0,0,0c-2.9,0.6-7.4-0.1-7.4-0.1
		s-0.9-0.8-2.2-1.9c-3.1-2.6-9.3-11.3-11.7-14.3c-1.7-2.2,10.2-24.5,13.2-30c0.3-0.6,0.5-0.9,0.5-0.9l9.4,9.4
		c-0.5,3.9-14.6,18.4-14.6,18.4l8.1,14.3l0.5,0.5C-97,240.2-96.7,241.5-98.9,243z"/>
	<path class="st13" d="M-102.6,217.9l-14.1-10.3c0,0,5.6-11.8,10.4-15.5c0,0,0.5,1.7,7.2,0.6C-92.5,191.6-102.6,217.9-102.6,217.9z"
		/>
</g>
<g>
	<g>
		<path class="st4" d="M35.2,230.7c0,0-2-0.5-4.1-0.5c-0.9,0-1.8,0.1-2.5,0.4c-2.5,0.9-7.2,1.7-8.3-1.4c-1.1-3.1-0.7-22.3,0.3-23.3
			c1.1-1,3.1-0.6,2.6,2.3c-0.4,2.9,1.1,11.3,5.4,13.6c4.4,2.4,6.6,1.5,6.6,1.5L35.2,230.7z"/>
		<path class="st5" d="M30.7,233.4c-0.7,0.2-1.3-0.8-2.6-0.7c-1.3,0.1-6.6,1.7-7.8,0.3c-1.1-1.4-1.3-10-1.2-11c0-1,1-1.1,0.5-3
			c-0.5-2-0.2-14.1,1.5-14.4c1.7-0.3,3.3-0.7,3.8,0.2c0.5,0.9,1,7.2,1.6,8.2c0.7,1,3.5,6.7,4.6,7.2c1,0.5,1.9,1.6-0.3,2.9
			c-2.2,1.3-0.6,7.1,0.2,7.7C31.7,231.2,32.2,233,30.7,233.4z"/>
		<path class="st6" d="M132.2,213.5l-0.2,16.7l0,3v0.1c0,0-0.8,1.2-2.8,2.4c-2.4-0.2-4.7-0.5-6.7-0.8c-1.7-0.2-3.3-0.4-4.5-0.6v0.1
			c0,0-2.7,0.3-5.8,0.6c-1.2,0.1-2.4,0.2-3.5,0.2c-1.4-0.6-2.5-1.3-4-1.8c-2.9-1-7.3-1.8-17.7-1.9c-5.2-0.1-12-1.1-17.7-0.5
			c-21.2,2.5-34.9,1.8-34.9,1.8v-11.1l45.6-5.6c0,0,13.6-2.8,26.6-2.9h0.2c5.2-0.1,15.6,0.1,21.5,0.2
			C130.6,213.4,132.2,213.5,132.2,213.5z"/>
	</g>
	<g>
		<path class="st4" d="M62.6,169.1c-0.3,2.9,1.5,11.2,6,13.3c0.8,0.4,1.4,0.6,2.1,0.9c0,0,0,0,0,0c1.7,0.6,2.9,0.6,3.6,0.6
			c0.6,0,0,0,0,0l0.3,6.9l0.8,0.1c0,0-2-0.4-4.1-0.3c-0.1,0-0.3,0-0.5,0c-0.7,0.1-1.4,0.2-2,0.4c-2.4,1-7.1,2-8.3-1
			c-0.5-1.2-0.8-4.9-1-9c0-0.2,0-0.5,0-0.7c-0.3-6.1-0.2-12.9,0.4-13.5C60.9,165.8,62.9,166.2,62.6,169.1z"/>
		<path class="st5" d="M70.9,193.6c-0.7,0.2-1.3-0.7-2.6-0.6c-1.3,0.2-6.5,1.9-7.7,0.6c-1.2-1.4-1.7-9.9-1.7-10.9c0-1,0.9-1.1,0.4-3
			c-0.6-1.9-0.8-14.1,0.9-14.4c1.7-0.4,3.3-0.9,3.7,0c0.5,0.9,1.3,7.1,2,8.1c0.7,1,3.8,6.5,4.8,7c1,0.5,1.9,1.5-0.2,2.9
			c-2.1,1.4-0.3,7.1,0.5,7.7C71.9,191.5,72.5,193.2,70.9,193.6z"/>
		<path class="st10" d="M116.4,174.7c-1.8,1.8-2.8,3.9-2.8,6.2c0,3.4,2.2,6.4,5.6,8.3c-3.4-0.1-6.9-0.1-10,0.4
			c-17.8,2.8-31.7,4-35.1,3.5c0,0,0-4.9,0.2-9.4l-0.2-2.9L116.4,174.7z"/>
		<path class="st10" d="M128.6,232.4c0,0-2.8,1.5-6.1,2.6c-1.7-0.2-3.3-0.4-4.5-0.6v0.1c0,0-2.7,0.3-5.8,0.6c-1.5-0.7-3-1.8-4.3-3.4
			c-2.3-2.9-3.7-7.4-2.2-14.3c0.3-1.6,0.6-2.9,0.9-4.1c1-4.6,1.6-6.8,2.1-14.4c0.1-2.3,0.2-5.3,0.1-9.1c0-0.6,0-1.1,0-1.7
			c-0.1-2.3,0.1-4.9,0.1-7.6c1.8-3.1,3.7-5,6.5-5.5l0.9-0.1c5.8-0.5,7.4,5.6,7.4,5.6s1.8,7.3,3,16.3c0.4,3.2,0.8,6.6,1,10
			c0.1,1.7,0.2,4.1,0.3,6.7c0.2,6.1,0.4,13.6,0.5,17C128.6,231.6,128.6,232.4,128.6,232.4z"/>
	</g>
	<g>
		<g>
			<path class="st11" d="M191,228.7c0,0,2.4-2.6,6.8-2c4.4,0.6,6.2,3.7,17.2,0c11-3.7,7.2-12.6,6.5-15.6c-0.7-3-4.9-5.1-13.6-5.6
				c-9.6-0.6-12.4,4-13.5,6c-0.7,1.4-1.1,4.3-1.7,5.3c-0.6,1.1-6.1,1.5-6.1,1.5L191,228.7z"/>
			<path class="st5" d="M196.8,227.7c0,0-0.1-0.9,1.9-2.3c2-1.4,4.3-0.5,5.7-0.2c0,0,2-2.7,1.3-3.4c0,0-1.4-1.7,5-2.1
				c3.3-0.2,4.9-3.7,4.1-6.6c-0.9-2.9,2.2-9.3,7.1-10.5c0,0-1,1.6,1.5,5.7c2.4,4.1,8.4,11.9-1.1,21.4
				C212.9,239,211,234.6,196.8,227.7z"/>
		</g>
		<path class="st5" d="M223.3,226.4c0,0,0.6,1.4,4.8,1.1c0,0-1.8,2.9-5.6,1.6c0,0,0.5,3,0.4,3.1c0,0.2-1.2-2-3.6,0.1
			c-0.9,0.8-4.9,4-11.4,0.2C199.5,227.4,223,226.2,223.3,226.4z"/>
		<path class="st11" d="M204.7,227.5c1.4,0.7,3.1,0.1,3.8-1.3c0.7-1.4,0.1-3.1-1.3-3.8c-1.4-0.7-4.4-0.4-5.1,1
			C201.4,224.8,203.3,226.8,204.7,227.5z"/>
		<path class="st5" d="M220.3,210.8c0,0-1-0.6-0.8-3.4c0.1-0.7-1.3-2-0.6-5.1c0,0-1.8,0.3-2.9,1.7c-1.5,1.9-2.2,5.4-1.1,9
			c1.8,6.2,3.8-2.9,3.8-2.9L220.3,210.8z"/>
		<path class="st13" d="M190.3,217.4c0,0-4.1,4.8-2.7,12.7c0,0,0,1-1.3,1.2c-1.3,0.3-6.7,1.9-15.8,0.7c-9-1.1-31.7-1.5-39.2,1.3
			l0.9-20c0,0,37.5-8.2,49.7-2.9C188.5,213.5,190.3,217.4,190.3,217.4z"/>
		<path class="st11" d="M118.1,231.1l-0.1,3.2v0.1c0,0-2.7,0.3-5.8,0.6c-1.2,0.1-2.4,0.2-3.5,0.2c-3.3,0.1-6.1-0.1-5.3-1.1
			c0,0,0.5-0.3,1.2-0.8c0.9-0.5,2.1-1.2,3.3-1.8c1.4-0.7,2.8-1.3,3.5-1.2C113.2,230.5,118.1,231.1,118.1,231.1z"/>
		<path class="st11" d="M179.5,231.8c0,0.2-0.2,0.4-0.5,0.6c-1.6,0.9-6.8,1.4-12.6,1.8c-7.3,0.5-15.5,0.9-19.2,1.8
			c-3.5,0.9-11.1,0.4-18-0.3c-2.4-0.2-4.7-0.5-6.7-0.8c-1.7-0.2-3.3-0.4-4.5-0.6c-1.7-0.3-2.8-0.4-2.8-0.4l2.8-2.8
			c0,0,4.9-0.3,10.4-0.7c1-0.1,1.9-0.1,2.9-0.2c0.2,0,0.4,0,0.5,0c5.9-0.4,11.6-0.7,12.6-0.6c1.5,0.1,12.2-2.5,20.5-4.1
			c3.4-0.7,6.3-1.1,8.1-1.2C179.1,224,179.7,229.2,179.5,231.8z"/>
		<path class="st13" d="M164.8,224.1l1.6,10.3c0,0,18.7,0.1,22.1-4.7c0,0-1.7-0.4-0.8-6.9C188.6,216.4,164.8,224.1,164.8,224.1z"/>
	</g>
</g>
<path class="st4" d="M90.8,187.2c-0.5-2.6,0.3-5.7,0.8-5.8c0.4-0.2,1,0.4,1,1.8c0,1.4,0,1.8,0.3,2.4c0,0,0-2.6,0.2-3.5
	c0.2-0.9,0.3-2,0.8-1.9c0.5,0,1,1.2,0.8,2.9c-0.2,1.7,0.4,2.6,0.4,2.6s-0.2-2.1,0.3-3.2c0.4-1.1,1.1-1.5,1.3-0.6
	c0.2,1-0.2,3.1,0.4,3.9c0,0,0.1-2.5,0.7-2.4c0.6,0.1,0.5,2.5,1.3,3.2c0.8,0.7,3.6,0.1,5.3,2.7c0.2,0.4,0.8,0.9,0.9,1.4l-6.1,0.9
	c0,0-1.6,0.1-2.9-0.4C92.5,190.1,91.3,189.7,90.8,187.2z"/>
<path class="st4" d="M123.2,179.3c-2.6,0.1-5.5,1.5-5.5,2c-0.1,0.5,0.6,0.9,2,0.6c1.3-0.3,1.8-0.4,2.4-0.2c0,0-2.5,0.6-3.3,1
	c-0.8,0.4-1.9,0.7-1.7,1.1c0.2,0.5,1.4,0.7,3,0.1c1.6-0.6,2.6-0.2,2.6-0.2s-2.1,0.3-3,0.9c-0.9,0.7-1.3,1.4-0.3,1.4
	c1,0,3-0.9,3.9-0.4c0,0-2.5,0.6-2.2,1.2c0.2,0.5,2.6,0,3.4,0.6c4.2,2.6,9.1,2.6,9.6,2.6l-0.4-5.8c0,0-0.2-0.2-1.4-0.9
	C130.2,182,125.8,179.3,123.2,179.3z"/>
<g>
	<path class="st11" d="M-87.5,114.4c0,0,15.2-2,24.8-0.3c9.6,1.7,24.9,5.3,35.7-1.6l-1.1-9.4c0,0-4.3-9.1-23.3-8.8
		c-18.9,0.3-36.5,0.4-36.5,0.4L-87.5,114.4z"/>
	<g>
		<g>
			<path class="st4" d="M-110.1,17.7c0,0,0.4-2.1,0.3-4.3c0-0.9-0.2-1.8-0.4-2.6c-1-2.6-2-7.4,1.2-8.6C-105.9,1-86,0.8-84.9,1.9
				c1.1,1.1,0.7,3.2-2.3,2.8c-3-0.4-11.7,1.5-14,6.1c-2.3,4.6-1.4,6.9-1.4,6.9L-110.1,17.7z"/>
			<path class="st5" d="M-113,13.1c-0.2-0.7,0.8-1.4,0.6-2.7c-0.1-1.4-1.9-6.8-0.5-8.1c1.4-1.2,10.3-1.6,11.4-1.6c1,0,1.1,1,3.2,0.4
				c2-0.6,14.7-0.6,15,1.2c0.4,1.8,0.8,3.4-0.1,3.9c-0.9,0.5-7.4,1.2-8.5,2c-1,0.7-6.9,3.9-7.3,5c-0.5,1.1-1.6,2-3-0.2
				c-1.4-2.2-7.4-0.4-8,0.4C-110.8,14.1-112.6,14.7-113,13.1z"/>
			<path class="st10" d="M-109.9,118.2c0,0-7.5-4.9-4.5-18.3c2.3-10.4,5.4-6.1,5.1-28.5c-0.1-5.4,0.8-12.5,0-18.4
				c-3.2-21.9-0.5-36.3-0.5-36.3l12.7-0.2l3.5,47.1c0,0,3.3,14,3.8,27.5c0.3,7.5,0.5,26.8,0.5,26.8L-109.9,118.2z"/>
			<g>
				<path class="st11" d="M-28.3,113.5c0,0,2.5-2.7,7.1-2.1c4.5,0.6,6.5,3.9,17.9,0C8,107.6,4.1,98.3,3.4,95.2
					c-0.8-3.1-5-5.3-14.2-5.9c-10-0.6-12.9,4.1-14,6.2c-0.7,1.4-1.1,4.4-1.8,5.5c-0.7,1.1-6.4,1.5-6.4,1.5L-28.3,113.5z"/>
				<path class="st5" d="M-22.3,112.4c0,0-0.1-0.9,2-2.4c2.1-1.5,4.5-0.6,6-0.2c0,0,2.1-2.8,1.4-3.5c0,0-1.4-1.8,5.2-2.2
					c3.4-0.2,5.1-3.9,4.2-6.9c-0.9-3,2.3-9.7,7.4-10.9c0,0-1,1.7,1.5,6c2.5,4.3,8.8,12.3-1.2,22.3C-5.5,124.2-7.5,119.6-22.3,112.4z
					"/>
			</g>
			<path class="st5" d="M5.2,111.1c0,0,0.7,1.5,5,1.2c0,0-1.9,3-5.8,1.7c0,0,0.5,3.1,0.4,3.3c0,0.2-1.2-2-3.7,0.1
				c-1,0.8-5.1,4.2-11.8,0.2C-19.5,112.1,4.9,110.9,5.2,111.1z"/>
			<path class="st11" d="M-14.1,112.2c1.5,0.7,3.2,0.1,3.9-1.4c0.7-1.5,0.1-3.2-1.4-3.9c-1.5-0.7-4.5-0.4-5.2,1
				C-17.5,109.4-15.6,111.5-14.1,112.2z"/>
			<path class="st5" d="M2.1,94.9c0,0-1-0.6-0.8-3.5c0.1-0.8-1.3-2.1-0.7-5.3c0,0-1.9,0.4-3,1.8c-1.5,2-2.3,5.6-1.2,9.3
				c1.9,6.5,3.9-3,3.9-3"/>
			<path class="st13" d="M-29.1,101.8c0,0-4.3,5-2.8,13.2c0,0,0,1-1.3,1.3c-1.4,0.3-7,1.9-16.4,0.8c-9.4-1.2-31.9-2-39.7,1l-0.2-23
				c0,0,39.1-5.9,51.8-0.3C-30.9,97.6-29.1,101.8-29.1,101.8z"/>
			<path class="st11" d="M-106.9,118.9c0,0,25.6,4.1,33.1,2.2c7.5-1.9,33.3-1.7,33.5-4.4c0.2-2.7-0.4-8.1-6.6-7.8
				c-6.3,0.3-27.4,5.7-29.6,5.5c-2.2-0.2-27.5,1.6-27.5,1.6L-106.9,118.9z"/>
			<path class="st13" d="M-55.5,108.7l1.6,10.7c0,0,19.4,0.1,23-4.8c0,0-1.7-0.4-0.9-7.1C-30.8,100.7-55.5,108.7-55.5,108.7z"/>
		</g>
		<path class="st11" d="M-119.3,119.1c0,0,6.5-4.1,8.4-3.9c1.9,0.2,6.9,0.8,6.9,0.8l-0.1,3.4C-104.1,119.4-121.2,121.4-119.3,119.1z
			"/>
	</g>
</g>
</svg>
