<?xml version="1.0" encoding="utf-8"?>
<!-- Generator: Adobe Illustrator 19.0.0, SVG Export Plug-In . SVG Version: 6.00 Build 0)  -->
<svg version="1.1" id="Layer_1" xmlns="http://www.w3.org/2000/svg" xmlns:xlink="http://www.w3.org/1999/xlink" x="0px" y="0px"
	 viewBox="-193 -106 512 512" style="enable-background:new -193 -106 512 512;" xml:space="preserve">
<style type="text/css">
	.st0{fill:#E8FFED;}
	.st1{fill:#B0B0B0;}
	.st2{fill:#404040;}
	.st3{fill:#D92E81;}
</style>
<circle class="st0" cx="63" cy="150" r="256"/>
<g>
	<path class="st1" d="M92.7,261.4c0,0-13.6-12-20.6-12c-5.7,0-10,1.8-12,5.2c-2-3.4-6.3-5.2-12-5.2c-7.3,0-20.6,12-20.6,12
		s0.9,0.2,2.7,0.5c5.9,5.9,7.7,9.3,29.9,9.3s24.2-3.4,29.9-9.3C90.9,261.6,91.8,261.6,92.7,261.4z"/>
	<g>
		<path class="st2" d="M38.1,204.9c-0.7-0.7-1.8-0.7-2.5,0.2c-0.2,0.2-6.8,7.7-5.9,15c0.5,3.4,2.3,6.1,5.4,8.2
			c0.2,0.2,0.7,0.2,0.9,0.2c0.7,0,1.1-0.2,1.6-0.9c0.5-0.9,0.2-1.8-0.5-2.5c-2.3-1.6-3.6-3.4-3.9-5.7c-0.7-5.7,5-12,5-12.2
			C39,206.8,39,205.6,38.1,204.9z"/>
		<path class="st2" d="M93.2,260c-0.2,0-14.5-2.7-33.1-2.7c-18.4,0-32.9,2.7-33.1,2.7c-0.9,0.2-1.6,1.1-1.4,2c0.2,0.9,1.1,1.6,2,1.4
			c0.2,0,14.3-2.5,32.4-2.5s32.2,2.5,32.4,2.5h0.2c0.9,0,1.6-0.7,1.8-1.4C94.8,261.1,94.1,260.2,93.2,260z"/>
		<path class="st2" d="M44.2,223.8c1.1-0.7,3.6,0.7,5,1.6l0.7,0.5c3.2,2,6.3,2.9,10.2,2.9s7-0.9,10.2-2.9l0.7-0.5
			c1.6-0.9,3.9-2.5,5-1.6c0.9,0.7,2.3,0.5,2.9-0.7c0.7-0.9,0.5-2.3-0.7-2.9c-3.6-2.3-7.5,0.2-9.7,1.6l-0.5,0.2
			c-3.2,2-5.7,2.3-7.7,2.3c-2,0-4.8-0.2-7.9-2.3l-0.5-0.2c-2.3-1.4-6.1-3.9-9.7-1.6c-1.1,0.7-1.4,2-0.7,2.9
			C42,224,43.3,224.4,44.2,223.8z"/>
		<path class="st2" d="M187,147.6c-2.3-5.2-5.7-8.6-10-10c-0.5-0.2-0.9-0.2-1.4-0.5c1.8-12.2,2.7-24.9,2.7-37.6
			c0-91.3-74.1-115.8-118-115.8S-57.7,8.3-57.7,100c0,12.5,0.9,25.2,2.7,37.4c-0.7,0.2-1.1,0.2-1.8,0.5c-4.3,1.4-7.7,4.8-10,10
			c-5.4,12-3.6,30.4,4.8,49.2c5.2,11.8,12.9,20.2,20.4,22.7c1.4,0.5,2.9,0.7,4.3,0.7c1.4,0,2.7-0.2,4.1-0.7
			c4.8,17.7,11.1,33.3,19.3,46c15.6,24.5,47.1,50.5,74.5,50.5s58.9-26.1,74.5-50.5c7.7-12.2,14-27.9,18.8-46
			c1.4,0.5,2.7,0.7,4.1,0.7c1.4,0,2.7-0.2,4.3-0.7c7.5-2.3,15.2-10.9,20.4-22.7C190.6,178,192.4,159.6,187,147.6z M60.3-8.7
			c41,0,110.3,22.9,110.3,108.5c0,12.7-0.9,25.4-2.7,37.6c-0.9,0.2-1.8,0.7-2.7,1.1c-0.9,0.5-1.6,1.1-2.5,1.8
			c0.2-68.2-23.6-84.5-61.9-110.6c-2.5-1.6-5-3.4-7.5-5.2c-0.2-0.2-0.5-0.2-0.7-0.5c-0.5-0.2-0.9-0.2-1.4-0.2s-0.9,0.2-1.4,0.2
			c-0.5,0.2-0.9,0.5-1.1,0.9C75.3,40,56,46.1,35.4,52.7c-36.7,11.8-74.8,24-77.5,88.4c-0.9-0.9-2-1.8-3.2-2.5
			c-0.7-0.5-1.4-0.7-2.3-1.1c-1.8-12.2-2.7-25.2-2.7-37.8C-50,14.2,19.3-8.7,60.3-8.7z M-39.8,213.6c-5.7-1.8-12.2-9.3-16.5-19
			c-9.1-20.4-8.4-36-4.8-44.2c1.1-2.3,2.9-5.4,6.1-6.3c2.5-0.9,4.8-0.7,6.6,0.5c3.6,2.3,5.7,7.9,6.1,10c0,0.2,0.2,0.7,0.2,0.9
			c0,1.8,0,3.9,0.2,5.7c-5.9-10.4-10-12.5-12.5-12c-1.4,0.2-2.3,1.6-2,3.2c0.2,1.4,1.6,2.3,2.9,2c2,0.9,7.5,9.5,11.8,18.6
			c0.2,0.5,0.5,0.7,0.7,0.9c1.1,14,3.2,27.2,6.1,39.7C-36.4,214-38,214-39.8,213.6z M129,261.8c-15,23.3-44.6,47.4-68.7,47.4
			s-53.7-24-68.7-47.4c-17-26.7-26.7-67.7-26.7-113.1c0-65.7,35.3-77,72.7-89C57.1,53.6,77.3,47,92,32.3c1.6,1.1,3.4,2.3,5,3.4
			c39.2,26.7,60.7,41.5,58.7,113.1C154.3,196.8,144.8,236.9,129,261.8z M176.6,194.3c-4.3,9.7-10.9,17.4-16.5,19
			c-1.8,0.5-3.4,0.5-5-0.2c2.7-12.2,4.8-25.6,6.1-39.7c0.2-0.2,0.5-0.5,0.7-0.9c4.1-9.3,9.5-17.7,11.8-18.6c1.4,0.2,2.5-0.7,2.9-2
			c0.2-1.4-0.7-2.7-2-3.2c-2.5-0.5-6.3,1.4-12.2,11.6c0.2-2,0.2-4.1,0.2-6.1c0.2-0.7,1.8-7.5,5.9-10c1.8-1.1,4.1-1.1,6.6-0.5
			c3.2,1.1,5.2,4.1,6.1,6.3C184.9,158.3,185.4,174.1,176.6,194.3z"/>
		<path class="st2" d="M-1.1,126.3c12.2,1.4,30.8,9.3,41,15.2c1.8,0.9-2.9-12.5-7.9-14c-25.4-8.4-34-6.1-34-6.1
			c-15.4,2.3-23.1,10.9-23.1,10.9S-8.1,125.6-1.1,126.3z"/>
		<path class="st2" d="M31.8,168.5c1.1-0.7,2-1.1,2.9-1.6c1.6-0.9,2.5-1.6,2.5-1.6s-1.1,0-2.9,0.2c-0.9,0-2,0.2-3.2,0.5
			c-1.1,0.2-2.7,0.2-4.1,0.2c-1.6,0-3.2,0.2-4.8,0.2c-1.6,0-3.4,0.2-5.2,0s-3.6,0-5.4-0.2c-1.8-0.2-3.9-0.2-5.7-0.7l-2.7-0.5
			c-0.9-0.2-1.8-0.5-2.7-0.7c-1.8-0.5-3.6-0.9-5.4-1.4s-3.4-1.1-5-1.6c-1.6-0.7-3.2-1.1-4.5-1.8c-2.7-1.1-5-2.3-6.8-2.9
			c-1.6-0.9-2.5-1.4-2.5-1.4s0.5,0.9,1.6,2.3c0.7,0.7,1.4,1.6,2.3,2.5s2,2,3.2,2.9c1.1,1.1,2.7,2,4.3,2.9c1.6,0.9,3.2,1.8,5.2,2.7
			c1.8,0.7,3.9,1.6,5.9,2.3c1.1,0.2,2,0.7,3.2,0.9l3.2,0.7c2,0.5,4.3,0.5,6.3,0.7c1.1,0,2,0,3.2,0s2-0.2,3.2-0.2
			c2-0.2,3.9-0.7,5.7-1.1c1.8-0.2,3.4-1.1,5-1.6C29.3,169.6,30.9,169.1,31.8,168.5z"/>
		<path class="st2" d="M122.2,121.6c0,0-8.6-2.3-34,6.1c-5,1.6-9.5,15-7.9,14c10.2-5.9,28.8-14,41-15.2c7-0.7,24,6.1,24,6.1
			S137.6,123.8,122.2,121.6z"/>
		<path class="st2" d="M134.9,159.4c-1.4,0.7-2.9,1.1-4.5,1.8c-1.6,0.5-3.2,1.1-5,1.6c-1.8,0.5-3.6,1.1-5.4,1.4
			c-0.9,0.2-1.8,0.5-2.7,0.7l-2.7,0.5c-1.8,0.5-3.9,0.5-5.7,0.7c-1.8,0.2-3.6,0.2-5.4,0.2c-1.8,0-3.6,0-5.2,0
			c-1.6,0-3.2-0.2-4.8-0.2c-1.6-0.2-2.9,0-4.1-0.2s-2.3-0.2-3.2-0.5c-1.8-0.2-2.9-0.2-2.9-0.2s0.9,0.7,2.5,1.6
			c0.7,0.5,1.8,1.1,2.9,1.6c1.1,0.7,2.5,1.1,4.1,1.6c1.6,0.5,3.2,1.4,5,1.6c1.8,0.5,3.6,0.9,5.7,1.1c0.9,0,2,0.2,3.2,0.2
			c1.1,0,2,0.2,3.2,0c2-0.2,4.3-0.2,6.3-0.7l3.2-0.7c1.1-0.2,2-0.7,3.2-0.9c2-0.5,4.1-1.4,5.9-2.3c1.8-0.9,3.6-1.8,5.2-2.7
			c1.6-0.9,2.9-2,4.3-2.9s2.3-2,3.2-2.9s1.6-1.8,2.3-2.5c1.1-1.4,1.6-2.3,1.6-2.3s-0.9,0.5-2.5,1.4
			C140.1,157.4,137.6,158.3,134.9,159.4z"/>
		<path class="st2" d="M83,225.1c-0.9,0.5-1.1,1.6-0.5,2.5c0.2,0.5,0.9,0.9,1.6,0.9c0.2,0,0.7,0,0.9-0.2c3.2-2,5-4.8,5.4-8.2
			c0.9-7.3-5.4-14.7-5.9-15c-0.7-0.7-1.8-0.7-2.5-0.2c-0.7,0.7-0.7,1.8-0.2,2.5c1.6,1.8,5.7,7.5,5,12.2
			C86.6,221.7,85.2,223.5,83,225.1z"/>
	</g>
	<g>
		<path class="st3" d="M60.1,296.5c0.7,0,1.4-0.7,1.4-1.4v-16.3H66l-5.9-10.2l-5.9,10.2h4.5v16.3C58.7,296,59.4,296.5,60.1,296.5z"
			/>
		<path class="st3" d="M21.8,140.6c-1.6-0.9-3.2-1.8-4.8-2.5c-0.9-0.5-2,0-2.3,0.9c-0.5,0.9,0,1.8,0.9,2.3c1.6,0.7,2.9,1.4,4.5,2.3
			c0.2,0.2,0.7,0.2,0.9,0.2c0.7,0,1.1-0.2,1.6-0.9C22.9,142.2,22.7,141.1,21.8,140.6z"/>
		<path class="st3" d="M-14.5,142.6c-1.6,1.4-2.7,2.5-3.9,4.1c-0.7,0.7-0.5,1.8,0.2,2.5c0.2,0.2,0.7,0.5,1.1,0.5
			c0.5,0,1.1-0.2,1.4-0.7c0.9-1.1,2-2.5,3.4-3.4c0.7-0.7,0.9-1.8,0.2-2.5C-12.6,142.2-13.8,142-14.5,142.6z"/>
		<path class="st3" d="M4.3,138.8H5c0.2,0,0.7,0,0.9,0c1.1,0,2,0.2,3.2,0.5h0.2c0.9,0,1.6-0.7,1.8-1.4c0.2-0.9-0.5-1.8-1.4-2
			c-1.4-0.2-2.5-0.5-3.6-0.5c-0.7,0-1.4,0-1.8,0c-0.9,0-1.8,0.9-1.8,1.8C2.5,138.1,3.4,138.8,4.3,138.8z"/>
		<path class="st3" d="M-9,140.8c0.2,0.7,0.9,0.9,1.6,0.9c0.2,0,0.5,0,0.7-0.2c1.6-0.7,2.9-1.4,4.5-1.8c0.9-0.2,1.4-1.4,1.1-2.3
			s-1.4-1.4-2.3-1.1c-1.8,0.5-3.4,1.1-5.2,2C-9,139-9.5,140.1-9,140.8z"/>
		<path class="st3" d="M-21,157.8c1.1,0,1.8-0.7,2-1.6c0-0.7,0.2-1.4,0.5-2c0.2-0.9-0.2-1.8-1.1-2.3c-0.9-0.2-1.8,0.2-2.3,1.1
			c-0.2,0.9-0.5,1.6-0.5,2.5C-22.6,156.9-21.9,157.8-21,157.8z"/>
		<path class="st3" d="M32.7,156.7c0.9,1.6,1.4,2.9,1.8,4.5c0.2,0.7,0.9,1.1,1.6,1.1c0.2,0,0.5,0,0.5,0c0.9-0.2,1.4-1.4,1.1-2.3
			c-0.5-1.8-1.4-3.4-2.3-5.2c-0.5-0.9-1.6-1.1-2.3-0.7C32.4,154.9,32.2,155.8,32.7,156.7z"/>
		<path class="st3" d="M31.5,149c-1.1-1.4-2.5-2.7-3.9-3.9c-0.7-0.7-1.8-0.7-2.5,0.2c-0.7,0.7-0.7,1.8,0.2,2.5
			c1.4,1.1,2.5,2.3,3.4,3.6c0.5,0.5,0.9,0.7,1.4,0.7c0.5,0,0.9-0.2,1.1-0.5C32,150.8,32.2,149.7,31.5,149z"/>
		<path class="st3" d="M99.5,85.8c0-0.9-0.7-1.8-1.8-1.8h-5.2c-0.9,0-1.8,0.7-1.8,1.8c0,0.9,0.7,1.8,1.8,1.8h5.2
			C98.8,87.6,99.5,86.7,99.5,85.8z"/>
		<path class="st3" d="M68,87.6h5.2c0.9,0,1.8-0.7,1.8-1.8c0-0.9-0.7-1.8-1.8-1.8H68c-0.9,0-1.8,0.7-1.8,1.8
			C66.2,86.7,67.1,87.6,68,87.6z"/>
		<path class="st3" d="M103.1,85.8c0,0.9,0.7,1.8,1.8,1.8h5.2c0.9,0,1.8-0.7,1.8-1.8c0-0.9-0.7-1.8-1.8-1.8H105
			C103.8,84,103.1,84.9,103.1,85.8z"/>
		<path class="st3" d="M6.6,87.6h5.2c0.9,0,1.8-0.7,1.8-1.8c0-0.9-0.7-1.8-1.8-1.8H6.6c-0.9,0-1.8,0.7-1.8,1.8
			C4.8,86.7,5.5,87.6,6.6,87.6z"/>
		<path class="st3" d="M80.3,87.6h5.2c0.9,0,1.8-0.7,1.8-1.8c0-0.9-0.7-1.8-1.8-1.8h-5.2c-0.9,0-1.8,0.7-1.8,1.8
			C78.4,86.7,79.3,87.6,80.3,87.6z"/>
		<path class="st3" d="M55.8,87.6H61c0.9,0,1.8-0.7,1.8-1.8c0-0.9-0.7-1.8-1.8-1.8h-5.2c-0.9,0-1.8,0.7-1.8,1.8
			C54,86.7,54.6,87.6,55.8,87.6z"/>
		<path class="st3" d="M31.1,87.6h5.2c0.9,0,1.8-0.7,1.8-1.8c0-0.9-0.7-1.8-1.8-1.8h-5.2c-0.9,0-1.8,0.7-1.8,1.8
			C29.3,86.7,30.2,87.6,31.1,87.6z"/>
		<path class="st3" d="M18.8,87.6h5.2c0.9,0,1.8-0.7,1.8-1.8c0-0.9-0.7-1.8-1.8-1.8h-5.2c-0.9,0-1.8,0.7-1.8,1.8
			C17,86.7,17.9,87.6,18.8,87.6z"/>
		<path class="st3" d="M43.3,87.6h5.2c0.9,0,1.8-0.7,1.8-1.8c0-0.9-0.7-1.8-1.8-1.8h-5.2c-0.9,0-1.8,0.7-1.8,1.8
			C41.7,86.7,42.4,87.6,43.3,87.6z"/>
		<path class="st3" d="M19.8,282.7c-0.5-0.9-1.4-1.4-2.3-0.9c-0.9,0.5-1.4,1.4-0.9,2.3c0.7,1.6,1.4,3.2,2.3,5
			c0.2,0.7,0.9,0.9,1.6,0.9c0.2,0,0.5,0,0.7-0.2c0.9-0.5,1.4-1.4,0.9-2.3C21.1,285.8,20.2,284.2,19.8,282.7z"/>
		<path class="st3" d="M26.6,213.3c-1.1,1.4-2.3,2.7-3.4,4.1c-0.7,0.7-0.5,1.8,0.2,2.5c0.2,0.2,0.7,0.5,1.1,0.5
			c0.5,0,1.1-0.2,1.4-0.7c1.1-1.4,2-2.7,3.2-3.9c0.7-0.7,0.7-1.8-0.2-2.5C28.4,212.4,27.2,212.6,26.6,213.3z"/>
		<path class="st3" d="M21.6,222.8c-0.9-0.5-1.8-0.2-2.5,0.7c-0.9,1.6-1.8,3.2-2.5,4.8c-0.5,0.9,0,1.8,0.9,2.3
			c0.2,0.2,0.5,0.2,0.7,0.2c0.7,0,1.4-0.5,1.6-0.9c0.7-1.6,1.6-2.9,2.5-4.5C22.5,224.4,22.2,223.3,21.6,222.8z"/>
		<path class="st3" d="M12.1,254.3c0.9,0,1.8-0.7,1.8-1.6c0-1.8,0.2-3.4,0.5-5c0.2-0.9-0.5-1.8-1.6-2c-0.9-0.2-1.8,0.5-2,1.6
			c-0.2,1.8-0.5,3.6-0.5,5.4C10.2,253.4,10.9,254.3,12.1,254.3z"/>
		<path class="st3" d="M17.3,276.3c-0.5-1.6-0.9-3.4-1.4-5c-0.2-0.9-1.1-1.6-2-1.4c-0.9,0.2-1.6,1.1-1.4,2c0.5,1.8,0.9,3.4,1.6,5.2
			c0.2,0.7,0.9,1.1,1.6,1.1c0.2,0,0.5,0,0.5,0C17,278.1,17.5,277.2,17.3,276.3z"/>
		<path class="st3" d="M12.7,266.6H13c0.9-0.2,1.6-1.1,1.4-2c-0.2-1.8-0.5-3.4-0.7-5c0-0.9-0.9-1.6-1.8-1.6c-0.9,0-1.6,0.9-1.6,1.8
			c0.2,1.8,0.2,3.6,0.7,5.4C11.1,265.9,11.8,266.6,12.7,266.6z"/>
		<path class="st3" d="M36.1,204.7c0,0-1.8,1.1-4.3,3.4c-0.7,0.7-0.7,1.8-0.2,2.5c0.5,0.5,0.9,0.7,1.4,0.7c0.5,0,0.9-0.2,1.1-0.5
			c2.3-2,3.9-3.2,3.9-3.2c0.9-0.5,1.1-1.6,0.5-2.5C37.9,204.5,36.7,204.3,36.1,204.7z"/>
		<path class="st3" d="M15.5,241c0.5-1.6,0.9-3.2,1.6-5c0.2-0.9-0.2-1.8-1.1-2.3c-0.9-0.2-1.8,0.2-2.3,1.1c-0.7,1.8-1.1,3.4-1.6,5.2
			c-0.2,0.9,0.2,1.8,1.4,2c0.2,0,0.2,0,0.5,0C14.5,242.3,15.2,241.7,15.5,241z"/>
		<path class="st3" d="M-4.9,220.8c-0.9-1.6-1.8-3.2-2.7-4.8c-0.5-0.9-1.6-1.1-2.5-0.5c-0.9,0.5-1.1,1.6-0.5,2.5
			c0.9,1.4,1.8,2.9,2.7,4.3c0.2,0.7,0.9,0.9,1.6,0.9c0.2,0,0.7,0,0.9-0.2C-4.9,222.6-4.5,221.5-4.9,220.8z"/>
		<path class="st3" d="M5.7,269.1c0-1.8,0-3.6-0.2-5.4c0-0.9-0.9-1.6-1.8-1.6c-0.9,0-1.8,0.9-1.6,1.8c0,1.6,0,3.4,0.2,5.2
			c0,0.2,0.2,0.7,0.2,0.9h-6.3l7.7,13.8l8.2-13.6H5.7C5.5,269.7,5.7,269.5,5.7,269.1z"/>
		<path class="st3" d="M-15.8,206.3c-0.7-0.7-1.8-0.7-2.5,0c-0.7,0.7-0.7,1.8,0,2.5c1.1,1.1,2.3,2.5,3.4,3.9
			c0.5,0.5,0.9,0.7,1.4,0.7c0.5,0,0.9-0.2,1.1-0.5c0.7-0.7,0.9-1.8,0.2-2.5C-13.3,208.8-14.5,207.4-15.8,206.3z"/>
		<path class="st3" d="M-1.8,234.6c0.2,0,0.5,0,0.7,0c0.9-0.2,1.4-1.4,1.1-2.3c-0.7-1.8-1.1-3.4-1.8-5c-0.5-0.9-1.4-1.4-2.3-0.9
			s-1.4,1.4-0.9,2.3c0.7,1.6,1.4,3.2,1.8,4.8C-3.1,234.2-2.4,234.6-1.8,234.6z"/>
		<path class="st3" d="M3.2,258.6c1.1,0,1.8-0.9,1.8-1.8c-0.2-1.8-0.5-3.6-0.7-5.2c-0.2-0.9-0.9-1.6-2-1.6c-0.9,0.2-1.6,0.9-1.6,2
			c0.2,1.6,0.5,3.4,0.7,5.2C1.6,258,2.3,258.6,3.2,258.6z"/>
		<path class="st3" d="M1.9,246.4c0.9-0.2,1.6-1.1,1.4-2c-0.5-1.8-0.7-3.6-1.1-5.2c-0.2-0.9-1.1-1.6-2-1.4s-1.6,1.1-1.4,2
			c0.5,1.6,0.9,3.4,1.1,5c0.2,0.9,0.9,1.4,1.8,1.4C1.6,246.4,1.9,246.4,1.9,246.4z"/>
		<path class="st3" d="M-26.2,198.6c-0.9-0.5-1.8,0-2.3,0.9c-0.5,0.9,0,1.8,0.9,2.3c0,0,1.6,0.7,4.3,2.5c0.2,0.2,0.7,0.2,0.9,0.2
			c0.5,0,1.1-0.2,1.4-0.7c0.5-0.7,0.5-1.8-0.5-2.5C-24.2,199.5-26.2,198.6-26.2,198.6z"/>
		<path class="st3" d="M-14.2,183.4c0.5,0,0.9-0.2,1.1-0.5c0.7-0.7,0.7-1.8,0-2.5c-1.1-1.1-2.3-2.5-2.9-3.9
			c-0.5-0.9-1.6-1.1-2.5-0.5c-0.9,0.5-1.1,1.6-0.5,2.5c0.9,1.6,2.3,2.9,3.4,4.3C-15.1,183.2-14.7,183.4-14.2,183.4z"/>
		<path class="st3" d="M-2.4,188.9c0.5-0.9,0-1.8-0.9-2.3c-1.6-0.7-3.2-1.4-4.5-2.3c-0.9-0.5-1.8-0.2-2.5,0.7
			c-0.5,0.9-0.2,1.8,0.7,2.5c1.6,0.9,3.2,1.8,5,2.5c0.2,0,0.5,0.2,0.7,0.2C-3.4,190-2.7,189.5-2.4,188.9z"/>
		<path class="st3" d="M37.9,170.1c-0.9-0.5-1.8-0.2-2.3,0.7c-0.2,0.7-1.1,2.3-2.7,4.3c-0.5,0.7-0.5,1.8,0.5,2.5
			c0.2,0.2,0.7,0.2,1.1,0.2c0.5,0,1.1-0.2,1.4-0.7c1.6-2.3,2.5-4.1,2.9-4.8C39,171.4,38.8,170.5,37.9,170.1z"/>
		<path class="st3" d="M0.9,189.8c-0.2,1.1,0.5,2,1.4,2c0.9,0.2,1.8,0.2,2.7,0.5s1.8,0.2,2.7,0.2s1.8-0.7,1.8-1.6
			c0-0.9-0.7-1.8-1.6-1.8s-1.6,0-2.5-0.2c-0.9-0.2-1.6-0.2-2.5-0.5C2.1,188.2,1.2,188.9,0.9,189.8z"/>
		<path class="st3" d="M-19,170.7c-0.9-2.7-0.9-4.8-0.9-4.8c0-0.9-0.9-1.8-1.8-1.6c-0.9,0-1.8,0.9-1.6,1.8c0,0,0,2.5,1.1,5.7
			c0.2,0.7,0.9,1.1,1.6,1.1c0.2,0,0.5,0,0.5,0C-19.2,172.5-18.5,171.6-19,170.7z"/>
		<path class="st3" d="M25.9,186.6c0.5,0,0.7-0.2,1.1-0.5c1.4-1.1,2.7-2.3,4.1-3.6c0.7-0.7,0.7-1.8,0-2.5c-0.7-0.7-1.8-0.7-2.5,0
			c-1.1,1.1-2.5,2.3-3.9,3.4c-0.7,0.7-0.9,1.6-0.2,2.5C24.7,186.4,25.2,186.6,25.9,186.6z"/>
		<path class="st3" d="M21.3,187.7c-0.5-0.9-1.4-1.4-2.3-0.9c-1.6,0.7-3.2,1.1-4.8,1.6c-0.9,0.2-1.6,1.1-1.4,2
			c0.2,0.9,0.9,1.4,1.8,1.4c0.2,0,0.2,0,0.5,0c1.8-0.5,3.6-1.1,5.2-1.8C21.3,189.8,21.8,188.6,21.3,187.7z"/>
		<path class="st3" d="M36.7,292.2c-2.7-1.6-4.1-2.7-4.3-2.7c-0.7-0.7-1.8-0.5-2.5,0.2c-0.7,0.7-0.5,1.8,0.2,2.5
			c0,0,1.8,1.4,4.5,3.2c0.2,0.2,0.7,0.2,0.9,0.2c0.7,0,1.1-0.2,1.6-0.9C37.9,293.8,37.7,292.6,36.7,292.2z"/>
		<path class="st3" d="M47.6,297.2c-1.6-0.5-3.2-1.1-4.8-1.8c-0.9-0.5-1.8,0-2.3,0.9c-0.5,0.9,0,2,0.9,2.3c1.6,0.7,3.4,1.4,5,2
			c0.2,0,0.5,0,0.5,0c0.7,0,1.4-0.5,1.6-1.1C49,298.5,48.5,297.6,47.6,297.2z"/>
		<path class="st3" d="M1.2,102.3h0.2c0.7,0,1.6-0.2,2.5-0.2s1.8,0,2.5,0c0.9,0,1.8-0.9,1.8-1.8c0-0.9-0.9-1.8-1.8-1.8
			c-0.9,0-1.8,0-2.7,0s-1.8,0.2-2.7,0.2c-0.9,0.2-1.6,1.1-1.6,2C-0.4,101.6,0.3,102.3,1.2,102.3z"/>
		<path class="st3" d="M11.6,100.3c-0.2,0.9,0.5,1.8,1.6,2c1.6,0.2,3.4,0.7,5,1.1c0.2,0,0.2,0,0.5,0c0.7,0,1.6-0.5,1.6-1.4
			c0.2-0.9-0.2-1.8-1.1-2.3c-1.8-0.5-3.6-0.9-5.4-1.1C12.7,98.7,11.8,99.4,11.6,100.3z"/>
		<path class="st3" d="M29.7,108.2c0.7,0,1.1-0.2,1.6-0.9c0.5-0.9,0.2-1.8-0.7-2.5c-1.6-0.9-3.2-1.8-4.8-2.5c-0.9-0.5-2,0-2.3,0.9
			c-0.5,0.9,0,1.8,0.9,2.3c1.6,0.7,2.9,1.6,4.5,2.3C29,108.2,29.5,108.2,29.7,108.2z"/>
		<path class="st3" d="M-20.1,113.9c0.5,0,0.9-0.2,1.4-0.7c1.1-1.4,2.3-2.5,3.6-3.4c0.7-0.7,0.9-1.8,0.2-2.5
			c-0.7-0.7-1.8-0.9-2.5-0.2c-1.4,1.1-2.7,2.5-3.9,3.9c-0.7,0.7-0.7,1.8,0.2,2.5C-20.8,113.6-20.3,113.9-20.1,113.9z"/>
		<path class="st3" d="M51.3,137.4c0.9-0.2,1.6-1.1,1.4-2c-0.5-1.8-0.9-3.6-1.6-5.2c-0.2-0.9-1.4-1.4-2.3-1.1
			c-0.9,0.2-1.4,1.4-1.1,2.3c0.7,1.6,1.1,3.2,1.4,4.8c0.2,0.9,0.9,1.4,1.8,1.4C51,137.4,51.3,137.4,51.3,137.4z"/>
		<path class="st3" d="M52.6,149.4c1.1,0,1.8-0.9,1.8-1.8c-0.2-1.8-0.2-3.6-0.5-5.4c-0.2-0.9-0.9-1.6-2-1.6c-0.9,0.2-1.6,0.9-1.6,2
			c0.2,1.6,0.5,3.4,0.5,5.2C50.8,148.8,51.7,149.4,52.6,149.4z"/>
		<path class="st3" d="M42.9,118.2c-0.9,0.5-0.9,1.6-0.5,2.5c0.9,1.4,1.8,2.9,2.7,4.3c0.2,0.7,0.9,0.9,1.6,0.9c0.2,0,0.7,0,0.9-0.2
			c0.9-0.5,1.1-1.6,0.7-2.5c-0.9-1.6-1.8-3.2-2.9-4.8C44.7,117.9,43.5,117.7,42.9,118.2z"/>
		<path class="st3" d="M-9.7,105.9c1.4-0.9,2.9-1.6,4.5-2c0.9-0.2,1.4-1.4,1.1-2.3c-0.2-0.9-1.4-1.4-2.3-1.1c-1.8,0.7-3.4,1.4-5,2.3
			c-0.9,0.5-1.1,1.6-0.7,2.5c0.2,0.7,0.9,0.9,1.6,0.9C-10.2,106.2-9.9,106.2-9.7,105.9z"/>
		<path class="st3" d="M54.6,209.5c0-0.2,0-5.4,0-5.4c0-0.9-0.7-1.8-1.8-1.8c-0.9,0-1.8,0.7-1.8,1.8v5.2c0,1.1,0.7,1.8,1.8,1.8
			C53.7,211.1,54.6,210.4,54.6,209.5z"/>
		<path class="st3" d="M40.6,113c-1.4-1.4-2.5-2.5-4.1-3.9c-0.7-0.7-1.8-0.5-2.5,0.2c-0.7,0.7-0.5,1.8,0.2,2.5
			c1.4,1.1,2.5,2.3,3.6,3.4c0.5,0.5,0.9,0.5,1.4,0.5c0.5,0,0.9-0.2,1.1-0.5C41.3,114.8,41.3,113.6,40.6,113z"/>
		<path class="st3" d="M52.8,161.9c0.9,0,1.8-0.7,1.8-1.8v-5.2c0-0.9-0.9-1.8-1.8-1.8c-0.9,0-1.8,0.9-1.8,1.8v5.2
			C51.3,161,51.9,161.9,52.8,161.9z"/>
		<path class="st3" d="M51.3,184.8c0,0.9,0.7,1.8,1.8,1.8c0.9,0,1.8-0.7,1.8-1.8v-5.2c0-0.9-0.7-1.8-1.8-1.8c-0.9,0-1.8,0.7-1.8,1.8
			V184.8z"/>
		<path class="st3" d="M52.8,174.1c0.9,0,1.8-0.7,1.8-1.8v-5.2c0-0.9-0.7-1.8-1.8-1.8c-0.9,0-1.8,0.7-1.8,1.8v5.2
			C51.3,173.5,51.9,174.1,52.8,174.1z"/>
		<path class="st3" d="M51.3,197c0,0.9,0.7,1.8,1.8,1.8c0.9,0,1.8-0.7,1.8-1.8v-5.2c0-0.9-0.7-1.8-1.8-1.8c-0.9,0-1.8,0.7-1.8,1.8
			V197z"/>
		<path class="st3" d="M-27.8,123.6c0.5,0.2,0.7,0.2,0.9,0.2c0.7,0,1.4-0.5,1.6-0.9c0.9-1.6,1.6-2.9,2.5-4.3
			c0.5-0.9,0.2-1.8-0.5-2.5c-0.9-0.5-1.8-0.2-2.5,0.5c-0.9,1.6-1.8,3.2-2.7,4.8C-29,122.2-28.5,123.4-27.8,123.6z"/>
		<path class="st3" d="M135.8,148.8c0.5,0.5,0.9,0.7,1.4,0.7c0.5,0,0.7-0.2,1.1-0.5c0.7-0.7,0.9-1.8,0.2-2.5
			c-1.1-1.4-2.5-2.7-3.9-4.1c-0.7-0.7-1.8-0.5-2.5,0.2c-0.7,0.7-0.5,1.8,0.2,2.5C133.7,146.5,134.9,147.6,135.8,148.8z"/>
		<path class="st3" d="M100.2,143.5c1.4-0.9,2.9-1.6,4.5-2.3c0.9-0.5,1.4-1.4,0.9-2.3s-1.4-1.4-2.3-0.9c-1.6,0.7-3.4,1.6-4.8,2.5
			c-0.9,0.5-1.1,1.6-0.5,2.5c0.2,0.5,0.9,0.9,1.6,0.9C99.5,143.8,100,143.8,100.2,143.5z"/>
		<path class="st3" d="M108.8,137.9c0.2,0.9,0.9,1.4,1.8,1.4h0.2c1.1-0.2,2.3-0.2,3.2-0.5c0.2,0,0.7,0,0.9,0h0.7
			c0.9,0,1.8-0.7,1.8-1.8c0-0.9-0.7-1.8-1.6-1.8c-0.7,0-1.4,0-1.8,0c-1.1,0-2.5,0.2-3.6,0.5C109.3,135.8,108.8,136.7,108.8,137.9z"
			/>
		<path class="st3" d="M138.7,154.4c0.2,0.7,0.2,1.4,0.5,2c0,0.9,0.9,1.6,1.8,1.6c1.1-0.2,1.8-0.9,1.8-2c0-0.9-0.2-1.6-0.5-2.5
			s-1.1-1.4-2.3-1.1C138.9,152.4,138.5,153.5,138.7,154.4z"/>
		<path class="st3" d="M128.5,138.6c-1.6-0.9-3.4-1.6-5.2-2c-0.9-0.2-1.8,0.2-2.3,1.1c-0.2,0.9,0.2,1.8,1.1,2.3
			c1.6,0.5,3.2,1.1,4.5,1.8c0.2,0.2,0.5,0.2,0.7,0.2c0.7,0,1.4-0.5,1.6-0.9C129.6,140.1,129.2,139,128.5,138.6z"/>
		<path class="st3" d="M91.4,151.2c1.1-1.4,2.3-2.5,3.4-3.6c0.7-0.7,0.7-1.8,0.2-2.5c-0.7-0.7-1.8-0.7-2.5-0.2
			c-1.4,1.4-2.7,2.5-3.9,3.9c-0.7,0.7-0.5,1.8,0.2,2.5c0.2,0.2,0.7,0.5,1.1,0.5C90.4,151.9,90.9,151.7,91.4,151.2z"/>
		<path class="st3" d="M84.6,155.1c-0.9,1.6-1.6,3.4-2.3,5.2c-0.2,0.9,0.2,1.8,1.1,2.3c0.2,0,0.5,0,0.5,0c0.7,0,1.4-0.5,1.6-1.1
			c0.5-1.6,1.1-2.9,1.8-4.5c0.5-0.9,0.2-1.8-0.7-2.3C86.1,154,85,154.2,84.6,155.1z"/>
		<path class="st3" d="M106.5,270c-0.9-0.2-1.8,0.2-2,1.4c-0.5,1.6-0.9,3.4-1.4,5c-0.2,0.9,0.2,1.8,1.1,2.3c0.2,0,0.5,0,0.5,0
			c0.7,0,1.4-0.5,1.6-1.1c0.5-1.8,1.1-3.4,1.6-5.2C107.9,271.3,107.4,270.2,106.5,270z"/>
		<path class="st3" d="M108.1,258c-0.9,0-1.8,0.7-1.8,1.6c-0.2,1.6-0.2,3.4-0.7,5c-0.2,0.9,0.5,1.8,1.4,2h0.2c0.9,0,1.6-0.7,1.8-1.6
			c0.2-1.8,0.5-3.6,0.7-5.4C109.9,258.9,109,258,108.1,258z"/>
		<path class="st3" d="M106.8,242.1c0.9-0.2,1.6-1.1,1.4-2c-0.5-1.8-0.9-3.4-1.6-5.2c-0.2-0.9-1.4-1.4-2.3-1.1s-1.4,1.4-1.1,2.3
			c0.5,1.6,1.1,3.2,1.6,5c0.2,0.9,0.9,1.4,1.8,1.4C106.5,242.3,106.8,242.1,106.8,242.1z"/>
		<path class="st3" d="M109.5,247.1c-0.2-0.9-0.9-1.6-2-1.6c-0.9,0.2-1.6,0.9-1.6,2c0.2,1.6,0.5,3.4,0.5,5c0,0.9,0.9,1.6,1.8,1.6
			c1.1,0,1.8-0.9,1.8-1.8C109.7,250.7,109.7,248.9,109.5,247.1z"/>
		<path class="st3" d="M93.6,213.3c-0.7-0.7-1.8-0.7-2.5-0.2c-0.7,0.7-0.7,1.8-0.2,2.5c1.1,1.4,2.3,2.5,3.2,3.9
			c0.5,0.5,0.9,0.7,1.4,0.7s0.7-0.2,1.1-0.5c0.7-0.7,0.9-1.6,0.2-2.5C95.9,216,94.8,214.7,93.6,213.3z"/>
		<path class="st3" d="M102.2,230.8c0.2,0,0.5,0,0.7-0.2c0.9-0.5,1.1-1.6,0.9-2.3c-0.7-1.6-1.6-3.2-2.5-4.8
			c-0.5-0.9-1.6-1.1-2.5-0.7c-0.9,0.5-1.1,1.6-0.7,2.5c0.9,1.4,1.8,2.9,2.5,4.5C100.9,230.3,101.6,230.8,102.2,230.8z"/>
		<path class="st3" d="M102.9,281.8c-0.9-0.5-1.8,0-2.3,0.9c-0.7,1.6-1.4,3.2-2,4.8c-0.5,0.9,0,1.8,0.9,2.3c0.2,0.2,0.5,0.2,0.7,0.2
			c0.7,0,1.4-0.5,1.6-0.9c0.7-1.6,1.6-3.4,2.3-5C104,283.1,103.6,282.2,102.9,281.8z"/>
		<path class="st3" d="M87.3,211.3c0.5,0,0.9-0.2,1.4-0.7c0.7-0.7,0.7-1.8-0.2-2.5c-2.5-2.3-4.3-3.4-4.3-3.4
			c-0.9-0.5-1.8-0.2-2.5,0.5c-0.5,0.9-0.2,1.8,0.5,2.5c0,0,1.6,1.1,3.9,3.2C86.4,211.1,86.8,211.3,87.3,211.3z"/>
		<path class="st3" d="M120.4,245.1c0.5-1.8,0.7-3.4,1.1-5c0.2-0.9-0.2-1.8-1.4-2c-0.9-0.2-1.8,0.2-2,1.4c-0.5,1.6-0.9,3.4-1.1,5.2
			c-0.2,0.9,0.5,1.8,1.4,2c0.2,0,0.2,0,0.5,0C119.5,246.4,120.1,246,120.4,245.1z"/>
		<path class="st3" d="M136,206.3c-1.4,1.1-2.5,2.5-3.6,4.1c-0.7,0.7-0.5,1.8,0.2,2.5c0.2,0.2,0.7,0.5,1.1,0.5s0.9-0.2,1.4-0.7
			c1.1-1.4,2.3-2.5,3.4-3.9c0.7-0.7,0.7-1.8,0-2.5C137.8,205.6,136.7,205.6,136,206.3z"/>
		<path class="st3" d="M115.8,251.4c-0.2,1.8-0.5,3.4-0.7,5.2c0,0.9,0.7,1.8,1.6,1.8c1.1,0,1.8-0.7,1.8-1.6c0.2-1.8,0.5-3.4,0.7-5.2
			c0.2-0.9-0.5-1.8-1.6-2C116.7,249.8,115.8,250.5,115.8,251.4z"/>
		<path class="st3" d="M146.4,198.6c0,0-2,0.9-5,2.9c-0.7,0.5-0.9,1.6-0.5,2.5c0.5,0.5,0.9,0.7,1.4,0.7s0.7,0,0.9-0.2
			c2.5-1.8,4.1-2.5,4.3-2.5c0.9-0.5,1.4-1.4,0.9-2.3C148.2,198.6,147.3,198.4,146.4,198.6z"/>
		<path class="st3" d="M124.4,226.2c-0.9-0.5-1.8,0-2.3,0.9c-0.7,1.6-1.4,3.4-1.8,5c-0.2,0.9,0.2,1.8,1.1,2.3c0.2,0,0.5,0,0.7,0
			c0.7,0,1.4-0.5,1.6-1.1c0.7-1.6,1.1-3.2,1.8-4.8C125.8,227.6,125.3,226.7,124.4,226.2z"/>
		<path class="st3" d="M130.3,215.6c-0.9-0.5-1.8-0.2-2.5,0.5c-0.9,1.6-1.8,2.9-2.7,4.8c-0.5,0.9-0.2,1.8,0.7,2.5
			c0.2,0.2,0.5,0.2,0.9,0.2c0.7,0,1.1-0.2,1.6-0.9c0.9-1.6,1.8-2.9,2.7-4.3C131.5,217.2,131.2,216,130.3,215.6z"/>
		<path class="st3" d="M118.1,269.1c0-1.8,0-3.4,0.2-5.2c0-0.9-0.7-1.8-1.6-1.8c-0.9,0-1.8,0.7-1.8,1.6c0,1.8,0,3.4-0.2,5.4
			c0,0.5,0.2,0.7,0.2,0.9h-6.3l8.2,13.6l7.7-13.8h-6.3C117.9,269.7,118.1,269.5,118.1,269.1z"/>
		<path class="st3" d="M129.9,187.5c0.9-0.5,1.1-1.6,0.7-2.5c-0.5-0.9-1.6-1.1-2.5-0.7c-1.4,0.9-2.9,1.6-4.5,2.3
			c-0.9,0.5-1.4,1.4-0.9,2.3c0.2,0.7,0.9,1.1,1.6,1.1c0.2,0,0.5,0,0.7-0.2C126.7,189.3,128.3,188.4,129.9,187.5z"/>
		<path class="st3" d="M93.4,186.1c0.2,0.2,0.7,0.5,1.1,0.5s1.1-0.2,1.4-0.7c0.7-0.7,0.5-1.8-0.2-2.5c-1.4-0.9-2.5-2-3.9-3.4
			c-0.7-0.7-1.8-0.7-2.5,0c-0.7,0.7-0.7,1.8,0,2.5C90.4,183.9,91.8,185.2,93.4,186.1z"/>
		<path class="st3" d="M98.8,187.7c-0.5,0.9,0,1.8,0.9,2.3c1.8,0.7,3.4,1.4,5.2,1.8c0.2,0,0.2,0,0.5,0c0.9,0,1.6-0.5,1.8-1.4
			c0.2-0.9-0.5-1.8-1.4-2c-1.6-0.5-3.2-0.9-4.8-1.6C100.2,186.4,99.1,186.8,98.8,187.7z"/>
		<path class="st3" d="M142.3,171.6c0.9-3.2,1.1-5.4,1.1-5.7c0-0.9-0.7-1.8-1.6-1.8c-0.9,0-1.8,0.7-1.8,1.6c0,0,0,2-0.9,4.8
			c-0.2,0.9,0.2,1.8,1.1,2.3c0.2,0,0.5,0,0.5,0C141.4,173,142.1,172.5,142.3,171.6z"/>
		<path class="st3" d="M117.2,188.4c-0.9,0.2-1.6,0.2-2.5,0.5c-0.9,0.2-1.6,0.2-2.5,0.2s-1.8,0.9-1.6,1.8c0,0.9,0.9,1.6,1.8,1.6
			c0.9,0,2-0.2,2.9-0.2c0.9-0.2,1.8-0.2,2.7-0.5c0.9-0.2,1.6-1.1,1.4-2C119,188.9,118.1,188.2,117.2,188.4z"/>
		<path class="st3" d="M138.7,176.2c-0.9-0.5-1.8-0.2-2.5,0.5c-0.9,1.4-1.8,2.7-2.9,3.9c-0.7,0.7-0.7,1.8,0,2.5
			c0.5,0.2,0.7,0.5,1.1,0.5s0.9-0.2,1.4-0.5c1.4-1.4,2.5-2.7,3.4-4.3C139.8,177.8,139.6,176.6,138.7,176.2z"/>
		<path class="st3" d="M84.6,177.1c0.5,0.5,0.9,0.7,1.4,0.7s0.7,0,1.1-0.2c0.7-0.5,0.9-1.6,0.5-2.5c-1.6-2-2.3-3.6-2.7-4.3
			c-0.5-0.9-1.6-1.1-2.3-0.7c-0.9,0.5-1.1,1.6-0.7,2.3C81.8,173,82.7,174.8,84.6,177.1z"/>
		<path class="st3" d="M66,299c-1.6,0.2-3.4,0.5-5,0.5c-0.5,0-0.7,0.2-0.9,0.5c-0.2-0.2-0.7-0.5-0.9-0.5c-1.6,0-3.4-0.2-5-0.5
			c-0.9-0.2-1.8,0.5-2,1.4c-0.2,0.9,0.5,1.8,1.4,2c1.8,0.2,3.6,0.5,5.4,0.7c0.5,0,0.9-0.2,1.1-0.5c0.2,0.2,0.7,0.5,1.1,0.5
			c1.8,0,3.6-0.2,5.4-0.7c0.9-0.2,1.6-1.1,1.4-2C68,299.4,66.9,298.8,66,299z"/>
		<path class="st3" d="M77.3,295.4c-1.6,0.7-3.2,1.4-4.8,1.8c-0.9,0.2-1.4,1.4-1.1,2.3c0.2,0.7,0.9,1.1,1.6,1.1c0.2,0,0.5,0,0.5,0
			c1.6-0.7,3.4-1.1,5-2c0.9-0.5,1.4-1.4,0.9-2.3C79.3,295.4,78.2,294.9,77.3,295.4z"/>
		<path class="st3" d="M87.5,289.5c0,0-1.6,1.1-4.3,2.7c-0.9,0.5-1.1,1.6-0.7,2.5c0.2,0.5,0.9,0.9,1.6,0.9c0.2,0,0.7,0,0.9-0.2
			c2.7-1.8,4.5-2.9,4.5-3.2c0.7-0.7,0.9-1.8,0.2-2.5C89.3,288.8,88.4,288.8,87.5,289.5z"/>
		<path class="st3" d="M101.6,103.4c0.2,0,0.2,0,0.5,0c1.6-0.5,3.2-0.9,5-1.1c0.9-0.2,1.6-1.1,1.6-2c-0.2-0.9-1.1-1.6-2-1.6
			c-1.8,0.2-3.6,0.7-5.4,1.1c-0.9,0.2-1.6,1.1-1.1,2.3C100.2,103,100.9,103.4,101.6,103.4z"/>
		<path class="st3" d="M96.6,103.4c-0.5-0.9-1.4-1.4-2.3-0.9c-1.6,0.7-3.2,1.6-4.8,2.5c-0.9,0.5-1.1,1.6-0.7,2.5
			c0.2,0.5,0.9,0.9,1.6,0.9c0.2,0,0.7,0,0.9-0.2c1.4-0.9,2.9-1.6,4.5-2.3C96.6,105.3,97,104.3,96.6,103.4z"/>
		<path class="st3" d="M69.2,204c0-0.9-0.7-1.8-1.8-1.8c-0.9,0-1.8,0.7-1.8,1.8v5.2c0,1.1,0.9,1.8,1.8,1.8c0.9,0,1.8-0.7,1.8-1.8
			C69.2,209.3,69.2,204,69.2,204z"/>
		<path class="st3" d="M120.8,100.7c0.2-0.9-0.5-1.8-1.6-2c-0.9-0.2-1.8-0.2-2.7-0.2c-0.9,0-1.8,0-2.7,0c-0.9,0-1.8,0.7-1.8,1.8
			c0,0.9,0.7,1.8,1.8,1.8c0.9,0,1.8,0,2.5,0c0.9,0,1.8,0.2,2.5,0.2h0.2C119.9,102.3,120.6,101.6,120.8,100.7z"/>
		<path class="st3" d="M143,118.6c0.9,1.4,1.8,2.9,2.5,4.3c0.2,0.7,0.9,0.9,1.6,0.9c0.2,0,0.5,0,0.9-0.2c0.9-0.5,1.1-1.6,0.7-2.3
			c-0.9-1.6-1.8-3.2-2.7-4.8c-0.5-0.9-1.6-1.1-2.5-0.5C142.8,116.6,142.6,117.7,143,118.6z"/>
		<path class="st3" d="M85.9,112c0.7-0.7,0.9-1.8,0.2-2.5c-0.7-0.7-1.8-0.9-2.5-0.2c-1.4,1.1-2.7,2.5-4.1,3.9
			c-0.7,0.7-0.7,1.8,0,2.5c0.2,0.2,0.7,0.5,1.1,0.5s0.9-0.2,1.4-0.5C83.2,114.3,84.6,113,85.9,112z"/>
		<path class="st3" d="M68.2,140.8c-0.9,0-1.8,0.7-2,1.6c-0.2,1.8-0.5,3.4-0.5,5.4c0,0.9,0.7,1.8,1.6,1.8c1.1,0,1.8-0.7,1.8-1.6
			c0.2-1.8,0.2-3.4,0.5-5.2C70.1,141.7,69.4,140.8,68.2,140.8z"/>
		<path class="st3" d="M71.4,128.8c-0.9-0.2-1.8,0.2-2.3,1.1c-0.7,1.8-1.1,3.4-1.6,5.2c-0.2,0.9,0.5,1.8,1.4,2c0.2,0,0.2,0,0.5,0
			c0.9,0,1.6-0.5,1.8-1.4c0.5-1.6,0.9-3.2,1.4-4.8C72.8,130.2,72.3,129.3,71.4,128.8z"/>
		<path class="st3" d="M67.3,190c-0.9,0-1.8,0.7-1.8,1.8v5.2c0,0.9,0.7,1.8,1.8,1.8c0.9,0,1.8-0.7,1.8-1.8v-5.2
			C69.2,190.7,68.2,190,67.3,190z"/>
		<path class="st3" d="M69.2,167.1c0-0.9-0.7-1.8-1.8-1.8c-0.9,0-1.8,0.7-1.8,1.8v5.2c0,0.9,0.7,1.8,1.8,1.8c0.9,0,1.8-0.7,1.8-1.8
			V167.1z"/>
		<path class="st3" d="M75,118.6c-1.1,1.6-2,3.2-2.9,4.8c-0.5,0.9-0.2,1.8,0.7,2.5c0.2,0.2,0.5,0.2,0.9,0.2c0.7,0,1.1-0.2,1.6-0.9
			c0.9-1.6,1.6-2.9,2.7-4.3c0.5-0.9,0.5-1.8-0.5-2.5C76.6,117.7,75.5,117.9,75,118.6z"/>
		<path class="st3" d="M65.8,214.2c-0.7-0.7-1.8-0.9-2.5-0.2c-0.9,0.7-2,1.1-3.2,1.4c-1.1-0.2-2.3-0.5-3.2-1.4
			c-0.7-0.7-1.8-0.5-2.5,0.2c-0.7,0.7-0.5,1.8,0.2,2.5c1.1,0.9,2.5,1.6,3.9,1.8c0.2,0.2,0.5,0.2,0.9,0.2c0.2,0,0.5,0,0.7,0
			s0.5,0,0.7,0s0.7-0.2,0.9-0.2c1.4-0.2,2.7-0.9,3.9-1.8C66.2,216,66.2,215.1,65.8,214.2z"/>
		<path class="st3" d="M69.2,179.3c0-0.9-0.7-1.8-1.8-1.8c-0.9,0-1.8,0.7-1.8,1.8v5.2c0,0.9,0.7,1.8,1.8,1.8c0.9,0,1.8-0.7,1.8-1.8
			V179.3z"/>
		<path class="st3" d="M67.3,153.1c-0.9,0-1.8,0.7-1.8,1.8v5.2c0,0.9,0.7,1.8,1.8,1.8c0.9,0,1.8-0.7,1.8-1.8v-5.2
			C69.2,154,68.2,153.1,67.3,153.1z"/>
		<path class="st3" d="M131.5,102.8c-1.6-0.9-3.4-1.6-5-2.3c-0.9-0.2-1.8,0.2-2.3,1.1c-0.2,0.9,0.2,1.8,1.1,2.3
			c1.6,0.7,3.2,1.4,4.5,2c0.2,0.2,0.5,0.2,0.9,0.2c0.7,0,1.1-0.2,1.6-0.9C132.6,104.3,132.4,103.2,131.5,102.8z"/>
		<path class="st3" d="M141.4,113.4c0.7-0.7,0.7-1.8,0.2-2.5c-1.4-1.4-2.5-2.7-3.9-3.9c-0.7-0.7-1.8-0.5-2.5,0.2
			c-0.7,0.7-0.5,1.8,0.2,2.5c1.4,1.1,2.5,2.3,3.6,3.4c0.5,0.5,0.9,0.7,1.4,0.7C140.5,113.9,141,113.6,141.4,113.4z"/>
		<path class="st3" d="M135.5,86.2c0.2,0.5,0.9,0.9,1.6,0.9c0.2,0,0.7,0,0.9-0.2c0.9-0.5,1.1-1.6,0.7-2.5c-0.9-1.6-1.8-3.2-2.9-4.5
			c-0.5-0.9-1.6-0.9-2.5-0.5s-0.9,1.6-0.5,2.5C133.7,83.5,134.6,84.9,135.5,86.2z"/>
		<path class="st3" d="M128.7,76.5c0.5,0.5,0.9,0.7,1.4,0.7s0.7-0.2,1.1-0.5c0.7-0.7,0.9-1.8,0.2-2.5c-1.1-1.4-2.3-2.7-3.4-4.1
			c-0.7-0.7-1.8-0.7-2.5,0c-0.7,0.7-0.7,1.8,0,2.5C126.5,73.8,127.6,75.1,128.7,76.5z"/>
		<path class="st3" d="M120.6,67.6c0.2,0.2,0.7,0.5,1.1,0.5s0.9-0.2,1.4-0.5c0.7-0.7,0.7-1.8,0-2.5c-1.4-1.4-2.7-2.5-4.1-3.6
			c-0.7-0.7-1.8-0.5-2.5,0.2c-0.7,0.7-0.5,1.8,0.2,2.5C118.1,65.1,119.2,66.5,120.6,67.6z"/>
		<path class="st3" d="M138.7,92.3c0.7,1.6,1.4,3.2,2,4.8c0.2,0.7,0.9,1.1,1.6,1.1c0.2,0,0.5,0,0.7,0c0.9-0.2,1.4-1.4,1.1-2.3
			c-0.7-1.6-1.4-3.4-2-5c-0.5-0.9-1.4-1.4-2.3-0.9C138.7,90.5,138.3,91.4,138.7,92.3z"/>
		<path class="st3" d="M111.3,59.9c0.2,0.2,0.7,0.5,1.1,0.5s1.1-0.2,1.4-0.7c0.7-0.7,0.5-1.8-0.5-2.5c-1.4-1.1-2.9-2-4.3-3.2
			c-0.9-0.5-1.8-0.2-2.5,0.5c-0.5,0.9-0.2,1.8,0.5,2.5C108.3,57.7,109.9,58.8,111.3,59.9z"/>
		<path class="st3" d="M96.8,50.4c1.4,0.7,2.9,1.6,4.5,2.5c0.2,0.2,0.7,0.2,0.9,0.2c0.7,0,1.1-0.2,1.6-0.9c0.5-0.9,0.2-1.8-0.7-2.5
			c-1.6-0.9-3.2-1.8-4.5-2.7c-0.9-0.5-1.8-0.2-2.5,0.7C95.4,49.1,95.9,50,96.8,50.4z"/>
		<path class="st3" d="M85.7,45.2c0,0,1.8,0.7,4.8,2c0.2,0.2,0.5,0.2,0.7,0.2c0.7,0,1.4-0.5,1.6-0.9c0.5-0.9,0-1.8-0.9-2.3
			c-2.9-1.4-5-2-5-2.3c-0.9-0.5-1.8,0-2.3,1.1C84.3,43.8,84.8,45,85.7,45.2z"/>
		<path class="st3" d="M58.7,78.7c0,0.7,0.7,1.4,1.4,1.4c0.7,0,1.4-0.7,1.4-1.4V62.4H66l-5.9-10.2l-5.9,10.2h4.5V78.7z"/>
		<path class="st3" d="M96.1,52.2l-5.9,10.2h4.5v16.3c0,0.7,0.7,1.4,1.4,1.4c0.7,0,1.4-0.7,1.4-1.4V62.4h4.5L96.1,52.2z"/>
		<path class="st3" d="M16.4,217.9L3.7,205.4l3.2-3.2l-11.3-3.2l3.2,11.3l3.2-3.2l12.7,12.7c0.2,0.2,0.7,0.5,0.9,0.5
			c0.2,0,0.7-0.2,0.9-0.5C16.8,219.2,16.8,218.5,16.4,217.9z"/>
		<path class="st3" d="M55.8,123.8c0.2,0,0.2,0,0.5,0c0.7-0.2,1.1-0.9,0.9-1.6s-5.4-17.2-22-27.9l2.5-4.1l-11.8-0.2l5.7,10.4
			l2.3-3.9c15.6,10.2,20.8,26.3,20.8,26.5C54.6,123.4,55.1,123.8,55.8,123.8z"/>
		<path class="st3" d="M124.7,199.1l-11.3,3.2l3.2,3.2l-12.7,12.7c-0.5,0.5-0.5,1.4,0,1.8c0.2,0.2,0.7,0.5,0.9,0.5s0.7-0.2,0.9-0.5
			l12.7-12.7l3.2,3.2L124.7,199.1z"/>
		<path class="st3" d="M63.9,123.8c0.2,0,0.2,0,0.5,0c0.7,0,1.1-0.5,1.4-0.9c0-0.2,5-16.1,20.8-26.5l2.3,3.9l5.7-10.4l-11.8,0.2
			l2.5,4.1c-16.5,10.6-21.8,27.2-22,27.9C63,122.9,63.3,123.6,63.9,123.8z"/>
	</g>
</g>
</svg>
