<?xml version="1.0" encoding="utf-8"?>
<!-- Generator: Adobe Illustrator 19.0.0, SVG Export Plug-In . SVG Version: 6.00 Build 0)  -->
<svg version="1.1" id="Layer_1" xmlns="http://www.w3.org/2000/svg" xmlns:xlink="http://www.w3.org/1999/xlink" x="0px" y="0px"
	 viewBox="-193 -106 512 512" style="enable-background:new -193 -106 512 512;" xml:space="preserve">
<style type="text/css">
	.st0{fill:#0F7986;}
	.st1{fill:#B22E34;}
	.st2{fill:#052573;}
	.st3{fill:#FF5B62;}
	.st4{fill:#FFBDC0;}
	.st5{fill:#C2585C;}
</style>
<circle class="st0" cx="63.5" cy="150" r="256"/>
<path class="st1" d="M219.4,118.2c5.3,4.7,8.8,11.6,8.8,18.4c0,6.8-2.9,13.7-8.8,18.4c-5.9,4.7-12.9,7.9-20.6,7.9
	c-9.4,0-17.7-4.2-23.5-10.5h-13.5c-2.4,10-6.5,19.4-12.9,27.8l10,8.9c8.8-1.1,18.2,1.6,24.7,7.4c11.8,10.5,11.8,26.8,0,37.3
	c-5.3,4.7-12.9,7.9-20.6,7.9c-7.6,0-15.3-2.6-20.6-7.9c-6.5-5.8-9.4-14.2-8.2-22.1l-10-8.9c-9.4,5.8-20,9.5-31.2,11.6v11.6
	c7.6,4.7,11.8,12.6,11.8,21c0,6.8-2.9,13.7-8.8,18.4c-5.3,5.3-12.9,7.9-20.6,7.9c-16.5,0-29.4-11.6-29.4-26.3
	c0-8.4,4.7-15.8,11.8-21v-12.1c-5.9-1.1-12.4-2.6-18.2-5.3C28.2,227,4.7,231.7-18.3,236.4c-3.5,0.5-7.1,1.6-10.6,2.1
	c-37.1,7.9-84.7,68.8-85.3,69.4c-1.2,1.1-2.9,2.1-4.7,2.1c-1.2,0-1.8,0-2.9-0.5c-2.9-1.6-3.5-4.7-2.4-6.8
	c1.8-3.7,44.7-85.6,87.1-95.1c27.7-5.8,41.2-10,45.9-19.4c-10-10.5-17.1-22.6-20-35.7h-13.5c-5.3,6.8-14.1,10.5-23.5,10.5
	c-7.6,0-15.3-2.6-20.6-7.9c-5.9-4.7-8.8-11.6-8.8-18.4s2.9-13.7,8.8-18.4c5.3-4.7,12.9-7.9,20.6-7.9c9.4,0,17.7,4.2,23.5,10.5h13.5
	c2.4-10,6.5-19.4,12.9-27.8l-10-8.9c-8.8,1.1-18.2-1.6-24.7-7.4c-11.8-10.5-11.8-26.8,0-37.3c5.3-4.7,12.9-7.9,20.6-7.9
	s15.3,2.6,20.6,7.9c6.5,5.8,9.4,14.2,8.2,22.1l10,8.9c9.4-5.8,20-9.5,31.2-11.6V47.3c-7.1-4.7-11.8-12.6-11.8-21
	c0-6.8,2.9-13.7,8.8-18.4C60,2.6,67.6,0,75.3,0c16.5,0,29.4,11.6,29.4,26.3c0,8.4-4.7,15.8-11.8,21v12.1
	c11.2,2.1,21.8,5.8,31.2,11.6l10-8.9c-1.2-8.4,1.8-16.3,8.2-22.1c11.8-10,30-10,41.8,0c11.2,10.5,11.2,26.8,0,37.3
	c-6.5,5.8-15.9,8.4-24.7,7.4l-10,8.9c6.5,8.4,10.6,17.9,12.9,27.8h12.9c5.3-6.8,14.1-10.5,23.5-10.5
	C206.5,110.3,214.1,113,219.4,118.2z M216.5,136.6c0-4.2-1.8-7.9-5.3-11c-2.9-3.2-7.6-4.7-12.4-4.7c-6.5,0-11.8,3.2-15.3,7.9
	c-1.2,1.6-2.9,2.6-5.3,2.6h-21.8c-2.9,0-5.3-2.1-5.9-4.7c-1.8-11-6.5-22.1-14.1-31c-1.8-2.1-1.8-4.7,0.6-6.8l15.3-13.7
	c1.8-1.6,3.5-2.1,5.9-1.6c6.5,1.6,12.4,0,17.1-4.2c7.1-6.3,7.1-16.3,0-22.6s-18.2-6.3-24.7,0c-4.7,4.2-5.9,9.5-4.7,15.2
	c0.6,2.1,0,3.7-1.8,5.3l-15.3,13.7c-2.4,2.1-5.3,2.1-7.6,0.5c-10-6.8-22.4-11.6-34.7-13.1c-2.9-0.5-5.3-2.6-5.3-5.3V43.6
	c0-2.1,1.2-3.7,2.9-4.7c5.3-2.1,8.8-6.8,8.8-12.6c0-4.2-1.8-8.4-5.3-11c-2.9-3.2-7.6-4.7-12.4-4.7s-8.8,1.6-12.4,4.7
	c-3.5,2.6-5.3,6.8-5.3,11c0,5.8,3.5,10.5,8.8,13.7c1.8,1.1,2.9,2.6,2.9,4.7v19.4c0,2.6-2.4,4.7-5.3,5.3
	c-12.4,1.6-24.7,5.8-34.7,13.1c-2.4,1.6-5.3,1.6-7.6-0.5L6.4,68.3c-1.8-1.6-2.4-3.2-1.8-5.3c1.8-5.8,0-11-4.7-15.2
	c-3.5-3.2-7.6-4.7-12.4-4.7c-4.7,0-9.4,1.6-12.4,4.7c-3.5,3.2-5.3,6.8-5.3,11s1.8,7.9,5.3,11c4.7,4.2,10.6,5.3,17.1,4.2
	c2.4-0.5,4.1,0,5.9,1.6l15.3,13.7c2.4,2.1,2.4,4.7,0.6,6.8c-7.6,8.9-12.4,20-14.7,31c-0.6,2.6-2.9,4.7-5.9,4.7h-21.8
	c-2.4,0-4.1-1.1-5.3-2.6c-2.9-5.3-8.2-8.4-14.7-8.4c-4.7,0-9.4,1.6-12.4,4.7c-3.5,2.6-5.3,6.8-5.3,11c0,4.2,1.8,7.9,5.3,11
	c3.5,3.2,7.6,4.7,12.4,4.7c6.5,0,11.8-3.2,15.3-7.9c1.2-1.6,2.9-2.6,5.3-2.6h21.8c2.9,0,5.3,2.1,5.9,4.7c2.4,13.7,9.4,26.8,20,36.8
	c1.2,1.6,1.8,3.2,1.2,4.7c-5.9,18.9-27.7,23.6-55.3,29.4c-15.9,3.2-32.9,21-47.7,39.9c15.9-13.7,33.5-26.3,50.6-29.9
	c3.5-0.5,7.1-1.6,10.6-2.1c22.9-4.7,44.7-8.9,52.4-26.3c0.6-1.6,1.8-2.6,3.5-3.2c0.6,0,1.2-0.5,1.8-0.5c1.2,0,1.8,0,2.9,0.5
	c7.6,3.7,16.5,6.3,24.7,7.4c2.9,0.5,5.3,2.6,5.3,5.3V228c0,1.6-1.2,3.7-2.9,4.7c-5.9,3.7-9.4,8.4-9.4,14.2c0,4.2,1.8,8.4,5.3,11
	c2.9,2.6,7.6,4.7,12.4,4.7s8.8-1.6,12.4-4.7c3.5-3.2,5.3-6.8,5.3-11c0-5.8-3.5-10.5-8.8-13.7c-1.8-1.1-2.9-2.6-2.9-4.7v-19.4
	c0-2.6,2.4-4.7,5.3-5.3c12.4-1.6,24.7-6.3,34.7-13.1c2.4-1.6,5.9-1.6,7.6,0.5l15.3,13.7c1.8,1.6,2.4,3.2,1.8,5.3
	c-1.8,5.8,0,11,4.7,15.2c3.5,3.2,7.6,4.7,12.4,4.7c4.7,0,9.4-1.6,12.4-4.7c7.1-6.3,7.1-16.3,0-22.1c-4.7-4.2-10.6-5.3-17.1-4.2
	c-1.8,0.5-4.1,0-5.9-1.6L137,183.9c-2.4-2.1-2.4-4.7-0.6-6.8c7.6-8.9,12.4-20,14.1-31c0.6-2.6,2.9-4.7,5.9-4.7h21.8
	c1.8,0,4.1,1.1,5.3,2.6c3.5,5.3,8.8,8.4,15.3,8.4c4.7,0,9.4-1.6,12.4-4.7C214.7,145,216.5,140.8,216.5,136.6z"/>
<path class="st2" d="M211.2,125.6c3.5,3.2,5.3,6.8,5.3,11c0,4.2-1.8,8.4-5.3,11c-2.9,3.2-7.6,4.7-12.4,4.7c-6.5,0-11.8-3.2-15.3-7.9
	c-1.2-1.6-2.9-2.6-5.3-2.6h-21.8c-2.9,0-5.3,2.1-5.9,4.7c-1.8,11-7.1,22.1-14.1,31c-1.8,2.1-1.8,5.3,0.6,6.8l15.3,13.7
	c1.8,1.6,3.5,1.6,5.9,1.6c5.9-1.6,12.4,0,17.1,4.2c7.1,6.3,7.1,16.3,0,22.1c-3.5,3.2-7.6,4.7-12.4,4.7c-4.7,0-8.8-1.6-12.4-4.7
	c-4.7-4.2-5.9-9.5-4.7-15.2c0.6-1.6,0-3.7-1.8-5.3l-15.3-13.7c-2.4-1.6-5.3-2.1-7.6-0.5c-10,6.8-22.4,11-34.7,13.1
	c-2.9,0.5-5.3,2.6-5.3,5.3v19.4c0,1.6,1.2,3.7,2.9,4.7c5.3,2.6,8.8,7.4,8.8,13.1c0,4.2-1.8,8.4-5.3,11c-3.5,3.2-7.6,4.7-12.4,4.7
	s-9.4-1.6-12.4-4.7c-3.5-2.6-5.3-6.8-5.3-11c0-5.8,3.5-10.5,8.8-13.7c1.8-1.1,2.9-2.6,2.9-4.7v-19.4c0-2.6-2.4-4.7-5.3-5.3
	c-8.8-1.1-17.1-3.7-24.7-7.4c-0.6-0.5-1.8-0.5-2.9-0.5c-0.6,0-1.2,0-1.8,0.5c-1.8,0.5-2.9,1.6-3.5,3.2
	c-7.6,17.3-29.4,21.5-52.4,26.3c-3.5,0.5-7.1,1.6-10.6,2.1c-17.1,3.7-35.3,16.3-50.6,29.9c14.7-19.4,32.4-36.8,47.7-39.9
	c27.7-5.8,50-11,55.3-29.4c0.6-1.6,0-3.7-1.2-4.7c-10.6-10.5-17.7-23.1-20-36.8c-0.6-2.6-2.9-4.7-5.9-4.7h-21.8
	c-2.4,0-4.1,1.1-5.3,2.6c-2.9,4.2-8.2,7.4-14.7,7.4c-4.7,0-9.4-1.6-12.4-4.7c-3.5-3.2-5.3-6.8-5.3-11s1.8-8.4,5.3-11
	c3.5-3.2,7.6-4.7,12.4-4.7c6.5,0,11.8,3.2,15.3,7.9c1.2,1.6,2.9,2.6,5.3,2.6h21.8c2.9,0,5.3-2.1,5.9-4.7c1.8-11,7.1-22.1,14.7-31
	c1.8-2.1,1.8-4.7-0.6-6.8L-1.2,75.1C-3,73.6-4.8,73-7.1,73.6c-5.9,1.6-12.4,0-17.1-4.2c-3.5-3.2-5.3-6.8-5.3-11s1.8-8.4,5.3-11
	c3.5-3.2,7.6-4.7,12.4-4.7c4.7,0,9.4,1.6,12.4,4.7c4.7,4.2,5.9,9.5,4.7,15.2c-0.6,1.6,0,3.7,1.8,5.3l15.3,13.7
	c2.4,2.1,5.3,2.1,7.6,0.5c10-6.8,22.4-11.6,34.7-13.1c2.9-0.5,5.3-2.6,5.3-5.3V44.1c0-2.1-1.2-3.7-2.9-4.7
	c-5.9-2.6-9.4-7.4-9.4-13.1c0-4.2,1.8-8.4,5.3-11c3.5-3.2,7.6-4.7,12.4-4.7s9.4,1.6,12.4,4.7c3.5,2.6,5.3,6.8,5.3,11
	c0,5.8-3.5,10.5-8.8,13.7c-1.8,1.1-2.9,2.6-2.9,4.7v19.4c0,2.6,2.4,4.7,5.3,5.3c12.4,1.6,24.7,6.3,34.7,13.1
	c2.4,1.6,5.9,1.6,7.6-0.5l15.3-13.7c1.8-1.6,1.8-3.2,1.8-5.3c-1.8-5.8,0-11,4.7-15.2c7.1-6.3,18.2-6.3,24.7,0
	c7.1,6.3,7.1,16.3,0,22.6c-4.7,4.2-10.6,5.3-17.1,4.2c-1.8-0.5-4.1,0-5.9,1.6L137,89.8c-1.8,2.1-2.4,4.7-0.6,6.8
	c7.6,8.9,12.4,20,14.1,31c0.6,2.6,2.9,4.7,5.9,4.7h21.8c1.8,0,4.1-1.1,5.3-2.6c3.5-5.8,8.8-8.9,15.3-8.9
	C203.5,120.8,208.2,122.4,211.2,125.6z M128.2,136.6c0-26.3-23.5-47.3-53-47.3s-53,21-53,47.3s23.5,47.3,53,47.3
	S128.2,162.9,128.2,136.6z"/>
<path class="st1" d="M75.3,257.5c-2.9,0-5.9-1.1-8.2-3.2c-2.4-2.1-3.5-4.7-3.5-7.4c0-3.7,2.4-6.8,5.9-8.9c3.5-2.1,5.9-5.3,5.9-8.9
	v-19.4c0-5.3-4.1-9.5-10-10.5c-8.2-1.1-15.9-3.2-22.9-6.8c-1.8-1.1-3.5-1.1-5.3-1.1c-1.2,0-2.4,0-4.1,0.5c-3.5,1.1-5.9,3.2-7.1,6.3
	c-6.5,14.7-25.3,18.4-47.7,23.1c-3.5,0.5-7.6,1.6-11.2,2.1c-0.6,0-0.6,0-1.2,0.5c0.6,0,1.2,0,1.2-0.5c28.2-6.3,53-11.6,59.4-33.6
	c1.2-3.7,0-7.4-2.9-10c-10-9.5-16.5-21.5-18.2-34.2c-0.6-5.3-5.9-8.9-11.8-8.9l0,0c5.9,0,10.6-3.7,11.8-8.9
	c1.8-10.5,6.5-20.5,13.5-28.9c3.5-4.2,2.9-9.5-0.6-13.7c2.4,1.6,5.3,2.6,8.2,2.6c2.4,0,4.7-0.5,7.1-2.1c9.4-6.3,20.6-10.5,32.4-12.1
	c5.9-0.5,10-5.3,10-10.5V43.6c0-3.7-2.4-7.4-5.9-8.9c-3.5-2.1-5.9-5.3-5.9-8.9c0-2.6,1.2-5.3,3.5-7.4c1.8-1.6,4.7-2.6,7.6-2.6
	s5.9,1.1,8.2,3.2s3.5,4.7,3.5,7.4c0,3.7-2.4,6.8-5.9,8.9c-3.5,2.1-5.9,5.3-5.9,8.9v19.4c0,5.3,4.1,9.5,10,10.5
	c11.8,1.6,22.9,5.8,32.4,12.1c1.8,1.6,4.7,2.1,7.1,2.1c2.9,0,5.9-1.1,8.2-3.2l9.4-8.4l-9.4,8.4c-4.1,3.7-4.7,9.5-1.2,13.7
	c7.1,8.4,11.8,18.4,13.5,28.9c0.6,5.3,5.9,8.9,11.8,8.9h21.8c4.1,0,8.2-2.1,10-5.3c2.4-3.2,5.9-5.3,10-5.3c2.9,0,5.9,1.1,8.2,3.2
	c2.4,2.1,3.5,4.7,3.5,7.4s-1.2,5.3-3.5,7.4c-1.8,2.1-5.3,3.2-8.2,3.2c-4.1,0-7.6-2.1-10-5.3c-2.4-3.2-5.9-5.3-10-5.3H157
	c-5.9,0-10.6,3.7-11.8,8.9c-1.8,10.5-6.5,20.5-13.5,28.9c-3.5,4.2-2.9,9.5,0.6,13.1c-2.4-1.6-5.3-2.6-8.2-2.6
	c-2.4,0-4.7,0.5-7.1,2.1c-9.4,6.3-20.6,10.5-32.4,12.1c-5.9,0.5-10,5.3-10,10.5v19.4c0,3.7,2.4,7.4,5.9,8.9c3.5,2.1,5.9,5.3,5.9,8.9
	c0,2.6-1.2,5.3-3.5,7.4C81.1,256.4,78.2,257.5,75.3,257.5z M75.3,84.1c-32.4,0-58.8,23.6-58.8,52.5s26.5,52.5,58.8,52.5
	s58.8-23.6,58.8-52.5S107.6,84.1,75.3,84.1z M162.3,225.4c-2.9,0-5.9-1.1-8.2-3.2c-2.9-2.6-4.1-6.3-2.9-10c1.2-3.7,0-7.4-2.9-10
	c2.4,1.6,5.3,2.6,8.2,2.6c1.2,0,1.8,0,2.9-0.5c1.2-0.5,2.4-0.5,3.5-0.5c2.9,0,5.9,1.1,8.2,3.2c4.7,4.2,4.7,11,0,14.7
	C168.8,224.4,165.9,225.4,162.3,225.4z M-48.3,147.1c-2.9,0-5.9-1.1-8.2-3.2c-2.4-2.1-3.5-4.7-3.5-7.4c0-2.6,1.2-5.3,3.5-7.4
	c2.4-2.1,5.3-3.2,8.2-3.2c4.1,0,7.6,2.1,10,5.3s5.9,5.3,10,5.3c-4.1,0-8.2,2.1-10,5.3C-40.7,145-44.2,147.1-48.3,147.1z M148.8,70.9
	c2.9-2.6,3.5-6.3,2.9-10c-1.2-3.7,0-7.4,2.9-10c2.4-2.1,5.3-3.2,8.2-3.2c2.9,0,5.9,1.1,8.2,3.2c4.7,4.2,4.7,11,0,14.7
	c-2.4,2.1-5.3,3.2-8.2,3.2c-1.2,0-2.4,0-2.9-0.5c-1.2,0-2.4,0-3.5,0C153.5,68.3,151.2,69.4,148.8,70.9z M1.7,70.9
	c-2.4-1.6-5.3-2.6-8.2-2.6c-1.2,0-1.8,0-2.9,0.5s-2.4,0.5-3.5,0.5c-2.9,0-5.9-1.1-8.2-3.2c-2.4-2.1-3.5-4.7-3.5-7.4
	c0-2.6,1.2-5.3,3.5-7.4s5.3-3.2,8.2-3.2s5.9,1.1,8.2,3.2c2.9,2.6,4.1,6.3,2.9,10C-1.8,64.6-0.6,68.3,1.7,70.9z"/>
<path class="st3" d="M75.3,89.3c29.4,0,53,21,53,47.3s-23.5,47.3-53,47.3s-53-21-53-47.3S45.8,89.3,75.3,89.3z M116.4,136.6
	c0-18.4-15.3-33.6-34.7-36.3c6.5,4.7,11.2,12.1,11.2,20.5c0,14.7-12.9,26.3-29.4,26.3c-13.5,0-24.7-7.9-28.2-19.4
	c-0.6,3.2-1.2,5.8-1.2,8.9c0,20.5,18.2,36.8,41.2,36.8S116.4,157.1,116.4,136.6z M81.1,120.8c0-8.4-7.6-15.8-17.7-15.8
	s-17.7,7.4-17.7,15.8s7.6,15.8,17.7,15.8S81.1,129.3,81.1,120.8z"/>
<path class="st4" d="M81.7,100.4c19.4,2.6,34.7,17.9,34.7,36.3c0,20.5-18.2,36.8-41.2,36.8s-41.2-16.3-41.2-36.8
	c0-3.2,0.6-5.8,1.2-8.9c3.5,11,14.7,19.4,28.2,19.4c16.5,0,29.4-11.6,29.4-26.3C92.9,112.4,88.2,105.1,81.7,100.4z"/>
<ellipse class="st5" cx="63.5" cy="120.8" rx="17.7" ry="15.8"/>
</svg>
