<?xml version="1.0" encoding="utf-8"?>
<!-- Generator: Adobe Illustrator 19.0.0, SVG Export Plug-In . SVG Version: 6.00 Build 0)  -->
<svg version="1.1" id="Layer_1" xmlns="http://www.w3.org/2000/svg" xmlns:xlink="http://www.w3.org/1999/xlink" x="0px" y="0px"
	 viewBox="-193 -106 512 512" style="enable-background:new -193 -106 512 512;" xml:space="preserve">
<style type="text/css">
	.st0{fill:#FF5B62;}
	.st1{fill:#FF2939;}
	.st2{fill:none;}
	.st3{fill:#BADEDB;}
	.st4{fill:#F7D131;}
	.st5{fill:#BC8B0F;}
	.st6{fill:#FFFFFF;}
	.st7{fill:#DDD70E;}
</style>
<circle class="st0" cx="63" cy="150" r="256"/>
<ellipse class="st1" cx="63.6" cy="340" rx="163.6" ry="14.7"/>
<circle class="st2" cx="57.3" cy="134" r="170"/>
<path class="st3" d="M13,313.3l-0.2-74.7h-35.3c-16.1,0-29.2-13-29.2-29.2v-35.3c0,0-11.2,0.3-19.4,0c-27.3-1.1,20.4-74,20.4-84.7
	c0-64,60.5-97.9,115.5-97.9c78.8,0,120.1,60.7,120.1,128.9c0,38.7-9.3,65.1-43,87.8l0.2,105L13,313.3z"/>
<path class="st4" d="M13,313.3l-0.2-74.7h-35.3c-16.1,0-29.2-13-29.2-29.2v-35.3c0,0-11.2,0.3-19.4,0c-27.3-1.1,20.4-74,20.4-84.7
	c0-64,60.5-97.9,115.5-97.9c78.8,0,120.1,60.7,120.1,128.9c0,38.7-9.3,65.1-43,87.8l0.2,105"/>
<path class="st5" d="M13,320.4c-3.9,0-7.1-3.2-7.1-7.1l-0.2-67.6h-28.3c-20,0-36.2-16.2-36.3-36.3v-28.1c-3.8,0-8.6,0-12.6-0.1
	c-5.2,0-10.1-2.6-12.8-7.1c-7.2-12.1,2.7-34.5,17.5-64.7c3.5-6.5,6.5-13.3,9-20.3c0-67.9,63.1-104.7,122.5-104.7
	c87.3,0,127.2,70.5,127.2,136c0,36.5-7.4,66.2-43,91.5l0.2,101.3c0,3.9-3.2,7.1-7.1,7.1l0,0c-3.9,0-7.1-3.2-7.1-7.1l-0.2-105
	c0-2.4,1.2-4.6,3.1-5.9c29.1-19.6,39.9-41.8,39.9-81.9c0-60.6-34.9-121.8-113-121.8C12.3-1.3-43.6,30.6-43.6,89.5
	c-1.9,9.3-5.4,18.1-10.4,26.2c-6.1,12.4-22.2,45.4-18,51.2l0,0c0.4,0.1,0.8,0.1,1.2,0.2c8,0.3,18.9,0,18.9,0c1.9-0.1,3.8,0.6,5.2,2
	c1.4,1.3,2.2,3.2,2.2,5.1v35.2c0,12.2,9.8,22.1,22,22.1c0,0,0,0,0,0h35.4c3.9,0,7.1,3.2,7.1,7.1l0.2,74.7
	C20.2,317.2,17,320.4,13,320.4L13,320.4z"/>
<path class="st6" d="M53,313.3V188.8l-64.2-49.9l-4.2,8.3c-5,10.1-17.3,14.1-27.3,9.1c-10.1-5-14.1-17.3-9.1-27.3l0,0l9.7-19.4
	c7.6-15.1,25.9-21.2,41-13.7c1.8,0.9,3.5,2,5.1,3.2l77.9,60.6c7.5,5.8,11.8,14.7,11.8,24.1v129.5H53z"/>
<circle class="st7" cx="-33.6" cy="137.2" r="8.5"/>
<path class="st7" d="M-16.3,101.4c4.7,0,8.5,3.8,8.5,8.5s-3.8,8.5-8.5,8.5c-4.7,0-8.5-3.8-8.5-8.5c0,0,0,0,0,0
	C-24.9,105.2-21.1,101.4-16.3,101.4z"/>
<circle class="st7" cx="9.3" cy="128.6" r="8.5"/>
</svg>
