<?xml version="1.0" encoding="utf-8"?>
<!-- Generator: Adobe Illustrator 19.0.0, SVG Export Plug-In . SVG Version: 6.00 Build 0)  -->
<svg version="1.1" id="Layer_1" xmlns="http://www.w3.org/2000/svg" xmlns:xlink="http://www.w3.org/1999/xlink" x="0px" y="0px"
	 viewBox="-193 -106 512 512" style="enable-background:new -193 -106 512 512;" xml:space="preserve">
<style type="text/css">
	.st0{fill:#FAD24D;}
	.st1{opacity:0;}
	.st2{fill:#FF4D4D;}
	.st3{fill:#0F7986;}
	.st4{fill:#F56464;}
	.st5{fill:#333333;}
</style>
<circle class="st0" cx="63" cy="150" r="256"/>
<g transform="translate(-919.604 -518.145)">
	<g class="st1">
	</g>
	<path class="st2" d="M971.2,737.5c-5-3.1-11.3-4.1-17.2-2.8c-6.8,1.6-13.4,4.1-19.3,7.4c-27.2,13.2-63.9,0-74.5-4.3
		c-2.2-1.1-4.8-1.4-7.3-0.9c-0.6,0.2-1.4,0.4-2.3,0.6c-2.1,0.4-4.2,1.1-6,2l5.9,4.1c4.3,3,5.8,8.1,3.7,12.5c-1.6,4.3-1.2,9,1.1,13.1
		c2.7,4.6,7.6,7.9,13.4,9.1c21.8,5.2,71.8-6.4,72.3-6.5c1.8-0.4,3.6,0.5,4.1,2c0.1,0.2,0.1,0.4,0.1,0.7l1.6,45.5h32.1
		c0-9.2,0.1-17.7,0.3-25.1C979.9,761.5,980.2,743.1,971.2,737.5z"/>
	<path class="st3" d="M986.6,826.2h-46.8l-1.7-47.3c-15,3.2-51.9,10-71.3,5.4c-14.8-3.1-23.9-16-20.2-28.6c0.2-0.5,0.3-1.1,0.5-1.6
		c1.1-1.9,0.5-4.2-1.3-5.6l-14.1-9.8l9-4.7c2.6-1.4,5.5-2.3,8.5-2.9c0.4-0.1,1-0.2,1.5-0.4c4.5-1,9.2-0.5,13.2,1.4
		c9.4,3.8,43.2,15.9,67.1,4.3c6.5-3.6,13.6-6.3,21-8c8.1-1.8,16.8-0.4,23.6,3.8l0,0c12.1,7.6,11.8,26,11.2,62.5l-0.1,3.5
		c-0.1,6.5-0.2,13.7-0.2,21.5L986.6,826.2z M954.2,813.5h17.5c0-5.4,0.1-10.5,0.2-15.2v-3.6c0.5-27,0.8-48.3-5.1-52.1
		c-3.1-2-7.2-2.6-10.9-1.8c-6.1,1.4-11.8,3.6-17.1,6.6c-27.4,13.3-61.2,3.9-77.9-2.4c2.2,4.3,2.3,9.1,0.2,13.4
		c-0.8,2.6-0.5,5.4,0.9,7.8c1.7,2.9,4.8,5,8.5,5.8c15.6,3.7,50.4-2.3,68.5-6.5c5.8-1.4,11.7,1.5,13.3,6.4c0,0,0,0,0,0.1l0.4,2.2
		L954.2,813.5z M943.1,777.8L943.1,777.8z"/>
	<path class="st3" d="M1086.7,719c-0.1-15.8,5.2-31.3,15.3-44.5c6.6-9.1,11.5-19.1,14.3-29.6c18.7-74.9-37.1-120.4-100.6-132.3
		c-70.6-13.2-152.4,12.7-172.3,88.1c-1.9,10.9-0.3,22.1,4.6,32.3c1.8,3,2.7,6.4,2.8,9.8c-0.1,2.7-1.1,5.3-3,7.5l-29.9,32.1
		c-1.2,2.3-1,5,0.3,7.3c1.2,2.3,3.4,4.1,6.2,4.9c2,0.3,4.6,0.8,7.3,1.3c4.3,0.8,8.7,1.6,12.5,2c1.7,0.2,3.3,1,4.3,2.2
		c1,1.2,1.4,2.7,1.1,4.2l0,0c0,0.2-0.1,0.4-0.2,0.6c-0.4,3.3-1.3,6.6-2.7,9.8l-5.1,5.3c-0.3,0.3-0.4,0.7-0.2,1.1
		c0.7,1.6,5.3,1.1,7.7,0.5c1.9-0.8,3.7-1.5,5.3-2.2c7.1-3.5,15.1-5.4,23.3-5.6c3.8-0.1,8,0.1,13.4,0.3c5.4,0.3,11.8,0.6,19.9,0.6
		c10.9-0.3,21.7-1.4,32.3-3.3c21.8-3.3,42.5-6.4,54.3,2.2c6.5,5.4,9.7,13,8.7,20.7c-0.6,39.9-0.5,76.5-0.4,85.7h89.3
		C1093.6,806.8,1087.1,756.6,1086.7,719z"/>
	<path class="st3" d="M1103.6,826.3H998.5V820c-0.1-13.2-0.1-47.9,0.4-85.8c0.9-5.9-1.5-11.8-6.5-16c-8.8-6.4-27.7-3.5-47.8-0.5
		c-11,1.9-22.1,3-33.4,3.4c-8.5-0.1-15.1-0.4-20.6-0.6c-5.1-0.3-9.2-0.4-12.7-0.3c-7,0.1-13.8,1.7-19.8,4.7
		c-2.1,0.9-3.9,1.7-5.9,2.5c-9.2,2.4-15.7,0.7-17.8-4c-1.1-2.5-0.5-5.4,1.5-7.5l4.1-4.3c0.9-2.4,1.6-4.8,1.9-7.3v-0.4
		c-3.9-0.3-7.8-0.9-11.7-1.7c-2.8-0.5-5.3-1-7.2-1.3l-1.1-0.3c-4.7-1.4-8.6-4.5-10.6-8.4c-2.2-3.8-2.4-8.3-0.4-12.2l1-1.5l30-32.1
		c0.9-1.1,1.4-2.3,1.4-3.6c-0.1-2.4-0.8-4.7-2-6.9c-5.5-11.4-7.4-23.8-5.3-36c21.1-79.8,107.1-107.3,181.4-93.4
		c67.1,12.6,126,60.7,106.3,139.8c-3.1,11.2-8.2,21.9-15.3,31.6c-9.4,12.2-14.3,26.5-14.2,41.1c0.3,33.3,5.5,77.1,8.5,100.3
		L1103.6,826.3z M1013.4,813.6h73.6c-3.1-24.5-7.4-63.7-7.7-94.5l0,0c-0.2-17.1,5.6-33.8,16.5-48.1c6.1-8.5,10.6-17.8,13.3-27.6
		c17.6-70.4-35-113.4-95-124.6c-67-12.6-144.6,12-163.4,83.2c-1.5,9.6-0.1,19.4,4.2,28.4c2.2,3.8,3.3,7.9,3.3,12.1
		c0,4.1-1.6,8.1-4.5,11.4l-29.2,31.4c-0.1,0.4,0,0.9,0.3,1.3c0.3,0.7,0.9,1.3,1.6,1.7c2,0.3,4.3,0.7,6.7,1.2c4.3,0.8,8.4,1.5,11.9,2
		c3.7,0.4,7.1,2.2,9.3,4.8c2.2,2.6,3.1,5.9,2.5,9l-0.2,0.9c-0.3,1.8-0.6,3.6-1.1,5.4c6.9-2.7,14.4-4.1,22-4.3
		c3.9-0.1,8.3,0.1,14,0.4c5.3,0.2,11.6,0.6,19.5,0.6c10.3-0.3,20.6-1.4,30.8-3.2c23.8-3.6,46.1-6.9,60.6,3.6
		c8.4,6.7,12.6,16.4,11.3,26.2C1013.4,767.2,1013.4,797.5,1013.4,813.6L1013.4,813.6z M847.6,723.8l-0.1,0.2L847.6,723.8z"/>
	<path class="st2" d="M853,732.1c3.5-0.4,7,0.2,10.2,1.6c9.8,4.3,43.8,17.3,68.2,4.8c18.5-9.5,31-13.1,43.9-4.5
		c11.7,7.8,11.5,27.2,11,65.8c-0.1,7.9-0.2,16.8-0.3,26.6h13.3c0-9.9-0.1-48.7,0.4-91c0.8-6.3-1.5-12.6-6.4-17.2
		c-9.4-7.3-29.4-4.1-48.8-1c-10.8,2-21.8,3.2-32.8,3.6H911c-8.2-0.1-14.8-0.4-20.2-0.7c-5.3-0.3-9.3-0.5-12.8-0.4
		c-7.2,0.1-14.3,1.9-20.5,5.3c-1.5,0.7-3,1.4-4.7,2.1C853.2,728.6,853.3,730.4,853,732.1z"/>
	<path class="st4" d="M1099.1,825.6"/>
	<path class="st4" d="M943.1,825.6L943.1,825.6z"/>
	<path class="st4" d="M1100,825.5l-0.3,0.1L1100,825.5z"/>
	<path class="st4" d="M1100.6,825.3l-0.3,0.1L1100.6,825.3z"/>
	<path class="st4" d="M940.7,823.9c0-0.1-0.1-0.2-0.1-0.3C940.6,823.7,940.6,823.8,940.7,823.9z"/>
	<path class="st4" d="M942.4,825.4l-0.2-0.1L942.4,825.4z"/>
	<path class="st4" d="M941,824.4c-0.1-0.1-0.1-0.1-0.1-0.2C940.9,824.2,940.9,824.3,941,824.4z"/>
	<path class="st4" d="M941.9,825.1l-0.2-0.1L941.9,825.1z"/>
	<path class="st4" d="M1101.2,825l-0.3,0.1L1101.2,825z"/>
	<path class="st4" d="M1102,824.2c0,0.1-0.1,0.2-0.2,0.2C1101.8,824.5,1102,824.3,1102,824.2z"/>
	<path class="st4" d="M1101.6,824.6l-0.2,0.2L1101.6,824.6z"/>
	<path class="st4" d="M1102.3,823.7c0,0.1-0.1,0.2-0.1,0.3L1102.3,823.7z"/>
	<path class="st4" d="M1102.4,823.2v0.3C1102.4,823.3,1102.4,823.2,1102.4,823.2z"/>
	<path class="st4" d="M1102.5,822.7L1102.5,822.7z"/>
	<path class="st4" d="M941.4,824.8l-0.2-0.2L941.4,824.8z"/>
	<path class="st4" d="M940.5,823.4v-0.3C940.5,823.2,940.5,823.3,940.5,823.4z"/>
	<path class="st5" d="M941.4,824.8l0.3,0.2l0.2,0.1c0.1,0.1,0.2,0.1,0.3,0.2l0.2,0.1c0.1,0,0.3,0.1,0.5,0.1h0.2
		c0.2,0,0.4,0.1,0.7,0.1h0.1C943.9,825.6,941.3,824.7,941.4,824.8z"/>
</g>
</svg>
