<?xml version="1.0" encoding="utf-8"?>
<!-- Generator: Adobe Illustrator 19.0.0, SVG Export Plug-In . SVG Version: 6.00 Build 0)  -->
<svg version="1.1" id="Layer_1" xmlns="http://www.w3.org/2000/svg" xmlns:xlink="http://www.w3.org/1999/xlink" x="0px" y="0px"
	 viewBox="-193 -106 512 512" style="enable-background:new -193 -106 512 512;" xml:space="preserve">
<style type="text/css">
	.st0{fill:#21D0C3;}
	.st1{fill:#F15A22;}
	.st2{fill:#D2333C;}
	.st3{fill:#F7C90D;}
	.st4{fill:#005A9E;}
</style>
<circle class="st0" cx="63" cy="150" r="256"/>
<rect x="1263" y="-98" class="st1" width="4.8" height="7.3"/>
<path class="st2" d="M-16.6-57.2c-1.9,2.4-4.5,24-4.4,37.4c0,5.4,0,10.4,0,11.1c0,1-0.7,1.2-3.8,1.2h-3.8l-0.3,4.7
	c-0.1,2.6,0.1,6.3,0.6,8.2c0.5,1.9,1.2,5.3,1.6,7.5c1.7,9.2,9.6,28.4,14,34.1c0.8,1,1.4,2.1,1.4,2.6c0,0.7,10.5,11.5,15,15.5
	c2.1,1.9,11,8.1,13.8,9.6c1.7,1,4.6,2.5,6.3,3.5c5.2,2.8,23.2,10.1,30.5,12.2c2.3,0.7,5.2,1.8,6.3,2.5c1.2,0.7,3.3,1.6,4.7,2
	c3.6,1,9,6.1,11.4,11c5.7,11.2,1,56.4-8,76.3c-0.7,1.6-1.5,3.7-1.8,4.6c-2.3,7.7-13.9,26.5-21.7,35.1c-10.9,12-16.2,16.2-33.7,26.9
	c-5,3.1-11.1,7-13.6,8.7c-13.6,9.6-49.5,12.9-66,6.1c-15.6-6.5-26.3,6.8-18.4,22.7c1.2,2.4,2.2,4.5,2.2,4.7c0,2.9,16.8,21,23.8,25.6
	c0.9,0.6,2,1.4,2.4,1.8c2.1,2,19.5,12.6,26.1,15.9c9,4.5,20.7,8.5,36.1,12.4c50.4,12.5,96.2-4.4,140.1-51.6
	c11.5-12.4,13.2-14.3,18.8-21.6c3-3.9,5.8-7.5,6.3-8.1c2.8-3.5,7.7-10.8,9.4-14.1c1.1-2.1,3.5-6.5,5.3-9.8
	c18.3-33.7,23.6-74.8,16-123.2c-1-6.3-2.7-13.7-3.8-16.5c-0.5-1.4-2-5.1-3.3-8.4c-4.6-11.7-13-24.3-20.3-30.1
	c-1.8-1.4-3.6-2.9-4.1-3.4c-2.2-2.1-14.4-7.3-19.3-8.3c-16.8-3.4-30.9,0.8-49.5,14.8C86.4,76.7,85,77.2,70.7,76.2
	c-15.1-1.1-22.9-3.8-36.5-12.8C28.9,60,19,50.6,19,49c0-0.5-1-1.8-2.2-3C10,39.6,0.3,21-1.3,11.4c-0.4-2.1-1-4.8-1.5-6
	C-3.2,4.2-3.8,0.9-4.1-2l-0.4-5.3l-4.9-0.2c-2.8-0.1-5.1-0.6-5.4-1.1c-1.6-2.5,0.5-38.1,2.7-45.8C-11.4-56.9-15-59.3-16.6-57.2"/>
<path id="path0" class="st3" d="M95.9,179.8c-0.4,0.5-1.1,2.8-1.6,5.1c-6.8,33.4-31.8,58.4-65.6,65.7c-2.9,0.6-6.5,1.5-7.8,1.9
	c-41.9,12.8-45.5,73.2-5.1,86.7c15.9,5.3,42.7,1,52.9-8.5c1-0.9,3.1-2.8,4.6-4.1c3.1-2.6,9.8-10.7,11.3-13.6
	c13.8-26.5,18.1-48.5,17.4-89.5C101.3,187.4,99.6,175.2,95.9,179.8 M36.8,266.2c16.9,8.3,5.5,34.6-14.2,33
	C6.9,298,1.8,282.9,13,271.1c1.6-1.7,3.1-3,3.5-3c0.3,0,1-0.5,1.5-1.1C20.9,263.5,30.5,263.1,36.8,266.2 M24.2,270.7
	c-11.1,3.7-14.9,17.5-5.8,21.3c14.5,6.1,29.1-14.3,14.9-20.9C29.2,269.2,28.7,269.2,24.2,270.7"/>
<path class="st4" d="M206.2,237.5c-0.5-4.4-2.6-8.5-6.1-11.5c-3.4-3-7.6-4.7-11.9-4.6l0,0l-71.2-2.8l12.7-7.8l56.8-4.4l0,0
	c8.9-0.2,15.5-7.6,14.4-16.6c-0.5-4.4-2.6-8.5-6.1-11.5c-3.5-3.1-7.8-4.6-12.2-4.5c-9,0.1-15.6,7.6-14.6,16.6
	c0.5,4.4,2.6,8.5,6.1,11.5c0.2,0.2,0.3,0.2,0.5,0.4L15.4,214.6c-1.3,0.2-2.2,1.2-2.1,2.6c0.1,1.4,1.4,2.3,2.7,2.5l161.4,6.5
	c-0.2,0.2-0.3,0.3-0.4,0.4c-2.7,3.1-4,7.3-3.6,11.6c0.5,4.4,2.6,8.5,6.1,11.5c3.4,3,7.8,4.6,12.2,4.5c4.5-0.1,8.3-1.9,11.1-5.1
	C205.4,245.9,206.6,241.8,206.2,237.5z M173.1,190.5c-0.7-6.3,3.9-11.4,10.1-11.4c3.1,0,6,1.1,8.4,3.2c2.4,2.1,3.8,4.8,4.2,7.9
	c0.7,6.3-3.9,11.4-10.1,11.4c-3.1,0-6-1.1-8.4-3.2C174.9,196.3,173.5,193.4,173.1,190.5z M123.9,211.2l-11.6,7.1l-53.2-2.2
	L123.9,211.2z M191,249c-3,0.1-6-1.1-8.4-3.2s-3.8-4.8-4.2-7.9s0.5-5.9,2.4-8.1s4.6-3.4,7.7-3.4c3-0.1,6,1.1,8.4,3.2
	c2.4,2.1,3.8,4.8,4.2,7.9c0.4,3.1-0.5,5.9-2.4,8.1C196.6,247.8,194,248.9,191,249z"/>
</svg>
