<?xml version="1.0" encoding="utf-8"?>
<!-- Generator: Adobe Illustrator 19.0.0, SVG Export Plug-In . SVG Version: 6.00 Build 0)  -->
<svg version="1.1" id="Layer_1" xmlns="http://www.w3.org/2000/svg" xmlns:xlink="http://www.w3.org/1999/xlink" x="0px" y="0px"
	 viewBox="-193 -106 512 512" style="enable-background:new -193 -106 512 512;" xml:space="preserve">
<style type="text/css">
	.st0{fill:#FF5B62;}
	.st1{fill:#FFFFFF;}
	.st2{fill:#56ACE0;}
	.st3{fill:#194F82;}
	.st4{fill:#FFC10D;}
</style>
<circle class="st0" cx="63" cy="150" r="256"/>
<g>
	<path class="st1" d="M181.8,155.2c31.2,0,57.6-40.8,57.6-88.9s-26.4-89-57.6-89C165-23.2,156.3-7.9,157.8,27
		c1.1,27.1,0,50.5-3.4,71.6C150.9,131.1,155.2,155.2,181.8,155.2z"/>
	<path class="st1" d="M-94.1,116.4h-8.4c10.6,23.3,28,38.8,47.3,38.8c26.5,0,30.9-24.1,27.5-56.6C-31.1,77.5-32.2,54-31.1,27
		c1.6-35-7.1-50.2-24.1-49.7c-26.3,0-49,28.6-55.7,66.4h42.4c6.7,0,12.1,5.4,12.1,12.1c0,6.7-5.4,12.1-12.1,12.1h-44.3
		c0.1,8.3,0.9,16.4,2.6,24.2H-94c6.7,0,12.1,5.4,12.1,12.1C-81.9,110.9-87.4,116.4-94.1,116.4z"/>
</g>
<g>
	<path class="st2" d="M-55.2,131c-13.6,0-33.5-25.2-33.5-64.7c0-37.6,17.9-62.2,31.4-64.5c1,3.5,2.4,10.8,1.8,24.3
		c-1.2,28.6-0.3,53.8,3.8,76.5C-47.5,125.7-54,131-55.2,131z"/>
	<path class="st2" d="M179.7,130.7c-1.3-2.1-4.1-10.7-1.3-28.2c3.7-22.8,4.9-47.8,3.8-76.5C181.7,12.5,183,5.2,184,1.6
		c13.5,2.3,33.7,27.1,31.4,64.5C211.5,130.7,180.1,130.8,179.7,130.7z"/>
</g>
<path class="st3" d="M181.8-46.9c-35-0.4-48.7,27.7-48.2,75c0.3,5.4,0.3,10.6,0.4,15.7h-10.4c-25.1,0-45.5,20.4-45.5,45.5v100.5
	c-9.7,0.1-19.7,0.1-29.4,0V89.2c0-25.1-20.4-45.5-45.5-45.5H-7.3c0-5.1,0.1-10.3,0.4-15.7c0.5-47.2-13.1-75.5-48.2-75
	c-45.3,0-82.1,50.8-82.1,113.2s36.9,113.2,82.1,113.2c43.4-3.5,57.9-34.2,51.3-84.6c-1.4-8.5-2.2-17.5-2.8-26.9h9.8
	c11.8,0,21.3,9.5,21.3,21.3v100.3c-30.7,0.1-76,2.9-76,51.3c0,40.5,31.7,75.7,78.3,88.2v47.9c0,6.7,5.4,12.1,12.1,12.1h49
	c6.7,0,12.1-5.4,12.1-12.1V329c46.5-12.6,78.2-47.7,78.2-88.2c0-48.3-45.2-51-75.9-51.3V89.2c0-11.8,9.5-21.3,21.3-21.3h9.7
	c-0.6,9.4-1.4,18.5-2.8,26.9c-6.5,50.5,8,81.1,51.3,84.6c45.2,0,82-50.8,82-113.2S226.9-46.9,181.8-46.9z M-55.2,155.2
	c-19.3,0-36.8-15.7-47.3-38.8h8.4c6.7,0,12.1-5.4,12.1-12.1c0-6.7-5.4-12.1-12.1-12.1h-16.2c-1.6-7.8-2.4-15.9-2.6-24.2h44.4
	c6.7,0,12.1-5.4,12.1-12.1c0-6.7-5.4-12.1-12.1-12.1h-42.3c6.7-37.7,29.4-66.4,55.7-66.4C-38.3-23.2-29.5-8-31,26.9
	c-1.1,27.1,0,50.5,3.4,71.6C-24.3,131.1-28.6,155.2-55.2,155.2z M153.9,240.8c0,31.6-28.1,58.9-68.3,66.8c-5.7,1.1-9.8,6.1-9.8,11.9
	v45.4H51.1v-45.4c0-5.8-4.1-10.8-9.8-11.9c-40.3-7.8-68.4-35.2-68.4-66.8c0-19,7.9-27.1,57.1-27.1H97
	C146,213.7,153.9,221.7,153.9,240.8z M181.8,155.2c-26.5,0-30.9-24.1-27.5-56.6c3.4-21.2,4.5-44.7,3.4-71.6
	c-1.6-35,7.1-50.2,24.1-49.7c31.2,0,57.6,40.8,57.6,88.9S213.1,155.2,181.8,155.2z"/>
<path class="st4" d="M75.9,364.8v-45.4c0-5.8,4.1-10.8,9.8-11.9c40.3-7.8,68.3-35.2,68.3-66.8c0-19-7.9-27.1-57.1-27.1H29.8
	c-49.2,0-57.1,8-57.1,27.1c0,31.6,28.1,58.9,68.4,66.8c5.7,1.1,9.8,6.1,9.8,11.9v45.4H75.9z"/>
</svg>
