<?xml version="1.0" encoding="utf-8"?>
<!-- Generator: Adobe Illustrator 19.0.0, SVG Export Plug-In . SVG Version: 6.00 Build 0)  -->
<svg version="1.1" id="Layer_1" xmlns="http://www.w3.org/2000/svg" xmlns:xlink="http://www.w3.org/1999/xlink" x="0px" y="0px"
	 viewBox="-193 -106 512 512" style="enable-background:new -193 -106 512 512;" xml:space="preserve">
<style type="text/css">
	.st0{fill:#FF5B62;}
	.st1{fill:#194F82;}
	.st2{fill:#56ACE0;}
	.st3{fill:#FFC10D;}
</style>
<circle class="st0" cx="63.2" cy="150" r="256"/>
<path class="st1" d="M238.9,105.6c9-15.8,9.9-35.2,1.9-52.1c-9.4-19.8-30-32.4-51.7-31.8c1.3-17.5-5.6-35.3-19.3-47.1
	c-10-8.7-30.8-19.4-58.1-8.7c-5.8-8-15-12.8-25.8-12.8c-8,0-16.3,2.8-22.6,8.3C56.9-44.2,48.7-47,40.7-47c-10.8,0-20,4.8-25.8,12.8
	c-27.3-10.7-48,0.1-58.1,8.7C-57-13.6-63.8,4.1-62.5,21.7c-21.8-0.5-42.3,12-51.7,31.8c-8,17-7.1,36.3,1.9,52.1
	c-14.8,12-22.7,31.3-20.2,51c2.7,20.8,16.4,37.9,35.1,45.1c-4,13.9-2.5,28.9,4.5,42.1c7.9,14.9,21.9,25.2,38,28.4
	c0.9,15.7,8.3,30.5,20.6,40.5c12.4,10.1,29,14.3,44.7,11.4c4.5,13.1,16,21.4,30.1,21.4l0,0c8.1,0,16.4-3,22.7-8.7
	c6.3,5.6,14.6,8.7,22.7,8.7l0,0c14.2,0,25.7-8.3,30.1-21.4c15.7,2.9,32.3-1.2,44.7-11.4c12.3-10,19.7-24.8,20.6-40.5
	c16.1-3.2,30.1-13.5,38-28.4c7-13.1,8.4-28.2,4.5-42.1c18.6-7.2,32.4-24.2,35.1-45.1C261.6,136.9,253.7,117.6,238.9,105.6z
	 M52.4,129.9h-8v-17.7c0-15.3-12.3-27.7-27.4-27.7c-6,0-10.9,4.8-10.9,10.9c0,6,4.8,10.9,10.9,10.9c3.1,0,5.6,2.7,5.6,5.9v23.6
	C6.8,147.7,4,166.1,12.8,181.6c2.7,5.2,9.8,6.7,15,3.7c5.2-3.1,6.8-9.8,3.7-15c-4.8-9.2,1.3-18.4,10.1-18.7h10.8v160.3
	c0,9.2-7.8,11.6-11.8,11.6c-3,0-8.3-1.1-10-8.1c-0.4-1.6,1.4-12.5,1.4-12.5c2.6-9.8,0.1-20.1-6.6-27.6c-6.6-7.4-16.4-10.9-26.1-9.4
	c-5.9,0.9-10,6.4-9.2,12.3c0.9,5.9,6.5,10.1,12.3,9.2c3.6-0.5,5.9,1.5,6.7,2.4c2.3,2.9,2.3,8.6,0.6,11.8
	c-11.6,3.6-21.4,0.4-30.4-5.9c-8.3-6.7-12.9-17.1-12.6-27.7c8.9-7.2,14.5-17.5,16-28.8l11.4-5.3c7-3.3,15.9-0.6,19.1,7.5
	c3.2,6.3,8.3,7.5,14.3,5.7c5.6-2.4,8.1-8.7,5.7-14.3c-10-20.6-29.7-26.2-48.5-18.7l-4.9,2.3c-2.9-7.4-7.9-14-14.5-18.9
	c-4.8-3.6-11.6-2.7-15.3,2.1c-3.6,4.8-2.7,11.6,2.1,15.3c11.2,7.8,12,27,0.6,36.3c-11.4-1.1-21.3-7.6-26.6-17.7
	c-5.6-10.7-5.4-23.3,0.7-33.9l0,0l7.2-12.3c9.1-11.8,22.3-13.8,32.8-3.5c4,4.5,10.9,4.8,15.4,0.8s4.8-10.9,0.8-15.4
	c-5.4-5.9-12-10.1-19.5-12.3c2-11.4,8.3-21.7,17.7-28.4c4.8-3.6,6-10.3,2.5-15.2c-3.6-4.8-10.3-6-15.2-2.5
	c-15,10.8-24.6,27.4-27,45.6c-11.1,2.8-20.5,9.8-26.4,19.9l-3.2,5.4c-12.2-4-21.3-14.7-22.9-28.1c-1.9-14.6,5.5-28.8,18.4-35.2
	l20.7-6.7c18.2-6,28.6-24.8,24.2-43.6c-1.4-5.9-7.2-9.5-13.1-8.1c-5.9,1.4-9.5,7.2-8.1,13.1c1.7,7.6-2.5,15.5-9.8,17.9l-14.2,4.7
	c-5.9-9.9-6.8-22.1-1.7-32.9C-80.8,36.9-57,44.1-53.5,45.3L-32,64.4c15.2,13.8,38.8,13,51.7,1.5c4.7-3.7,5.5-10.6,1.7-15.3
	c-3.7-4.7-10.6-5.5-15.3-1.7c-7,5.6-17,5.2-23.7-0.7l-21.3-18.9c-4.9-13.4-1.2-29,9.6-38.3c9.2-9.2,26.4-11.6,39.7-2.7
	c3.2,12-4.8,21-13.9,22.4c-5.9,0.9-10,6.5-9.1,12.4c0.8,5.4,5.5,9.2,10.7,9.2c0.5,0,1.1,0,1.6-0.1c23.9-4.3,38-27.5,31.7-49.7
	c0,0-1.1-7.5,8.9-8c4-0.1,11.8,2.4,11.8,11.6v143.7L52.4,129.9L52.4,129.9z M237.4,153.8c-1.7,13.4-10.8,24-22.9,28.1l-3.2-5.4
	c-5.9-10.1-15.4-17.1-26.4-19.8c-2.3-18.2-12-34.9-27-45.6c-4.8-3.5-11.6-2.4-15.2,2.5c-3.6,4.8-2.4,11.6,2.5,15.2
	c9.4,6.8,15.7,17.1,17.7,28.4c-7.4,2.1-14.1,6.3-19.5,12.3c-4,4.5-3.7,11.4,0.8,15.4s11.4,3.7,15.4-0.8c10.5-10.3,23.8-8.3,32.8,3.5
	l7.2,12.3l0,0c6.1,10.5,6.3,23.2,0.7,33.9c-5.3,10.1-15.3,16.6-26.6,17.7c-11.4-9.4-10.7-28.4,0.6-36.3c4.8-3.6,5.8-10.4,2.1-15.3
	c-3.6-4.8-10.4-5.8-15.3-2.1c-6.6,4.9-11.5,11.5-14.5,18.9l-4.9-2.3c-18.9-7.5-38.5-1.9-48.5,18.7c-2.4,5.6,0.3,12,5.7,14.3
	c6.1,1.7,11.1,0.5,14.3-5.7c3.2-8.1,12.2-10.9,19.1-7.5l11.4,5.3c1.5,11.3,7.1,21.5,16,28.8c0.3,10.7-4.3,21.1-12.6,27.7
	c-9,6.3-18.7,9.6-30.4,5.9c-1.7-3.2-1.7-8.9,0.6-11.8c0.8-0.9,3.1-2.9,6.7-2.4c5.9,0.9,11.5-3.2,12.3-9.2c0.9-5.9-3.2-11.5-9.2-12.3
	c-9.8-1.5-19.5,2.1-26.1,9.4c-6.7,7.5-9.2,17.8-6.6,27.6c0,0,1.7,11,1.4,12.5c-1.6,7.1-7,8.1-10,8.1c-4.1,0-11.8-2.4-11.8-11.6
	V151.7h10.8c8.7,0.3,14.9,9.5,10.1,18.7c-3.1,5.2-1.5,11.9,3.7,15c5.2,3,12.3,1.6,15-3.7c8.9-15.5,5.9-33.9-9.8-45.8v-23.6
	c0-3.2,2.5-5.9,5.6-5.9c6,0,10.9-4.8,10.9-10.9c0-6-4.8-10.9-10.9-10.9c-15.1,0-27.4,12.4-27.4,27.7v17.5h-8V-13.7
	c0-9.2,7.6-11.8,11.8-11.6c10,0.5,8.9,8,8.9,8c-6.3,22.1,7.9,45.3,31.7,49.7c0.5,0.1,1.1,0.1,1.6,0.1c5.3,0,10-3.9,10.7-9.2
	c0.9-5.9-3.2-11.5-9.1-12.4c-9.1-1.4-17.1-10.3-13.9-22.4c13.4-9.1,30.5-6.6,39.7,2.7c10.9,9.4,14.6,24.9,9.6,38.3l-21.3,18.9
	c-6.7,5.9-16.6,6.3-23.7,0.7c-4.7-3.8-11.6-2.9-15.3,1.7c-3.7,4.7-2.9,11.6,1.7,15.3c12.9,11.5,36.5,12.3,51.7-1.5l21.5-19.1
	c3.5-1.2,27.3-8.4,41.1,17.5c5.1,10.7,4.3,23-1.7,32.9L205,91.1c-7.2-2.4-11.6-10.3-9.8-17.9c1.4-5.9-2.3-11.8-8.1-13.1
	c-5.9-1.3-11.8,2.3-13.1,8.1c-4.4,18.9,6,37.6,24.2,43.6l20.6,6.8C231.9,125,239.3,139.1,237.4,153.8z"/>
<path class="st2" d="M52.4,129.9V-13.7c0-9.2-7.6-11.8-11.8-11.6c-10,0.5-8.9,8-8.9,8c6.3,22.1-7.9,45.3-31.7,49.7
	c-0.5,0.1-1.1,0.1-1.6,0.1c-5.3,0-10-3.9-10.7-9.2c-0.9-6,3.2-11.6,9.1-12.5C5.9,9.3,13.9,0.4,10.7-11.7C-2.7-20.8-19.8-18.3-29-9.2
	c-10.9,9.4-14.6,24.9-9.6,38.3L-17.3,48c6.7,5.9,16.6,6.3,23.7,0.7c4.7-3.8,11.6-2.9,15.3,1.7c3.7,4.7,2.9,11.6-1.7,15.3
	C7,77.3-16.6,78.1-31.8,64.3l-21.5-19.1c-3.5-1.2-27.3-8.4-41.1,17.5c-5.1,10.7-4.3,23,1.7,32.9l14.2-4.7
	c7.2-2.4,11.6-10.3,9.8-17.9c-1.4-5.9,2.3-11.8,8.1-13.1c5.9-1.3,11.8,2.3,13.1,8.1c4.4,18.9-6,37.6-24.2,43.6l-20.8,6.8
	c-12.9,6.6-20.3,20.6-18.4,35.2c1.7,13.4,10.8,24,22.9,28.1l3.2-5.4c5.9-10.1,15.4-17.1,26.4-19.8c2.3-18.2,12-34.9,27-45.6
	c4.8-3.5,11.6-2.4,15.2,2.5c3.6,4.8,2.4,11.6-2.5,15.2c-9.4,6.8-15.7,17.1-17.7,28.4c7.4,2.1,14.1,6.3,19.5,12.3
	c4,4.5,3.7,11.4-0.8,15.4s-11.4,3.7-15.4-0.8c-10.5-10.3-23.8-8.3-32.8,3.5l-7.2,12.3l0,0c-6.1,10.5-6.3,23.2-0.7,33.9
	c5.3,10.1,15.3,16.6,26.6,17.7c11.4-9.4,10.7-28.4-0.6-36.3c-4.8-3.6-5.8-10.4-2.1-15.3c3.6-4.8,10.4-5.8,15.3-2.1
	c6.6,4.9,11.5,11.5,14.5,18.9l4.9-2.3c18.9-7.5,38.5-1.9,48.5,18.7c2.4,5.6-0.3,12-5.7,14.3c-6.1,1.7-11.1,0.5-14.3-5.7
	c-3.2-8.1-12.2-10.9-19.1-7.5l-11.4,5.3c-1.5,11.3-7.1,21.5-16,28.8c-0.3,10.7,4.3,21.1,12.6,27.7c9,6.3,18.7,9.6,30.4,5.9
	c1.7-3.2,1.7-8.9-0.6-11.8c-0.8-0.9-3.1-2.9-6.7-2.4c-5.9,0.9-11.5-3.2-12.3-9.2c-0.9-5.9,3.2-11.5,9.2-12.3
	c9.8-1.5,19.5,2.1,26.1,9.4c6.7,7.5,9.2,17.8,6.6,27.6c0,0-1.7,11-1.4,12.5c1.6,7.1,7,8.1,10,8.1c4.1,0,11.8-2.4,11.8-11.6V151.7
	H41.7c-8.7,0.3-14.9,9.5-10.1,18.7c3.1,5.2,1.5,11.9-3.7,15c-5.2,3-12.3,1.6-15-3.7c-8.9-15.5-5.9-33.9,9.8-45.8v-23.6
	c0-3.2-2.5-5.9-5.6-5.9c-6,0-10.9-4.8-10.9-10.9c0-6,4.8-10.9,10.9-10.9c15.1,0,27.4,12.4,27.4,27.7v17.5h7.9L52.4,129.9L52.4,129.9
	z"/>
<path class="st3" d="M157.9,110.9c15,10.8,24.6,27.4,27,45.6c11.1,2.7,20.5,9.8,26.4,19.8l3.2,5.4c12.2-4,21.3-14.7,22.9-28.1
	c1.9-14.6-5.5-28.8-18.4-35.2l-20.6-6.8c-18.2-6-28.6-24.8-24.2-43.6c1.4-5.9,7.2-9.5,13.1-8.1c5.9,1.4,9.5,7.2,8.1,13.1
	c-1.7,7.6,2.5,15.5,9.8,17.9l14.2,4.7c5.9-9.9,6.8-22.1,1.7-32.9c-13.8-25.9-37.6-18.7-41.1-17.5l-21.5,19.1
	c-15.2,13.8-38.8,13-51.7,1.5c-4.7-3.7-5.5-10.6-1.7-15.3c3.7-4.7,10.6-5.5,15.3-1.7c7,5.6,17,5.2,23.7-0.7l21.3-18.9
	c4.9-13.4,1.2-29-9.6-38.3c-9.2-9.2-26.4-11.6-39.7-2.5c-3.2,12,4.8,21,13.9,22.4c5.9,0.9,10,6.5,9.1,12.4
	c-0.8,5.4-5.5,9.2-10.7,9.2c-0.5,0-1.1,0-1.6-0.1C102.8,28,88.7,4.8,95-17.4c0,0,1.1-7.5-8.9-8c-4-0.1-11.8,2.4-11.8,11.6v143.6h8
	v-17.7c0-15.3,12.3-27.7,27.4-27.7c6,0,10.9,4.8,10.9,10.9c0,6-4.8,10.9-10.9,10.9c-3.1,0-5.6,2.7-5.6,5.9v23.6
	c15.8,11.9,18.6,30.3,9.8,45.8c-2.7,5.2-9.8,6.7-15,3.7c-5.2-3.1-6.8-9.8-3.7-15c4.8-9.2-1.3-18.4-10.1-18.7H74.3v160.3
	c0,9.2,7.8,11.6,11.8,11.6c3,0,8.3-1.1,10-8.1c0.4-1.6-1.4-12.5-1.4-12.5c-2.7-9.8-0.1-20.1,6.6-27.6c6.6-7.4,16.4-10.9,26.1-9.4
	c5.9,0.9,10,6.4,9.2,12.3c-0.9,5.9-6.5,10.1-12.3,9.2c-3.6-0.5-5.9,1.5-6.7,2.4c-2.3,2.9-2.3,8.6-0.6,11.8
	c11.6,3.6,21.4,0.4,30.4-5.9c8.3-6.7,12.9-17.1,12.6-27.7c-8.9-7.2-14.5-17.5-16-28.8l-11.4-5.3c-7-3.3-15.9-0.6-19.1,7.5
	c-3.2,6.3-8.3,7.5-14.3,5.7c-5.6-2.4-8.1-8.7-5.7-14.3c10-20.6,29.7-26.2,48.5-18.7l4.9,2.3c2.9-7.4,7.9-14,14.5-18.9
	c4.8-3.6,11.6-2.7,15.3,2.1c3.6,4.8,2.7,11.6-2.1,15.3c-11.2,7.8-12,27-0.6,36.3c11.4-1.1,21.3-7.6,26.6-17.7
	c5.6-10.7,5.4-23.3-0.7-33.9l0,0l-7.2-12.3c-9.1-11.8-22.3-13.8-32.8-3.5c-4,4.5-10.9,4.8-15.4,0.8s-4.8-10.9-0.8-15.4
	c5.4-5.9,12-10.1,19.5-12.3c-2-11.4-8.3-21.7-17.7-28.4c-4.8-3.6-6-10.3-2.5-15.2C146.2,108.4,153,107.3,157.9,110.9z"/>
</svg>
