<?xml version="1.0" encoding="utf-8"?>
<!-- Generator: Adobe Illustrator 19.0.0, SVG Export Plug-In . SVG Version: 6.00 Build 0)  -->
<svg version="1.1" id="Layer_1" xmlns="http://www.w3.org/2000/svg" xmlns:xlink="http://www.w3.org/1999/xlink" x="0px" y="0px"
	 viewBox="-193 -106 512 512" style="enable-background:new -193 -106 512 512;" xml:space="preserve">
<style type="text/css">
	.st0{fill:#FF5B62;}
	.st1{fill:#FFFFFF;}
	.st2{fill:#FFC10D;}
	.st3{fill:#194F82;}
	.st4{fill:#56ACE0;}
</style>
<circle class="st0" cx="63" cy="150" r="256"/>
<path class="st1" d="M203.4,121.2C203.4,50.3,145-7.3,73.1-7.3C1.4-7.3-57.1,50.3-57.1,121.2v17.5c0,2.2-0.7,4.3-2,5.9l-42.2,55.6
	h34.5c5.4,0,9.9,4.4,9.9,9.9v49.6c0,4,3.3,7.2,7.2,7.2h30.5c5.4,0,9.9,4.4,9.9,9.9v20.7c0,5.4,4.4,9.9,9.9,9.9H130
	c5.4,0,9.9-4.4,9.9-9.9c0-35,11.9-68.5,33.6-94.2C192.7,180.3,203.4,151.2,203.4,121.2z"/>
<path class="st2" d="M10.2,287.7v-40.3h-47.6v-66.7h-24.3l24.3-32v-27.4c0-60,49.6-108.9,110.6-108.9s110.6,48.9,110.6,108.9
	c0,25.3-9,50-25.4,69.4c-22.6,26.8-35.9,60.9-37.9,97L10.2,287.7L10.2,287.7z"/>
<g>
	<path class="st3" d="M73.1-27C-9.5-27-76.8,39.5-76.8,121.2v14.2l-52.2,68.8c-5.3,6.7,0.6,16.3,7.8,15.7h44.4v39.8
		c0,14.9,12.1,26.9,26.9,26.9h20.7v10.8c0,16.3,13.2,29.5,29.5,29.5h129.6c16.3,0,29.5-13.2,29.5-29.5c0-30.4,10.3-59.4,28.9-81.6
		c22.4-26.5,34.7-60.2,34.7-94.8C223.1,39.5,155.8-27,73.1-27z M173.3,203.3c-21.7,25.7-33.6,59.1-33.6,94.2c0,5.4-4.4,9.9-9.9,9.9
		H0.4c-5.4,0-9.9-4.4-9.9-9.9v-20.7c0-5.4-4.4-9.9-9.9-9.9h-30.6c-4,0-7.2-3.3-7.2-7.2v-49.6c0-5.4-4.4-9.9-9.9-9.9h-34.4l42.2-55.6
		c1.3-1.7,2-3.8,2-5.9v-17.5C-57.1,50.3,1.3-7.3,73.1-7.3c71.8,0,130.3,57.7,130.3,128.5C203.4,151.2,192.7,180.3,173.3,203.3z"/>
	<path class="st3" d="M67.2,121C66.8,121,67.7,121,67.2,121L67.2,121z"/>
	<path class="st3" d="M72.9,12.5c-64.7,0-94.5,48.1-103.1,69.9c-8.6,18.5,4.7,50.1,36.3,50.6c0,0,37.2-1.7,46.1,36.2
		c5.9,27.4,30.3,47.2,57.9,47.2c41,0,73.1-46.2,73.1-97.6C183.1,73.2,145.2,12.5,72.9,12.5z M149.2,102.9c-4.5-3-10.7-1.7-13.6,2.9
		c-4.7,7.2-5.7,15.8-2.6,23.8c3,8,9.4,13.9,17.6,16.3l8.7,2.5c-7.1,21.8-23.2,47-48.9,48.1c10.7-8.3,15.4-19.9,14.1-34.7
		c-1.8-11.7-9.3-21.7-20-26.8c-4.9-2.3-10.8-0.3-13.1,4.7c-2.3,4.9-0.2,10.8,4.7,13.1c4.9,2.3,8.2,6.8,9,12.1
		c1,10-4.2,15.6-16.5,25.2c-8.2-5.3-14.9-13.7-17.4-25.2C67.4,147,56,128.3,35.5,119.1c5.6-5.2,9.4-11.7,11.4-18.6H47
		c2.8-0.5,5.6,0.3,7.6,2.3c2,1.9,3.1,4.7,2.8,7.5c-0.6,5.4,4.4,10.3,9.7,10.8c5,0,9.2-3.8,9.7-8.8c1-9-2.3-17.7-8.9-23.8
		c-5.6-5.2-12.8-7.9-20.2-7.8c-1.2-6.1-3.8-12.1-7.8-17.4c-3.3-4.3-9.5-5.1-13.8-1.8c-4.3,3.3-5.1,9.5-1.8,13.8
		c7.4,9.6,5.6,23.4-4,30.8l-9.6,7.3c-13.1,1.8-28.3-10.2-22.9-23.9C-7.4,77.1-0.1,66.3,9.6,57.1C24.5,43,43.5,34.5,64,32.6
		c-3.3,17.3,10.4,34.6,31.4,31.9c5.4-0.9,8.9-6,8-11.4c-0.9-5.4-6-8.9-11.4-8c-2.4,0.4-4.7-0.3-6.5-1.9c-2.6-2.3-2.7-5.4-1.8-10.3
		c22,3.1,40.6,11.9,55.1,27.7c-21.3,2.1-34.7,17-37,36.1c-0.5,5.4,3.5,10.2,8.9,10.7c5,0,10.3-3.8,10.7-8.9
		c2.2-15.3,14.4-19.7,30.6-19.8c6.8,12.2,10.7,26,11.1,40.5c0.1,3.3,0,6.6-0.3,9.9l-7.2-2c-2.2-0.6-3.8-2.2-4.6-4.3
		c-0.8-2.1-0.6-4.3,0.7-6.2C155.1,112,153.8,105.9,149.2,102.9z"/>
</g>
<path class="st4" d="M151.4,122.8c0.8,2.1,2.4,3.6,4.6,4.3l7.2,2c0.3-3.3,0.4-6.5,0.3-9.9c-0.4-14.4-4.3-28.2-11.1-40.5
	c-16.2,0.1-28.5,4.4-30.6,19.8c-0.5,5.1-5.7,8.9-10.7,8.9c-5.4-0.5-9.4-5.3-8.9-10.7c2.3-19.1,15.7-34,37-36.1
	c-14.6-15.7-33.2-24.5-55.1-27.7c-0.9,4.9-0.8,7.9,1.8,10.3c1.7,1.7,4.1,2.4,6.5,1.9c5.4-0.9,10.4,2.6,11.4,8
	c0.9,5.4-2.6,10.4-8,11.4c-21,2.6-34.7-14.6-31.4-31.9C43.8,34.5,24.8,43,9.9,57.1c-9.7,9.2-17,20.1-21.7,32.4
	c-5.5,13.7,9.7,25.7,22.9,23.9l9.6-7.3c9.6-7.4,11.4-21.3,4-30.8c-3.3-4.3-2.5-10.4,1.8-13.8c4.3-3.3,10.4-2.5,13.8,1.8
	c4,5.3,6.6,11.3,7.8,17.4c7.5-0.2,14.6,2.5,20.2,7.8c6.5,6.2,9.9,14.9,8.9,23.8c-0.6,5-4.8,8.8-9.7,8.8c-5.4-0.6-10.4-5.5-9.7-10.8
	c0.3-2.8-0.7-5.5-2.8-7.5c-2-1.9-4.8-2.8-7.6-2.3h-0.1c-2,7-5.8,13.4-11.4,18.6c20.6,9.2,31.9,27.9,35.7,45.8
	c2.5,11.5,9.2,19.9,17.4,25.2c12.2-9.6,17.5-15.2,16.5-25.2c-0.8-5.4-4.1-9.7-9-12.1c-4.9-2.3-7-8.2-4.7-13.1s8.2-7,13.1-4.7
	c10.7,5.1,18.2,15.1,20,26.8c1.3,14.9-3.3,26.5-14.1,34.7c25.7-1.2,41.7-26.3,48.9-48.1l-8.7-2.5c-8.2-2.4-14.6-8.3-17.6-16.3
	c-3-8-2-16.7,2.6-23.8c3-4.5,9-5.8,13.6-2.9c4.5,3,5.8,9,2.9,13.6C150.9,118.4,150.6,120.7,151.4,122.8z"/>
<path class="st3" d="M111.1,107.5C110.9,107.5,111.5,107.5,111.1,107.5L111.1,107.5z"/>
</svg>
