<?xml version="1.0" encoding="utf-8"?>
<!-- Generator: Adobe Illustrator 19.0.0, SVG Export Plug-In . SVG Version: 6.00 Build 0)  -->
<svg version="1.1" id="Layer_1" xmlns="http://www.w3.org/2000/svg" xmlns:xlink="http://www.w3.org/1999/xlink" x="0px" y="0px"
	 viewBox="-193 -106 512 512" style="enable-background:new -193 -106 512 512;" xml:space="preserve">
<style type="text/css">
	.st0{fill:#F7B90D;}
	.st1{fill:#EDB937;}
	.st2{fill:#F9CFCF;}
	.st3{fill:#153F37;}
	.st4{fill:#F93110;}
</style>
<circle class="st0" cx="63" cy="150" r="256"/>
<ellipse class="st1" cx="62.5" cy="341.5" rx="164.5" ry="14.1"/>
<path class="st2" d="M63.2-45.4h-0.8h0C12.8-45.1-33.7-25.7-68.7,9.5c-35,35.1-54.3,81.8-54.3,131.4c0,16.5,2.2,32.5,6.2,47.8
	c-11.8,5.2-20.3,16.4-21.6,30.1c-0.9,9.8,2,19.3,8.2,26.9c6.2,7.6,15.1,12.2,24.8,13.2c1.2,0.1,2.3,0.2,3.5,0.2
	c6.4,0,12.4-1.6,17.6-4.4c34.1,44.2,87.5,72.7,147.5,72.7c61.2,0,118.6-30.1,153.4-80.6c21.5-31.2,32.9-67.7,32.9-105.7
	C249.5,38.2,166-45.4,63.2-45.4z"/>
<path class="st3" d="M63.2,311.8c-55.3,0-104.6-26.4-135.9-67.4c4-5.3,6.6-11.7,7.3-18.8c0.3-3.6,0.1-7.1-0.5-10.5l25.1-15.5
	c5.9,5.6,13.5,9.3,22.2,10.2c1.2,0.1,2.4,0.2,3.6,0.2c11.4,0,21.6-5,28.5-13.1l32.9,26.7c-1.7,3.8-2.9,8-3.3,12.4
	c-2,21.3,13.6,40.3,34.9,42.3c1.2,0.1,2.5,0.2,3.7,0.2c20.1,0,36.7-15.1,38.6-35.1c1-10.3-2.1-20.4-8.7-28.4
	c-6.6-8-15.9-12.9-26.2-13.9c-1.2-0.1-2.5-0.2-3.7-0.2c-10.2,0-19.4,3.9-26.3,10.3l-34.5-28c0.6-2.2,1.1-4.6,1.3-7
	c0.9-9.9-2-19.7-8.4-27.4c-5-6.1-11.7-10.4-19.3-12.3l3.3-35.1C16.3,99.8,31,85.4,32.7,66.6c2-21.2-13.6-40.1-34.8-42.1
	c-1.2-0.1-2.5-0.2-3.7-0.2c-20,0-36.5,15-38.4,35c-1,10.3,2.1,20.3,8.7,28.3c4.8,5.8,11.1,10,18.2,12.2l-3.4,35.9
	c-16.7,2.6-29.8,16.1-31.4,33.4c-0.6,6.3,0.4,12.5,2.7,18L-72,201c-6-8.4-15.4-14.3-26.4-15.3c-1.1-0.1-2.2-0.2-3.3-0.2
	c-3.9-14.2-5.9-29.2-5.9-44.6c0-91.2,72.2-166.3,162.4-170.7v170.7c0,2.5,1.2,4.9,3.3,6.3l141.4,96.9
	C167.2,286.7,116.9,311.8,63.2,311.8z"/>
<path class="st3" d="M208.2,231.5L70.1,136.8V-29.9c91.1,3.6,164.1,78.8,164.1,170.8C234.2,173.2,225.2,204.4,208.2,231.5z"/>
<path class="st4" d="M-102.5,258.9c-1.2,0-2.4-0.1-3.6-0.2c-9.9-0.9-18.9-5.6-25.3-13.2c-6.4-7.6-9.3-17.1-8.4-26.9
	c1.8-18.9,17.8-33.2,37.2-33.2c1.2,0,2.4,0.1,3.6,0.2c20.5,1.9,35.7,19.9,33.7,40C-67.2,244.7-83.2,258.9-102.5,258.9z"/>
<path class="st4" d="M81.1,278.9c-1.3,0-2.6-0.1-4-0.2c-10.9-1-20.7-6.2-27.7-14.5c-7-8.3-10.2-18.8-9.2-29.6
	c2-20.9,19.5-36.6,40.8-36.6c1.3,0,2.6,0.1,4,0.2c22.5,2.1,39.1,21.9,36.9,44.1C119.8,263.2,102.3,278.9,81.1,278.9z"/>
<path class="st4" d="M-5.9,100.8c-1.3,0-2.6-0.1-4-0.2c-10.9-1-20.7-6.2-27.7-14.5c-7-8.3-10.2-18.8-9.2-29.6
	c2-20.9,19.5-36.6,40.8-36.6c1.3,0,2.6,0.1,4,0.2C20.4,22.2,37,42,34.8,64.2C32.8,85.1,15.3,100.8-5.9,100.8z"/>
<path class="st4" d="M-13.4,212.9c-1.3,0-2.6-0.1-3.9-0.2c-10.8-1-20.5-6.2-27.4-14.5c-6.9-8.3-10.1-18.8-9.1-29.6
	c2-20.9,19.3-36.6,40.2-36.6c1.3,0,2.6,0.1,3.9,0.2c22.2,2.1,38.6,21.9,36.5,44.1C24.8,197.2,7.5,212.9-13.4,212.9z"/>
</svg>
