<?xml version="1.0" encoding="utf-8"?>
<!-- Generator: Adobe Illustrator 19.0.0, SVG Export Plug-In . SVG Version: 6.00 Build 0)  -->
<svg version="1.1" id="Layer_1" xmlns="http://www.w3.org/2000/svg" xmlns:xlink="http://www.w3.org/1999/xlink" x="0px" y="0px"
	 viewBox="-193 -106 512 512" style="enable-background:new -193 -106 512 512;" xml:space="preserve">
<style type="text/css">
	.st0{fill:#FF5B62;}
	.st1{fill:#194F82;}
	.st2{fill:#56ACE0;}
	.st3{fill:#FFC10D;}
</style>
<circle class="st0" cx="63" cy="150" r="256"/>
<path class="st1" d="M59.6,190.5l-35.4,7.6l0.5-19.5c0.1-5.9-4.5-10.8-10.3-11.1l-28.6-1.4c-3.1-0.1-6,1-8.3,3.2l-46.3,46.3
	c-15.7-7-36.9-4.6-50.7,9.6c-17.9,17.9-17.9,47.1,0,64.9c7.8,7.8,17.9,12.4,28.8,13.3c0.8,10.7,5.4,20.9,13.3,28.8
	c18.4,18.7,49.1,16.9,64.9,0c13.6-13.6,17.1-33.7,9.6-50.7l72.5-72.5C77.5,200.2,69.7,188.5,59.6,190.5z M-24.2,271.8
	c-3.8,3.8-4.3,9.6-1.2,14c6.8,9.6,5.7,22.6-2.7,30.9c-9.4,9.1-24.2,10-34.1,0c-5.9-5.9-8.3-14.4-6.3-22.6
	c1.7-9.1-5.9-14.7-13.1-13.1c-8,1.9-16.7-0.5-22.6-6.3c-9.4-9.4-9.4-24.6,0-34.1c8.1-8.1,21.7-9.2,30.9-2.6c4.3,3.1,10.3,2.5,14-1.2
	l48.7-48.7l13.1,0.6L2,211.3c-0.4,5.9,5.4,12,13.2,10.9l12.7-2.7L-24.2,271.8z"/>
<path class="st2" d="M28,219.6l-12.7,2.7c-7.8,1.2-13.6-5-13.2-10.9l0.5-22.7l-13.1-0.6l-48.7,48.7c-3.8,3.8-9.6,4.3-14,1.2
	c-9.2-6.6-22.9-5.5-30.9,2.6c-9.4,9.4-9.4,24.6,0,34.1c5.9,5.9,14.6,8.3,22.6,6.3c7.2-1.6,14.9,4,13.1,13.1
	c-1.9,8.3,0.4,16.7,6.3,22.6c9.8,10,24.6,9.1,34.1,0c8.3-8.3,9.4-21.3,2.7-30.9c-3.1-4.3-2.5-10.3,1.2-14L28,219.6z"/>
<path class="st1" d="M246.1,8.7c-7.8-7.8-17.9-12.4-28.8-13.3c-0.8-10.7-5.4-20.9-13.3-28.8c-17.5-16.6-44.6-19.3-64.9,0
	C125.4-20,122,0.2,129.4,17.3l-97,97.1c-6.3,5.5-2.8,17.9,7.2,18.6l17.9,0.8l-0.5,22.7c-0.4,6.7,6.9,12.6,13.2,10.9l48.8-10.5
	c2.1-0.5,3.9-1.5,5.4-2.9l70.9-70.9c18.9,8.3,39.2,2.5,50.7-9.6C264,55.6,264,26.5,246.1,8.7z M230.7,58.1
	c-7.8,7.6-20.6,9.6-30.9,2.7c-4.3-3.1-10.3-2.5-14,1.2l-74.4,74.3l-32.2,7l0.5-19.5c0.1-5.9-4.5-10.8-10.3-11.1l-4-0.3l21.2-21.2
	l8.7,8.7c4.3,4.3,11.1,4.3,15.5,0c4.3-4.3,4.3-11.1,0-15.5l-8.7-8.7l10-10l17.7,17.7c4.3,4.3,11.1,4.3,15.5,0
	c4.3-4.3,4.3-11.1,0-15.4l-18-17.6l23.5-23.5c3.8-3.8,4.3-9.6,1.2-14c-6.8-9.6-5.7-22.6,2.6-30.9c9.6-9.1,24-9.8,34.1,0
	c5.9,5.9,8.3,14.4,6.3,22.6c-1.9,7.8,4.9,14.7,13.1,13.1c8.1-1.9,16.7,0.5,22.6,6.3C240.1,33.4,240.1,48.7,230.7,58.1z"/>
<path class="st3" d="M208.1,17.6c-8.2,1.6-15-5.3-13.1-13.1c1.9-8.3-0.4-16.7-6.3-22.6c-10-9.8-24.5-9.1-34.1,0
	c-8.3,8.3-9.4,21.3-2.7,30.9c3.1,4.3,2.5,10.3-1.2,14l-23.5,23.6l17.7,17.7c4.3,4.3,4.3,11.1,0,15.5c-4.3,4.3-11.1,4.3-15.5,0
	l-17.7-17.7l-10,10l8.7,8.7c4.3,4.3,4.3,11.1,0,15.5c-4.3,4.3-11.1,4.3-15.5,0l-8.7-8.7l-21.2,21.2l4,0.3
	c5.9,0.3,10.5,5.2,10.3,11.1L79,143.4l32.2-7L185.6,62c3.8-3.8,9.6-4.3,14-1.2c10.3,7,23.3,4.9,30.9-2.7c9.4-9.4,9.4-24.6,0-34.1
	C224.8,18.2,216.1,15.7,208.1,17.6z"/>
</svg>
